<?xml version="1.0" encoding="UTF-8" standalone="no"?><svg xmlns="http://www.w3.org/2000/svg" xmlns:xlink="http://www.w3.org/1999/xlink" contentScriptType="application/ecmascript" contentStyleType="text/css" height="774px" preserveAspectRatio="none" style="width:825px;height:774px;background:#FFFFFF;" version="1.1" viewBox="0 0 825 774" width="825px" zoomAndPan="magnify"><defs><filter height="300%" id="f1vkk9dmhilwuz" width="300%" x="-1" y="-1"><feGaussianBlur result="blurOut" stdDeviation="2.0"/><feColorMatrix in="blurOut" result="blurOut2" type="matrix" values="0 0 0 0 0 0 0 0 0 0 0 0 0 0 0 0 0 0 .4 0"/><feOffset dx="4.0" dy="4.0" in="blurOut2" result="blurOut3"/><feBlend in="SourceGraphic" in2="blurOut3" mode="normal"/></filter></defs><g><!--MD5=[572c23520d5174355e3fc609c779ba82]
class ContinentNClosenessPlaceUI--><rect codeLine="3" fill="#FEFECE" filter="url(#f1vkk9dmhilwuz)" height="48" id="ContinentNClosenessPlaceUI" style="stroke:#A80036;stroke-width:1.5;" width="198" x="213" y="7"/><ellipse cx="228" cy="23" fill="#ADD1B2" rx="11" ry="11" style="stroke:#A80036;stroke-width:1.0;"/><path d="M230,19.5 Q230.2031,19 230.4375,18.75 Q230.6719,18.5 230.9375,18.5 Q231.4063,18.5 231.7031,18.7813 Q232,19.0625 232,19.7188 L232,21.2813 Q232,21.9375 231.7188,22.2188 Q231.4375,22.5 231,22.5 Q230.6094,22.5 230.3594,22.3281 Q230.1094,22.1563 230,21.7031 Q229.9531,21.3906 229.7813,21.2188 Q229.4688,20.8906 228.9063,20.7031 Q228.3438,20.5 227.7813,20.5 Q227.0781,20.5 226.4844,20.7813 Q225.9063,21.0625 225.4531,21.6875 Q225,22.3125 225,23.1719 L225,24.0938 Q225,25.125 225.8438,25.8125 Q226.6875,26.5 228.1875,26.5 Q229.0781,26.5 229.7031,26.2969 Q230.0625,26.1875 230.4688,25.8281 Q230.7344,25.625 230.875,25.5625 Q231.0156,25.5 231.1875,25.5 Q231.5156,25.5 231.75,25.7656 Q232,26.0156 232,26.375 Q232,26.7188 231.6563,27.125 Q231.1563,27.7188 230.3594,28.0469 Q229.3125,28.5 228.0313,28.5 Q226.5313,28.5 225.3281,27.9063 Q224.3594,27.4375 223.6719,26.4219 Q223,25.4063 223,24.2031 L223,23.1094 Q223,21.8594 223.5938,20.7656 Q224.2031,19.6719 225.25,19.0938 Q226.3125,18.5 227.5,18.5 Q228.2188,18.5 228.8438,18.75 Q229.4688,19 230,19.5 Z " fill="#000000"/><text fill="#000000" font-family="sans-serif" font-size="12" lengthAdjust="spacing" textLength="166" x="242" y="27.9102">ContinentNClosenessPlaceUI</text><line style="stroke:#A80036;stroke-width:1.5;" x1="214" x2="410" y1="39" y2="39"/><line style="stroke:#A80036;stroke-width:1.5;" x1="214" x2="410" y1="47" y2="47"/><!--MD5=[946e0242e322b65e3bf19626a09ee7cb]
class ContinentNClosenessPlaceController--><rect codeLine="5" fill="#FEFECE" filter="url(#f1vkk9dmhilwuz)" height="61.8359" id="ContinentNClosenessPlaceController" style="stroke:#A80036;stroke-width:1.5;" width="563" x="30.5" y="116"/><ellipse cx="203.75" cy="132" fill="#ADD1B2" rx="11" ry="11" style="stroke:#A80036;stroke-width:1.0;"/><path d="M205.75,128.5 Q205.9531,128 206.1875,127.75 Q206.4219,127.5 206.6875,127.5 Q207.1563,127.5 207.4531,127.7813 Q207.75,128.0625 207.75,128.7188 L207.75,130.2813 Q207.75,130.9375 207.4688,131.2188 Q207.1875,131.5 206.75,131.5 Q206.3594,131.5 206.1094,131.3281 Q205.8594,131.1563 205.75,130.7031 Q205.7031,130.3906 205.5313,130.2188 Q205.2188,129.8906 204.6563,129.7031 Q204.0938,129.5 203.5313,129.5 Q202.8281,129.5 202.2344,129.7813 Q201.6563,130.0625 201.2031,130.6875 Q200.75,131.3125 200.75,132.1719 L200.75,133.0938 Q200.75,134.125 201.5938,134.8125 Q202.4375,135.5 203.9375,135.5 Q204.8281,135.5 205.4531,135.2969 Q205.8125,135.1875 206.2188,134.8281 Q206.4844,134.625 206.625,134.5625 Q206.7656,134.5 206.9375,134.5 Q207.2656,134.5 207.5,134.7656 Q207.75,135.0156 207.75,135.375 Q207.75,135.7188 207.4063,136.125 Q206.9063,136.7188 206.1094,137.0469 Q205.0625,137.5 203.7813,137.5 Q202.2813,137.5 201.0781,136.9063 Q200.1094,136.4375 199.4219,135.4219 Q198.75,134.4063 198.75,133.2031 L198.75,132.1094 Q198.75,130.8594 199.3438,129.7656 Q199.9531,128.6719 201,128.0938 Q202.0625,127.5 203.25,127.5 Q203.9688,127.5 204.5938,127.75 Q205.2188,128 205.75,128.5 Z " fill="#000000"/><text fill="#000000" font-family="sans-serif" font-size="12" lengthAdjust="spacing" textLength="208" x="224.25" y="136.9102">ContinentNClosenessPlaceController</text><line style="stroke:#A80036;stroke-width:1.5;" x1="31.5" x2="592.5" y1="148" y2="148"/><line style="stroke:#A80036;stroke-width:1.5;" x1="31.5" x2="592.5" y1="156" y2="156"/><ellipse cx="41.5" cy="167" fill="#84BE84" rx="3" ry="3" style="stroke:#038048;stroke-width:1.0;"/><text fill="#000000" font-family="sans-serif" font-size="11" lengthAdjust="spacing" textLength="537" x="50.5" y="171.4189">Map&lt;Integer,Pair&lt;Pair&lt;VertexLocation,VertexLocation&gt;,Double&gt;&gt; getNClosenessPlaceByContinent(Continent,n)</text><!--MD5=[a0bfe97ac0a38e6e74cc1c7c7b744b71]
class Port--><rect codeLine="10" fill="#FEFECE" filter="url(#f1vkk9dmhilwuz)" height="131.0156" id="Port" style="stroke:#A80036;stroke-width:1.5;" width="101" x="387.5" y="616"/><ellipse cx="423.65" cy="632" fill="#ADD1B2" rx="11" ry="11" style="stroke:#A80036;stroke-width:1.0;"/><path d="M425.65,628.5 Q425.8531,628 426.0875,627.75 Q426.3219,627.5 426.5875,627.5 Q427.0563,627.5 427.3531,627.7813 Q427.65,628.0625 427.65,628.7188 L427.65,630.2813 Q427.65,630.9375 427.3688,631.2188 Q427.0875,631.5 426.65,631.5 Q426.2594,631.5 426.0094,631.3281 Q425.7594,631.1563 425.65,630.7031 Q425.6031,630.3906 425.4313,630.2188 Q425.1188,629.8906 424.5563,629.7031 Q423.9938,629.5 423.4313,629.5 Q422.7281,629.5 422.1344,629.7813 Q421.5563,630.0625 421.1031,630.6875 Q420.65,631.3125 420.65,632.1719 L420.65,633.0938 Q420.65,634.125 421.4938,634.8125 Q422.3375,635.5 423.8375,635.5 Q424.7281,635.5 425.3531,635.2969 Q425.7125,635.1875 426.1188,634.8281 Q426.3844,634.625 426.525,634.5625 Q426.6656,634.5 426.8375,634.5 Q427.1656,634.5 427.4,634.7656 Q427.65,635.0156 427.65,635.375 Q427.65,635.7188 427.3063,636.125 Q426.8063,636.7188 426.0094,637.0469 Q424.9625,637.5 423.6813,637.5 Q422.1813,637.5 420.9781,636.9063 Q420.0094,636.4375 419.3219,635.4219 Q418.65,634.4063 418.65,633.2031 L418.65,632.1094 Q418.65,630.8594 419.2438,629.7656 Q419.8531,628.6719 420.9,628.0938 Q421.9625,627.5 423.15,627.5 Q423.8688,627.5 424.4938,627.75 Q425.1188,628 425.65,628.5 Z " fill="#000000"/><text fill="#000000" font-family="sans-serif" font-size="12" lengthAdjust="spacing" textLength="22" x="442.35" y="636.9102">Port</text><line style="stroke:#A80036;stroke-width:1.5;" x1="388.5" x2="487.5" y1="648" y2="648"/><rect fill="none" height="6" style="stroke:#C82930;stroke-width:1.0;" width="6" x="395.5" y="656"/><text fill="#000000" font-family="sans-serif" font-size="11" lengthAdjust="spacing" textLength="75" x="407.5" y="663.4189">String continent</text><rect fill="none" height="6" style="stroke:#C82930;stroke-width:1.0;" width="6" x="395.5" y="669.8359"/><text fill="#000000" font-family="sans-serif" font-size="11" lengthAdjust="spacing" textLength="68" x="407.5" y="677.2549">String country</text><rect fill="none" height="6" style="stroke:#C82930;stroke-width:1.0;" width="6" x="395.5" y="683.6719"/><text fill="#000000" font-family="sans-serif" font-size="11" lengthAdjust="spacing" textLength="60" x="407.5" y="691.0908">Integer code</text><rect fill="none" height="6" style="stroke:#C82930;stroke-width:1.0;" width="6" x="395.5" y="697.5078"/><text fill="#000000" font-family="sans-serif" font-size="11" lengthAdjust="spacing" textLength="50" x="407.5" y="704.9268">String port</text><rect fill="none" height="6" style="stroke:#C82930;stroke-width:1.0;" width="6" x="395.5" y="711.3438"/><text fill="#000000" font-family="sans-serif" font-size="11" lengthAdjust="spacing" textLength="47" x="407.5" y="718.7627">Double lat</text><rect fill="none" height="6" style="stroke:#C82930;stroke-width:1.0;" width="6" x="395.5" y="725.1797"/><text fill="#000000" font-family="sans-serif" font-size="11" lengthAdjust="spacing" textLength="50" x="407.5" y="732.5986">Double lon</text><line style="stroke:#A80036;stroke-width:1.5;" x1="388.5" x2="487.5" y1="739.0156" y2="739.0156"/><!--MD5=[9466097c40aeafc62ec36a0cc4f3c955]
class City--><rect codeLine="19" fill="#FEFECE" filter="url(#f1vkk9dmhilwuz)" height="158.6875" id="City" style="stroke:#A80036;stroke-width:1.5;" width="120" x="524" y="602"/><ellipse cx="569.75" cy="618" fill="#ADD1B2" rx="11" ry="11" style="stroke:#A80036;stroke-width:1.0;"/><path d="M571.75,614.5 Q571.9531,614 572.1875,613.75 Q572.4219,613.5 572.6875,613.5 Q573.1563,613.5 573.4531,613.7813 Q573.75,614.0625 573.75,614.7188 L573.75,616.2813 Q573.75,616.9375 573.4688,617.2188 Q573.1875,617.5 572.75,617.5 Q572.3594,617.5 572.1094,617.3281 Q571.8594,617.1563 571.75,616.7031 Q571.7031,616.3906 571.5313,616.2188 Q571.2188,615.8906 570.6563,615.7031 Q570.0938,615.5 569.5313,615.5 Q568.8281,615.5 568.2344,615.7813 Q567.6563,616.0625 567.2031,616.6875 Q566.75,617.3125 566.75,618.1719 L566.75,619.0938 Q566.75,620.125 567.5938,620.8125 Q568.4375,621.5 569.9375,621.5 Q570.8281,621.5 571.4531,621.2969 Q571.8125,621.1875 572.2188,620.8281 Q572.4844,620.625 572.625,620.5625 Q572.7656,620.5 572.9375,620.5 Q573.2656,620.5 573.5,620.7656 Q573.75,621.0156 573.75,621.375 Q573.75,621.7188 573.4063,622.125 Q572.9063,622.7188 572.1094,623.0469 Q571.0625,623.5 569.7813,623.5 Q568.2813,623.5 567.0781,622.9063 Q566.1094,622.4375 565.4219,621.4219 Q564.75,620.4063 564.75,619.2031 L564.75,618.1094 Q564.75,616.8594 565.3438,615.7656 Q565.9531,614.6719 567,614.0938 Q568.0625,613.5 569.25,613.5 Q569.9688,613.5 570.5938,613.75 Q571.2188,614 571.75,614.5 Z " fill="#000000"/><text fill="#000000" font-family="sans-serif" font-size="12" lengthAdjust="spacing" textLength="20" x="590.25" y="622.9102">City</text><line style="stroke:#A80036;stroke-width:1.5;" x1="525" x2="643" y1="634" y2="634"/><rect fill="none" height="6" style="stroke:#C82930;stroke-width:1.0;" width="6" x="532" y="642"/><text fill="#000000" font-family="sans-serif" font-size="11" lengthAdjust="spacing" textLength="75" x="544" y="649.4189">String continent</text><rect fill="none" height="6" style="stroke:#C82930;stroke-width:1.0;" width="6" x="532" y="655.8359"/><text fill="#000000" font-family="sans-serif" font-size="11" lengthAdjust="spacing" textLength="94" x="544" y="663.2549">String Alpha2-Code</text><rect fill="none" height="6" style="stroke:#C82930;stroke-width:1.0;" width="6" x="532" y="669.6719"/><text fill="#000000" font-family="sans-serif" font-size="11" lengthAdjust="spacing" textLength="94" x="544" y="677.0908">String Alpha3-Code</text><rect fill="none" height="6" style="stroke:#C82930;stroke-width:1.0;" width="6" x="532" y="683.5078"/><text fill="#000000" font-family="sans-serif" font-size="11" lengthAdjust="spacing" textLength="57" x="544" y="690.9268">String name</text><rect fill="none" height="6" style="stroke:#C82930;stroke-width:1.0;" width="6" x="532" y="697.3438"/><text fill="#000000" font-family="sans-serif" font-size="11" lengthAdjust="spacing" textLength="84" x="544" y="704.7627">double population</text><rect fill="none" height="6" style="stroke:#C82930;stroke-width:1.0;" width="6" x="532" y="711.1797"/><text fill="#000000" font-family="sans-serif" font-size="11" lengthAdjust="spacing" textLength="62" x="544" y="718.5986">String capital</text><rect fill="none" height="6" style="stroke:#C82930;stroke-width:1.0;" width="6" x="532" y="725.0156"/><text fill="#000000" font-family="sans-serif" font-size="11" lengthAdjust="spacing" textLength="69" x="544" y="732.4346">double latitude</text><rect fill="none" height="6" style="stroke:#C82930;stroke-width:1.0;" width="6" x="532" y="738.8516"/><text fill="#000000" font-family="sans-serif" font-size="11" lengthAdjust="spacing" textLength="78" x="544" y="746.2705">double longitude</text><line style="stroke:#A80036;stroke-width:1.5;" x1="525" x2="643" y1="752.6875" y2="752.6875"/><!--MD5=[074ba6ad47b234bd73d65012320c1634]
class FreightNetwork--><rect codeLine="30" fill="#FEFECE" filter="url(#f1vkk9dmhilwuz)" height="75.6719" id="FreightNetwork" style="stroke:#A80036;stroke-width:1.5;" width="610" x="7" y="239"/><ellipse cx="266.25" cy="255" fill="#ADD1B2" rx="11" ry="11" style="stroke:#A80036;stroke-width:1.0;"/><path d="M268.25,251.5 Q268.4531,251 268.6875,250.75 Q268.9219,250.5 269.1875,250.5 Q269.6563,250.5 269.9531,250.7813 Q270.25,251.0625 270.25,251.7188 L270.25,253.2813 Q270.25,253.9375 269.9688,254.2188 Q269.6875,254.5 269.25,254.5 Q268.8594,254.5 268.6094,254.3281 Q268.3594,254.1563 268.25,253.7031 Q268.2031,253.3906 268.0313,253.2188 Q267.7188,252.8906 267.1563,252.7031 Q266.5938,252.5 266.0313,252.5 Q265.3281,252.5 264.7344,252.7813 Q264.1563,253.0625 263.7031,253.6875 Q263.25,254.3125 263.25,255.1719 L263.25,256.0938 Q263.25,257.125 264.0938,257.8125 Q264.9375,258.5 266.4375,258.5 Q267.3281,258.5 267.9531,258.2969 Q268.3125,258.1875 268.7188,257.8281 Q268.9844,257.625 269.125,257.5625 Q269.2656,257.5 269.4375,257.5 Q269.7656,257.5 270,257.7656 Q270.25,258.0156 270.25,258.375 Q270.25,258.7188 269.9063,259.125 Q269.4063,259.7188 268.6094,260.0469 Q267.5625,260.5 266.2813,260.5 Q264.7813,260.5 263.5781,259.9063 Q262.6094,259.4375 261.9219,258.4219 Q261.25,257.4063 261.25,256.2031 L261.25,255.1094 Q261.25,253.8594 261.8438,252.7656 Q262.4531,251.6719 263.5,251.0938 Q264.5625,250.5 265.75,250.5 Q266.4688,250.5 267.0938,250.75 Q267.7188,251 268.25,251.5 Z " fill="#000000"/><text fill="#000000" font-family="sans-serif" font-size="12" lengthAdjust="spacing" textLength="83" x="286.75" y="259.9102">FreightNetwork</text><line style="stroke:#A80036;stroke-width:1.5;" x1="8" x2="616" y1="271" y2="271"/><rect fill="none" height="6" style="stroke:#C82930;stroke-width:1.0;" width="6" x="15" y="279"/><text fill="#000000" font-family="sans-serif" font-size="11" lengthAdjust="spacing" textLength="317" x="27" y="286.4189">AdjacencyMatrixGraph&lt;VertexLocation, Double&gt; freightNetwork2</text><line style="stroke:#A80036;stroke-width:1.5;" x1="8" x2="616" y1="292.8359" y2="292.8359"/><ellipse cx="18" cy="303.8359" fill="#84BE84" rx="3" ry="3" style="stroke:#038048;stroke-width:1.0;"/><text fill="#000000" font-family="sans-serif" font-size="11" lengthAdjust="spacing" textLength="584" x="27" y="308.2549">Map&lt;Integer,Pair&lt;Pair&lt;VertexLocation,VertexLocation&gt;,Double&gt;&gt; getNClosenessPlaceByContinent(String continent, int n)</text><!--MD5=[ddaf6f62b0bc30921877ec9fb9463c9f]
class TrafficManager--><rect codeLine="35" fill="#FEFECE" filter="url(#f1vkk9dmhilwuz)" height="75.6719" id="TrafficManager" style="stroke:#A80036;stroke-width:1.5;" width="113" x="652.5" y="239"/><ellipse cx="667.5" cy="255" fill="#ADD1B2" rx="11" ry="11" style="stroke:#A80036;stroke-width:1.0;"/><path d="M669.5,251.5 Q669.7031,251 669.9375,250.75 Q670.1719,250.5 670.4375,250.5 Q670.9063,250.5 671.2031,250.7813 Q671.5,251.0625 671.5,251.7188 L671.5,253.2813 Q671.5,253.9375 671.2188,254.2188 Q670.9375,254.5 670.5,254.5 Q670.1094,254.5 669.8594,254.3281 Q669.6094,254.1563 669.5,253.7031 Q669.4531,253.3906 669.2813,253.2188 Q668.9688,252.8906 668.4063,252.7031 Q667.8438,252.5 667.2813,252.5 Q666.5781,252.5 665.9844,252.7813 Q665.4063,253.0625 664.9531,253.6875 Q664.5,254.3125 664.5,255.1719 L664.5,256.0938 Q664.5,257.125 665.3438,257.8125 Q666.1875,258.5 667.6875,258.5 Q668.5781,258.5 669.2031,258.2969 Q669.5625,258.1875 669.9688,257.8281 Q670.2344,257.625 670.375,257.5625 Q670.5156,257.5 670.6875,257.5 Q671.0156,257.5 671.25,257.7656 Q671.5,258.0156 671.5,258.375 Q671.5,258.7188 671.1563,259.125 Q670.6563,259.7188 669.8594,260.0469 Q668.8125,260.5 667.5313,260.5 Q666.0313,260.5 664.8281,259.9063 Q663.8594,259.4375 663.1719,258.4219 Q662.5,257.4063 662.5,256.2031 L662.5,255.1094 Q662.5,253.8594 663.0938,252.7656 Q663.7031,251.6719 664.75,251.0938 Q665.8125,250.5 667,250.5 Q667.7188,250.5 668.3438,250.75 Q668.9688,251 669.5,251.5 Z " fill="#000000"/><text fill="#000000" font-family="sans-serif" font-size="12" lengthAdjust="spacing" textLength="81" x="681.5" y="259.9102">TrafficManager</text><line style="stroke:#A80036;stroke-width:1.5;" x1="653.5" x2="764.5" y1="271" y2="271"/><rect fill="none" height="6" style="stroke:#C82930;stroke-width:1.0;" width="6" x="660.5" y="279"/><text fill="#000000" font-family="sans-serif" font-size="11" lengthAdjust="spacing" textLength="57" x="672.5" y="286.4189">String name</text><rect fill="none" height="6" style="stroke:#C82930;stroke-width:1.0;" width="6" x="660.5" y="292.8359"/><text fill="#000000" font-family="sans-serif" font-size="11" lengthAdjust="spacing" textLength="55" x="672.5" y="300.2549">String email</text><line style="stroke:#A80036;stroke-width:1.5;" x1="653.5" x2="764.5" y1="306.6719" y2="306.6719"/><!--MD5=[84f5ada19ffcd6d827cbcfc47628b537]
class VertexLocation--><rect codeLine="40" fill="#FEFECE" filter="url(#f1vkk9dmhilwuz)" height="131.0156" id="VertexLocation" style="stroke:#A80036;stroke-width:1.5;" width="121" x="450.5" y="393"/><ellipse cx="469.55" cy="409" fill="#ADD1B2" rx="11" ry="11" style="stroke:#A80036;stroke-width:1.0;"/><path d="M471.55,405.5 Q471.7531,405 471.9875,404.75 Q472.2219,404.5 472.4875,404.5 Q472.9563,404.5 473.2531,404.7813 Q473.55,405.0625 473.55,405.7188 L473.55,407.2813 Q473.55,407.9375 473.2688,408.2188 Q472.9875,408.5 472.55,408.5 Q472.1594,408.5 471.9094,408.3281 Q471.6594,408.1563 471.55,407.7031 Q471.5031,407.3906 471.3313,407.2188 Q471.0188,406.8906 470.4563,406.7031 Q469.8938,406.5 469.3313,406.5 Q468.6281,406.5 468.0344,406.7813 Q467.4563,407.0625 467.0031,407.6875 Q466.55,408.3125 466.55,409.1719 L466.55,410.0938 Q466.55,411.125 467.3938,411.8125 Q468.2375,412.5 469.7375,412.5 Q470.6281,412.5 471.2531,412.2969 Q471.6125,412.1875 472.0188,411.8281 Q472.2844,411.625 472.425,411.5625 Q472.5656,411.5 472.7375,411.5 Q473.0656,411.5 473.3,411.7656 Q473.55,412.0156 473.55,412.375 Q473.55,412.7188 473.2063,413.125 Q472.7063,413.7188 471.9094,414.0469 Q470.8625,414.5 469.5813,414.5 Q468.0813,414.5 466.8781,413.9063 Q465.9094,413.4375 465.2219,412.4219 Q464.55,411.4063 464.55,410.2031 L464.55,409.1094 Q464.55,407.8594 465.1438,406.7656 Q465.7531,405.6719 466.8,405.0938 Q467.8625,404.5 469.05,404.5 Q469.7688,404.5 470.3938,404.75 Q471.0188,405 471.55,405.5 Z " fill="#000000"/><text fill="#000000" font-family="sans-serif" font-size="12" lengthAdjust="spacing" textLength="80" x="484.45" y="413.9102">VertexLocation</text><line style="stroke:#A80036;stroke-width:1.5;" x1="451.5" x2="570.5" y1="425" y2="425"/><rect fill="none" height="6" style="stroke:#C82930;stroke-width:1.0;" width="6" x="458.5" y="433"/><text fill="#000000" font-family="sans-serif" font-size="11" lengthAdjust="spacing" textLength="77" x="470.5" y="440.4189">String locationID</text><rect fill="none" height="6" style="stroke:#C82930;stroke-width:1.0;" width="6" x="458.5" y="446.8359"/><text fill="#000000" font-family="sans-serif" font-size="11" lengthAdjust="spacing" textLength="95" x="470.5" y="454.2549">String locationName</text><rect fill="none" height="6" style="stroke:#C82930;stroke-width:1.0;" width="6" x="458.5" y="460.6719"/><text fill="#000000" font-family="sans-serif" font-size="11" lengthAdjust="spacing" textLength="75" x="470.5" y="468.0908">String continent</text><rect fill="none" height="6" style="stroke:#C82930;stroke-width:1.0;" width="6" x="458.5" y="474.5078"/><text fill="#000000" font-family="sans-serif" font-size="11" lengthAdjust="spacing" textLength="95" x="470.5" y="481.9268">String countryName</text><rect fill="none" height="6" style="stroke:#C82930;stroke-width:1.0;" width="6" x="458.5" y="488.3438"/><text fill="#000000" font-family="sans-serif" font-size="11" lengthAdjust="spacing" textLength="70" x="470.5" y="495.7627">Double latitude</text><rect fill="none" height="6" style="stroke:#C82930;stroke-width:1.0;" width="6" x="458.5" y="502.1797"/><text fill="#000000" font-family="sans-serif" font-size="11" lengthAdjust="spacing" textLength="79" x="470.5" y="509.5986">Double longitude</text><line style="stroke:#A80036;stroke-width:1.5;" x1="451.5" x2="570.5" y1="516.0156" y2="516.0156"/><!--MD5=[54d8324053698b9f9cfa8224103e4efd]
link ContinentNClosenessPlaceUI to ContinentNClosenessPlaceController--><path codeLine="49" d="M312,55.07 C312,71.01 312,92.51 312,110.6 " fill="none" id="ContinentNClosenessPlaceUI-to-ContinentNClosenessPlaceController" style="stroke:#A80036;stroke-width:1.0;stroke-dasharray:7.0,7.0;"/><polygon fill="#A80036" points="312,115.61,316,106.61,312,110.61,308,106.61,312,115.61" style="stroke:#A80036;stroke-width:1.0;"/><!--MD5=[74a365b66dd2349419827076f27198b2]
link ContinentNClosenessPlaceController to FreightNetwork--><path codeLine="51" d="M312,178.01 C312,194.63 312,215.55 312,233.79 " fill="none" id="ContinentNClosenessPlaceController-to-FreightNetwork" style="stroke:#A80036;stroke-width:1.0;stroke-dasharray:7.0,7.0;"/><polygon fill="#A80036" points="312,238.85,316,229.85,312,233.85,308,229.85,312,238.85" style="stroke:#A80036;stroke-width:1.0;"/><!--MD5=[40ff9e226d93960748605a4b23c3f985]
link FreightNetwork to VertexLocation--><path codeLine="53" d="M353.23,315.19 C380.04,339.37 415.55,371.4 446.09,398.95 " fill="none" id="FreightNetwork-to-VertexLocation" style="stroke:#A80036;stroke-width:1.0;"/><polygon fill="#A80036" points="450.17,402.63,446.1735,393.6285,446.4599,399.2781,440.8104,399.5646,450.17,402.63" style="stroke:#A80036;stroke-width:1.0;"/><!--MD5=[3c5324a9cb47003caba708bffad8be57]
link VertexLocation to Port--><path codeLine="55" d="M459.16,524.08 C453.5,533.68 448.53,543.79 445,554 C438.86,571.77 436.05,591.77 435.01,610.54 " fill="none" id="VertexLocation-to-Port" style="stroke:#A80036;stroke-width:1.0;"/><polygon fill="#A80036" points="434.77,615.8,439.1768,606.9921,434.9983,610.8052,431.1852,606.6267,434.77,615.8" style="stroke:#A80036;stroke-width:1.0;"/><polygon fill="#000000" points="448.6549,567.9915,453.9188,560.0705,448.2576,558.4892,448.6549,567.9915" style="stroke:#000000;stroke-width:1.0;"/><text fill="#000000" font-family="sans-serif" font-size="13" lengthAdjust="spacing" textLength="81" x="459" y="568.4951">has info about</text><!--MD5=[1672e6536aa4d23c386ebc6916f324c6]
link VertexLocation to City--><path codeLine="56" d="M534.72,524.18 C538.24,534.14 541.77,544.32 545,554 C549.61,567.81 554.33,582.53 558.81,596.86 " fill="none" id="VertexLocation-to-City" style="stroke:#A80036;stroke-width:1.0;"/><polygon fill="#A80036" points="560.33,601.71,561.4735,591.9277,558.8435,596.9361,553.8352,594.3061,560.33,601.71" style="stroke:#A80036;stroke-width:1.0;"/><polygon fill="#000000" points="557.5731,567.9219,557.517,558.4115,551.9377,560.2608,557.5731,567.9219" style="stroke:#000000;stroke-width:1.0;"/><text fill="#000000" font-family="sans-serif" font-size="13" lengthAdjust="spacing" textLength="81" x="565" y="568.4951">has info about</text><!--MD5=[394737a38e79ac14162584accbbc91c9]
link TrafficManager to VertexLocation--><path codeLine="58" d="M667.97,315.19 C641.31,339.37 605.97,371.4 575.58,398.95 " fill="none" id="TrafficManager-to-VertexLocation" style="stroke:#A80036;stroke-width:1.0;"/><polygon fill="#A80036" points="571.52,402.63,580.8731,399.5447,575.2229,399.2702,575.4974,393.62,571.52,402.63" style="stroke:#A80036;stroke-width:1.0;"/><polygon fill="#000000" points="635.2957,357.5341,643.9708,353.6362,640.0229,349.2815,635.2957,357.5341" style="stroke:#000000;stroke-width:1.0;"/><text fill="#000000" font-family="sans-serif" font-size="13" lengthAdjust="spacing" textLength="169" x="648" y="359.4951">wants to find the n closeness</text><!--MD5=[25a2ab03309c3d2f2d9cc21cb7574acd]
@startuml
'https://plantuml.com/class-diagram

class ContinentNClosenessPlaceUI{
}
class ContinentNClosenessPlaceController{
    +Map<Integer,Pair<Pair<VertexLocation,VertexLocation>,Double>> getNClosenessPlaceByContinent(Continent,n)
}


class Port{
    -String continent
    -String country
    -Integer code
    -String port
    -Double lat
    -Double lon
}

class City{
    -String continent
    -String Alpha2-Code
    -String Alpha3-Code
    -String name
    -double population
    -String capital
    -double latitude
    -double longitude
}

class FreightNetwork{
    -AdjacencyMatrixGraph<VertexLocation, Double> freightNetwork2
    +Map<Integer,Pair<Pair<VertexLocation,VertexLocation>,Double>> getNClosenessPlaceByContinent(String continent, int n)
}

class TrafficManager{
    -String name
    -String email
}

class VertexLocation{
    -String locationID
    -String locationName
    -String continent
    -String countryName
    -Double latitude
    -Double longitude
}

ContinentNClosenessPlaceUI ..> ContinentNClosenessPlaceController

ContinentNClosenessPlaceController ..> FreightNetwork

FreightNetwork - -> VertexLocation

VertexLocation - -> Port : has info about >
VertexLocation - -> City : has info about >

TrafficManager - -> VertexLocation : wants to find the n closeness >


@enduml

@startuml

class ContinentNClosenessPlaceUI{
}
class ContinentNClosenessPlaceController{
    +Map<Integer,Pair<Pair<VertexLocation,VertexLocation>,Double>> getNClosenessPlaceByContinent(Continent,n)
}


class Port{
    -String continent
    -String country
    -Integer code
    -String port
    -Double lat
    -Double lon
}

class City{
    -String continent
    -String Alpha2-Code
    -String Alpha3-Code
    -String name
    -double population
    -String capital
    -double latitude
    -double longitude
}

class FreightNetwork{
    -AdjacencyMatrixGraph<VertexLocation, Double> freightNetwork2
    +Map<Integer,Pair<Pair<VertexLocation,VertexLocation>,Double>> getNClosenessPlaceByContinent(String continent, int n)
}

class TrafficManager{
    -String name
    -String email
}

class VertexLocation{
    -String locationID
    -String locationName
    -String continent
    -String countryName
    -Double latitude
    -Double longitude
}

ContinentNClosenessPlaceUI ..> ContinentNClosenessPlaceController

ContinentNClosenessPlaceController ..> FreightNetwork

FreightNetwork - -> VertexLocation

VertexLocation - -> Port : has info about >
VertexLocation - -> City : has info about >

TrafficManager - -> VertexLocation : wants to find the n closeness >


@enduml

PlantUML version 1.2021.11(Sat Oct 02 14:26:11 BST 2021)
(GPL source distribution)
Java Runtime: OpenJDK Runtime Environment
JVM: OpenJDK 64-Bit Server VM
Default Encoding: Cp1252
Language: pt
Country: PT
--></g></svg>