<?xml version="1.0" encoding="UTF-8" standalone="no"?><svg xmlns="http://www.w3.org/2000/svg" xmlns:xlink="http://www.w3.org/1999/xlink" contentScriptType="application/ecmascript" contentStyleType="text/css" height="318px" preserveAspectRatio="none" style="width:329px;height:318px;background:#FFFFFF;" version="1.1" viewBox="0 0 329 318" width="329px" zoomAndPan="magnify"><defs><filter height="300%" id="f17p6b5ueo1c2k" width="300%" x="-1" y="-1"><feGaussianBlur result="blurOut" stdDeviation="2.0"/><feColorMatrix in="blurOut" result="blurOut2" type="matrix" values="0 0 0 0 0 0 0 0 0 0 0 0 0 0 0 0 0 0 .4 0"/><feOffset dx="4.0" dy="4.0" in="blurOut2" result="blurOut3"/><feBlend in="SourceGraphic" in2="blurOut3" mode="normal"/></filter></defs><g><!--MD5=[8b944653c655024075d894af29a33c78]
entity SC--><ellipse cx="162" cy="14" fill="#FEFECE" filter="url(#f17p6b5ueo1c2k)" rx="8" ry="8" style="stroke:#A80036;stroke-width:1.5;"/><path d="M162,22 L162,49 M149,30 L175,30 M162,49 L149,64 M162,49 L175,64 " fill="none" filter="url(#f17p6b5ueo1c2k)" style="stroke:#A80036;stroke-width:1.5;"/><text fill="#000000" font-family="sans-serif" font-size="14" lengthAdjust="spacing" textLength="81" x="121.5" y="84.0332">Ship Captain</text><ellipse cx="161.9716" cy="273.0943" fill="#FEFECE" filter="url(#f17p6b5ueo1c2k)" rx="155.9716" ry="33.5943" style="stroke:#A80036;stroke-width:1.5;"/><text fill="#000000" font-family="sans-serif" font-size="14" lengthAdjust="spacing" textLength="281" x="21.4716" y="276.8228">Determine the center of mass of each vessel</text><ellipse cx="102.0887" cy="163.5177" fill="#FEFECE" filter="url(#f17p6b5ueo1c2k)" rx="68.0887" ry="16.0177" style="stroke:#A80036;stroke-width:1.5;"/><text fill="#000000" font-family="sans-serif" font-size="14" lengthAdjust="spacing" textLength="82" x="58.0887" y="168.0343">Start the app</text><!--MD5=[5e2b843174474edafaffa60381fe13af]
link SC to Start the app--><path d="M140.85,87.72 C131.12,106.44 120.04,127.78 112.21,142.85 " fill="none" id="SC-to-Start the app" style="stroke:#A80036;stroke-width:1.0;"/><polygon fill="#A80036" points="109.88,147.32,117.5779,141.1765,112.1845,142.8827,110.4783,137.4893,109.88,147.32" style="stroke:#A80036;stroke-width:1.0;"/><!--MD5=[1f58a08cc5dd49b85ffaa7505db96a07]
link SC to Use--><path d="M177.1,87.69 C185.02,113.8 192.27,148.5 188,179.5 C185.46,197.92 180.2,217.84 175.08,234.45 " fill="none" id="SC-to-Use" style="stroke:#A80036;stroke-width:1.0;"/><polygon fill="#A80036" points="173.49,239.5,179.9848,232.0961,174.9765,234.7261,172.3465,229.7177,173.49,239.5" style="stroke:#A80036;stroke-width:1.0;"/><!--MD5=[0608e5789242ddb8e2389dc9375ddd97]
link Start the app to Use--><path d="M110.34,179.45 C118.97,194.91 132.72,219.54 143.87,239.51 " fill="none" id="Start the app-Use" style="stroke:#A80036;stroke-width:1.0;stroke-dasharray:7.0,7.0;"/><!--MD5=[86ecd4b1347d0f2f23e63a205dd8050c]
@startuml
'https://plantuml.com/use-case-diagram

:Ship Captain: as SC
(Determine the center of mass of each vessel) as (Use)

SC -> (Start the app)

SC - - -> (Use)

(Start the app) ..  (Use)
@enduml

@startuml

:Ship Captain: as SC
(Determine the center of mass of each vessel) as (Use)

SC -> (Start the app)

SC - - -> (Use)

(Start the app) ..  (Use)
@enduml

PlantUML version 1.2021.11(Sat Oct 02 14:26:11 BST 2021)
(GPL source distribution)
Java Runtime: OpenJDK Runtime Environment
JVM: OpenJDK 64-Bit Server VM
Default Encoding: Cp1252
Language: pt
Country: PT
--></g></svg>