<?xml version="1.0" encoding="UTF-8" standalone="no"?><svg xmlns="http://www.w3.org/2000/svg" xmlns:xlink="http://www.w3.org/1999/xlink" contentScriptType="application/ecmascript" contentStyleType="text/css" height="968px" preserveAspectRatio="none" style="width:363px;height:968px;background:#FFFFFF;" version="1.1" viewBox="0 0 363 968" width="363px" zoomAndPan="magnify"><defs><filter height="300%" id="f10kd5bpm8rrpy" width="300%" x="-1" y="-1"><feGaussianBlur result="blurOut" stdDeviation="2.0"/><feColorMatrix in="blurOut" result="blurOut2" type="matrix" values="0 0 0 0 0 0 0 0 0 0 0 0 0 0 0 0 0 0 .4 0"/><feOffset dx="4.0" dy="4.0" in="blurOut2" result="blurOut3"/><feBlend in="SourceGraphic" in2="blurOut3" mode="normal"/></filter></defs><g><!--MD5=[e2fbffb0b7ce775e4b523c77e16d0783]
class ReturnPairsShipsUI--><rect codeLine="2" fill="#FEFECE" filter="url(#f10kd5bpm8rrpy)" height="48" id="ReturnPairsShipsUI" style="stroke:#A80036;stroke-width:1.5;" width="142" x="59.5" y="7"/><ellipse cx="74.5" cy="23" fill="#ADD1B2" rx="11" ry="11" style="stroke:#A80036;stroke-width:1.0;"/><path d="M76.5,19.5 Q76.7031,19 76.9375,18.75 Q77.1719,18.5 77.4375,18.5 Q77.9063,18.5 78.2031,18.7813 Q78.5,19.0625 78.5,19.7188 L78.5,21.2813 Q78.5,21.9375 78.2188,22.2188 Q77.9375,22.5 77.5,22.5 Q77.1094,22.5 76.8594,22.3281 Q76.6094,22.1563 76.5,21.7031 Q76.4531,21.3906 76.2813,21.2188 Q75.9688,20.8906 75.4063,20.7031 Q74.8438,20.5 74.2813,20.5 Q73.5781,20.5 72.9844,20.7813 Q72.4063,21.0625 71.9531,21.6875 Q71.5,22.3125 71.5,23.1719 L71.5,24.0938 Q71.5,25.125 72.3438,25.8125 Q73.1875,26.5 74.6875,26.5 Q75.5781,26.5 76.2031,26.2969 Q76.5625,26.1875 76.9688,25.8281 Q77.2344,25.625 77.375,25.5625 Q77.5156,25.5 77.6875,25.5 Q78.0156,25.5 78.25,25.7656 Q78.5,26.0156 78.5,26.375 Q78.5,26.7188 78.1563,27.125 Q77.6563,27.7188 76.8594,28.0469 Q75.8125,28.5 74.5313,28.5 Q73.0313,28.5 71.8281,27.9063 Q70.8594,27.4375 70.1719,26.4219 Q69.5,25.4063 69.5,24.2031 L69.5,23.1094 Q69.5,21.8594 70.0938,20.7656 Q70.7031,19.6719 71.75,19.0938 Q72.8125,18.5 74,18.5 Q74.7188,18.5 75.3438,18.75 Q75.9688,19 76.5,19.5 Z " fill="#000000"/><text fill="#000000" font-family="sans-serif" font-size="12" lengthAdjust="spacing" textLength="110" x="88.5" y="27.9102">ReturnPairsShipsUI</text><line style="stroke:#A80036;stroke-width:1.5;" x1="60.5" x2="200.5" y1="39" y2="39"/><line style="stroke:#A80036;stroke-width:1.5;" x1="60.5" x2="200.5" y1="47" y2="47"/><!--MD5=[9789f0c208aeed96705cc2a242e2d372]
class ReturnPairsShipsController--><rect codeLine="6" fill="#FEFECE" filter="url(#f10kd5bpm8rrpy)" height="75.6719" id="ReturnPairsShipsController" style="stroke:#A80036;stroke-width:1.5;" width="247" x="7" y="116"/><ellipse cx="50.35" cy="132" fill="#ADD1B2" rx="11" ry="11" style="stroke:#A80036;stroke-width:1.0;"/><path d="M52.35,128.5 Q52.5531,128 52.7875,127.75 Q53.0219,127.5 53.2875,127.5 Q53.7563,127.5 54.0531,127.7813 Q54.35,128.0625 54.35,128.7188 L54.35,130.2813 Q54.35,130.9375 54.0688,131.2188 Q53.7875,131.5 53.35,131.5 Q52.9594,131.5 52.7094,131.3281 Q52.4594,131.1563 52.35,130.7031 Q52.3031,130.3906 52.1313,130.2188 Q51.8188,129.8906 51.2563,129.7031 Q50.6938,129.5 50.1313,129.5 Q49.4281,129.5 48.8344,129.7813 Q48.2563,130.0625 47.8031,130.6875 Q47.35,131.3125 47.35,132.1719 L47.35,133.0938 Q47.35,134.125 48.1938,134.8125 Q49.0375,135.5 50.5375,135.5 Q51.4281,135.5 52.0531,135.2969 Q52.4125,135.1875 52.8188,134.8281 Q53.0844,134.625 53.225,134.5625 Q53.3656,134.5 53.5375,134.5 Q53.8656,134.5 54.1,134.7656 Q54.35,135.0156 54.35,135.375 Q54.35,135.7188 54.0063,136.125 Q53.5063,136.7188 52.7094,137.0469 Q51.6625,137.5 50.3813,137.5 Q48.8813,137.5 47.6781,136.9063 Q46.7094,136.4375 46.0219,135.4219 Q45.35,134.4063 45.35,133.2031 L45.35,132.1094 Q45.35,130.8594 45.9438,129.7656 Q46.5531,128.6719 47.6,128.0938 Q48.6625,127.5 49.85,127.5 Q50.5688,127.5 51.1938,127.75 Q51.8188,128 52.35,128.5 Z " fill="#000000"/><text fill="#000000" font-family="sans-serif" font-size="12" lengthAdjust="spacing" textLength="152" x="70.65" y="136.9102">ReturnPairsShipsController</text><line style="stroke:#A80036;stroke-width:1.5;" x1="8" x2="253" y1="148" y2="148"/><line style="stroke:#A80036;stroke-width:1.5;" x1="8" x2="253" y1="156" y2="156"/><ellipse cx="18" cy="167" fill="#84BE84" rx="3" ry="3" style="stroke:#038048;stroke-width:1.0;"/><text fill="#000000" font-family="sans-serif" font-size="11" lengthAdjust="spacing" textLength="115" x="27" y="171.4189">List&lt;Ship&gt; getAllShips()</text><ellipse cx="18" cy="180.8359" fill="#84BE84" rx="3" ry="3" style="stroke:#038048;stroke-width:1.0;"/><text fill="#000000" font-family="sans-serif" font-size="11" lengthAdjust="spacing" textLength="221" x="27" y="185.2549">List&lt;Pair&lt;Ship, Ship&gt;&gt; getAllPairsClosePorts()</text><!--MD5=[ea2206eefe09474e90beb17e18e6b3d8]
class ShipStore--><rect codeLine="11" fill="#FEFECE" filter="url(#f10kd5bpm8rrpy)" height="61.8359" id="ShipStore" style="stroke:#A80036;stroke-width:1.5;" width="141" x="60" y="260"/><ellipse cx="99.75" cy="276" fill="#ADD1B2" rx="11" ry="11" style="stroke:#A80036;stroke-width:1.0;"/><path d="M101.75,272.5 Q101.9531,272 102.1875,271.75 Q102.4219,271.5 102.6875,271.5 Q103.1563,271.5 103.4531,271.7813 Q103.75,272.0625 103.75,272.7188 L103.75,274.2813 Q103.75,274.9375 103.4688,275.2188 Q103.1875,275.5 102.75,275.5 Q102.3594,275.5 102.1094,275.3281 Q101.8594,275.1563 101.75,274.7031 Q101.7031,274.3906 101.5313,274.2188 Q101.2188,273.8906 100.6563,273.7031 Q100.0938,273.5 99.5313,273.5 Q98.8281,273.5 98.2344,273.7813 Q97.6563,274.0625 97.2031,274.6875 Q96.75,275.3125 96.75,276.1719 L96.75,277.0938 Q96.75,278.125 97.5938,278.8125 Q98.4375,279.5 99.9375,279.5 Q100.8281,279.5 101.4531,279.2969 Q101.8125,279.1875 102.2188,278.8281 Q102.4844,278.625 102.625,278.5625 Q102.7656,278.5 102.9375,278.5 Q103.2656,278.5 103.5,278.7656 Q103.75,279.0156 103.75,279.375 Q103.75,279.7188 103.4063,280.125 Q102.9063,280.7188 102.1094,281.0469 Q101.0625,281.5 99.7813,281.5 Q98.2813,281.5 97.0781,280.9063 Q96.1094,280.4375 95.4219,279.4219 Q94.75,278.4063 94.75,277.2031 L94.75,276.1094 Q94.75,274.8594 95.3438,273.7656 Q95.9531,272.6719 97,272.0938 Q98.0625,271.5 99.25,271.5 Q99.9688,271.5 100.5938,271.75 Q101.2188,272 101.75,272.5 Z " fill="#000000"/><text fill="#000000" font-family="sans-serif" font-size="12" lengthAdjust="spacing" textLength="54" x="119.25" y="280.9102">ShipStore</text><line style="stroke:#A80036;stroke-width:1.5;" x1="61" x2="200" y1="292" y2="292"/><line style="stroke:#A80036;stroke-width:1.5;" x1="61" x2="200" y1="300" y2="300"/><ellipse cx="71" cy="311" fill="#84BE84" rx="3" ry="3" style="stroke:#038048;stroke-width:1.0;"/><text fill="#000000" font-family="sans-serif" font-size="11" lengthAdjust="spacing" textLength="115" x="80" y="315.4189">List&lt;Ship&gt; getAllShips()</text><!--MD5=[ddaf6f62b0bc30921877ec9fb9463c9f]
class TrafficManager--><rect codeLine="15" fill="#FEFECE" filter="url(#f10kd5bpm8rrpy)" height="75.6719" id="TrafficManager" style="stroke:#A80036;stroke-width:1.5;" width="113" x="236" y="253"/><ellipse cx="251" cy="269" fill="#ADD1B2" rx="11" ry="11" style="stroke:#A80036;stroke-width:1.0;"/><path d="M253,265.5 Q253.2031,265 253.4375,264.75 Q253.6719,264.5 253.9375,264.5 Q254.4063,264.5 254.7031,264.7813 Q255,265.0625 255,265.7188 L255,267.2813 Q255,267.9375 254.7188,268.2188 Q254.4375,268.5 254,268.5 Q253.6094,268.5 253.3594,268.3281 Q253.1094,268.1563 253,267.7031 Q252.9531,267.3906 252.7813,267.2188 Q252.4688,266.8906 251.9063,266.7031 Q251.3438,266.5 250.7813,266.5 Q250.0781,266.5 249.4844,266.7813 Q248.9063,267.0625 248.4531,267.6875 Q248,268.3125 248,269.1719 L248,270.0938 Q248,271.125 248.8438,271.8125 Q249.6875,272.5 251.1875,272.5 Q252.0781,272.5 252.7031,272.2969 Q253.0625,272.1875 253.4688,271.8281 Q253.7344,271.625 253.875,271.5625 Q254.0156,271.5 254.1875,271.5 Q254.5156,271.5 254.75,271.7656 Q255,272.0156 255,272.375 Q255,272.7188 254.6563,273.125 Q254.1563,273.7188 253.3594,274.0469 Q252.3125,274.5 251.0313,274.5 Q249.5313,274.5 248.3281,273.9063 Q247.3594,273.4375 246.6719,272.4219 Q246,271.4063 246,270.2031 L246,269.1094 Q246,267.8594 246.5938,266.7656 Q247.2031,265.6719 248.25,265.0938 Q249.3125,264.5 250.5,264.5 Q251.2188,264.5 251.8438,264.75 Q252.4688,265 253,265.5 Z " fill="#000000"/><text fill="#000000" font-family="sans-serif" font-size="12" lengthAdjust="spacing" textLength="81" x="265" y="273.9102">TrafficManager</text><line style="stroke:#A80036;stroke-width:1.5;" x1="237" x2="348" y1="285" y2="285"/><rect fill="none" height="6" style="stroke:#C82930;stroke-width:1.0;" width="6" x="244" y="293"/><text fill="#000000" font-family="sans-serif" font-size="11" lengthAdjust="spacing" textLength="57" x="256" y="300.4189">String name</text><rect fill="none" height="6" style="stroke:#C82930;stroke-width:1.0;" width="6" x="244" y="306.8359"/><text fill="#000000" font-family="sans-serif" font-size="11" lengthAdjust="spacing" textLength="55" x="256" y="314.2549">String email</text><line style="stroke:#A80036;stroke-width:1.5;" x1="237" x2="348" y1="320.6719" y2="320.6719"/><!--MD5=[0dc7f2ddb409b58bcf52b12238c25399]
class Ship--><rect codeLine="20" fill="#FEFECE" filter="url(#f10kd5bpm8rrpy)" height="200.1953" id="Ship" style="stroke:#A80036;stroke-width:1.5;" width="158" x="132.5" y="407"/><ellipse cx="194.75" cy="423" fill="#ADD1B2" rx="11" ry="11" style="stroke:#A80036;stroke-width:1.0;"/><path d="M196.75,419.5 Q196.9531,419 197.1875,418.75 Q197.4219,418.5 197.6875,418.5 Q198.1563,418.5 198.4531,418.7813 Q198.75,419.0625 198.75,419.7188 L198.75,421.2813 Q198.75,421.9375 198.4688,422.2188 Q198.1875,422.5 197.75,422.5 Q197.3594,422.5 197.1094,422.3281 Q196.8594,422.1563 196.75,421.7031 Q196.7031,421.3906 196.5313,421.2188 Q196.2188,420.8906 195.6563,420.7031 Q195.0938,420.5 194.5313,420.5 Q193.8281,420.5 193.2344,420.7813 Q192.6563,421.0625 192.2031,421.6875 Q191.75,422.3125 191.75,423.1719 L191.75,424.0938 Q191.75,425.125 192.5938,425.8125 Q193.4375,426.5 194.9375,426.5 Q195.8281,426.5 196.4531,426.2969 Q196.8125,426.1875 197.2188,425.8281 Q197.4844,425.625 197.625,425.5625 Q197.7656,425.5 197.9375,425.5 Q198.2656,425.5 198.5,425.7656 Q198.75,426.0156 198.75,426.375 Q198.75,426.7188 198.4063,427.125 Q197.9063,427.7188 197.1094,428.0469 Q196.0625,428.5 194.7813,428.5 Q193.2813,428.5 192.0781,427.9063 Q191.1094,427.4375 190.4219,426.4219 Q189.75,425.4063 189.75,424.2031 L189.75,423.1094 Q189.75,421.8594 190.3438,420.7656 Q190.9531,419.6719 192,419.0938 Q193.0625,418.5 194.25,418.5 Q194.9688,418.5 195.5938,418.75 Q196.2188,419 196.75,419.5 Z " fill="#000000"/><text fill="#000000" font-family="sans-serif" font-size="12" lengthAdjust="spacing" textLength="25" x="215.25" y="427.9102">Ship</text><line style="stroke:#A80036;stroke-width:1.5;" x1="133.5" x2="289.5" y1="439" y2="439"/><rect fill="none" height="6" style="stroke:#C82930;stroke-width:1.0;" width="6" x="140.5" y="447"/><text fill="#000000" font-family="sans-serif" font-size="11" lengthAdjust="spacing" textLength="60" x="152.5" y="454.4189">Integer mmsi</text><rect fill="none" height="6" style="stroke:#C82930;stroke-width:1.0;" width="6" x="140.5" y="460.8359"/><text fill="#000000" font-family="sans-serif" font-size="11" lengthAdjust="spacing" textLength="90" x="152.5" y="468.2549">String vesselName</text><rect fill="none" height="6" style="stroke:#C82930;stroke-width:1.0;" width="6" x="140.5" y="474.6719"/><text fill="#000000" font-family="sans-serif" font-size="11" lengthAdjust="spacing" textLength="52" x="152.5" y="482.0908">Integer imo</text><rect fill="none" height="6" style="stroke:#C82930;stroke-width:1.0;" width="6" x="140.5" y="488.5078"/><text fill="#000000" font-family="sans-serif" font-size="11" lengthAdjust="spacing" textLength="73" x="152.5" y="495.9268">Integer callSign</text><rect fill="none" height="6" style="stroke:#C82930;stroke-width:1.0;" width="6" x="140.5" y="502.3438"/><text fill="#000000" font-family="sans-serif" font-size="11" lengthAdjust="spacing" textLength="126" x="152.5" y="509.7627">Integer generatorsNumber</text><rect fill="none" height="6" style="stroke:#C82930;stroke-width:1.0;" width="6" x="140.5" y="516.1797"/><text fill="#000000" font-family="sans-serif" font-size="11" lengthAdjust="spacing" textLength="132" x="152.5" y="523.5986">Double generatorPowerOut</text><rect fill="none" height="6" style="stroke:#C82930;stroke-width:1.0;" width="6" x="140.5" y="530.0156"/><text fill="#000000" font-family="sans-serif" font-size="11" lengthAdjust="spacing" textLength="82" x="152.5" y="537.4346">VesselType type</text><rect fill="none" height="6" style="stroke:#C82930;stroke-width:1.0;" width="6" x="140.5" y="543.8516"/><text fill="#000000" font-family="sans-serif" font-size="11" lengthAdjust="spacing" textLength="65" x="152.5" y="551.2705">Double length</text><rect fill="none" height="6" style="stroke:#C82930;stroke-width:1.0;" width="6" x="140.5" y="557.6875"/><text fill="#000000" font-family="sans-serif" font-size="11" lengthAdjust="spacing" textLength="63" x="152.5" y="565.1064">Double width</text><rect fill="none" height="6" style="stroke:#C82930;stroke-width:1.0;" width="6" x="140.5" y="571.5234"/><text fill="#000000" font-family="sans-serif" font-size="11" lengthAdjust="spacing" textLength="77" x="152.5" y="578.9424">Double capacity</text><rect fill="none" height="6" style="stroke:#C82930;stroke-width:1.0;" width="6" x="140.5" y="585.3594"/><text fill="#000000" font-family="sans-serif" font-size="11" lengthAdjust="spacing" textLength="59" x="152.5" y="592.7783">Double draft</text><line style="stroke:#A80036;stroke-width:1.5;" x1="133.5" x2="289.5" y1="599.1953" y2="599.1953"/><!--MD5=[1659f4066508979f3cd3e9133bca26e2]
class ShipDynamicData--><rect codeLine="45" fill="#FEFECE" filter="url(#f10kd5bpm8rrpy)" height="269.375" id="ShipDynamicData" style="stroke:#A80036;stroke-width:1.5;" width="139" x="66" y="685"/><ellipse cx="84.6" cy="701" fill="#ADD1B2" rx="11" ry="11" style="stroke:#A80036;stroke-width:1.0;"/><path d="M86.6,697.5 Q86.8031,697 87.0375,696.75 Q87.2719,696.5 87.5375,696.5 Q88.0063,696.5 88.3031,696.7813 Q88.6,697.0625 88.6,697.7188 L88.6,699.2813 Q88.6,699.9375 88.3188,700.2188 Q88.0375,700.5 87.6,700.5 Q87.2094,700.5 86.9594,700.3281 Q86.7094,700.1563 86.6,699.7031 Q86.5531,699.3906 86.3813,699.2188 Q86.0688,698.8906 85.5063,698.7031 Q84.9438,698.5 84.3813,698.5 Q83.6781,698.5 83.0844,698.7813 Q82.5063,699.0625 82.0531,699.6875 Q81.6,700.3125 81.6,701.1719 L81.6,702.0938 Q81.6,703.125 82.4438,703.8125 Q83.2875,704.5 84.7875,704.5 Q85.6781,704.5 86.3031,704.2969 Q86.6625,704.1875 87.0688,703.8281 Q87.3344,703.625 87.475,703.5625 Q87.6156,703.5 87.7875,703.5 Q88.1156,703.5 88.35,703.7656 Q88.6,704.0156 88.6,704.375 Q88.6,704.7188 88.2563,705.125 Q87.7563,705.7188 86.9594,706.0469 Q85.9125,706.5 84.6313,706.5 Q83.1313,706.5 81.9281,705.9063 Q80.9594,705.4375 80.2719,704.4219 Q79.6,703.4063 79.6,702.2031 L79.6,701.1094 Q79.6,699.8594 80.1938,698.7656 Q80.8031,697.6719 81.85,697.0938 Q82.9125,696.5 84.1,696.5 Q84.8188,696.5 85.4438,696.75 Q86.0688,697 86.6,697.5 Z " fill="#000000"/><text fill="#000000" font-family="sans-serif" font-size="12" lengthAdjust="spacing" textLength="99" x="99.4" y="705.9102">ShipDynamicData</text><line style="stroke:#A80036;stroke-width:1.5;" x1="67" x2="204" y1="717" y2="717"/><rect fill="none" height="6" style="stroke:#C82930;stroke-width:1.0;" width="6" x="74" y="725"/><text fill="#000000" font-family="sans-serif" font-size="11" lengthAdjust="spacing" textLength="68" x="86" y="732.4189">Date dateTime</text><rect fill="none" height="6" style="stroke:#C82930;stroke-width:1.0;" width="6" x="74" y="738.8359"/><text fill="#000000" font-family="sans-serif" font-size="11" lengthAdjust="spacing" textLength="47" x="86" y="746.2549">Double lat</text><rect fill="none" height="6" style="stroke:#C82930;stroke-width:1.0;" width="6" x="74" y="752.6719"/><text fill="#000000" font-family="sans-serif" font-size="11" lengthAdjust="spacing" textLength="50" x="86" y="760.0908">Double lon</text><rect fill="none" height="6" style="stroke:#C82930;stroke-width:1.0;" width="6" x="74" y="766.5078"/><text fill="#000000" font-family="sans-serif" font-size="11" lengthAdjust="spacing" textLength="54" x="86" y="773.9268">Double sog</text><rect fill="none" height="6" style="stroke:#C82930;stroke-width:1.0;" width="6" x="74" y="780.3438"/><text fill="#000000" font-family="sans-serif" font-size="11" lengthAdjust="spacing" textLength="54" x="86" y="787.7627">Double cog</text><rect fill="none" height="6" style="stroke:#C82930;stroke-width:1.0;" width="6" x="74" y="794.1797"/><text fill="#000000" font-family="sans-serif" font-size="11" lengthAdjust="spacing" textLength="74" x="86" y="801.5986">Integer heading</text><rect fill="none" height="6" style="stroke:#C82930;stroke-width:1.0;" width="6" x="74" y="808.0156"/><text fill="#000000" font-family="sans-serif" font-size="11" lengthAdjust="spacing" textLength="71" x="86" y="815.4346">Integer trailerId</text><rect fill="none" height="6" style="stroke:#C82930;stroke-width:1.0;" width="6" x="74" y="821.8516"/><text fill="#000000" font-family="sans-serif" font-size="11" lengthAdjust="spacing" textLength="86" x="86" y="829.2705">String transceiver</text><rect fill="none" height="6" style="stroke:#C82930;stroke-width:1.0;" width="6" x="74" y="835.6875"/><text fill="#000000" font-family="sans-serif" font-size="11" lengthAdjust="spacing" textLength="99" x="86" y="843.1064">String baseDateTime</text><rect fill="none" height="6" style="stroke:#C82930;stroke-width:1.0;" width="6" x="74" y="849.5234"/><text fill="#000000" font-family="sans-serif" font-size="11" lengthAdjust="spacing" textLength="47" x="86" y="856.9424">Double lat</text><rect fill="none" height="6" style="stroke:#C82930;stroke-width:1.0;" width="6" x="74" y="863.3594"/><text fill="#000000" font-family="sans-serif" font-size="11" lengthAdjust="spacing" textLength="50" x="86" y="870.7783">Double lon</text><rect fill="none" height="6" style="stroke:#C82930;stroke-width:1.0;" width="6" x="74" y="877.1953"/><text fill="#000000" font-family="sans-serif" font-size="11" lengthAdjust="spacing" textLength="54" x="86" y="884.6143">Double sog</text><rect fill="none" height="6" style="stroke:#C82930;stroke-width:1.0;" width="6" x="74" y="891.0313"/><text fill="#000000" font-family="sans-serif" font-size="11" lengthAdjust="spacing" textLength="54" x="86" y="898.4502">Double cog</text><rect fill="none" height="6" style="stroke:#C82930;stroke-width:1.0;" width="6" x="74" y="904.8672"/><text fill="#000000" font-family="sans-serif" font-size="11" lengthAdjust="spacing" textLength="74" x="86" y="912.2861">Double heading</text><rect fill="none" height="6" style="stroke:#C82930;stroke-width:1.0;" width="6" x="74" y="918.7031"/><text fill="#000000" font-family="sans-serif" font-size="11" lengthAdjust="spacing" textLength="71" x="86" y="926.1221">Integer trailerId</text><rect fill="none" height="6" style="stroke:#C82930;stroke-width:1.0;" width="6" x="74" y="932.5391"/><text fill="#000000" font-family="sans-serif" font-size="11" lengthAdjust="spacing" textLength="113" x="86" y="939.958">String transcieverClass</text><line style="stroke:#A80036;stroke-width:1.5;" x1="67" x2="204" y1="946.375" y2="946.375"/><!--MD5=[cf9c7d7c3da40397ddde4f51b7097da6]
class VesselType--><rect codeLine="56" fill="#FEFECE" filter="url(#f10kd5bpm8rrpy)" height="89.5078" id="VesselType" style="stroke:#A80036;stroke-width:1.5;" width="96" x="240.5" y="774.5"/><ellipse cx="255.5" cy="790.5" fill="#EB937F" rx="11" ry="11" style="stroke:#A80036;stroke-width:1.0;"/><path d="M254,791.5 L254,793.5 L258,793.5 L258,792.5 L258,792.0156 L258.625,791.5 L259,791.5 L259.375,791.5 L260,792.0156 L260,792.5 L260,795.5 L252,795.5 L251.5156,795.5 L251,794.875 L251,794.5 L251,794.125 L251.5156,793.5 L252,793.5 L252,793.5 L252,787.5 L252,787.5 L251.5156,787.5 L251,786.875 L251,786.5 L251,786.125 L251.5156,785.5 L252,785.5 L260,785.5 L260,788.5 L260,788.9844 L259.375,789.5 L259,789.5 L258.625,789.5 L258,788.9844 L258,788.5 L258,787.5 L254,787.5 L254,789.5 L255,789.5 L255,789.0156 L255,789.0156 L255.625,788.5 L256,788.5 L256.375,788.5 L257,789.0156 L257,789.5 L257,791.5 L257,791.9844 L256.375,792.5 L256.375,792.5 L256,792.5 L255.625,792.5 L255,791.9844 L255,791.9844 L255,791.5 L254,791.5 Z " fill="#000000"/><text fill="#000000" font-family="sans-serif" font-size="12" lengthAdjust="spacing" textLength="64" x="269.5" y="795.4102">VesselType</text><line style="stroke:#A80036;stroke-width:1.5;" x1="241.5" x2="335.5" y1="806.5" y2="806.5"/><text fill="#000000" font-family="sans-serif" font-size="11" lengthAdjust="spacing" textLength="52" x="246.5" y="821.9189">Passenger</text><text fill="#000000" font-family="sans-serif" font-size="11" lengthAdjust="spacing" textLength="34" x="246.5" y="835.7549">Fishing</text><text fill="#000000" font-family="sans-serif" font-size="11" lengthAdjust="spacing" textLength="39" x="246.5" y="849.5908">Tugboat</text><line style="stroke:#A80036;stroke-width:1.5;" x1="241.5" x2="335.5" y1="856.0078" y2="856.0078"/><!--MD5=[4cd9250c19a3cfc11e9eb388145bf311]
link ReturnPairsShipsUI to ReturnPairsShipsController--><path codeLine="63" d="M130.5,55.04 C130.5,70.71 130.5,91.91 130.5,110.58 " fill="none" id="ReturnPairsShipsUI-to-ReturnPairsShipsController" style="stroke:#A80036;stroke-width:1.0;stroke-dasharray:7.0,7.0;"/><polygon fill="#A80036" points="130.5,115.77,134.5,106.77,130.5,110.77,126.5,106.77,130.5,115.77" style="stroke:#A80036;stroke-width:1.0;"/><!--MD5=[148569b6453e383f4e07820cb7132922]
link ReturnPairsShipsController to ShipStore--><path codeLine="64" d="M130.5,192.25 C130.5,211.65 130.5,235.26 130.5,254.42 " fill="none" id="ReturnPairsShipsController-to-ShipStore" style="stroke:#A80036;stroke-width:1.0;stroke-dasharray:7.0,7.0;"/><polygon fill="#A80036" points="130.5,259.69,134.5,250.69,130.5,254.69,126.5,250.69,130.5,259.69" style="stroke:#A80036;stroke-width:1.0;"/><!--MD5=[f04e04ecc6998d67821b33eb17256457]
link ShipStore to Ship--><path codeLine="65" d="M141.93,322.21 C150.35,344.44 162.31,376.03 173.94,406.76 " fill="none" id="ShipStore-Ship" style="stroke:#A80036;stroke-width:1.0;"/><polygon fill="#000000" points="168.2703,372.8519,167.8163,363.3522,162.3192,365.4333,168.2703,372.8519" style="stroke:#000000;stroke-width:1.0;"/><text fill="#000000" font-family="sans-serif" font-size="13" lengthAdjust="spacing" textLength="21" x="175.5" y="373.4951">has</text><text fill="#000000" font-family="sans-serif" font-size="13" lengthAdjust="spacing" textLength="7" x="136.4417" y="343.2287">1</text><text fill="#000000" font-family="sans-serif" font-size="13" lengthAdjust="spacing" textLength="20" x="150.4473" y="396.312">0..*</text><!--MD5=[40e2b5717560220ad35e84810a8f1b44]
link TrafficManager to Ship--><path codeLine="66" d="M278.39,329.28 C270.23,350.83 259.54,379.07 249.11,406.64 " fill="none" id="TrafficManager-Ship" style="stroke:#A80036;stroke-width:1.0;"/><polygon fill="#000000" points="268.7301,372.852,274.6805,365.4329,269.1833,363.3523,268.7301,372.852" style="stroke:#000000;stroke-width:1.0;"/><text fill="#000000" font-family="sans-serif" font-size="13" lengthAdjust="spacing" textLength="67" x="279.5" y="373.4951">see the info</text><text fill="#000000" font-family="sans-serif" font-size="13" lengthAdjust="spacing" textLength="7" x="268.5834" y="350.2052">1</text><text fill="#000000" font-family="sans-serif" font-size="13" lengthAdjust="spacing" textLength="20" x="231.1376" y="396.1832">0..*</text><!--MD5=[9a349e3fe139691f8d5fdcec09531234]
link Ship to ShipDynamicData--><path codeLine="67" d="M187.24,607.1 C181.18,631.86 174.59,658.82 168.19,684.94 " fill="none" id="Ship-ShipDynamicData" style="stroke:#A80036;stroke-width:1.0;"/><polygon fill="#000000" points="182.3114,651.0325,187.3163,642.9453,181.6069,641.548,182.3114,651.0325" style="stroke:#000000;stroke-width:1.0;"/><text fill="#000000" font-family="sans-serif" font-size="13" lengthAdjust="spacing" textLength="21" x="192.5" y="651.4951">has</text><text fill="#000000" font-family="sans-serif" font-size="13" lengthAdjust="spacing" textLength="7" x="178.2014" y="628.5394">1</text><text fill="#000000" font-family="sans-serif" font-size="13" lengthAdjust="spacing" textLength="20" x="149.5018" y="674.1927">1..*</text><!--MD5=[c324832c0212842eac80843bc02aaded]
link Ship to VesselType--><path codeLine="68" d="M236.07,607.1 C250.03,663.36 266.8,730.99 277.55,774.35 " fill="none" id="Ship-VesselType" style="stroke:#A80036;stroke-width:1.0;"/><polygon fill="#000000" points="253.7036,651.0288,254.3788,641.5422,248.6738,642.9571,253.7036,651.0288" style="stroke:#000000;stroke-width:1.0;"/><text fill="#000000" font-family="sans-serif" font-size="13" lengthAdjust="spacing" textLength="21" x="261.5" y="651.4951">has</text><text fill="#000000" font-family="sans-serif" font-size="13" lengthAdjust="spacing" textLength="7" x="230.6173" y="628.5394">1</text><text fill="#000000" font-family="sans-serif" font-size="13" lengthAdjust="spacing" textLength="7" x="268.3373" y="763.7711">1</text><!--MD5=[9f867290d651e6ab24cb317b0497f002]
@startuml

class ReturnPairsShipsUI {

}

class ReturnPairsShipsController {
  +List<Ship> getAllShips()
  +List<Pair<Ship, Ship>> getAllPairsClosePorts()
}

class ShipStore{
    +List<Ship> getAllShips()
}

class TrafficManager {
  -String name
  -String email
}

class Ship {
    -Integer mmsi
    -String vesselName
    -Integer imo
    -Integer callSign
    -Integer generatorsNumber
    -Double generatorPowerOut
    -VesselType type
    -Double length
    -Double width
    -Double capacity
    -Double draft
}

class ShipDynamicData {
    -Date dateTime
    -Double lat
    -Double lon
    -Double sog
    -Double cog
    -Integer heading
    -Integer trailerId
    -String transceiver
}

class ShipDynamicData{
    -String baseDateTime
    -Double lat
    -Double lon
    -Double sog
    -Double cog
    -Double heading
    -Integer trailerId
    -String transcieverClass
}

enum VesselType {
  Passenger
  Fishing
  Tugboat
}


ReturnPairsShipsUI ..> ReturnPairsShipsController
ReturnPairsShipsController ..> ShipStore
ShipStore "1" - - "0..*" Ship : has >
TrafficManager "1" - - "0..*" Ship : see the info >
Ship "1" - - "1..*" ShipDynamicData : has  >
Ship "1" - - "1" VesselType : has >

@enduml

PlantUML version 1.2021.11(Sat Oct 02 14:26:11 BST 2021)
(GPL source distribution)
Java Runtime: OpenJDK Runtime Environment
JVM: OpenJDK 64-Bit Server VM
Default Encoding: Cp1252
Language: pt
Country: PT
--></g></svg>