<?xml version="1.0" standalone="no"?>
<!DOCTYPE svg PUBLIC "-//W3C//DTD SVG 20010904//EN"
 "http://www.w3.org/TR/2001/REC-SVG-20010904/DTD/svg10.dtd">
<svg version="1.0" xmlns="http://www.w3.org/2000/svg"
 width="369.000000pt" height="686.000000pt" viewBox="0 0 369.000000 686.000000"
 preserveAspectRatio="xMidYMid meet">

<g transform="translate(0.000000,686.000000) scale(0.100000,-0.100000)"
fill="#000000" stroke="none">
<path d="M1310 6485 l0 -305 111 0 112 0 -45 -52 c-25 -29 -56 -55 -68 -56
-15 -3 -19 -6 -11 -11 8 -5 2 -19 -20 -47 -45 -55 -132 -189 -163 -251 -43
-86 -29 -75 19 15 46 86 137 223 161 243 11 9 14 7 14 -9 0 -11 -6 -23 -12
-25 -7 -3 1 -5 17 -5 17 0 24 2 18 5 -7 2 -13 19 -13 37 0 26 12 43 63 94 l63
62 334 0 335 -1 30 -42 c50 -69 114 -180 126 -215 6 -18 13 -31 16 -29 8 9
-33 92 -95 191 l-61 96 190 0 189 0 0 305 0 305 -655 0 -655 0 0 -305z m1300
140 l0 -155 -645 0 -645 0 0 155 0 155 645 0 645 0 0 -155z m0 -260 l0 -95
-645 0 -645 0 0 95 0 95 645 0 645 0 0 -95z m0 -140 l0 -35 -645 0 -645 0 0
35 0 35 645 0 645 0 0 -35z"/>
<path d="M1593 6725 c-106 -46 -65 -215 52 -215 55 0 115 61 115 115 0 34 -32
84 -65 99 -40 19 -60 20 -102 1z m126 -30 c20 -20 26 -35 26 -71 0 -39 -5 -50
-33 -75 -46 -42 -93 -40 -138 5 -26 26 -34 43 -34 69 0 38 30 83 64 98 33 14
88 2 115 -26z"/>
<path d="M1616 6675 c-35 -35 -8 -110 37 -103 11 2 22 8 24 15 3 7 -3 9 -15 6
-14 -3 -22 1 -27 16 -10 33 4 64 27 58 12 -3 18 -1 15 6 -6 19 -43 20 -61 2z"/>
<path d="M1850 6666 c-25 -31 13 -97 40 -70 8 8 4 10 -12 10 -19 -1 -23 4 -23
29 0 24 4 30 22 29 12 0 20 3 17 8 -8 13 -30 9 -44 -6z"/>
<path d="M1924 6646 c-11 -29 0 -51 26 -51 21 0 25 5 25 30 0 24 -5 31 -23 33
-13 2 -24 -3 -28 -12z m43 -12 c8 -21 -13 -42 -28 -27 -13 13 -5 43 11 43 6 0
13 -7 17 -16z"/>
<path d="M2001 6621 c1 -35 2 -35 8 -7 9 43 31 45 32 4 l1 -33 7 29 c9 42 29
44 34 4 l5 -33 -2 35 c-1 34 -2 35 -43 36 -43 0 -43 0 -42 -35z"/>
<path d="M2111 6606 c1 -31 4 -43 7 -31 4 11 16 20 27 20 16 0 20 7 20 30 0
26 -4 30 -27 31 -27 1 -28 -1 -27 -50z m46 28 c8 -21 -13 -42 -28 -27 -13 13
-5 43 11 43 6 0 13 -7 17 -16z"/>
<path d="M2195 6651 c-3 -7 0 -8 9 -5 8 3 21 2 28 -2 9 -6 5 -10 -12 -14 -35
-8 -32 -35 3 -36 26 -1 28 2 25 30 -2 23 -9 32 -25 34 -11 2 -24 -2 -28 -7z
m40 -41 c-3 -5 -13 -10 -21 -10 -8 0 -14 5 -14 10 0 6 9 10 21 10 11 0 17 -4
14 -10z"/>
<path d="M2271 6621 c1 -36 1 -36 8 -6 3 17 13 30 21 30 8 0 18 -13 22 -30 6
-29 6 -29 5 5 -2 31 -5 35 -29 36 -26 1 -28 -2 -27 -35z"/>
<path d="M2340 6657 c0 -4 7 -22 16 -39 15 -30 15 -32 -2 -46 -13 -9 -14 -13
-4 -10 16 5 34 37 44 78 5 21 4 21 -8 -4 l-13 -30 -16 30 c-9 16 -16 25 -17
21z"/>
<path d="M1940 6406 c0 -7 -9 -16 -21 -19 -29 -8 -22 -51 9 -55 20 -3 22 1 22
42 0 25 -2 46 -5 46 -3 0 -5 -6 -5 -14z m-5 -56 c-5 -8 -11 -8 -17 -2 -6 6 -7
16 -3 22 5 8 11 8 17 2 6 -6 7 -16 3 -22z"/>
<path d="M1527 6403 c-13 -12 -7 -24 18 -33 33 -13 33 -34 -1 -27 -16 3 -22 1
-16 -5 15 -15 46 -5 50 14 2 12 -5 19 -22 24 -14 3 -23 11 -20 16 4 5 15 8 25
5 11 -3 17 -1 13 4 -6 10 -38 12 -47 2z"/>
<path d="M1598 6398 c-9 -25 5 -68 21 -67 10 0 11 2 4 6 -15 5 -17 40 -4 45 5
2 3 8 -4 15 -10 9 -15 9 -17 1z"/>
<path d="M2348 6398 c-9 -25 5 -68 21 -67 10 0 11 2 4 6 -15 5 -17 40 -4 45 5
2 3 8 -4 15 -10 9 -15 9 -17 1z"/>
<path d="M1390 6355 c0 -33 2 -35 35 -35 33 0 35 2 35 35 0 33 -2 35 -35 35
-33 0 -35 -2 -35 -35z m60 0 c0 -20 -5 -25 -25 -25 -20 0 -25 5 -25 25 0 20 5
25 25 25 20 0 25 -5 25 -25z"/>
<path d="M1641 6355 c1 -20 3 -24 6 -10 3 11 12 25 20 32 13 10 12 12 -6 10
-17 -1 -21 -7 -20 -32z"/>
<path d="M1692 6360 c0 -19 2 -27 5 -17 2 9 2 25 0 35 -3 9 -5 1 -5 -18z"/>
<path d="M1721 6356 c1 -28 2 -29 8 -7 9 34 29 37 34 6 4 -24 4 -24 3 2 -1 22
-6 28 -23 29 -19 1 -23 -4 -22 -30z"/>
<path d="M1797 6383 c-15 -15 -6 -45 15 -51 21 -5 21 -6 2 -14 -18 -8 -18 -8
1 -5 29 3 36 77 7 77 -10 0 -22 -3 -25 -7z m28 -33 c-5 -8 -11 -8 -17 -2 -6 6
-7 16 -3 22 5 8 11 8 17 2 6 -6 7 -16 3 -22z"/>
<path d="M1974 6376 c-13 -33 23 -65 41 -36 3 5 0 7 -8 4 -8 -3 -18 -1 -22 5
-3 7 3 11 15 11 13 0 20 5 18 13 -7 18 -37 21 -44 3z m33 -2 c-3 -3 -12 -4
-19 -1 -8 3 -5 6 6 6 11 1 17 -2 13 -5z"/>
<path d="M2047 6383 c-12 -11 -8 -23 7 -23 8 0 18 -5 22 -12 5 -8 0 -9 -16 -5
-16 4 -20 3 -12 -5 12 -12 42 -4 42 10 0 5 -10 14 -22 21 l-23 12 23 -5 c12
-2 20 0 16 5 -6 11 -28 12 -37 2z"/>
<path d="M2112 6360 c0 -19 2 -27 5 -17 2 9 2 25 0 35 -3 9 -5 1 -5 -18z"/>
<path d="M2147 6383 c-15 -15 -6 -45 15 -51 21 -5 21 -6 2 -14 -18 -8 -18 -8
1 -5 29 3 36 77 7 77 -10 0 -22 -3 -25 -7z m28 -33 c-5 -8 -11 -8 -17 -2 -6 6
-7 16 -3 22 5 8 11 8 17 2 6 -6 7 -16 3 -22z"/>
<path d="M2211 6356 c1 -28 2 -29 8 -7 9 34 29 37 34 6 4 -24 4 -24 3 2 -1 22
-6 28 -23 29 -19 1 -23 -4 -22 -30z"/>
<path d="M2304 6382 c19 -8 19 -9 -3 -15 -28 -7 -23 -31 8 -35 19 -3 22 0 19
25 -2 19 -9 29 -23 30 -19 3 -19 3 -1 -5z m11 -32 c-3 -5 -10 -10 -16 -10 -5
0 -9 5 -9 10 0 6 7 10 16 10 8 0 12 -4 9 -10z"/>
<path d="M2392 6360 c0 -19 2 -27 5 -17 2 9 2 25 0 35 -3 9 -5 1 -5 -18z"/>
<path d="M2424 6376 c-9 -24 4 -48 23 -44 12 2 18 12 18 28 0 29 -32 41 -41
16z m31 -26 c-5 -8 -11 -8 -17 -2 -6 6 -7 16 -3 22 5 8 11 8 17 2 6 -6 7 -16
3 -22z"/>
<path d="M2491 6356 c1 -28 2 -29 8 -7 9 34 29 37 34 6 4 -24 4 -24 3 2 -1 22
-6 28 -23 29 -19 1 -23 -4 -22 -30z"/>
<path d="M2238 6063 c6 -2 12 -20 12 -38 0 -18 -6 -36 -12 -38 -7 -3 1 -5 17
-5 17 0 24 2 18 5 -8 2 -13 22 -13 44 0 31 -4 39 -17 38 -11 0 -13 -3 -5 -6z"/>
<path d="M1442 5805 c0 -42 2 -51 7 -30 8 40 38 46 44 8 4 -28 4 -28 3 2 -1
23 -6 30 -21 30 -13 0 -22 9 -26 25 -4 15 -7 1 -7 -35z"/>
<path d="M2330 5837 c0 -18 -5 -23 -22 -23 -19 1 -23 -4 -23 -29 0 -26 4 -30
28 -31 26 -1 27 1 27 52 0 30 -2 54 -5 54 -3 0 -5 -10 -5 -23z m-3 -43 c8 -21
-13 -42 -28 -27 -13 13 -5 43 11 43 6 0 13 -7 17 -16z"/>
<path d="M1326 5832 c-2 -9 -8 -32 -11 -50 -6 -31 -5 -33 12 -24 10 6 29 21
42 35 l23 25 -30 16 c-28 15 -31 15 -36 -2z"/>
<path d="M2018 5827 c-7 -21 6 -70 20 -73 7 -1 8 0 2 3 -12 6 -13 50 -1 55 5
2 3 8 -4 15 -10 9 -14 9 -17 0z"/>
<path d="M1525 5811 c-3 -7 0 -8 9 -5 8 3 21 2 28 -2 9 -6 5 -10 -12 -14 -35
-8 -32 -35 3 -36 26 -1 28 2 25 30 -2 23 -9 32 -25 34 -11 2 -24 -2 -28 -7z
m40 -41 c-3 -5 -13 -10 -21 -10 -8 0 -14 5 -14 10 0 6 9 10 21 10 11 0 17 -4
14 -10z"/>
<path d="M1605 5810 c-8 -14 3 -30 21 -30 8 0 14 -5 14 -11 0 -7 -9 -9 -21 -6
-16 4 -19 3 -11 -5 12 -12 42 -4 42 13 0 6 -9 13 -20 16 -11 3 -20 10 -20 15
0 6 9 8 20 5 11 -3 18 -1 14 4 -7 12 -31 11 -39 -1z"/>
<path d="M1711 5780 c1 -27 3 -29 6 -10 2 14 11 30 20 37 13 10 13 12 -6 10
-17 -1 -21 -7 -20 -37z"/>
<path d="M1770 5806 c-23 -28 17 -73 42 -48 8 8 5 9 -9 6 -12 -3 -24 -1 -27 5
-5 7 3 11 19 11 20 0 26 4 23 17 -4 23 -31 28 -48 9z m35 -6 c3 -5 -3 -10 -15
-10 -12 0 -18 5 -15 10 3 6 10 10 15 10 5 0 12 -4 15 -10z"/>
<path d="M1844 5806 c-11 -28 1 -51 24 -50 12 0 21 -4 19 -10 -2 -6 -12 -10
-22 -9 -12 1 -14 -2 -7 -9 22 -22 42 0 42 45 0 38 -2 43 -25 45 -15 1 -28 -4
-31 -12z m43 -12 c8 -21 -13 -42 -28 -27 -13 13 -5 43 11 43 6 0 13 -7 17 -16z"/>
<path d="M1923 5785 c0 -22 2 -30 4 -17 2 12 2 30 0 40 -3 9 -5 -1 -4 -23z"/>
<path d="M1955 5810 c-8 -14 3 -30 21 -30 8 0 14 -5 14 -11 0 -7 -9 -9 -21 -6
-16 4 -19 3 -11 -5 12 -12 42 -4 42 13 0 6 -9 13 -20 16 -11 3 -20 10 -20 15
0 6 9 8 20 5 11 -3 18 -1 14 4 -7 12 -31 11 -39 -1z"/>
<path d="M2080 5806 c-23 -28 17 -73 42 -48 8 8 5 9 -9 6 -12 -3 -24 -1 -27 5
-5 7 3 11 19 11 20 0 26 4 23 17 -4 23 -31 28 -48 9z m35 -6 c3 -5 -3 -10 -15
-10 -12 0 -18 5 -15 10 3 6 10 10 15 10 5 0 12 -4 15 -10z"/>
<path d="M2151 5780 c1 -27 3 -29 6 -10 2 14 11 30 20 37 13 10 13 12 -6 10
-17 -1 -21 -7 -20 -37z"/>
<path d="M2210 5806 c-23 -28 17 -73 42 -48 8 8 5 9 -9 6 -12 -3 -24 -1 -27 5
-5 7 3 11 19 11 20 0 26 4 23 17 -4 23 -31 28 -48 9z m35 -6 c3 -5 -3 -10 -15
-10 -12 0 -18 5 -15 10 3 6 10 10 15 10 5 0 12 -4 15 -10z"/>
<path d="M2432 5780 c0 -8 6 -31 13 -50 7 -19 13 -28 13 -20 0 8 -6 31 -13 50
-7 19 -13 28 -13 20z"/>
<path d="M1176 5650 c-22 -56 -19 -65 5 -11 11 24 18 46 15 48 -2 2 -11 -14
-20 -37z"/>
<path d="M2461 5680 c0 -8 4 -24 9 -35 5 -13 9 -14 9 -5 0 8 -4 24 -9 35 -5
13 -9 14 -9 5z"/>
<path d="M2481 5615 c0 -5 8 -41 19 -80 11 -38 18 -54 15 -34 -6 39 -33 130
-34 114z"/>
<path d="M1066 5595 c-3 -9 -2 -24 2 -32 8 -13 10 -13 16 2 3 9 2 24 -2 32 -8
13 -10 13 -16 -2z"/>
<path d="M1141 5559 c-6 -18 -11 -37 -10 -43 0 -6 7 7 15 28 8 22 12 41 10 43
-2 2 -9 -10 -15 -28z"/>
<path d="M1116 5474 c-4 -14 -5 -28 -3 -31 3 -2 8 8 11 23 4 14 5 28 3 31 -3
2 -8 -8 -11 -23z"/>
<path d="M2521 5444 c0 -11 3 -14 6 -6 3 7 2 16 -1 19 -3 4 -6 -2 -5 -13z"/>
<path d="M1101 5423 c-1 -10 -77 -13 -346 -13 l-345 0 0 -370 0 -370 190 0
190 0 -11 -26 c-14 -38 -4 -41 11 -4 l12 30 434 0 434 0 0 370 0 370 -279 0
c-214 0 -281 3 -284 13 -4 10 -6 10 -6 0z m559 -178 l0 -155 -620 0 -620 0 0
155 0 155 620 0 620 0 0 -155z m0 -325 l0 -160 -620 0 -620 0 0 160 0 160 620
0 620 0 0 -160z m0 -205 l0 -35 -620 0 -620 0 0 35 0 35 620 0 620 0 0 -35z"/>
<path d="M513 5345 c-106 -46 -65 -215 52 -215 55 0 115 61 115 115 0 34 -32
84 -65 99 -40 19 -60 20 -102 1z m126 -30 c20 -20 26 -35 26 -71 0 -39 -5 -50
-33 -75 -46 -42 -93 -40 -138 5 -26 26 -34 43 -34 69 0 38 30 83 64 98 33 14
88 2 115 -26z"/>
<path d="M536 5295 c-21 -21 -21 -69 0 -90 18 -18 55 -17 61 2 3 7 -3 9 -15 6
-23 -6 -37 25 -27 58 5 15 13 19 27 16 12 -3 18 -1 15 6 -6 19 -43 20 -61 2z"/>
<path d="M922 5293 c-4 -10 -5 -34 -1 -53 l6 -35 2 33 c1 20 6 32 15 32 9 0
16 -13 19 -32 l4 -33 1 33 c1 18 7 32 15 32 8 0 7 4 -3 10 -13 9 -13 11 0 20
11 7 11 10 2 10 -7 0 -15 -7 -18 -15 -4 -8 -12 -15 -20 -15 -17 0 -18 17 -1
23 9 4 9 6 0 6 -7 1 -16 -7 -21 -16z"/>
<path d="M722 5293 c12 -3 18 -17 21 -46 l4 -42 1 42 c2 30 7 43 20 46 9 3 -1
5 -23 5 -22 0 -32 -2 -23 -5z"/>
<path d="M1102 5255 c1 -46 1 -47 7 -15 6 32 8 33 15 13 4 -13 11 -23 16 -23
5 0 12 10 16 23 7 20 9 19 15 -13 6 -32 6 -31 7 15 1 45 0 48 -13 31 -8 -10
-17 -24 -20 -30 -4 -8 -6 -8 -10 0 -3 6 -12 20 -20 30 -13 17 -14 14 -13 -31z"/>
<path d="M791 5240 c1 -27 3 -29 6 -10 2 14 11 30 20 37 13 10 13 12 -6 10
-17 -1 -21 -7 -20 -37z"/>
<path d="M845 5271 c-3 -7 0 -8 9 -5 8 3 21 2 28 -2 9 -6 5 -10 -12 -14 -35
-8 -32 -35 3 -36 26 -1 28 2 25 30 -2 23 -9 32 -25 34 -11 2 -24 -2 -28 -7z
m40 -41 c-3 -5 -13 -10 -21 -10 -8 0 -14 5 -14 10 0 6 9 10 21 10 11 0 17 -4
14 -10z"/>
<path d="M1003 5245 c0 -22 2 -30 4 -17 2 12 2 30 0 40 -3 9 -5 -1 -4 -23z"/>
<path d="M1035 5261 c-11 -35 22 -71 39 -42 3 5 -2 8 -12 7 -11 -1 -17 6 -17
19 0 13 6 20 17 19 10 -1 15 2 12 7 -9 16 -32 10 -39 -10z"/>
<path d="M1205 5271 c-3 -7 0 -8 9 -5 8 3 21 2 28 -2 9 -6 5 -10 -12 -14 -35
-8 -32 -35 3 -36 26 -1 28 2 25 30 -2 23 -9 32 -25 34 -11 2 -24 -2 -28 -7z
m40 -41 c-3 -5 -13 -10 -21 -10 -8 0 -14 5 -14 10 0 6 9 10 21 10 11 0 17 -4
14 -10z"/>
<path d="M1281 5241 c1 -36 1 -36 8 -6 3 17 13 30 21 30 8 0 18 -13 22 -30 6
-29 6 -29 5 5 -2 31 -5 35 -29 36 -26 1 -28 -2 -27 -35z"/>
<path d="M1365 5271 c-3 -7 0 -8 9 -5 8 3 21 2 28 -2 9 -6 5 -10 -12 -14 -35
-8 -32 -35 3 -36 26 -1 28 2 25 30 -2 23 -9 32 -25 34 -11 2 -24 -2 -28 -7z
m40 -41 c-3 -5 -13 -10 -21 -10 -8 0 -14 5 -14 10 0 6 9 10 21 10 11 0 17 -4
14 -10z"/>
<path d="M1444 5266 c-11 -28 1 -51 24 -50 12 0 21 -4 19 -10 -2 -6 -12 -10
-22 -9 -12 1 -14 -2 -7 -9 22 -22 42 0 42 45 0 38 -2 43 -25 45 -15 1 -28 -4
-31 -12z m43 -12 c8 -21 -13 -42 -28 -27 -13 13 -5 43 11 43 6 0 13 -7 17 -16z"/>
<path d="M1530 5266 c-23 -28 17 -73 42 -48 8 8 5 9 -9 6 -12 -3 -24 -1 -27 5
-5 7 3 11 19 11 20 0 26 4 23 17 -4 23 -31 28 -48 9z m35 -6 c3 -5 -3 -10 -15
-10 -12 0 -18 5 -15 10 3 6 10 10 15 10 5 0 12 -4 15 -10z"/>
<path d="M1601 5240 c1 -27 3 -29 6 -10 2 14 11 30 20 37 13 10 13 12 -6 10
-17 -1 -21 -7 -20 -37z"/>
<path d="M637 5023 c-13 -12 -7 -24 18 -33 33 -13 33 -34 -1 -27 -16 3 -22 1
-16 -5 15 -15 46 -5 50 14 2 12 -5 19 -22 24 -14 3 -23 11 -20 16 4 5 15 8 25
5 11 -3 17 -1 13 4 -6 10 -38 12 -47 2z"/>
<path d="M708 5018 c-9 -25 5 -68 21 -67 10 0 11 2 4 6 -15 5 -17 40 -4 45 5
2 3 8 -4 15 -10 9 -15 9 -17 1z"/>
<path d="M490 4975 c0 -33 2 -35 35 -35 33 0 35 2 35 35 0 33 -2 35 -35 35
-33 0 -35 -2 -35 -35z m60 0 c0 -20 -5 -25 -25 -25 -20 0 -25 5 -25 25 0 20 5
25 25 25 20 0 25 -5 25 -25z"/>
<path d="M751 4975 c1 -20 3 -24 6 -10 3 11 12 25 20 32 13 10 12 12 -6 10
-17 -1 -21 -7 -20 -32z"/>
<path d="M802 4980 c0 -19 2 -27 5 -17 2 9 2 25 0 35 -3 9 -5 1 -5 -18z"/>
<path d="M831 4976 c1 -28 2 -29 8 -7 9 34 29 37 34 6 4 -24 4 -24 3 2 -1 22
-6 28 -23 29 -19 1 -23 -4 -22 -30z"/>
<path d="M907 5003 c-15 -15 -6 -45 15 -51 21 -5 21 -6 2 -14 -18 -8 -18 -8 1
-5 29 3 36 77 7 77 -10 0 -22 -3 -25 -7z m28 -33 c-5 -8 -11 -8 -17 -2 -6 6
-7 16 -3 22 5 8 11 8 17 2 6 -6 7 -16 3 -22z"/>
<path d="M1011 4976 c1 -28 2 -29 8 -7 9 34 29 37 34 6 4 -24 4 -24 3 2 -1 22
-6 28 -23 29 -19 1 -23 -4 -22 -30z"/>
<path d="M1104 5002 c19 -8 19 -9 -3 -15 -28 -7 -23 -31 8 -35 19 -3 22 0 19
25 -2 19 -9 29 -23 30 -19 3 -19 3 -1 -5z m11 -32 c-3 -5 -10 -10 -16 -10 -5
0 -9 5 -9 10 0 6 7 10 16 10 8 0 12 -4 9 -10z"/>
<path d="M1151 4976 c1 -29 2 -29 8 -7 10 36 31 38 32 4 1 -27 1 -27 8 -4 9
34 29 37 34 6 4 -24 4 -24 3 2 -1 26 -4 28 -43 29 -42 0 -43 -1 -42 -30z"/>
<path d="M1264 4996 c-13 -33 23 -65 41 -36 3 5 0 7 -8 4 -8 -3 -18 -1 -22 5
-3 7 3 11 15 11 13 0 20 5 18 13 -7 18 -37 21 -44 3z m33 -2 c-3 -3 -12 -4
-19 -1 -8 3 -5 6 6 6 11 1 17 -2 13 -5z"/>
<path d="M1293 4865 c0 -27 2 -38 4 -22 2 15 2 37 0 50 -2 12 -4 0 -4 -28z"/>
<path d="M637 4893 c-13 -12 -7 -24 18 -33 33 -13 33 -34 -1 -27 -16 3 -22 1
-16 -5 15 -15 46 -5 50 14 2 12 -5 19 -22 24 -14 3 -23 11 -20 16 4 5 15 8 25
5 11 -3 17 -1 13 4 -6 10 -38 12 -47 2z"/>
<path d="M708 4888 c-9 -25 5 -68 21 -67 10 0 11 2 4 6 -15 5 -17 40 -4 45 5
2 3 8 -4 15 -10 9 -15 9 -17 1z"/>
<path d="M490 4855 c0 -33 2 -35 35 -35 33 0 35 2 35 35 0 33 -2 35 -35 35
-33 0 -35 -2 -35 -35z m60 0 c0 -20 -5 -25 -25 -25 -20 0 -25 5 -25 25 0 20 5
25 25 25 20 0 25 -5 25 -25z"/>
<path d="M751 4845 c1 -20 3 -24 6 -10 3 11 12 25 20 32 13 10 12 12 -6 10
-17 -1 -21 -7 -20 -32z"/>
<path d="M802 4850 c0 -19 2 -27 5 -17 2 9 2 25 0 35 -3 9 -5 1 -5 -18z"/>
<path d="M831 4846 c1 -28 2 -29 8 -7 9 34 29 37 34 6 4 -24 4 -24 3 2 -1 22
-6 28 -23 29 -19 1 -23 -4 -22 -30z"/>
<path d="M907 4873 c-15 -15 -6 -45 15 -51 21 -5 21 -6 2 -14 -18 -8 -18 -8 1
-5 29 3 36 77 7 77 -10 0 -22 -3 -25 -7z m28 -33 c-5 -8 -11 -8 -17 -2 -6 6
-7 16 -3 22 5 8 11 8 17 2 6 -6 7 -16 3 -22z"/>
<path d="M1014 4866 c-13 -33 23 -65 41 -36 3 5 0 7 -8 4 -8 -3 -18 -1 -22 5
-3 7 3 11 15 11 13 0 20 5 18 13 -7 18 -37 21 -44 3z m33 -2 c-3 -3 -12 -4
-19 -1 -8 3 -5 6 6 6 11 1 17 -2 13 -5z"/>
<path d="M1081 4846 c1 -29 2 -29 8 -7 10 36 31 38 32 4 1 -27 1 -27 8 -4 9
34 29 37 34 6 4 -24 4 -24 3 2 -1 26 -4 28 -43 29 -42 0 -43 -1 -42 -30z"/>
<path d="M1214 4872 c19 -8 19 -9 -3 -15 -28 -7 -23 -31 8 -35 19 -3 22 0 19
25 -2 19 -9 29 -23 30 -19 3 -19 3 -1 -5z m11 -32 c-3 -5 -10 -10 -16 -10 -5
0 -9 5 -9 10 0 6 7 10 16 10 8 0 12 -4 9 -10z"/>
<path d="M1262 4850 c0 -19 2 -27 5 -17 2 9 2 25 0 35 -3 9 -5 1 -5 -18z"/>
<path d="M2532 5400 c0 -14 2 -19 5 -12 2 6 2 18 0 25 -3 6 -5 1 -5 -13z"/>
<path d="M2542 5345 c0 -16 2 -22 5 -12 2 9 2 23 0 30 -3 6 -5 -1 -5 -18z"/>
<path d="M2552 5280 c0 -19 2 -27 5 -17 2 9 2 25 0 35 -3 9 -5 1 -5 -18z"/>
<path d="M2563 5185 c0 -27 2 -38 4 -22 2 15 2 37 0 50 -2 12 -4 0 -4 -28z"/>
<path d="M2571 5050 c1 -39 3 -48 8 -30 7 25 7 24 20 -10 11 -31 14 -33 20
-15 5 11 11 37 15 59 7 38 7 38 -20 32 -18 -5 -30 -3 -35 6 -5 8 -8 -9 -8 -42z"/>
<path d="M2712 5045 c0 -42 2 -51 7 -30 8 40 38 46 44 8 4 -28 4 -28 3 2 -1
23 -6 30 -21 30 -13 0 -22 9 -26 25 -4 15 -7 1 -7 -35z"/>
<path d="M3600 5077 c0 -18 -5 -23 -22 -23 -19 1 -23 -4 -23 -29 0 -26 4 -30
28 -31 26 -1 27 1 27 52 0 30 -2 54 -5 54 -3 0 -5 -10 -5 -23z m-3 -43 c8 -21
-13 -42 -28 -27 -13 13 -5 43 11 43 6 0 13 -7 17 -16z"/>
<path d="M3288 5067 c-7 -21 6 -70 20 -73 7 -1 8 0 2 3 -12 6 -13 50 -1 55 5
2 3 8 -4 15 -10 9 -14 9 -17 0z"/>
<path d="M2795 5051 c-3 -7 0 -8 9 -5 8 3 21 2 28 -2 9 -6 5 -10 -12 -14 -35
-8 -32 -35 3 -36 26 -1 28 2 25 30 -2 23 -9 32 -25 34 -11 2 -24 -2 -28 -7z
m40 -41 c-3 -5 -13 -10 -21 -10 -8 0 -14 5 -14 10 0 6 9 10 21 10 11 0 17 -4
14 -10z"/>
<path d="M2875 5050 c-8 -14 3 -30 21 -30 8 0 14 -5 14 -11 0 -7 -9 -9 -21 -6
-16 4 -19 3 -11 -5 12 -12 42 -4 42 13 0 6 -9 13 -20 16 -11 3 -20 10 -20 15
0 6 9 8 20 5 11 -3 18 -1 14 4 -7 12 -31 11 -39 -1z"/>
<path d="M2981 5020 c1 -27 3 -29 6 -10 2 14 11 30 20 37 13 10 13 12 -6 10
-17 -1 -21 -7 -20 -37z"/>
<path d="M3040 5046 c-23 -28 17 -73 42 -48 8 8 5 9 -9 6 -12 -3 -24 -1 -27 5
-5 7 3 11 19 11 20 0 26 4 23 17 -4 23 -31 28 -48 9z m35 -6 c3 -5 -3 -10 -15
-10 -12 0 -18 5 -15 10 3 6 10 10 15 10 5 0 12 -4 15 -10z"/>
<path d="M3114 5046 c-11 -28 1 -51 24 -50 12 0 21 -4 19 -10 -2 -6 -12 -10
-22 -9 -12 1 -14 -2 -7 -9 22 -22 42 0 42 45 0 38 -2 43 -25 45 -15 1 -28 -4
-31 -12z m43 -12 c8 -21 -13 -42 -28 -27 -13 13 -5 43 11 43 6 0 13 -7 17 -16z"/>
<path d="M3193 5025 c0 -22 2 -30 4 -17 2 12 2 30 0 40 -3 9 -5 -1 -4 -23z"/>
<path d="M3225 5050 c-8 -14 3 -30 21 -30 8 0 14 -5 14 -11 0 -7 -9 -9 -21 -6
-16 4 -19 3 -11 -5 12 -12 42 -4 42 13 0 6 -9 13 -20 16 -11 3 -20 10 -20 15
0 6 9 8 20 5 11 -3 18 -1 14 4 -7 12 -31 11 -39 -1z"/>
<path d="M3350 5046 c-23 -28 17 -73 42 -48 8 8 5 9 -9 6 -12 -3 -24 -1 -27 5
-5 7 3 11 19 11 20 0 26 4 23 17 -4 23 -31 28 -48 9z m35 -6 c3 -5 -3 -10 -15
-10 -12 0 -18 5 -15 10 3 6 10 10 15 10 5 0 12 -4 15 -10z"/>
<path d="M3421 5020 c1 -27 3 -29 6 -10 2 14 11 30 20 37 13 10 13 12 -6 10
-17 -1 -21 -7 -20 -37z"/>
<path d="M3480 5046 c-23 -28 17 -73 42 -48 8 8 5 9 -9 6 -12 -3 -24 -1 -27 5
-5 7 3 11 19 11 20 0 26 4 23 17 -4 23 -31 28 -48 9z m35 -6 c3 -5 -3 -10 -15
-10 -12 0 -18 5 -15 10 3 6 10 10 15 10 5 0 12 -4 15 -10z"/>
<path d="M2563 4910 c0 -30 2 -43 4 -27 2 15 2 39 0 55 -2 15 -4 2 -4 -28z"/>
<path d="M2552 4815 c0 -16 2 -22 5 -12 2 9 2 23 0 30 -3 6 -5 -1 -5 -18z"/>
<path d="M2542 4750 c0 -14 2 -19 5 -12 2 6 2 18 0 25 -3 6 -5 1 -5 -13z"/>
<path d="M2532 4695 c0 -16 2 -22 5 -12 2 9 2 23 0 30 -3 6 -5 -1 -5 -18z"/>
<path d="M2521 4644 c0 -11 3 -14 6 -6 3 7 2 16 -1 19 -3 4 -6 -2 -5 -13z"/>
<path d="M2512 4600 c0 -14 2 -19 5 -12 2 6 2 18 0 25 -3 6 -5 1 -5 -13z"/>
<path d="M2501 4554 c0 -11 3 -14 6 -6 3 7 2 16 -1 19 -3 4 -6 -2 -5 -13z"/>
<path d="M698 4553 c6 -2 12 -20 12 -38 0 -18 -6 -36 -12 -38 -7 -3 -3 -6 9
-6 12 -1 24 -7 26 -13 3 -7 6 1 6 17 1 23 -2 26 -9 15 -7 -11 -10 -4 -10 28 0
34 -3 42 -17 41 -11 0 -13 -3 -5 -6z"/>
<path d="M741 4524 c0 -11 3 -14 6 -6 3 7 2 16 -1 19 -3 4 -6 -2 -5 -13z"/>
<path d="M2491 4514 c0 -11 3 -14 6 -6 3 7 2 16 -1 19 -3 4 -6 -2 -5 -13z"/>
<path d="M2471 4444 c-7 -25 -10 -48 -8 -51 3 -2 10 17 16 43 7 25 10 48 8 51
-3 2 -10 -17 -16 -43z"/>
<path d="M723 4370 c0 -41 2 -58 4 -37 2 20 2 54 0 75 -2 20 -4 3 -4 -38z"/>
<path d="M2446 4354 c-4 -14 -5 -28 -3 -31 3 -2 8 8 11 23 4 14 5 28 3 31 -3
2 -8 -8 -11 -23z"/>
<path d="M1313 4295 c0 -33 2 -45 4 -27 2 18 2 45 0 60 -2 15 -4 0 -4 -33z"/>
<path d="M1502 4295 c0 -42 2 -51 7 -30 8 40 38 46 44 8 4 -28 4 -28 3 2 -1
23 -6 30 -21 30 -13 0 -22 9 -26 25 -4 15 -7 1 -7 -35z"/>
<path d="M2322 4329 c-4 -11 -6 -37 -3 -57 5 -36 6 -36 9 -7 2 16 9 33 15 37
9 6 9 8 0 8 -7 0 -13 6 -13 14 0 8 6 17 13 19 9 4 9 6 -1 6 -7 1 -16 -8 -20
-20z"/>
<path d="M785 4328 c-11 -6 -21 -12 -23 -13 -2 -2 10 -25 27 -51 l31 -49 0 63
c0 65 -2 68 -35 50z"/>
<path d="M1128 4317 c-7 -21 6 -70 20 -73 7 -1 8 0 2 3 -12 6 -13 50 -1 55 5
2 3 8 -4 15 -10 9 -14 9 -17 0z"/>
<path d="M1448 4317 c-7 -21 6 -70 20 -73 7 -1 8 0 2 3 -12 6 -13 50 -1 55 5
2 3 8 -4 15 -10 9 -14 9 -17 0z"/>
<path d="M1958 4317 c-7 -21 6 -70 20 -73 7 -1 8 0 2 3 -12 6 -13 50 -1 55 5
2 3 8 -4 15 -10 9 -14 9 -17 0z"/>
<path d="M905 4291 c-11 -35 22 -71 39 -42 3 5 -2 8 -12 7 -11 -1 -17 6 -17
19 0 13 6 20 17 19 10 -1 15 2 12 7 -9 16 -32 10 -39 -10z"/>
<path d="M974 4296 c-11 -29 0 -51 26 -51 21 0 25 5 25 30 0 24 -5 31 -23 33
-13 2 -24 -3 -28 -12z m43 -12 c8 -21 -13 -42 -28 -27 -13 13 -5 43 11 43 6 0
13 -7 17 -16z"/>
<path d="M1051 4271 c1 -36 1 -36 8 -6 8 40 38 46 44 8 4 -28 4 -28 3 2 -1 26
-5 30 -28 31 -26 1 -28 -2 -27 -35z"/>
<path d="M1181 4270 c1 -27 3 -29 6 -10 2 14 11 30 20 37 13 10 13 12 -6 10
-17 -1 -21 -7 -20 -37z"/>
<path d="M1234 4296 c-11 -29 0 -51 26 -51 21 0 25 5 25 30 0 24 -5 31 -23 33
-13 2 -24 -3 -28 -12z m43 -12 c8 -21 -13 -42 -28 -27 -13 13 -5 43 11 43 6 0
13 -7 17 -16z"/>
<path d="M1345 4300 c-8 -14 3 -30 21 -30 8 0 14 -5 14 -11 0 -7 -9 -9 -21 -6
-16 4 -19 3 -11 -5 12 -12 42 -4 42 13 0 6 -9 13 -20 16 -11 3 -20 10 -20 15
0 6 9 8 20 5 11 -3 18 -1 14 4 -7 12 -31 11 -39 -1z"/>
<path d="M1590 4296 c-23 -28 17 -73 42 -48 8 8 5 9 -9 6 -12 -3 -24 -1 -27 5
-5 7 3 11 19 11 20 0 26 4 23 17 -4 23 -31 28 -48 9z m35 -6 c3 -5 -3 -10 -15
-10 -12 0 -18 5 -15 10 3 6 10 10 15 10 5 0 12 -4 15 -10z"/>
<path d="M1701 4255 c1 -27 4 -40 6 -29 3 15 10 20 22 17 24 -6 35 11 27 42
-5 19 -12 24 -31 23 -23 -2 -25 -6 -24 -53z m46 29 c8 -21 -13 -42 -28 -27
-13 13 -5 43 11 43 6 0 13 -7 17 -16z"/>
<path d="M1784 4296 c-11 -29 0 -51 26 -51 21 0 25 5 25 30 0 24 -5 31 -23 33
-13 2 -24 -3 -28 -12z m43 -12 c8 -21 -13 -42 -28 -27 -13 13 -5 43 11 43 6 0
13 -7 17 -16z"/>
<path d="M1865 4300 c-8 -14 3 -30 21 -30 8 0 14 -5 14 -11 0 -7 -9 -9 -21 -6
-16 4 -19 3 -11 -5 12 -12 42 -4 42 13 0 6 -9 13 -20 16 -11 3 -20 10 -20 15
0 6 9 8 20 5 11 -3 18 -1 14 4 -7 12 -31 11 -39 -1z"/>
<path d="M1933 4275 c0 -22 2 -30 4 -17 2 12 2 30 0 40 -3 9 -5 -1 -4 -23z"/>
<path d="M2013 4275 c0 -22 2 -30 4 -17 2 12 2 30 0 40 -3 9 -5 -1 -4 -23z"/>
<path d="M2044 4296 c-11 -29 0 -51 26 -51 21 0 25 5 25 30 0 24 -5 31 -23 33
-13 2 -24 -3 -28 -12z m43 -12 c8 -21 -13 -42 -28 -27 -13 13 -5 43 11 43 6 0
13 -7 17 -16z"/>
<path d="M2121 4271 c1 -36 1 -36 8 -6 8 40 38 46 44 8 4 -28 4 -28 3 2 -1 26
-5 30 -28 31 -26 1 -28 -2 -27 -35z"/>
<path d="M2244 4296 c-11 -29 0 -51 26 -51 21 0 25 5 25 30 0 24 -5 31 -23 33
-13 2 -24 -3 -28 -12z m43 -12 c8 -21 -13 -42 -28 -27 -13 13 -5 43 11 43 6 0
13 -7 17 -16z"/>
<path d="M2421 4269 c-7 -22 -11 -43 -8 -45 2 -2 9 14 16 37 7 22 11 43 8 45
-2 2 -9 -14 -16 -37z"/>
<path d="M731 4273 c-2 -46 76 -222 145 -331 36 -56 42 -77 22 -85 -7 -3 -1
-6 13 -6 19 -1 38 -16 72 -61 l47 -60 0 -670 0 -670 191 0 191 0 -7 -27 c-14
-57 -36 -98 -44 -84 -12 19 -24 -16 -12 -37 5 -9 5 -26 0 -40 -5 -14 -8 -27
-5 -29 6 -7 26 59 20 68 -3 5 3 6 12 2 11 -4 15 -3 11 5 -4 6 3 39 16 74 l24
63 270 3 269 2 17 -32 17 -33 -6 33 -6 32 196 0 196 0 0 754 0 755 -52 3 c-29
2 -333 2 -675 0 l-622 -2 -3 -76 -3 -76 -52 70 c-33 43 -53 79 -53 95 0 20 -5
27 -19 27 -15 0 -34 29 -80 123 -34 67 -67 147 -75 177 -8 30 -15 45 -15 33z
m1639 -538 l0 -155 -665 0 -665 0 0 155 0 155 665 0 665 0 0 -155z m0 -710 l0
-545 -665 0 -665 0 0 545 0 545 665 0 665 0 0 -545z m0 -590 l0 -35 -665 0
-665 0 0 35 0 35 665 0 665 0 0 -35z"/>
<path d="M1473 3835 c-80 -34 -82 -159 -3 -200 52 -27 109 -14 147 35 25 30
12 27 -21 -6 -26 -26 -42 -34 -71 -34 -29 0 -45 8 -71 34 -45 45 -47 92 -5
138 25 28 36 33 74 33 57 0 92 -30 106 -89 5 -25 9 -32 10 -18 2 40 -28 89
-64 106 -40 19 -60 20 -102 1z"/>
<path d="M1496 3785 c-35 -35 -8 -110 37 -103 11 2 22 8 24 15 3 7 -3 9 -15 6
-23 -6 -37 25 -27 58 5 15 13 19 27 16 12 -3 18 -1 15 6 -6 19 -43 20 -61 2z"/>
<path d="M1822 3750 c0 -41 2 -47 7 -25 3 17 13 30 21 30 8 0 18 -13 22 -30 6
-29 6 -29 5 5 -2 28 -6 35 -22 35 -11 0 -23 9 -27 20 -3 11 -6 -4 -6 -35z"/>
<path d="M1747 3783 c-15 -14 -6 -34 19 -43 29 -12 22 -34 -9 -26 -14 3 -17 2
-10 -5 16 -16 47 -7 51 14 2 11 -6 20 -23 27 -29 11 -24 35 6 27 11 -3 17 -1
13 4 -6 10 -38 12 -47 2z"/>
<path d="M1903 3735 c0 -22 2 -30 4 -17 2 12 2 30 0 40 -3 9 -5 -1 -4 -23z"/>
<path d="M1931 3716 c1 -31 4 -43 7 -31 4 11 16 20 27 20 16 0 20 7 20 30 0
26 -4 30 -27 31 -27 1 -28 -1 -27 -50z m46 28 c8 -21 -13 -42 -28 -27 -13 13
-5 43 11 43 6 0 13 -7 17 -16z"/>
<path d="M1243 3480 c0 -25 2 -35 4 -22 2 12 2 32 0 45 -2 12 -4 2 -4 -23z"/>
<path d="M1338 3508 c-9 -25 5 -68 21 -67 10 0 11 2 4 6 -15 5 -17 40 -4 45 5
2 3 8 -4 15 -10 9 -15 9 -17 1z"/>
<path d="M1110 3465 c0 -33 2 -35 35 -35 33 0 35 2 35 35 0 33 -2 35 -35 35
-33 0 -35 -2 -35 -35z m60 0 c0 -20 -5 -25 -25 -25 -20 0 -25 5 -25 25 0 20 5
25 25 25 20 0 25 -5 25 -25z"/>
<path d="M1271 3466 c1 -28 2 -29 8 -7 9 34 29 37 34 6 4 -24 4 -24 3 2 -1 22
-6 28 -23 29 -19 1 -23 -4 -22 -30z"/>
<path d="M1384 3486 c-13 -33 23 -65 41 -36 3 5 0 7 -8 4 -8 -3 -18 -1 -22 5
-3 7 3 11 15 11 13 0 20 5 18 13 -7 18 -37 21 -44 3z m33 -2 c-3 -3 -12 -4
-19 -1 -8 3 -5 6 6 6 11 1 17 -2 13 -5z"/>
<path d="M1457 3493 c-15 -15 -6 -45 15 -51 21 -5 21 -6 2 -14 -18 -8 -18 -8
1 -5 29 3 36 77 7 77 -10 0 -22 -3 -25 -7z m28 -33 c-5 -8 -11 -8 -17 -2 -6 6
-7 16 -3 22 5 8 11 8 17 2 6 -6 7 -16 3 -22z"/>
<path d="M1524 3486 c-13 -33 23 -65 41 -36 3 5 0 7 -8 4 -8 -3 -18 -1 -22 5
-3 7 3 11 15 11 13 0 20 5 18 13 -7 18 -37 21 -44 3z m33 -2 c-3 -3 -12 -4
-19 -1 -8 3 -5 6 6 6 11 1 17 -2 13 -5z"/>
<path d="M1591 3465 c1 -20 3 -24 6 -10 3 11 12 25 20 32 13 10 12 12 -6 10
-17 -1 -21 -7 -20 -32z"/>
<path d="M1681 3466 c1 -29 2 -29 8 -7 10 36 31 38 32 4 1 -27 1 -27 8 -4 9
34 29 37 34 6 4 -24 4 -24 3 2 -1 26 -4 28 -43 29 -42 0 -43 -1 -42 -30z"/>
<path d="M1791 3466 c1 -29 2 -29 8 -7 10 36 31 38 32 4 1 -27 1 -27 8 -4 9
34 29 37 34 6 4 -24 4 -24 3 2 -1 26 -4 28 -43 29 -42 0 -43 -1 -42 -30z"/>
<path d="M1907 3493 c-12 -11 -8 -23 7 -23 8 0 18 -5 22 -12 5 -8 0 -9 -16 -5
-16 4 -20 3 -12 -5 12 -12 42 -4 42 10 0 5 -10 14 -22 21 l-23 12 23 -5 c12
-2 20 0 16 5 -6 11 -28 12 -37 2z"/>
<path d="M1972 3470 c0 -19 2 -27 5 -17 2 9 2 25 0 35 -3 9 -5 1 -5 -18z"/>
<path d="M1963 3355 c0 -27 2 -38 4 -22 2 15 2 37 0 50 -2 12 -4 0 -4 -28z"/>
<path d="M1247 3383 c-13 -12 -7 -24 18 -33 33 -13 33 -34 -1 -27 -16 3 -22 1
-16 -5 15 -15 46 -5 50 14 2 12 -5 19 -22 24 -14 3 -23 11 -20 16 4 5 15 8 25
5 11 -3 17 -1 13 4 -6 10 -38 12 -47 2z"/>
<path d="M1318 3378 c-9 -25 5 -68 21 -67 10 0 11 2 4 6 -15 5 -17 40 -4 45 5
2 3 8 -4 15 -10 9 -15 9 -17 1z"/>
<path d="M1991 3348 l2 -43 6 35 6 35 14 -32 c19 -45 31 -41 30 10 l-2 42 -6
-35 -6 -35 -14 33 c-19 44 -31 40 -30 -10z"/>
<path d="M1110 3345 c0 -33 2 -35 35 -35 33 0 35 2 35 35 0 33 -2 35 -35 35
-33 0 -35 -2 -35 -35z m60 0 c0 -20 -5 -25 -25 -25 -20 0 -25 5 -25 25 0 20 5
25 25 25 20 0 25 -5 25 -25z"/>
<path d="M1361 3335 c1 -20 3 -24 6 -10 3 11 12 25 20 32 13 10 12 12 -6 10
-17 -1 -21 -7 -20 -32z"/>
<path d="M1412 3340 c0 -19 2 -27 5 -17 2 9 2 25 0 35 -3 9 -5 1 -5 -18z"/>
<path d="M1441 3336 c1 -28 2 -29 8 -7 9 34 29 37 34 6 4 -24 4 -24 3 2 -1 22
-6 28 -23 29 -19 1 -23 -4 -22 -30z"/>
<path d="M1517 3363 c-15 -15 -6 -45 15 -51 21 -5 21 -6 2 -14 -18 -8 -18 -8
1 -5 29 3 36 77 7 77 -10 0 -22 -3 -25 -7z m28 -33 c-5 -8 -11 -8 -17 -2 -6 6
-7 16 -3 22 5 8 11 8 17 2 6 -6 7 -16 3 -22z"/>
<path d="M1611 3368 c-1 -12 22 -58 29 -58 9 0 32 51 26 57 -2 2 -7 -5 -11
-16 -8 -27 -19 -27 -33 2 -6 12 -11 19 -11 15z"/>
<path d="M1684 3356 c-13 -33 23 -65 41 -36 3 5 0 7 -8 4 -8 -3 -18 -1 -22 5
-3 7 3 11 15 11 13 0 20 5 18 13 -7 18 -37 21 -44 3z m33 -2 c-3 -3 -12 -4
-19 -1 -8 3 -5 6 6 6 11 1 17 -2 13 -5z"/>
<path d="M1757 3363 c-12 -11 -8 -23 7 -23 8 0 18 -5 22 -12 5 -8 0 -9 -16 -5
-16 4 -20 3 -12 -5 12 -12 42 -4 42 10 0 5 -10 14 -22 21 l-23 12 23 -5 c12
-2 20 0 16 5 -6 11 -28 12 -37 2z"/>
<path d="M1827 3363 c-12 -11 -8 -23 7 -23 8 0 18 -5 22 -12 5 -8 0 -9 -16 -5
-16 4 -20 3 -12 -5 12 -12 42 -4 42 10 0 5 -10 14 -22 21 l-23 12 23 -5 c12
-2 20 0 16 5 -6 11 -28 12 -37 2z"/>
<path d="M1894 3356 c-13 -33 23 -65 41 -36 3 5 0 7 -8 4 -8 -3 -18 -1 -22 5
-3 7 3 11 15 11 13 0 20 5 18 13 -7 18 -37 21 -44 3z m33 -2 c-3 -3 -12 -4
-19 -1 -8 3 -5 6 6 6 11 1 17 -2 13 -5z"/>
<path d="M2094 3362 c19 -8 19 -9 -3 -15 -28 -7 -23 -31 8 -35 19 -3 22 0 19
25 -2 19 -9 29 -23 30 -19 3 -19 3 -1 -5z m11 -32 c-3 -5 -10 -10 -16 -10 -5
0 -9 5 -9 10 0 6 7 10 16 10 8 0 12 -4 9 -10z"/>
<path d="M2141 3336 c1 -29 2 -29 8 -7 10 36 31 38 32 4 1 -27 1 -27 8 -4 9
34 29 37 34 6 4 -24 4 -24 3 2 -1 26 -4 28 -43 29 -42 0 -43 -1 -42 -30z"/>
<path d="M2254 3356 c-13 -33 23 -65 41 -36 3 5 0 7 -8 4 -8 -3 -18 -1 -22 5
-3 7 3 11 15 11 13 0 20 5 18 13 -7 18 -37 21 -44 3z m33 -2 c-3 -3 -12 -4
-19 -1 -8 3 -5 6 6 6 11 1 17 -2 13 -5z"/>
<path d="M1243 3220 c0 -25 2 -35 4 -22 2 12 2 32 0 45 -2 12 -4 2 -4 -23z"/>
<path d="M1338 3248 c-9 -25 5 -68 21 -67 10 0 11 2 4 6 -15 5 -17 40 -4 45 5
2 3 8 -4 15 -10 9 -15 9 -17 1z"/>
<path d="M1110 3215 c0 -33 2 -35 35 -35 33 0 35 2 35 35 0 33 -2 35 -35 35
-33 0 -35 -2 -35 -35z m60 0 c0 -20 -5 -25 -25 -25 -20 0 -25 5 -25 25 0 20 5
25 25 25 20 0 25 -5 25 -25z"/>
<path d="M1271 3206 c1 -28 2 -29 8 -7 9 34 29 37 34 6 4 -24 4 -24 3 2 -1 22
-6 28 -23 29 -19 1 -23 -4 -22 -30z"/>
<path d="M1384 3226 c-13 -33 23 -65 41 -36 3 5 0 7 -8 4 -8 -3 -18 -1 -22 5
-3 7 3 11 15 11 13 0 20 5 18 13 -7 18 -37 21 -44 3z m33 -2 c-3 -3 -12 -4
-19 -1 -8 3 -5 6 6 6 11 1 17 -2 13 -5z"/>
<path d="M1457 3233 c-15 -15 -6 -45 15 -51 21 -5 21 -6 2 -14 -18 -8 -18 -8
1 -5 29 3 36 77 7 77 -10 0 -22 -3 -25 -7z m28 -33 c-5 -8 -11 -8 -17 -2 -6 6
-7 16 -3 22 5 8 11 8 17 2 6 -6 7 -16 3 -22z"/>
<path d="M1524 3226 c-13 -33 23 -65 41 -36 3 5 0 7 -8 4 -8 -3 -18 -1 -22 5
-3 7 3 11 15 11 13 0 20 5 18 13 -7 18 -37 21 -44 3z m33 -2 c-3 -3 -12 -4
-19 -1 -8 3 -5 6 6 6 11 1 17 -2 13 -5z"/>
<path d="M1591 3205 c1 -20 3 -24 6 -10 3 11 12 25 20 32 13 10 12 12 -6 10
-17 -1 -21 -7 -20 -32z"/>
<path d="M1682 3210 c0 -19 2 -27 5 -17 2 9 2 25 0 35 -3 9 -5 1 -5 -18z"/>
<path d="M1711 3206 c1 -29 2 -29 8 -7 10 36 31 38 32 4 1 -27 1 -27 8 -4 9
34 29 37 34 6 4 -24 4 -24 3 2 -1 26 -4 28 -43 29 -42 0 -43 -1 -42 -30z"/>
<path d="M1824 3226 c-9 -24 4 -48 23 -44 12 2 18 12 18 28 0 29 -32 41 -41
16z m31 -26 c-5 -8 -11 -8 -17 -2 -6 6 -7 16 -3 22 5 8 11 8 17 2 6 -6 7 -16
3 -22z"/>
<path d="M1813 3095 c0 -27 2 -38 4 -22 2 15 2 37 0 50 -2 12 -4 0 -4 -28z"/>
<path d="M1843 3095 c0 -27 2 -38 4 -22 2 15 2 37 0 50 -2 12 -4 0 -4 -28z"/>
<path d="M1243 3090 c0 -25 2 -35 4 -22 2 12 2 32 0 45 -2 12 -4 2 -4 -23z"/>
<path d="M1338 3118 c-9 -25 5 -68 21 -67 10 0 11 2 4 6 -15 5 -17 40 -4 45 5
2 3 8 -4 15 -10 9 -15 9 -17 1z"/>
<path d="M1877 3123 c-13 -12 -7 -24 18 -33 33 -13 33 -34 -1 -27 -16 3 -22 1
-16 -5 15 -15 46 -5 50 14 2 12 -5 19 -22 24 -14 3 -23 11 -20 16 4 5 15 8 25
5 11 -3 17 -1 13 4 -6 10 -38 12 -47 2z"/>
<path d="M1110 3085 c0 -33 2 -35 35 -35 33 0 35 2 35 35 0 33 -2 35 -35 35
-33 0 -35 -2 -35 -35z m60 0 c0 -20 -5 -25 -25 -25 -20 0 -25 5 -25 25 0 20 5
25 25 25 20 0 25 -5 25 -25z"/>
<path d="M1271 3076 c1 -28 2 -29 8 -7 9 34 29 37 34 6 4 -24 4 -24 3 2 -1 22
-6 28 -23 29 -19 1 -23 -4 -22 -30z"/>
<path d="M1384 3096 c-13 -33 23 -65 41 -36 3 5 0 7 -8 4 -8 -3 -18 -1 -22 5
-3 7 3 11 15 11 13 0 20 5 18 13 -7 18 -37 21 -44 3z m33 -2 c-3 -3 -12 -4
-19 -1 -8 3 -5 6 6 6 11 1 17 -2 13 -5z"/>
<path d="M1457 3103 c-15 -15 -6 -45 15 -51 21 -5 21 -6 2 -14 -18 -8 -18 -8
1 -5 29 3 36 77 7 77 -10 0 -22 -3 -25 -7z m28 -33 c-5 -8 -11 -8 -17 -2 -6 6
-7 16 -3 22 5 8 11 8 17 2 6 -6 7 -16 3 -22z"/>
<path d="M1524 3096 c-13 -33 23 -65 41 -36 3 5 0 7 -8 4 -8 -3 -18 -1 -22 5
-3 7 3 11 15 11 13 0 20 5 18 13 -7 18 -37 21 -44 3z m33 -2 c-3 -3 -12 -4
-19 -1 -8 3 -5 6 6 6 11 1 17 -2 13 -5z"/>
<path d="M1591 3075 c1 -20 3 -24 6 -10 3 11 12 25 20 32 13 10 12 12 -6 10
-17 -1 -21 -7 -20 -32z"/>
<path d="M1684 3095 c-9 -22 3 -45 23 -45 15 0 15 2 -3 15 -19 15 -19 15 0 30
18 13 18 15 3 15 -10 0 -20 -7 -23 -15z"/>
<path d="M1764 3102 c19 -8 19 -9 -3 -15 -28 -7 -23 -31 8 -35 19 -3 22 0 19
25 -2 19 -9 29 -23 30 -19 3 -19 3 -1 -5z m11 -32 c-3 -5 -10 -10 -16 -10 -5
0 -9 5 -9 10 0 6 7 10 16 10 8 0 12 -4 9 -10z"/>
<path d="M1952 3080 c0 -19 2 -27 5 -17 2 9 2 25 0 35 -3 9 -5 1 -5 -18z"/>
<path d="M1987 3103 c-15 -15 -6 -45 15 -51 21 -5 21 -6 2 -14 -18 -8 -18 -8
1 -5 29 3 36 77 7 77 -10 0 -22 -3 -25 -7z m28 -33 c-5 -8 -11 -8 -17 -2 -6 6
-7 16 -3 22 5 8 11 8 17 2 6 -6 7 -16 3 -22z"/>
<path d="M2051 3076 c1 -28 2 -29 8 -7 9 34 29 37 34 6 4 -24 4 -24 3 2 -1 22
-6 28 -23 29 -19 1 -23 -4 -22 -30z"/>
<path d="M1593 2975 c0 -27 2 -38 4 -22 2 15 2 37 0 50 -2 12 -4 0 -4 -28z"/>
<path d="M1231 3005 c0 -5 8 -25 17 -43 l18 -33 17 37 c10 20 16 38 14 41 -2
2 -10 -11 -17 -28 l-13 -31 -18 33 c-10 19 -18 30 -18 24z"/>
<path d="M1622 3003 c11 -3 18 -17 21 -41 l4 -37 1 37 c1 25 7 38 20 41 9 3
-1 5 -23 5 -22 0 -32 -2 -23 -5z"/>
<path d="M1929 3001 c-10 -28 3 -71 20 -70 10 0 11 2 4 6 -15 6 -17 43 -3 43
6 0 16 -12 22 -26 10 -21 9 -27 -3 -35 -10 -6 -10 -9 -1 -9 13 0 52 57 51 75
0 6 -5 0 -11 -12 -14 -28 -25 -29 -33 -3 -3 11 -12 20 -20 20 -7 0 -15 6 -17
13 -4 9 -6 8 -9 -2z"/>
<path d="M1110 2955 c0 -33 2 -35 35 -35 33 0 35 2 35 35 0 33 -2 35 -35 35
-33 0 -35 -2 -35 -35z m60 0 c0 -20 -5 -25 -25 -25 -20 0 -25 5 -25 25 0 20 5
25 25 25 20 0 25 -5 25 -25z"/>
<path d="M1314 2976 c-13 -33 23 -65 41 -36 3 5 0 7 -8 4 -8 -3 -18 -1 -22 5
-3 7 3 11 15 11 13 0 20 5 18 13 -7 18 -37 21 -44 3z m33 -2 c-3 -3 -12 -4
-19 -1 -8 3 -5 6 6 6 11 1 17 -2 13 -5z"/>
<path d="M1387 2983 c-12 -11 -8 -23 7 -23 8 0 18 -5 22 -12 5 -8 0 -9 -16 -5
-16 4 -20 3 -12 -5 12 -12 42 -4 42 10 0 5 -10 14 -22 21 l-23 12 23 -5 c12
-2 20 0 16 5 -6 11 -28 12 -37 2z"/>
<path d="M1457 2983 c-12 -11 -8 -23 7 -23 8 0 18 -5 22 -12 5 -8 0 -9 -16 -5
-16 4 -20 3 -12 -5 12 -12 42 -4 42 10 0 5 -10 14 -22 21 l-23 12 23 -5 c12
-2 20 0 16 5 -6 11 -28 12 -37 2z"/>
<path d="M1524 2976 c-13 -33 23 -65 41 -36 3 5 0 7 -8 4 -8 -3 -18 -1 -22 5
-3 7 3 11 15 11 13 0 20 5 18 13 -7 18 -37 21 -44 3z m33 -2 c-3 -3 -12 -4
-19 -1 -8 3 -5 6 6 6 11 1 17 -2 13 -5z"/>
<path d="M1681 2988 c-1 -4 4 -19 11 -33 10 -22 9 -28 -3 -36 -10 -6 -10 -9
-1 -9 13 0 52 57 51 75 0 6 -5 0 -11 -12 -6 -13 -14 -23 -18 -23 -4 0 -12 10
-18 23 -6 12 -11 19 -11 15z"/>
<path d="M1750 2948 c0 -24 4 -38 8 -32 4 6 15 13 25 17 26 10 18 51 -10 55
-21 3 -23 -1 -23 -40z m35 2 c-5 -8 -11 -8 -17 -2 -6 6 -7 16 -3 22 5 8 11 8
17 2 6 -6 7 -16 3 -22z"/>
<path d="M1824 2976 c-13 -33 23 -65 41 -36 3 5 0 7 -8 4 -8 -3 -18 -1 -22 5
-3 7 3 11 15 11 13 0 20 5 18 13 -7 18 -37 21 -44 3z m33 -2 c-3 -3 -12 -4
-19 -1 -8 3 -5 6 6 6 11 1 17 -2 13 -5z"/>
<path d="M2030 2948 c0 -24 4 -38 8 -32 4 6 15 13 25 17 26 10 18 51 -10 55
-21 3 -23 -1 -23 -40z m35 2 c-5 -8 -11 -8 -17 -2 -6 6 -7 16 -3 22 5 8 11 8
17 2 6 -6 7 -16 3 -22z"/>
<path d="M2104 2976 c-13 -33 23 -65 41 -36 3 5 0 7 -8 4 -8 -3 -18 -1 -22 5
-3 7 3 11 15 11 13 0 20 5 18 13 -7 18 -37 21 -44 3z m33 -2 c-3 -3 -12 -4
-19 -1 -8 3 -5 6 6 6 11 1 17 -2 13 -5z"/>
<path d="M1461 2847 c-1 -45 1 -48 22 -45 30 4 37 47 8 55 -11 3 -22 12 -24
22 -3 9 -5 -6 -6 -32z m34 -27 c-5 -8 -11 -8 -17 -2 -6 6 -7 16 -3 22 5 8 11
8 17 2 6 -6 7 -16 3 -22z"/>
<path d="M1533 2845 c0 -27 2 -38 4 -22 2 15 2 37 0 50 -2 12 -4 0 -4 -28z"/>
<path d="M1673 2845 c0 -27 2 -38 4 -22 2 15 2 37 0 50 -2 12 -4 0 -4 -28z"/>
<path d="M1952 2845 c0 -35 2 -43 7 -26 9 35 29 37 34 4 5 -28 5 -28 3 2 0 19
-6 30 -16 30 -8 0 -18 9 -22 20 -3 12 -6 -1 -6 -30z"/>
<path d="M1240 2840 c0 -37 2 -41 21 -38 30 4 47 33 33 56 -6 9 -21 18 -33 20
-19 3 -21 -1 -21 -38z m45 0 c0 -16 -6 -26 -17 -28 -14 -3 -18 3 -18 28 0 25
4 31 18 28 11 -2 17 -12 17 -28z"/>
<path d="M1908 2868 c-9 -25 5 -68 21 -67 10 0 11 2 4 6 -15 5 -17 40 -4 45 5
2 3 8 -4 15 -10 9 -15 9 -17 1z"/>
<path d="M1110 2825 c0 -33 2 -35 35 -35 33 0 35 2 35 35 0 33 -2 35 -35 35
-33 0 -35 -2 -35 -35z m60 0 c0 -20 -5 -25 -25 -25 -20 0 -25 5 -25 25 0 20 5
25 25 25 20 0 25 -5 25 -25z"/>
<path d="M1324 2846 c-9 -24 4 -48 23 -44 12 2 18 12 18 28 0 29 -32 41 -41
16z m31 -26 c-5 -8 -11 -8 -17 -2 -6 6 -7 16 -3 22 5 8 11 8 17 2 6 -6 7 -16
3 -22z"/>
<path d="M1394 2830 c1 -19 7 -25 24 -26 18 -1 22 4 21 30 -1 28 -2 29 -8 7
-9 -33 -29 -38 -34 -9 -4 21 -4 21 -3 -2z"/>
<path d="M1564 2846 c-13 -33 23 -65 41 -36 3 5 0 7 -8 4 -8 -3 -18 -1 -22 5
-3 7 3 11 15 11 13 0 20 5 18 13 -7 18 -37 21 -44 3z m33 -2 c-3 -3 -12 -4
-19 -1 -8 3 -5 6 6 6 11 1 17 -2 13 -5z"/>
<path d="M1704 2846 c-13 -33 23 -65 41 -36 3 5 0 7 -8 4 -8 -3 -18 -1 -22 5
-3 7 3 11 15 11 13 0 20 5 18 13 -7 18 -37 21 -44 3z m33 -2 c-3 -3 -12 -4
-19 -1 -8 3 -5 6 6 6 11 1 17 -2 13 -5z"/>
<path d="M1771 2826 c1 -28 2 -29 8 -7 9 34 29 37 34 6 4 -24 4 -24 3 2 -1 22
-6 28 -23 29 -19 1 -23 -4 -22 -30z"/>
<path d="M1847 2853 c-15 -15 -6 -45 15 -51 21 -5 21 -6 2 -14 -18 -8 -18 -8
1 -5 29 3 36 77 7 77 -10 0 -22 -3 -25 -7z m28 -33 c-5 -8 -11 -8 -17 -2 -6 6
-7 16 -3 22 5 8 11 8 17 2 6 -6 7 -16 3 -22z"/>
<path d="M1461 2717 c-1 -45 1 -48 22 -45 30 4 37 47 8 55 -11 3 -22 12 -24
22 -3 9 -5 -6 -6 -32z m34 -27 c-5 -8 -11 -8 -17 -2 -6 6 -7 16 -3 22 5 8 11
8 17 2 6 -6 7 -16 3 -22z"/>
<path d="M1533 2715 c0 -27 2 -38 4 -22 2 15 2 37 0 50 -2 12 -4 0 -4 -28z"/>
<path d="M1830 2746 c0 -7 -9 -16 -21 -19 -29 -8 -22 -51 9 -55 20 -3 22 1 22
42 0 25 -2 46 -5 46 -3 0 -5 -6 -5 -14z m-5 -56 c-5 -8 -11 -8 -17 -2 -6 6 -7
16 -3 22 5 8 11 8 17 2 6 -6 7 -16 3 -22z"/>
<path d="M1902 2715 c0 -35 2 -43 7 -26 9 35 29 37 34 4 5 -28 5 -28 3 2 0 19
-6 30 -16 30 -8 0 -18 9 -22 20 -3 12 -6 -1 -6 -30z"/>
<path d="M1240 2710 c0 -37 2 -41 21 -38 30 4 47 33 33 56 -6 9 -21 18 -33 20
-19 3 -21 -1 -21 -38z m45 0 c0 -16 -6 -26 -17 -28 -14 -3 -18 3 -18 28 0 25
4 31 18 28 11 -2 17 -12 17 -28z"/>
<path d="M1858 2738 c-9 -25 5 -68 21 -67 10 0 11 2 4 6 -15 5 -17 40 -4 45 5
2 3 8 -4 15 -10 9 -15 9 -17 1z"/>
<path d="M1110 2705 c0 -33 2 -35 35 -35 33 0 35 2 35 35 0 33 -2 35 -35 35
-33 0 -35 -2 -35 -35z m60 0 c0 -20 -5 -25 -25 -25 -20 0 -25 5 -25 25 0 20 5
25 25 25 20 0 25 -5 25 -25z"/>
<path d="M1324 2716 c-9 -24 4 -48 23 -44 12 2 18 12 18 28 0 29 -32 41 -41
16z m31 -26 c-5 -8 -11 -8 -17 -2 -6 6 -7 16 -3 22 5 8 11 8 17 2 6 -6 7 -16
3 -22z"/>
<path d="M1394 2700 c1 -19 7 -25 24 -26 18 -1 22 4 21 30 -1 28 -2 29 -8 7
-9 -33 -29 -38 -34 -9 -4 21 -4 21 -3 -2z"/>
<path d="M1564 2716 c-13 -33 23 -65 41 -36 3 5 0 7 -8 4 -8 -3 -18 -1 -22 5
-3 7 3 11 15 11 13 0 20 5 18 13 -7 18 -37 21 -44 3z m33 -2 c-3 -3 -12 -4
-19 -1 -8 3 -5 6 6 6 11 1 17 -2 13 -5z"/>
<path d="M1671 2715 c0 -11 3 -26 8 -34 7 -11 10 -8 16 9 l7 23 13 -24 13 -24
7 28 c4 15 5 31 1 34 -3 4 -6 -2 -6 -13 -1 -18 -1 -18 -14 -1 -13 17 -14 17
-21 0 -7 -17 -8 -17 -15 2 l-9 20 0 -20z"/>
<path d="M1762 2700 c0 -19 2 -27 5 -17 2 9 2 25 0 35 -3 9 -5 1 -5 -18z"/>
<path d="M1461 2587 c-1 -45 1 -48 22 -45 30 4 37 47 8 55 -11 3 -22 12 -24
22 -3 9 -5 -6 -6 -32z m34 -27 c-5 -8 -11 -8 -17 -2 -6 6 -7 16 -3 22 5 8 11
8 17 2 6 -6 7 -16 3 -22z"/>
<path d="M1533 2585 c0 -27 2 -38 4 -22 2 15 2 37 0 50 -2 12 -4 0 -4 -28z"/>
<path d="M1710 2616 c0 -7 -9 -16 -21 -19 -29 -8 -22 -51 9 -55 20 -3 22 1 22
42 0 25 -2 46 -5 46 -3 0 -5 -6 -5 -14z m-5 -56 c-5 -8 -11 -8 -17 -2 -6 6 -7
16 -3 22 5 8 11 8 17 2 6 -6 7 -16 3 -22z"/>
<path d="M1862 2613 c-5 -10 -5 -31 -1 -48 l7 -30 1 28 c1 35 31 38 31 2 0
-17 5 -25 18 -24 10 0 12 3 5 6 -16 6 -17 43 -3 43 6 0 5 6 -2 14 -7 8 -14 10
-16 5 -5 -12 -32 -12 -32 0 0 5 6 12 13 14 9 4 9 6 0 6 -7 1 -16 -7 -21 -16z"/>
<path d="M1240 2580 c0 -37 2 -41 21 -38 12 2 27 11 33 21 14 22 -3 51 -33 55
-19 3 -21 -1 -21 -38z m45 0 c0 -16 -6 -26 -17 -28 -14 -3 -18 3 -18 28 0 25
4 31 18 28 11 -2 17 -12 17 -28z"/>
<path d="M1110 2575 c0 -33 2 -35 35 -35 33 0 35 2 35 35 0 33 -2 35 -35 35
-33 0 -35 -2 -35 -35z m60 0 c0 -20 -5 -25 -25 -25 -20 0 -25 5 -25 25 0 20 5
25 25 25 20 0 25 -5 25 -25z"/>
<path d="M1324 2586 c-9 -24 4 -48 23 -44 24 4 24 52 0 56 -9 2 -20 -4 -23
-12z m31 -26 c-5 -8 -11 -8 -17 -2 -6 6 -7 16 -3 22 5 8 11 8 17 2 6 -6 7 -16
3 -22z"/>
<path d="M1394 2570 c1 -19 7 -25 24 -26 18 -1 22 4 21 30 -1 28 -2 29 -8 7
-9 -33 -29 -38 -34 -9 -4 21 -4 21 -3 -2z"/>
<path d="M1564 2586 c-13 -33 23 -65 41 -36 3 5 0 7 -8 4 -8 -3 -18 -1 -22 5
-3 7 3 11 15 11 13 0 20 5 18 13 -7 18 -37 21 -44 3z m33 -2 c-3 -3 -12 -4
-19 -1 -8 3 -5 6 6 6 11 1 17 -2 13 -5z"/>
<path d="M1741 2565 c1 -20 3 -24 6 -10 3 11 12 25 20 32 13 10 12 12 -6 10
-17 -1 -21 -7 -20 -32z"/>
<path d="M1814 2592 c19 -8 19 -9 -3 -15 -28 -7 -23 -31 8 -35 19 -3 22 0 19
25 -2 19 -9 29 -23 30 -19 3 -19 3 -1 -5z m11 -32 c-3 -5 -10 -10 -16 -10 -5
0 -9 5 -9 10 0 6 7 10 16 10 8 0 12 -4 9 -10z"/>
<path d="M2392 4173 c-15 -48 -8 -55 8 -8 7 20 10 38 8 41 -3 2 -10 -13 -16
-33z"/>
<path d="M2328 4019 c-25 -54 -44 -99 -42 -99 7 0 97 191 92 195 -2 2 -24 -41
-50 -96z"/>
<path d="M2286 4085 c-3 -9 -2 -24 2 -32 8 -13 10 -13 16 2 3 9 2 24 -2 32 -8
13 -10 13 -16 -2z"/>
<path d="M2006 2300 c4 -14 13 -38 20 -55 11 -24 13 -25 8 -5 -4 14 -13 39
-20 55 -11 24 -13 25 -8 5z"/>
<path d="M1788 2283 c6 -2 12 -20 12 -38 0 -18 -6 -36 -12 -38 -7 -3 1 -5 17
-5 17 0 24 2 18 5 -8 2 -13 22 -13 44 0 31 -4 39 -17 38 -11 0 -13 -3 -5 -6z"/>
<path d="M1946 2275 c-3 -9 -2 -24 2 -32 8 -13 10 -13 16 2 3 9 2 24 -2 32 -8
13 -10 13 -16 -2z"/>
<path d="M2046 2190 c3 -14 11 -32 16 -40 6 -10 7 -7 2 10 -3 14 -11 32 -16
40 -6 10 -7 7 -2 -10z"/>
<path d="M1321 2129 c-6 -18 -9 -34 -7 -36 2 -2 9 10 15 28 6 18 9 34 7 36 -2
2 -9 -10 -15 -28z"/>
<path d="M2076 2110 c3 -14 11 -32 16 -40 6 -10 7 -7 2 10 -3 14 -11 32 -16
40 -6 10 -7 7 -2 -10z"/>
<path d="M1286 2034 c-9 -26 -14 -49 -12 -51 2 -2 11 17 20 43 9 26 14 49 12
51 -2 2 -11 -17 -20 -43z"/>
<path d="M1462 2025 c0 -42 2 -51 7 -30 8 40 38 46 44 8 4 -28 4 -28 3 2 -1
23 -6 30 -21 30 -13 0 -22 9 -26 25 -4 15 -7 1 -7 -35z"/>
<path d="M2292 2025 c0 -42 2 -51 7 -30 8 40 38 46 44 8 4 -28 4 -28 3 2 -1
23 -6 30 -21 30 -13 0 -22 9 -26 25 -4 15 -7 1 -7 -35z"/>
<path d="M1340 2013 l1 -58 25 30 c46 55 47 62 12 74 -17 6 -33 11 -34 11 -2
0 -4 -26 -4 -57z"/>
<path d="M2167 2057 l-28 -12 31 -42 c18 -24 34 -43 36 -43 2 0 4 25 4 55 0
59 -1 60 -43 42z"/>
<path d="M2106 2030 c4 -14 13 -38 20 -55 11 -24 13 -25 8 -5 -4 14 -13 39
-20 55 -11 24 -13 25 -8 5z"/>
<path d="M1545 2031 c-3 -7 0 -8 9 -5 8 3 21 2 28 -2 9 -6 5 -10 -12 -14 -35
-8 -32 -35 3 -36 26 -1 28 2 25 30 -2 23 -9 32 -25 34 -11 2 -24 -2 -28 -7z
m40 -41 c-3 -5 -13 -10 -21 -10 -8 0 -14 5 -14 10 0 6 9 10 21 10 11 0 17 -4
14 -10z"/>
<path d="M1625 2030 c-8 -14 3 -30 21 -30 8 0 14 -5 14 -11 0 -7 -9 -9 -21 -6
-16 4 -19 3 -11 -5 12 -12 42 -4 42 13 0 6 -9 13 -20 16 -11 3 -20 10 -20 15
0 6 9 8 20 5 11 -3 18 -1 14 4 -7 12 -31 11 -39 -1z"/>
<path d="M2375 2031 c-3 -7 0 -8 9 -5 8 3 21 2 28 -2 9 -6 5 -10 -12 -14 -35
-8 -32 -35 3 -36 26 -1 28 2 25 30 -2 23 -9 32 -25 34 -11 2 -24 -2 -28 -7z
m40 -41 c-3 -5 -13 -10 -21 -10 -8 0 -14 5 -14 10 0 6 9 10 21 10 11 0 17 -4
14 -10z"/>
<path d="M2455 2030 c-8 -14 3 -30 21 -30 8 0 14 -5 14 -11 0 -7 -9 -9 -21 -6
-16 4 -19 3 -11 -5 12 -12 42 -4 42 13 0 6 -9 13 -20 16 -11 3 -20 10 -20 15
0 6 9 8 20 5 11 -3 18 -1 14 4 -7 12 -31 11 -39 -1z"/>
<path d="M1251 1939 c-6 -18 -9 -34 -7 -36 2 -2 9 10 15 28 6 18 9 34 7 36 -2
2 -9 -10 -15 -28z"/>
<path d="M2146 1920 c3 -14 11 -32 16 -40 6 -10 7 -7 2 10 -3 14 -11 32 -16
40 -6 10 -7 7 -2 -10z"/>
<path d="M1216 1844 c-9 -26 -14 -49 -12 -51 2 -2 11 17 20 43 9 26 14 49 12
51 -2 2 -11 -17 -20 -43z"/>
<path d="M2176 1840 c3 -14 11 -32 16 -40 6 -10 7 -7 2 10 -3 14 -11 32 -16
40 -6 10 -7 7 -2 -10z"/>
<path d="M1126 1815 c-3 -9 -2 -24 2 -32 8 -13 10 -13 16 2 3 9 2 24 -2 32 -8
13 -10 13 -16 -2z"/>
<path d="M1181 1749 c-6 -18 -9 -34 -7 -36 2 -2 9 10 15 28 6 18 9 34 7 36 -2
2 -9 -10 -15 -28z"/>
<path d="M2206 1760 c3 -14 11 -32 16 -40 6 -10 7 -7 2 10 -3 14 -11 32 -16
40 -6 10 -7 7 -2 -10z"/>
<path d="M1150 1665 l-12 -35 -534 0 -534 0 0 -755 0 -755 805 0 805 0 0 755
0 755 -266 0 -265 0 7 23 c4 12 9 28 11 35 3 6 3 12 0 12 -3 0 -11 -16 -17
-35z m520 -200 l0 -155 -795 0 -795 0 0 155 0 155 795 0 795 0 0 -155z m0
-710 l0 -545 -795 0 -795 0 0 545 0 545 795 0 795 0 0 -545z m0 -590 l0 -35
-795 0 -795 0 0 35 0 35 795 0 795 0 0 -35z"/>
<path d="M253 1565 c-106 -46 -65 -215 52 -215 55 0 115 61 115 115 0 34 -32
84 -65 99 -40 19 -60 20 -102 1z m126 -30 c20 -20 26 -35 26 -71 0 -39 -5 -50
-33 -75 -46 -42 -93 -40 -138 5 -26 26 -34 43 -34 69 0 38 30 83 64 98 33 14
88 2 115 -26z"/>
<path d="M276 1515 c-21 -21 -21 -69 0 -90 18 -18 55 -17 61 2 3 7 -3 9 -15 6
-23 -6 -37 25 -27 58 5 15 13 19 27 16 12 -3 18 -1 15 6 -6 19 -43 20 -61 2z"/>
<path d="M552 1480 c0 -41 2 -47 7 -25 3 17 13 30 21 30 8 0 18 -13 22 -30 6
-29 6 -29 5 5 -2 28 -6 35 -22 35 -11 0 -23 9 -27 20 -3 11 -6 -4 -6 -35z"/>
<path d="M477 1513 c-15 -14 -6 -34 19 -43 29 -12 22 -34 -9 -26 -14 3 -17 2
-10 -5 16 -16 47 -7 51 14 2 11 -6 20 -23 27 -29 11 -24 35 6 27 11 -3 17 -1
13 4 -6 10 -38 12 -47 2z"/>
<path d="M740 1475 c0 -40 2 -45 23 -45 29 0 47 18 47 45 0 27 -18 45 -47 45
-21 0 -23 -5 -23 -45z m55 0 c0 -23 -5 -31 -22 -33 -20 -3 -23 1 -23 33 0 32
3 36 23 33 17 -2 22 -10 22 -33z"/>
<path d="M1260 1475 c0 -40 2 -45 23 -45 29 0 47 18 47 45 0 27 -18 45 -47 45
-21 0 -23 -5 -23 -45z m55 0 c0 -23 -5 -31 -22 -33 -20 -3 -23 1 -23 33 0 32
3 36 23 33 17 -2 22 -10 22 -33z"/>
<path d="M1428 1507 c-7 -21 6 -70 20 -73 7 -1 8 0 2 3 -12 6 -13 50 -1 55 5
2 3 8 -4 15 -10 9 -14 9 -17 0z"/>
<path d="M633 1465 c0 -22 2 -30 4 -17 2 12 2 30 0 40 -3 9 -5 -1 -4 -23z"/>
<path d="M661 1446 c1 -31 4 -43 7 -31 4 11 16 20 27 20 16 0 20 7 20 30 0 26
-4 30 -27 31 -27 1 -28 -1 -27 -50z m46 28 c8 -21 -13 -42 -28 -27 -13 13 -5
43 11 43 6 0 13 -7 17 -16z"/>
<path d="M820 1497 c0 -4 7 -22 16 -39 15 -30 15 -32 -2 -46 -13 -9 -14 -13
-4 -10 16 5 34 37 44 78 5 21 4 21 -8 -4 l-13 -30 -16 30 c-9 16 -16 25 -17
21z"/>
<path d="M891 1461 c1 -36 1 -36 8 -6 3 17 13 30 21 30 8 0 18 -13 22 -30 6
-29 6 -29 5 5 -2 31 -5 35 -29 36 -26 1 -28 -2 -27 -35z"/>
<path d="M975 1491 c-3 -7 0 -8 9 -5 8 3 21 2 28 -2 9 -6 5 -10 -12 -14 -35
-8 -32 -35 3 -36 26 -1 28 2 25 30 -2 23 -9 32 -25 34 -11 2 -24 -2 -28 -7z
m40 -41 c-3 -5 -13 -10 -21 -10 -8 0 -14 5 -14 10 0 6 9 10 21 10 11 0 17 -4
14 -10z"/>
<path d="M1051 1461 c1 -35 2 -35 8 -7 9 43 31 45 32 4 l1 -33 7 29 c9 42 29
44 34 4 l5 -33 -2 35 c-1 34 -2 35 -43 36 -43 0 -43 0 -42 -35z"/>
<path d="M1163 1465 c0 -22 2 -30 4 -17 2 12 2 30 0 40 -3 9 -5 -1 -4 -23z"/>
<path d="M1195 1481 c-11 -35 22 -71 39 -42 3 5 -2 8 -12 7 -11 -1 -17 6 -17
19 0 13 6 20 17 19 10 -1 15 2 12 7 -9 16 -32 10 -39 -10z"/>
<path d="M1355 1491 c-3 -7 0 -8 9 -5 8 3 21 2 28 -2 9 -6 5 -10 -12 -14 -35
-8 -32 -35 3 -36 26 -1 28 2 25 30 -2 23 -9 32 -25 34 -11 2 -24 -2 -28 -7z
m40 -41 c-3 -5 -13 -10 -21 -10 -8 0 -14 5 -14 10 0 6 9 10 21 10 11 0 17 -4
14 -10z"/>
<path d="M1485 1491 c-3 -7 0 -8 9 -5 8 3 21 2 28 -2 9 -6 5 -10 -12 -14 -35
-8 -32 -35 3 -36 26 -1 28 2 25 30 -2 23 -9 32 -25 34 -11 2 -24 -2 -28 -7z
m40 -41 c-3 -5 -13 -10 -21 -10 -8 0 -14 5 -14 10 0 6 9 10 21 10 11 0 17 -4
14 -10z"/>
<path d="M661 1217 c-1 -45 1 -48 22 -45 30 4 37 47 8 55 -11 3 -22 12 -24 22
-3 9 -5 -6 -6 -32z m34 -27 c-5 -8 -11 -8 -17 -2 -6 6 -7 16 -3 22 5 8 11 8
17 2 6 -6 7 -16 3 -22z"/>
<path d="M287 1243 c-13 -12 -7 -24 18 -33 33 -13 33 -34 -1 -27 -16 3 -22 1
-16 -5 15 -15 46 -5 50 14 2 12 -5 19 -22 24 -14 3 -23 11 -20 16 4 5 15 8 25
5 11 -3 17 -1 13 4 -6 10 -38 12 -47 2z"/>
<path d="M358 1238 c-9 -25 5 -68 21 -67 10 0 11 2 4 6 -15 5 -17 40 -4 45 5
2 3 8 -4 15 -10 9 -15 9 -17 1z"/>
<path d="M940 1210 c0 -37 2 -41 21 -38 12 2 27 11 33 21 14 22 -3 51 -33 55
-19 3 -21 -1 -21 -38z m45 0 c0 -16 -6 -26 -17 -28 -14 -3 -18 3 -18 28 0 25
4 31 18 28 11 -2 17 -12 17 -28z"/>
<path d="M1088 1238 c-9 -25 5 -68 21 -67 10 0 11 2 4 6 -15 5 -17 40 -4 45 5
2 3 8 -4 15 -10 9 -15 9 -17 1z"/>
<path d="M1202 1243 c11 -3 18 -17 21 -41 l4 -37 1 37 c1 25 7 38 20 41 9 3
-1 5 -23 5 -22 0 -32 -2 -23 -5z"/>
<path d="M150 1195 c0 -33 2 -35 35 -35 33 0 35 2 35 35 0 33 -2 35 -35 35
-33 0 -35 -2 -35 -35z m60 0 c0 -20 -5 -25 -25 -25 -20 0 -25 5 -25 25 0 20 5
25 25 25 20 0 25 -5 25 -25z"/>
<path d="M401 1195 c1 -20 3 -24 6 -10 3 11 12 25 20 32 13 10 12 12 -6 10
-17 -1 -21 -7 -20 -32z"/>
<path d="M452 1200 c0 -19 2 -27 5 -17 2 9 2 25 0 35 -3 9 -5 1 -5 -18z"/>
<path d="M481 1196 c1 -28 2 -29 8 -7 9 34 29 37 34 6 4 -24 4 -24 3 2 -1 22
-6 28 -23 29 -19 1 -23 -4 -22 -30z"/>
<path d="M557 1223 c-15 -15 -6 -45 15 -51 21 -5 21 -6 2 -14 -18 -8 -18 -8 1
-5 29 3 36 77 7 77 -10 0 -22 -3 -25 -7z m28 -33 c-5 -8 -11 -8 -17 -2 -6 6
-7 16 -3 22 5 8 11 8 17 2 6 -6 7 -16 3 -22z"/>
<path d="M754 1222 c19 -8 19 -9 -3 -15 -28 -7 -23 -31 8 -35 19 -3 22 0 19
25 -2 19 -9 29 -23 30 -19 3 -19 3 -1 -5z m11 -32 c-3 -5 -10 -10 -16 -10 -5
0 -9 5 -9 10 0 6 7 10 16 10 8 0 12 -4 9 -10z"/>
<path d="M807 1223 c-12 -11 -8 -23 7 -23 8 0 18 -5 22 -12 5 -8 0 -9 -16 -5
-16 4 -20 3 -12 -5 12 -12 42 -4 42 10 0 5 -10 14 -22 21 l-23 12 23 -5 c12
-2 20 0 16 5 -6 11 -28 12 -37 2z"/>
<path d="M874 1216 c-13 -33 23 -65 41 -36 3 5 0 7 -8 4 -8 -3 -18 -1 -22 5
-3 7 3 11 15 11 13 0 20 5 18 13 -7 18 -37 21 -44 3z m33 -2 c-3 -3 -12 -4
-19 -1 -8 3 -5 6 6 6 11 1 17 -2 13 -5z"/>
<path d="M1044 1222 c19 -8 19 -9 -3 -15 -28 -7 -23 -31 8 -35 19 -3 22 0 19
25 -2 19 -9 29 -23 30 -19 3 -19 3 -1 -5z m11 -32 c-3 -5 -10 -10 -16 -10 -5
0 -9 5 -9 10 0 6 7 10 16 10 8 0 12 -4 9 -10z"/>
<path d="M1134 1216 c-13 -33 23 -65 41 -36 3 5 0 7 -8 4 -8 -3 -18 -1 -22 5
-3 7 3 11 15 11 13 0 20 5 18 13 -7 18 -37 21 -44 3z m33 -2 c-3 -3 -12 -4
-19 -1 -8 3 -5 6 6 6 11 1 17 -2 13 -5z"/>
<path d="M1272 1200 c0 -19 2 -27 5 -17 2 9 2 25 0 35 -3 9 -5 1 -5 -18z"/>
<path d="M1301 1196 c1 -29 2 -29 8 -7 10 36 31 38 32 4 1 -27 1 -27 8 -4 9
34 29 37 34 6 4 -24 4 -24 3 2 -1 26 -4 28 -43 29 -42 0 -43 -1 -42 -30z"/>
<path d="M1414 1216 c-13 -33 23 -65 41 -36 3 5 0 7 -8 4 -8 -3 -18 -1 -22 5
-3 7 3 11 15 11 13 0 20 5 18 13 -7 18 -37 21 -44 3z m33 -2 c-3 -3 -12 -4
-19 -1 -8 3 -5 6 6 6 11 1 17 -2 13 -5z"/>
<path d="M501 1087 c-1 -45 1 -48 22 -45 30 4 37 47 8 55 -11 3 -22 12 -24 22
-3 9 -5 -6 -6 -32z m34 -27 c-5 -8 -11 -8 -17 -2 -6 6 -7 16 -3 22 5 8 11 8
17 2 6 -6 7 -16 3 -22z"/>
<path d="M573 1085 c0 -27 2 -38 4 -22 2 15 2 37 0 50 -2 12 -4 0 -4 -28z"/>
<path d="M713 1085 c0 -27 2 -38 4 -22 2 15 2 37 0 50 -2 12 -4 0 -4 -28z"/>
<path d="M280 1080 c0 -37 2 -41 21 -38 12 2 27 11 33 21 14 22 -3 51 -33 55
-19 3 -21 -1 -21 -38z m45 0 c0 -16 -6 -26 -17 -28 -14 -3 -18 3 -18 28 0 25
4 31 18 28 11 -2 17 -12 17 -28z"/>
<path d="M808 1108 c-9 -25 5 -68 21 -67 10 0 11 2 4 6 -15 5 -17 40 -4 45 5
2 3 8 -4 15 -10 9 -15 9 -17 1z"/>
<path d="M150 1075 c0 -33 2 -35 35 -35 33 0 35 2 35 35 0 33 -2 35 -35 35
-33 0 -35 -2 -35 -35z m60 0 c0 -20 -5 -25 -25 -25 -20 0 -25 5 -25 25 0 20 5
25 25 25 20 0 25 -5 25 -25z"/>
<path d="M364 1086 c-9 -24 4 -48 23 -44 12 2 18 12 18 28 0 29 -32 41 -41 16z
m31 -26 c-5 -8 -11 -8 -17 -2 -6 6 -7 16 -3 22 5 8 11 8 17 2 6 -6 7 -16 3
-22z"/>
<path d="M434 1070 c1 -19 7 -25 24 -26 18 -1 22 4 21 30 -1 28 -2 29 -8 7 -9
-33 -29 -38 -34 -9 -4 21 -4 21 -3 -2z"/>
<path d="M604 1086 c-13 -33 23 -65 41 -36 3 5 0 7 -8 4 -8 -3 -18 -1 -22 5
-3 7 3 11 15 11 13 0 20 5 18 13 -7 18 -37 21 -44 3z m33 -2 c-3 -3 -12 -4
-19 -1 -8 3 -5 6 6 6 11 1 17 -2 13 -5z"/>
<path d="M764 1092 c19 -8 19 -9 -3 -15 -28 -7 -23 -31 8 -35 19 -3 22 0 19
25 -2 19 -9 29 -23 30 -19 3 -19 3 -1 -5z m11 -32 c-3 -5 -10 -10 -16 -10 -5
0 -9 5 -9 10 0 6 7 10 16 10 8 0 12 -4 9 -10z"/>
<path d="M501 957 c-1 -45 1 -48 22 -45 30 4 37 47 8 55 -11 3 -22 12 -24 22
-3 9 -5 -6 -6 -32z m34 -27 c-5 -8 -11 -8 -17 -2 -6 6 -7 16 -3 22 5 8 11 8
17 2 6 -6 7 -16 3 -22z"/>
<path d="M573 955 c0 -27 2 -38 4 -22 2 15 2 37 0 50 -2 12 -4 0 -4 -28z"/>
<path d="M713 955 c0 -27 2 -38 4 -22 2 15 2 37 0 50 -2 12 -4 0 -4 -28z"/>
<path d="M280 950 c0 -37 2 -41 21 -38 12 2 27 11 33 21 14 22 -3 51 -33 55
-19 3 -21 -1 -21 -38z m45 0 c0 -16 -6 -26 -17 -28 -14 -3 -18 3 -18 28 0 25
4 31 18 28 11 -2 17 -12 17 -28z"/>
<path d="M150 945 c0 -33 2 -35 35 -35 33 0 35 2 35 35 0 33 -2 35 -35 35 -33
0 -35 -2 -35 -35z m60 0 c0 -20 -5 -25 -25 -25 -20 0 -25 5 -25 25 0 20 5 25
25 25 20 0 25 -5 25 -25z"/>
<path d="M364 956 c-9 -24 4 -48 23 -44 12 2 18 12 18 28 0 29 -32 41 -41 16z
m31 -26 c-5 -8 -11 -8 -17 -2 -6 6 -7 16 -3 22 5 8 11 8 17 2 6 -6 7 -16 3
-22z"/>
<path d="M434 940 c1 -19 7 -25 24 -26 18 -1 22 4 21 30 -1 28 -2 29 -8 7 -9
-33 -29 -38 -34 -9 -4 21 -4 21 -3 -2z"/>
<path d="M604 956 c-13 -33 23 -65 41 -36 3 5 0 7 -8 4 -8 -3 -18 -1 -22 5 -3
7 3 11 15 11 13 0 20 5 18 13 -7 18 -37 21 -44 3z m33 -2 c-3 -3 -12 -4 -19
-1 -8 3 -5 6 6 6 11 1 17 -2 13 -5z"/>
<path d="M744 956 c-9 -24 4 -48 23 -44 12 2 18 12 18 28 0 29 -32 41 -41 16z
m31 -26 c-5 -8 -11 -8 -17 -2 -6 6 -7 16 -3 22 5 8 11 8 17 2 6 -6 7 -16 3
-22z"/>
<path d="M811 936 c1 -28 2 -29 8 -7 9 34 29 37 34 6 4 -24 4 -24 3 2 -1 22
-6 28 -23 29 -19 1 -23 -4 -22 -30z"/>
<path d="M501 827 c-1 -45 1 -48 22 -45 30 4 37 47 8 55 -11 3 -22 12 -24 22
-3 9 -5 -6 -6 -32z m34 -27 c-5 -8 -11 -8 -17 -2 -6 6 -7 16 -3 22 5 8 11 8
17 2 6 -6 7 -16 3 -22z"/>
<path d="M573 825 c0 -27 2 -38 4 -22 2 15 2 37 0 50 -2 12 -4 0 -4 -28z"/>
<path d="M280 820 c0 -37 2 -41 21 -38 12 2 27 11 33 21 14 22 -3 51 -33 55
-19 3 -21 -1 -21 -38z m45 0 c0 -16 -6 -26 -17 -28 -14 -3 -18 3 -18 28 0 25
4 31 18 28 11 -2 17 -12 17 -28z"/>
<path d="M150 815 c0 -33 2 -35 35 -35 33 0 35 2 35 35 0 33 -2 35 -35 35 -33
0 -35 -2 -35 -35z m60 0 c0 -20 -5 -25 -25 -25 -20 0 -25 5 -25 25 0 20 5 25
25 25 20 0 25 -5 25 -25z"/>
<path d="M364 826 c-9 -24 4 -48 23 -44 12 2 18 12 18 28 0 29 -32 41 -41 16z
m31 -26 c-5 -8 -11 -8 -17 -2 -6 6 -7 16 -3 22 5 8 11 8 17 2 6 -6 7 -16 3
-22z"/>
<path d="M434 810 c1 -19 7 -25 24 -26 18 -1 22 4 21 30 -1 28 -2 29 -8 7 -9
-33 -29 -38 -34 -9 -4 21 -4 21 -3 -2z"/>
<path d="M604 826 c-13 -33 23 -65 41 -36 3 5 0 7 -8 4 -8 -3 -18 -1 -22 5 -3
7 3 11 15 11 13 0 20 5 18 13 -7 18 -37 21 -44 3z m33 -2 c-3 -3 -12 -4 -19
-1 -8 3 -5 6 6 6 11 1 17 -2 13 -5z"/>
<path d="M717 833 c-12 -11 -8 -23 7 -23 8 0 18 -5 22 -12 5 -8 0 -9 -16 -5
-16 4 -20 3 -12 -5 12 -12 42 -4 42 10 0 5 -10 14 -22 21 l-23 12 23 -5 c12
-2 20 0 16 5 -6 11 -28 12 -37 2z"/>
<path d="M784 826 c-9 -24 4 -48 23 -44 12 2 18 12 18 28 0 29 -32 41 -41 16z
m31 -26 c-5 -8 -11 -8 -17 -2 -6 6 -7 16 -3 22 5 8 11 8 17 2 6 -6 7 -16 3
-22z"/>
<path d="M857 833 c-15 -15 -6 -45 15 -51 21 -5 21 -6 2 -14 -18 -8 -18 -8 1
-5 29 3 36 77 7 77 -10 0 -22 -3 -25 -7z m28 -33 c-5 -8 -11 -8 -17 -2 -6 6
-7 16 -3 22 5 8 11 8 17 2 6 -6 7 -16 3 -22z"/>
<path d="M501 707 c-1 -45 1 -48 22 -45 30 4 37 47 8 55 -11 3 -22 12 -24 22
-3 9 -5 -6 -6 -32z m34 -27 c-5 -8 -11 -8 -17 -2 -6 6 -7 16 -3 22 5 8 11 8
17 2 6 -6 7 -16 3 -22z"/>
<path d="M573 705 c0 -27 2 -38 4 -22 2 15 2 37 0 50 -2 12 -4 0 -4 -28z"/>
<path d="M280 700 c0 -37 2 -41 21 -38 12 2 27 11 33 21 14 22 -3 51 -33 55
-19 3 -21 -1 -21 -38z m45 0 c0 -16 -6 -26 -17 -28 -14 -3 -18 3 -18 28 0 25
4 31 18 28 11 -2 17 -12 17 -28z"/>
<path d="M150 685 c0 -33 2 -35 35 -35 33 0 35 2 35 35 0 33 -2 35 -35 35 -33
0 -35 -2 -35 -35z m60 0 c0 -20 -5 -25 -25 -25 -20 0 -25 5 -25 25 0 20 5 25
25 25 20 0 25 -5 25 -25z"/>
<path d="M364 706 c-9 -24 4 -48 23 -44 12 2 18 12 18 28 0 29 -32 41 -41 16z
m31 -26 c-5 -8 -11 -8 -17 -2 -6 6 -7 16 -3 22 5 8 11 8 17 2 6 -6 7 -16 3
-22z"/>
<path d="M434 690 c1 -19 7 -25 24 -26 18 -1 22 4 21 30 -1 28 -2 29 -8 7 -9
-33 -29 -38 -34 -9 -4 21 -4 21 -3 -2z"/>
<path d="M604 706 c-13 -33 23 -65 41 -36 3 5 0 7 -8 4 -8 -3 -18 -1 -22 5 -3
7 3 11 15 11 13 0 20 5 18 13 -7 18 -37 21 -44 3z m33 -2 c-3 -3 -12 -4 -19
-1 -8 3 -5 6 6 6 11 1 17 -2 13 -5z"/>
<path d="M714 705 c-9 -22 3 -45 23 -45 15 0 15 2 -3 15 -19 15 -19 15 0 30
18 13 18 15 3 15 -10 0 -20 -7 -23 -15z"/>
<path d="M774 706 c-9 -24 4 -48 23 -44 12 2 18 12 18 28 0 29 -32 41 -41 16z
m31 -26 c-5 -8 -11 -8 -17 -2 -6 6 -7 16 -3 22 5 8 11 8 17 2 6 -6 7 -16 3
-22z"/>
<path d="M847 713 c-15 -15 -6 -45 15 -51 21 -5 21 -6 2 -14 -18 -8 -18 -8 1
-5 29 3 36 77 7 77 -10 0 -22 -3 -25 -7z m28 -33 c-5 -8 -11 -8 -17 -2 -6 6
-7 16 -3 22 5 8 11 8 17 2 6 -6 7 -16 3 -22z"/>
<path d="M501 577 c-1 -45 1 -48 22 -45 30 4 37 47 8 55 -11 3 -22 12 -24 22
-3 9 -5 -6 -6 -32z m34 -27 c-5 -8 -11 -8 -17 -2 -6 6 -7 16 -3 22 5 8 11 8
17 2 6 -6 7 -16 3 -22z"/>
<path d="M573 575 c0 -27 2 -38 4 -22 2 15 2 37 0 50 -2 12 -4 0 -4 -28z"/>
<path d="M712 575 c0 -35 2 -43 7 -26 9 35 29 37 34 4 5 -28 5 -28 3 2 0 19
-6 30 -16 30 -8 0 -18 9 -22 20 -3 12 -6 -1 -6 -30z"/>
<path d="M960 606 c0 -7 -9 -16 -21 -19 -29 -8 -22 -51 9 -55 20 -3 22 1 22
42 0 25 -2 46 -5 46 -3 0 -5 -6 -5 -14z m-5 -56 c-5 -8 -11 -8 -17 -2 -6 6 -7
16 -3 22 5 8 11 8 17 2 6 -6 7 -16 3 -22z"/>
<path d="M280 570 c0 -37 2 -41 21 -38 30 4 47 33 33 56 -6 9 -21 18 -33 20
-19 3 -21 -1 -21 -38z m45 0 c0 -16 -6 -26 -17 -28 -14 -3 -18 3 -18 28 0 25
4 31 18 28 11 -2 17 -12 17 -28z"/>
<path d="M150 555 c0 -33 2 -35 35 -35 33 0 35 2 35 35 0 33 -2 35 -35 35 -33
0 -35 -2 -35 -35z m60 0 c0 -20 -5 -25 -25 -25 -20 0 -25 5 -25 25 0 20 5 25
25 25 20 0 25 -5 25 -25z"/>
<path d="M364 576 c-9 -24 4 -48 23 -44 12 2 18 12 18 28 0 29 -32 41 -41 16z
m31 -26 c-5 -8 -11 -8 -17 -2 -6 6 -7 16 -3 22 5 8 11 8 17 2 6 -6 7 -16 3
-22z"/>
<path d="M434 560 c1 -19 7 -25 24 -26 18 -1 22 4 21 30 -1 28 -2 29 -8 7 -9
-33 -29 -38 -34 -9 -4 21 -4 21 -3 -2z"/>
<path d="M604 576 c-13 -33 23 -65 41 -36 3 5 0 7 -8 4 -8 -3 -18 -1 -22 5 -3
7 3 11 15 11 13 0 20 5 18 13 -7 18 -37 21 -44 3z m33 -2 c-3 -3 -12 -4 -19
-1 -8 3 -5 6 6 6 11 1 17 -2 13 -5z"/>
<path d="M784 576 c-13 -33 23 -65 41 -36 3 5 0 7 -8 4 -8 -3 -18 -1 -22 5 -3
7 3 11 15 11 13 0 20 5 18 13 -7 18 -37 21 -44 3z m33 -2 c-3 -3 -12 -4 -19
-1 -8 3 -5 6 6 6 11 1 17 -2 13 -5z"/>
<path d="M874 582 c19 -8 19 -9 -3 -15 -28 -7 -23 -31 8 -35 19 -3 22 0 19 25
-2 19 -9 29 -23 30 -19 3 -19 3 -1 -5z m11 -32 c-3 -5 -10 -10 -16 -10 -5 0
-9 5 -9 10 0 6 7 10 16 10 8 0 12 -4 9 -10z"/>
<path d="M992 560 c0 -19 2 -27 5 -17 2 9 2 25 0 35 -3 9 -5 1 -5 -18z"/>
<path d="M1021 556 c1 -28 2 -29 8 -7 9 34 29 37 34 6 4 -24 4 -24 3 2 -1 22
-6 28 -23 29 -19 1 -23 -4 -22 -30z"/>
<path d="M1097 583 c-15 -15 -6 -45 15 -51 21 -5 21 -6 2 -14 -18 -8 -18 -8 1
-5 29 3 36 77 7 77 -10 0 -22 -3 -25 -7z m28 -33 c-5 -8 -11 -8 -17 -2 -6 6
-7 16 -3 22 5 8 11 8 17 2 6 -6 7 -16 3 -22z"/>
<path d="M913 445 c0 -27 2 -38 4 -22 2 15 2 37 0 50 -2 12 -4 0 -4 -28z"/>
<path d="M1130 476 c0 -7 -9 -16 -21 -19 -29 -8 -22 -51 9 -55 20 -3 22 1 22
42 0 25 -2 46 -5 46 -3 0 -5 -6 -5 -14z m-5 -56 c-5 -8 -11 -8 -17 -2 -6 6 -7
16 -3 22 5 8 11 8 17 2 6 -6 7 -16 3 -22z"/>
<path d="M283 440 c0 -25 2 -35 4 -22 2 12 2 32 0 45 -2 12 -4 2 -4 -23z"/>
<path d="M378 468 c-9 -25 5 -68 21 -67 10 0 11 2 4 6 -15 5 -17 40 -4 45 5 2
3 8 -4 15 -10 9 -15 9 -17 1z"/>
<path d="M718 468 c-9 -25 5 -68 21 -67 10 0 11 2 4 6 -15 5 -17 40 -4 45 5 2
3 8 -4 15 -10 9 -15 9 -17 1z"/>
<path d="M1063 440 c0 -25 2 -35 4 -22 2 12 2 32 0 45 -2 12 -4 2 -4 -23z"/>
<path d="M150 435 c0 -33 2 -35 35 -35 33 0 35 2 35 35 0 33 -2 35 -35 35 -33
0 -35 -2 -35 -35z m60 0 c0 -20 -5 -25 -25 -25 -20 0 -25 5 -25 25 0 20 5 25
25 25 20 0 25 -5 25 -25z"/>
<path d="M311 426 c1 -28 2 -29 8 -7 9 34 29 37 34 6 4 -24 4 -24 3 2 -1 22
-6 28 -23 29 -19 1 -23 -4 -22 -30z"/>
<path d="M424 446 c-13 -33 23 -65 41 -36 3 5 0 7 -8 4 -8 -3 -18 -1 -22 5 -3
7 3 11 15 11 13 0 20 5 18 13 -7 18 -37 21 -44 3z m33 -2 c-3 -3 -12 -4 -19
-1 -8 3 -5 6 6 6 11 1 17 -2 13 -5z"/>
<path d="M497 453 c-15 -15 -6 -45 15 -51 21 -5 21 -6 2 -14 -18 -8 -18 -8 1
-5 29 3 36 77 7 77 -10 0 -22 -3 -25 -7z m28 -33 c-5 -8 -11 -8 -17 -2 -6 6
-7 16 -3 22 5 8 11 8 17 2 6 -6 7 -16 3 -22z"/>
<path d="M564 446 c-13 -33 23 -65 41 -36 3 5 0 7 -8 4 -8 -3 -18 -1 -22 5 -3
7 3 11 15 11 13 0 20 5 18 13 -7 18 -37 21 -44 3z m33 -2 c-3 -3 -12 -4 -19
-1 -8 3 -5 6 6 6 11 1 17 -2 13 -5z"/>
<path d="M631 425 c1 -20 3 -24 6 -10 3 11 12 25 20 32 13 10 12 12 -6 10 -17
-1 -21 -7 -20 -32z"/>
<path d="M761 425 c1 -20 3 -24 6 -10 3 11 12 25 20 32 13 10 12 12 -6 10 -17
-1 -21 -7 -20 -32z"/>
<path d="M834 452 c19 -8 19 -9 -3 -15 -28 -7 -23 -31 8 -35 19 -3 22 0 19 25
-2 19 -9 29 -23 30 -19 3 -19 3 -1 -5z m11 -32 c-3 -5 -10 -10 -16 -10 -5 0
-9 5 -9 10 0 6 7 10 16 10 8 0 12 -4 9 -10z"/>
<path d="M882 430 c0 -19 2 -27 5 -17 2 9 2 25 0 35 -3 9 -5 1 -5 -18z"/>
<path d="M944 446 c-13 -33 23 -65 41 -36 3 5 0 7 -8 4 -8 -3 -18 -1 -22 5 -3
7 3 11 15 11 13 0 20 5 18 13 -7 18 -37 21 -44 3z m33 -2 c-3 -3 -12 -4 -19
-1 -8 3 -5 6 6 6 11 1 17 -2 13 -5z"/>
<path d="M1011 425 c1 -20 3 -24 6 -10 3 11 12 25 20 32 13 10 12 12 -6 10
-17 -1 -21 -7 -20 -32z"/>
<path d="M1383 315 c0 -27 2 -38 4 -22 2 15 2 37 0 50 -2 12 -4 0 -4 -28z"/>
<path d="M287 343 c-13 -12 -7 -24 18 -33 33 -13 33 -34 -1 -27 -16 3 -22 1
-16 -5 15 -15 46 -5 50 14 2 12 -5 19 -22 24 -14 3 -23 11 -20 16 4 5 15 8 25
5 11 -3 17 -1 13 4 -6 10 -38 12 -47 2z"/>
<path d="M358 338 c-9 -25 5 -68 21 -67 10 0 11 2 4 6 -15 5 -17 40 -4 45 5 2
3 8 -4 15 -10 9 -15 9 -17 1z"/>
<path d="M658 338 c-9 -25 5 -68 21 -67 10 0 11 2 4 6 -15 5 -17 40 -4 45 5 2
3 8 -4 15 -10 9 -15 9 -17 1z"/>
<path d="M1310 335 c-15 -18 -10 -45 12 -59 12 -7 21 -7 28 0 8 8 4 10 -12 10
-18 -1 -23 4 -23 24 0 19 5 25 22 24 12 0 20 3 17 8 -8 13 -30 9 -44 -7z"/>
<path d="M150 305 c0 -33 2 -35 35 -35 33 0 35 2 35 35 0 33 -2 35 -35 35 -33
0 -35 -2 -35 -35z m60 0 c0 -20 -5 -25 -25 -25 -20 0 -25 5 -25 25 0 20 5 25
25 25 20 0 25 -5 25 -25z"/>
<path d="M401 295 c1 -20 3 -24 6 -10 3 11 12 25 20 32 13 10 12 12 -6 10 -17
-1 -21 -7 -20 -32z"/>
<path d="M452 300 c0 -19 2 -27 5 -17 2 9 2 25 0 35 -3 9 -5 1 -5 -18z"/>
<path d="M481 296 c1 -28 2 -29 8 -7 9 34 29 37 34 6 4 -24 4 -24 3 2 -1 22
-6 28 -23 29 -19 1 -23 -4 -22 -30z"/>
<path d="M557 323 c-15 -15 -6 -45 15 -51 21 -5 21 -6 2 -14 -18 -8 -18 -8 1
-5 29 3 36 77 7 77 -10 0 -22 -3 -25 -7z m28 -33 c-5 -8 -11 -8 -17 -2 -6 6
-7 16 -3 22 5 8 11 8 17 2 6 -6 7 -16 3 -22z"/>
<path d="M701 295 c1 -20 3 -24 6 -10 3 11 12 25 20 32 13 10 12 12 -6 10 -17
-1 -21 -7 -20 -32z"/>
<path d="M774 322 c19 -8 19 -9 -3 -15 -28 -7 -23 -31 8 -35 19 -3 22 0 19 25
-2 19 -9 29 -23 30 -19 3 -19 3 -1 -5z m11 -32 c-3 -5 -10 -10 -16 -10 -5 0
-9 5 -9 10 0 6 7 10 16 10 8 0 12 -4 9 -10z"/>
<path d="M821 296 c1 -28 2 -29 8 -7 9 34 29 37 34 6 4 -24 4 -24 3 2 -1 22
-6 28 -23 29 -19 1 -23 -4 -22 -30z"/>
<path d="M897 323 c-12 -11 -8 -23 7 -23 8 0 18 -5 22 -12 5 -8 0 -9 -16 -5
-16 4 -20 3 -12 -5 12 -12 42 -4 42 10 0 5 -10 14 -22 21 l-23 12 23 -5 c12
-2 20 0 16 5 -6 11 -28 12 -37 2z"/>
<path d="M964 315 c-9 -22 3 -45 23 -45 15 0 15 2 -3 15 -19 15 -19 15 0 30
18 13 18 15 3 15 -10 0 -20 -7 -23 -15z"/>
<path d="M1022 300 c0 -19 2 -27 5 -17 2 9 2 25 0 35 -3 9 -5 1 -5 -18z"/>
<path d="M1054 316 c-13 -33 23 -65 41 -36 3 5 0 7 -8 4 -8 -3 -18 -1 -22 5
-3 7 3 11 15 11 13 0 20 5 18 13 -7 18 -37 21 -44 3z m33 -2 c-3 -3 -12 -4
-19 -1 -8 3 -5 6 6 6 11 1 17 -2 13 -5z"/>
<path d="M1111 328 c-1 -12 22 -58 29 -58 9 0 32 51 26 57 -2 2 -7 -5 -11 -16
-8 -27 -19 -27 -33 2 -6 12 -11 19 -11 15z"/>
<path d="M1184 316 c-13 -33 23 -65 41 -36 3 5 0 7 -8 4 -8 -3 -18 -1 -22 5
-3 7 3 11 15 11 13 0 20 5 18 13 -7 18 -37 21 -44 3z m33 -2 c-3 -3 -12 -4
-19 -1 -8 3 -5 6 6 6 11 1 17 -2 13 -5z"/>
<path d="M1251 295 c1 -20 3 -24 6 -10 3 11 12 25 20 32 13 10 12 12 -6 10
-17 -1 -21 -7 -20 -32z"/>
<path d="M1434 322 c19 -8 19 -9 -3 -15 -28 -7 -23 -31 8 -35 19 -3 22 0 19
25 -2 19 -9 29 -23 30 -19 3 -19 3 -1 -5z m11 -32 c-3 -5 -10 -10 -16 -10 -5
0 -9 5 -9 10 0 6 7 10 16 10 8 0 12 -4 9 -10z"/>
<path d="M1487 323 c-12 -11 -8 -23 7 -23 8 0 18 -5 22 -12 5 -8 0 -9 -16 -5
-16 4 -20 3 -12 -5 12 -12 42 -4 42 10 0 5 -10 14 -22 21 l-23 12 23 -5 c12
-2 20 0 16 5 -6 11 -28 12 -37 2z"/>
<path d="M1557 323 c-12 -11 -8 -23 7 -23 8 0 18 -5 22 -12 5 -8 0 -9 -16 -5
-16 4 -20 3 -12 -5 12 -12 42 -4 42 10 0 5 -10 14 -22 21 l-23 12 23 -5 c12
-2 20 0 16 5 -6 11 -28 12 -37 2z"/>
<path d="M2236 1680 c3 -14 11 -32 16 -40 6 -10 7 -7 2 10 -3 14 -11 32 -16
40 -6 10 -7 7 -2 -10z"/>
<path d="M2266 1600 c4 -14 13 -38 20 -55 11 -24 13 -25 8 -5 -4 14 -13 39
-20 55 -11 24 -13 25 -8 5z"/>
<path d="M2128 1503 c6 -2 12 -20 12 -38 0 -18 -6 -36 -12 -38 -7 -3 1 -5 17
-5 17 0 24 2 18 5 -8 2 -13 22 -13 44 0 31 -4 39 -17 38 -11 0 -13 -3 -5 -6z"/>
<path d="M2286 1494 c-3 -9 -2 -23 4 -32 8 -14 10 -14 10 -2 0 11 4 10 16 -5
15 -19 15 -19 12 10 -4 42 -30 60 -42 29z"/>
<path d="M2336 1410 c3 -14 11 -32 16 -40 6 -10 7 -7 2 10 -3 14 -11 32 -16
40 -6 10 -7 7 -2 -10z"/>
<path d="M2198 1312 l-178 -2 0 -435 0 -435 515 0 515 0 0 435 0 434 -337 3
c-186 2 -418 2 -515 0z m842 -167 l0 -155 -505 0 -505 0 0 155 0 155 505 0
505 0 0 -155z m0 -390 l0 -225 -505 0 -505 0 0 225 0 225 505 0 505 0 0 -225z
m0 -270 l0 -35 -505 0 -505 0 0 35 0 35 505 0 505 0 0 -35z"/>
<path d="M2118 1244 c-76 -41 -74 -159 2 -199 52 -27 109 -14 147 35 25 30 12
27 -21 -6 -45 -45 -92 -47 -138 -5 -28 25 -33 36 -33 76 0 39 5 51 28 71 71
61 154 29 177 -69 6 -25 8 -27 9 -9 2 40 -28 89 -64 106 -41 20 -72 20 -107 0z"/>
<path d="M2140 1150 l0 -60 40 0 c22 0 40 5 40 10 0 6 -11 10 -25 10 -16 0
-25 6 -25 15 0 8 9 15 20 15 11 0 20 5 20 10 0 6 -9 10 -20 10 -11 0 -20 7
-20 15 0 9 9 15 25 15 14 0 25 5 25 10 0 6 -18 10 -40 10 l-40 0 0 -60z"/>
<path d="M2703 1160 c0 -30 2 -43 4 -27 2 15 2 39 0 55 -2 15 -4 2 -4 -28z"/>
<path d="M2311 1193 c-1 -16 31 -83 39 -83 10 0 44 79 38 86 -4 3 -11 -11 -18
-30 -6 -20 -15 -36 -19 -36 -5 0 -15 17 -24 38 -8 20 -15 32 -16 25z"/>
<path d="M2732 1193 c12 -3 18 -17 21 -46 l4 -42 1 42 c2 30 7 43 20 46 9 3
-1 5 -23 5 -22 0 -32 -2 -23 -5z"/>
<path d="M2410 1166 c-23 -28 17 -73 42 -48 8 8 5 9 -9 6 -12 -3 -24 -1 -27 5
-5 7 3 11 19 11 20 0 26 4 23 17 -4 23 -31 28 -48 9z m35 -6 c3 -5 -3 -10 -15
-10 -12 0 -18 5 -15 10 3 6 10 10 15 10 5 0 12 -4 15 -10z"/>
<path d="M2485 1170 c-8 -14 3 -30 21 -30 8 0 14 -5 14 -11 0 -7 -9 -9 -21 -6
-16 4 -19 3 -11 -5 12 -12 42 -4 42 13 0 6 -9 13 -20 16 -11 3 -20 10 -20 15
0 6 9 8 20 5 11 -3 18 -1 14 4 -7 12 -31 11 -39 -1z"/>
<path d="M2555 1170 c-8 -14 3 -30 21 -30 8 0 14 -5 14 -11 0 -7 -9 -9 -21 -6
-16 4 -19 3 -11 -5 12 -12 42 -4 42 13 0 6 -9 13 -20 16 -11 3 -20 10 -20 15
0 6 9 8 20 5 11 -3 18 -1 14 4 -7 12 -31 11 -39 -1z"/>
<path d="M2630 1166 c-23 -28 17 -73 42 -48 8 8 5 9 -9 6 -12 -3 -24 -1 -27 5
-5 7 3 11 19 11 20 0 26 4 23 17 -4 23 -31 28 -48 9z m35 -6 c3 -5 -3 -10 -15
-10 -12 0 -18 5 -15 10 3 6 10 10 15 10 5 0 12 -4 15 -10z"/>
<path d="M2790 1177 c0 -4 7 -22 16 -39 15 -30 15 -32 -2 -46 -13 -9 -14 -13
-4 -10 16 5 34 37 44 78 5 21 4 21 -8 -4 l-13 -30 -16 30 c-9 16 -16 25 -17
21z"/>
<path d="M2861 1126 c1 -31 4 -43 7 -31 4 11 16 20 27 20 16 0 20 7 20 30 0
26 -4 30 -27 31 -27 1 -28 -1 -27 -50z m46 28 c8 -21 -13 -42 -28 -27 -13 13
-5 43 11 43 6 0 13 -7 17 -16z"/>
<path d="M2950 1166 c-23 -28 17 -73 42 -48 8 8 5 9 -9 6 -12 -3 -24 -1 -27 5
-5 7 3 11 19 11 20 0 26 4 23 17 -4 23 -31 28 -48 9z m35 -6 c3 -5 -3 -10 -15
-10 -12 0 -18 5 -15 10 3 6 10 10 15 10 5 0 12 -4 15 -10z"/>
<path d="M2091 888 c1 -24 3 -36 6 -27 2 10 13 19 24 22 28 7 21 41 -9 45 -20
3 -22 -1 -21 -40z m39 17 c0 -8 -7 -15 -15 -15 -8 0 -15 7 -15 15 0 8 7 15 15
15 8 0 15 -7 15 -15z"/>
<path d="M2184 902 c19 -8 19 -9 -3 -15 -28 -7 -23 -31 8 -35 19 -3 22 0 19
25 -2 19 -9 29 -23 30 -19 3 -19 3 -1 -5z m11 -32 c-3 -5 -10 -10 -16 -10 -5
0 -9 5 -9 10 0 6 7 10 16 10 8 0 12 -4 9 -10z"/>
<path d="M2237 903 c-12 -11 -8 -23 7 -23 8 0 18 -5 22 -12 5 -8 0 -9 -16 -5
-16 4 -20 3 -12 -5 12 -12 42 -4 42 10 0 5 -10 14 -22 21 l-23 12 23 -5 c12
-2 20 0 16 5 -6 11 -28 12 -37 2z"/>
<path d="M2307 903 c-12 -11 -8 -23 7 -23 8 0 18 -5 22 -12 5 -8 0 -9 -16 -5
-16 4 -20 3 -12 -5 12 -12 42 -4 42 10 0 5 -10 14 -22 21 l-23 12 23 -5 c12
-2 20 0 16 5 -6 11 -28 12 -37 2z"/>
<path d="M2374 896 c-13 -33 23 -65 41 -36 3 5 0 7 -8 4 -8 -3 -18 -1 -22 5
-3 7 3 11 15 11 13 0 20 5 18 13 -7 18 -37 21 -44 3z m33 -2 c-3 -3 -12 -4
-19 -1 -8 3 -5 6 6 6 11 1 17 -2 13 -5z"/>
<path d="M2441 876 c1 -28 2 -29 8 -7 9 34 29 37 34 6 4 -24 4 -24 3 2 -1 22
-6 28 -23 29 -19 1 -23 -4 -22 -30z"/>
<path d="M2517 903 c-15 -15 -6 -45 15 -51 21 -5 21 -6 2 -14 -18 -8 -18 -8 1
-5 29 3 36 77 7 77 -10 0 -22 -3 -25 -7z m28 -33 c-5 -8 -11 -8 -17 -2 -6 6
-7 16 -3 22 5 8 11 8 17 2 6 -6 7 -16 3 -22z"/>
<path d="M2584 896 c-13 -33 23 -65 41 -36 3 5 0 7 -8 4 -8 -3 -18 -1 -22 5
-3 7 3 11 15 11 13 0 20 5 18 13 -7 18 -37 21 -44 3z m33 -2 c-3 -3 -12 -4
-19 -1 -8 3 -5 6 6 6 11 1 17 -2 13 -5z"/>
<path d="M2651 875 c1 -20 3 -24 6 -10 3 11 12 25 20 32 13 10 12 12 -6 10
-17 -1 -21 -7 -20 -32z"/>
<path d="M2252 765 c0 -35 2 -43 7 -26 9 35 29 37 34 4 5 -28 5 -28 3 2 0 19
-6 30 -16 30 -8 0 -18 9 -22 20 -3 12 -6 -1 -6 -30z"/>
<path d="M2091 758 c1 -24 4 -33 6 -21 2 13 13 24 26 26 l22 4 -22 2 c-13 0
-23 5 -23 10 0 5 10 12 23 14 19 4 18 4 -5 6 -27 1 -28 -1 -27 -41z"/>
<path d="M2152 750 c0 -19 2 -27 5 -17 2 9 2 25 0 35 -3 9 -5 1 -5 -18z"/>
<path d="M2187 773 c-12 -11 -8 -23 7 -23 8 0 18 -5 22 -12 5 -8 0 -9 -16 -5
-16 4 -20 3 -12 -5 12 -12 42 -4 42 10 0 5 -10 14 -22 21 l-23 12 23 -5 c12
-2 20 0 16 5 -6 11 -28 12 -37 2z"/>
<path d="M2322 750 c0 -19 2 -27 5 -17 2 9 2 25 0 35 -3 9 -5 1 -5 -18z"/>
<path d="M2351 746 c1 -28 2 -29 8 -7 9 34 29 37 34 6 4 -24 4 -24 3 2 -1 22
-6 28 -23 29 -19 1 -23 -4 -22 -30z"/>
<path d="M2427 773 c-15 -15 -6 -45 15 -51 21 -5 21 -6 2 -14 -18 -8 -18 -8 1
-5 29 3 36 77 7 77 -10 0 -22 -3 -25 -7z m28 -33 c-5 -8 -11 -8 -17 -2 -6 6
-7 16 -3 22 5 8 11 8 17 2 6 -6 7 -16 3 -22z"/>
<path d="M2301 637 c-1 -45 1 -48 22 -45 30 4 37 47 8 55 -11 3 -22 12 -24 22
-3 9 -5 -6 -6 -32z m34 -27 c-5 -8 -11 -8 -17 -2 -6 6 -7 16 -3 22 5 8 11 8
17 2 6 -6 7 -16 3 -22z"/>
<path d="M2092 663 c11 -3 18 -17 21 -41 l4 -37 1 37 c1 25 7 38 20 41 9 3 -1
5 -23 5 -22 0 -32 -2 -23 -5z"/>
<path d="M2508 658 c-9 -25 5 -68 21 -67 10 0 11 2 4 6 -15 5 -17 40 -4 45 5
2 3 8 -4 15 -10 9 -15 9 -17 1z"/>
<path d="M2164 620 c1 -19 7 -25 24 -26 18 -1 22 4 21 30 -1 28 -2 29 -8 7 -9
-33 -29 -38 -34 -9 -4 21 -4 21 -3 -2z"/>
<path d="M2237 643 c-15 -15 -6 -45 15 -51 21 -5 21 -6 2 -14 -18 -8 -18 -8 1
-5 29 3 36 77 7 77 -10 0 -22 -3 -25 -7z m28 -33 c-5 -8 -11 -8 -17 -2 -6 6
-7 16 -3 22 5 8 11 8 17 2 6 -6 7 -16 3 -22z"/>
<path d="M2374 636 c-9 -24 4 -48 23 -44 12 2 18 12 18 28 0 29 -32 41 -41 16z
m31 -26 c-5 -8 -11 -8 -17 -2 -6 6 -7 16 -3 22 5 8 11 8 17 2 6 -6 7 -16 3
-22z"/>
<path d="M2464 642 c19 -8 19 -9 -3 -15 -28 -7 -23 -31 8 -35 19 -3 22 0 19
25 -2 19 -9 29 -23 30 -19 3 -19 3 -1 -5z m11 -32 c-3 -5 -10 -10 -16 -10 -5
0 -9 5 -9 10 0 6 7 10 16 10 8 0 12 -4 9 -10z"/>
</g>
</svg>
