<?xml version="1.0" encoding="UTF-8" standalone="no"?><svg xmlns="http://www.w3.org/2000/svg" xmlns:xlink="http://www.w3.org/1999/xlink" contentScriptType="application/ecmascript" contentStyleType="text/css" height="588px" preserveAspectRatio="none" style="width:780px;height:588px;background:#FFFFFF;" version="1.1" viewBox="0 0 780 588" width="780px" zoomAndPan="magnify"><defs><filter height="300%" id="ffeuflywjc1uz" width="300%" x="-1" y="-1"><feGaussianBlur result="blurOut" stdDeviation="2.0"/><feColorMatrix in="blurOut" result="blurOut2" type="matrix" values="0 0 0 0 0 0 0 0 0 0 0 0 0 0 0 0 0 0 .4 0"/><feOffset dx="4.0" dy="4.0" in="blurOut2" result="blurOut3"/><feBlend in="SourceGraphic" in2="blurOut3" mode="normal"/></filter></defs><g><!--MD5=[c42081e92b23c54278b4fd4ef1b7cde5]
class MostEfficiencyCircuitUI--><rect codeLine="3" fill="#FEFECE" filter="url(#ffeuflywjc1uz)" height="48" id="MostEfficiencyCircuitUI" style="stroke:#A80036;stroke-width:1.5;" width="156" x="209.5" y="7"/><ellipse cx="224.5" cy="23" fill="#ADD1B2" rx="11" ry="11" style="stroke:#A80036;stroke-width:1.0;"/><path d="M226.5,19.5 Q226.7031,19 226.9375,18.75 Q227.1719,18.5 227.4375,18.5 Q227.9063,18.5 228.2031,18.7813 Q228.5,19.0625 228.5,19.7188 L228.5,21.2813 Q228.5,21.9375 228.2188,22.2188 Q227.9375,22.5 227.5,22.5 Q227.1094,22.5 226.8594,22.3281 Q226.6094,22.1563 226.5,21.7031 Q226.4531,21.3906 226.2813,21.2188 Q225.9688,20.8906 225.4063,20.7031 Q224.8438,20.5 224.2813,20.5 Q223.5781,20.5 222.9844,20.7813 Q222.4063,21.0625 221.9531,21.6875 Q221.5,22.3125 221.5,23.1719 L221.5,24.0938 Q221.5,25.125 222.3438,25.8125 Q223.1875,26.5 224.6875,26.5 Q225.5781,26.5 226.2031,26.2969 Q226.5625,26.1875 226.9688,25.8281 Q227.2344,25.625 227.375,25.5625 Q227.5156,25.5 227.6875,25.5 Q228.0156,25.5 228.25,25.7656 Q228.5,26.0156 228.5,26.375 Q228.5,26.7188 228.1563,27.125 Q227.6563,27.7188 226.8594,28.0469 Q225.8125,28.5 224.5313,28.5 Q223.0313,28.5 221.8281,27.9063 Q220.8594,27.4375 220.1719,26.4219 Q219.5,25.4063 219.5,24.2031 L219.5,23.1094 Q219.5,21.8594 220.0938,20.7656 Q220.7031,19.6719 221.75,19.0938 Q222.8125,18.5 224,18.5 Q224.7188,18.5 225.3438,18.75 Q225.9688,19 226.5,19.5 Z " fill="#000000"/><text fill="#000000" font-family="sans-serif" font-size="12" lengthAdjust="spacing" textLength="124" x="238.5" y="27.9102">MostEfficiencyCircuitUI</text><line style="stroke:#A80036;stroke-width:1.5;" x1="210.5" x2="364.5" y1="39" y2="39"/><line style="stroke:#A80036;stroke-width:1.5;" x1="210.5" x2="364.5" y1="47" y2="47"/><!--MD5=[6df04afe39b79ffdf45bbc0d352900f9]
class MostEfficiencyCircuitController--><rect codeLine="4" fill="#FEFECE" filter="url(#ffeuflywjc1uz)" height="48" id="MostEfficiencyCircuitController" style="stroke:#A80036;stroke-width:1.5;" width="198" x="188.5" y="123"/><ellipse cx="203.5" cy="139" fill="#ADD1B2" rx="11" ry="11" style="stroke:#A80036;stroke-width:1.0;"/><path d="M205.5,135.5 Q205.7031,135 205.9375,134.75 Q206.1719,134.5 206.4375,134.5 Q206.9063,134.5 207.2031,134.7813 Q207.5,135.0625 207.5,135.7188 L207.5,137.2813 Q207.5,137.9375 207.2188,138.2188 Q206.9375,138.5 206.5,138.5 Q206.1094,138.5 205.8594,138.3281 Q205.6094,138.1563 205.5,137.7031 Q205.4531,137.3906 205.2813,137.2188 Q204.9688,136.8906 204.4063,136.7031 Q203.8438,136.5 203.2813,136.5 Q202.5781,136.5 201.9844,136.7813 Q201.4063,137.0625 200.9531,137.6875 Q200.5,138.3125 200.5,139.1719 L200.5,140.0938 Q200.5,141.125 201.3438,141.8125 Q202.1875,142.5 203.6875,142.5 Q204.5781,142.5 205.2031,142.2969 Q205.5625,142.1875 205.9688,141.8281 Q206.2344,141.625 206.375,141.5625 Q206.5156,141.5 206.6875,141.5 Q207.0156,141.5 207.25,141.7656 Q207.5,142.0156 207.5,142.375 Q207.5,142.7188 207.1563,143.125 Q206.6563,143.7188 205.8594,144.0469 Q204.8125,144.5 203.5313,144.5 Q202.0313,144.5 200.8281,143.9063 Q199.8594,143.4375 199.1719,142.4219 Q198.5,141.4063 198.5,140.2031 L198.5,139.1094 Q198.5,137.8594 199.0938,136.7656 Q199.7031,135.6719 200.75,135.0938 Q201.8125,134.5 203,134.5 Q203.7188,134.5 204.3438,134.75 Q204.9688,135 205.5,135.5 Z " fill="#000000"/><text fill="#000000" font-family="sans-serif" font-size="12" lengthAdjust="spacing" textLength="166" x="217.5" y="143.9102">MostEfficiencyCircuitController</text><line style="stroke:#A80036;stroke-width:1.5;" x1="189.5" x2="385.5" y1="155" y2="155"/><line style="stroke:#A80036;stroke-width:1.5;" x1="189.5" x2="385.5" y1="163" y2="163"/><!--MD5=[ddaf6f62b0bc30921877ec9fb9463c9f]
class TrafficManager--><rect codeLine="5" fill="#FEFECE" filter="url(#ffeuflywjc1uz)" height="75.6719" id="TrafficManager" style="stroke:#A80036;stroke-width:1.5;" width="113" x="603" y="256"/><ellipse cx="618" cy="272" fill="#ADD1B2" rx="11" ry="11" style="stroke:#A80036;stroke-width:1.0;"/><path d="M620,268.5 Q620.2031,268 620.4375,267.75 Q620.6719,267.5 620.9375,267.5 Q621.4063,267.5 621.7031,267.7813 Q622,268.0625 622,268.7188 L622,270.2813 Q622,270.9375 621.7188,271.2188 Q621.4375,271.5 621,271.5 Q620.6094,271.5 620.3594,271.3281 Q620.1094,271.1563 620,270.7031 Q619.9531,270.3906 619.7813,270.2188 Q619.4688,269.8906 618.9063,269.7031 Q618.3438,269.5 617.7813,269.5 Q617.0781,269.5 616.4844,269.7813 Q615.9063,270.0625 615.4531,270.6875 Q615,271.3125 615,272.1719 L615,273.0938 Q615,274.125 615.8438,274.8125 Q616.6875,275.5 618.1875,275.5 Q619.0781,275.5 619.7031,275.2969 Q620.0625,275.1875 620.4688,274.8281 Q620.7344,274.625 620.875,274.5625 Q621.0156,274.5 621.1875,274.5 Q621.5156,274.5 621.75,274.7656 Q622,275.0156 622,275.375 Q622,275.7188 621.6563,276.125 Q621.1563,276.7188 620.3594,277.0469 Q619.3125,277.5 618.0313,277.5 Q616.5313,277.5 615.3281,276.9063 Q614.3594,276.4375 613.6719,275.4219 Q613,274.4063 613,273.2031 L613,272.1094 Q613,270.8594 613.5938,269.7656 Q614.2031,268.6719 615.25,268.0938 Q616.3125,267.5 617.5,267.5 Q618.2188,267.5 618.8438,267.75 Q619.4688,268 620,268.5 Z " fill="#000000"/><text fill="#000000" font-family="sans-serif" font-size="12" lengthAdjust="spacing" textLength="81" x="632" y="276.9102">TrafficManager</text><line style="stroke:#A80036;stroke-width:1.5;" x1="604" x2="715" y1="288" y2="288"/><rect fill="none" height="6" style="stroke:#C82930;stroke-width:1.0;" width="6" x="611" y="296"/><text fill="#000000" font-family="sans-serif" font-size="11" lengthAdjust="spacing" textLength="57" x="623" y="303.4189">String name</text><rect fill="none" height="6" style="stroke:#C82930;stroke-width:1.0;" width="6" x="611" y="309.8359"/><text fill="#000000" font-family="sans-serif" font-size="11" lengthAdjust="spacing" textLength="55" x="623" y="317.2549">String email</text><line style="stroke:#A80036;stroke-width:1.5;" x1="604" x2="715" y1="323.6719" y2="323.6719"/><!--MD5=[02e4b9b7573f1156f41e60aa5b4e25a4]
class Company--><rect codeLine="9" fill="#FEFECE" filter="url(#ffeuflywjc1uz)" height="61.8359" id="Company" style="stroke:#A80036;stroke-width:1.5;" width="112" x="603.5" y="116"/><ellipse cx="630.65" cy="132" fill="#ADD1B2" rx="11" ry="11" style="stroke:#A80036;stroke-width:1.0;"/><path d="M632.65,128.5 Q632.8531,128 633.0875,127.75 Q633.3219,127.5 633.5875,127.5 Q634.0563,127.5 634.3531,127.7813 Q634.65,128.0625 634.65,128.7188 L634.65,130.2813 Q634.65,130.9375 634.3688,131.2188 Q634.0875,131.5 633.65,131.5 Q633.2594,131.5 633.0094,131.3281 Q632.7594,131.1563 632.65,130.7031 Q632.6031,130.3906 632.4313,130.2188 Q632.1188,129.8906 631.5563,129.7031 Q630.9938,129.5 630.4313,129.5 Q629.7281,129.5 629.1344,129.7813 Q628.5563,130.0625 628.1031,130.6875 Q627.65,131.3125 627.65,132.1719 L627.65,133.0938 Q627.65,134.125 628.4938,134.8125 Q629.3375,135.5 630.8375,135.5 Q631.7281,135.5 632.3531,135.2969 Q632.7125,135.1875 633.1188,134.8281 Q633.3844,134.625 633.525,134.5625 Q633.6656,134.5 633.8375,134.5 Q634.1656,134.5 634.4,134.7656 Q634.65,135.0156 634.65,135.375 Q634.65,135.7188 634.3063,136.125 Q633.8063,136.7188 633.0094,137.0469 Q631.9625,137.5 630.6813,137.5 Q629.1813,137.5 627.9781,136.9063 Q627.0094,136.4375 626.3219,135.4219 Q625.65,134.4063 625.65,133.2031 L625.65,132.1094 Q625.65,130.8594 626.2438,129.7656 Q626.8531,128.6719 627.9,128.0938 Q628.9625,127.5 630.15,127.5 Q630.8688,127.5 631.4938,127.75 Q632.1188,128 632.65,128.5 Z " fill="#000000"/><text fill="#000000" font-family="sans-serif" font-size="12" lengthAdjust="spacing" textLength="53" x="647.35" y="136.9102">Company</text><line style="stroke:#A80036;stroke-width:1.5;" x1="604.5" x2="714.5" y1="148" y2="148"/><rect fill="none" height="6" style="stroke:#C82930;stroke-width:1.0;" width="6" x="611.5" y="156"/><text fill="#000000" font-family="sans-serif" font-size="11" lengthAdjust="spacing" textLength="86" x="623.5" y="163.4189">String designation</text><line style="stroke:#A80036;stroke-width:1.5;" x1="604.5" x2="714.5" y1="169.8359" y2="169.8359"/><!--MD5=[84f5ada19ffcd6d827cbcfc47628b537]
class VertexLocation--><rect codeLine="13" fill="#FEFECE" filter="url(#ffeuflywjc1uz)" height="131.0156" id="VertexLocation" style="stroke:#A80036;stroke-width:1.5;" width="121" x="413" y="443"/><ellipse cx="432.05" cy="459" fill="#ADD1B2" rx="11" ry="11" style="stroke:#A80036;stroke-width:1.0;"/><path d="M434.05,455.5 Q434.2531,455 434.4875,454.75 Q434.7219,454.5 434.9875,454.5 Q435.4563,454.5 435.7531,454.7813 Q436.05,455.0625 436.05,455.7188 L436.05,457.2813 Q436.05,457.9375 435.7688,458.2188 Q435.4875,458.5 435.05,458.5 Q434.6594,458.5 434.4094,458.3281 Q434.1594,458.1563 434.05,457.7031 Q434.0031,457.3906 433.8313,457.2188 Q433.5188,456.8906 432.9563,456.7031 Q432.3938,456.5 431.8313,456.5 Q431.1281,456.5 430.5344,456.7813 Q429.9563,457.0625 429.5031,457.6875 Q429.05,458.3125 429.05,459.1719 L429.05,460.0938 Q429.05,461.125 429.8938,461.8125 Q430.7375,462.5 432.2375,462.5 Q433.1281,462.5 433.7531,462.2969 Q434.1125,462.1875 434.5188,461.8281 Q434.7844,461.625 434.925,461.5625 Q435.0656,461.5 435.2375,461.5 Q435.5656,461.5 435.8,461.7656 Q436.05,462.0156 436.05,462.375 Q436.05,462.7188 435.7063,463.125 Q435.2063,463.7188 434.4094,464.0469 Q433.3625,464.5 432.0813,464.5 Q430.5813,464.5 429.3781,463.9063 Q428.4094,463.4375 427.7219,462.4219 Q427.05,461.4063 427.05,460.2031 L427.05,459.1094 Q427.05,457.8594 427.6438,456.7656 Q428.2531,455.6719 429.3,455.0938 Q430.3625,454.5 431.55,454.5 Q432.2688,454.5 432.8938,454.75 Q433.5188,455 434.05,455.5 Z " fill="#000000"/><text fill="#000000" font-family="sans-serif" font-size="12" lengthAdjust="spacing" textLength="80" x="446.95" y="463.9102">VertexLocation</text><line style="stroke:#A80036;stroke-width:1.5;" x1="414" x2="533" y1="475" y2="475"/><rect fill="none" height="6" style="stroke:#C82930;stroke-width:1.0;" width="6" x="421" y="483"/><text fill="#000000" font-family="sans-serif" font-size="11" lengthAdjust="spacing" textLength="77" x="433" y="490.4189">String locationID</text><rect fill="none" height="6" style="stroke:#C82930;stroke-width:1.0;" width="6" x="421" y="496.8359"/><text fill="#000000" font-family="sans-serif" font-size="11" lengthAdjust="spacing" textLength="95" x="433" y="504.2549">String locationName</text><rect fill="none" height="6" style="stroke:#C82930;stroke-width:1.0;" width="6" x="421" y="510.6719"/><text fill="#000000" font-family="sans-serif" font-size="11" lengthAdjust="spacing" textLength="75" x="433" y="518.0908">String continent</text><rect fill="none" height="6" style="stroke:#C82930;stroke-width:1.0;" width="6" x="421" y="524.5078"/><text fill="#000000" font-family="sans-serif" font-size="11" lengthAdjust="spacing" textLength="95" x="433" y="531.9268">String countryName</text><rect fill="none" height="6" style="stroke:#C82930;stroke-width:1.0;" width="6" x="421" y="538.3438"/><text fill="#000000" font-family="sans-serif" font-size="11" lengthAdjust="spacing" textLength="70" x="433" y="545.7627">Double latitude</text><rect fill="none" height="6" style="stroke:#C82930;stroke-width:1.0;" width="6" x="421" y="552.1797"/><text fill="#000000" font-family="sans-serif" font-size="11" lengthAdjust="spacing" textLength="79" x="433" y="559.5986">Double longitude</text><line style="stroke:#A80036;stroke-width:1.5;" x1="414" x2="533" y1="566.0156" y2="566.0156"/><!--MD5=[074ba6ad47b234bd73d65012320c1634]
class FreightNetwork--><rect codeLine="22" fill="#FEFECE" filter="url(#ffeuflywjc1uz)" height="75.6719" id="FreightNetwork" style="stroke:#A80036;stroke-width:1.5;" width="561" x="7" y="256"/><ellipse cx="241.75" cy="272" fill="#ADD1B2" rx="11" ry="11" style="stroke:#A80036;stroke-width:1.0;"/><path d="M243.75,268.5 Q243.9531,268 244.1875,267.75 Q244.4219,267.5 244.6875,267.5 Q245.1563,267.5 245.4531,267.7813 Q245.75,268.0625 245.75,268.7188 L245.75,270.2813 Q245.75,270.9375 245.4688,271.2188 Q245.1875,271.5 244.75,271.5 Q244.3594,271.5 244.1094,271.3281 Q243.8594,271.1563 243.75,270.7031 Q243.7031,270.3906 243.5313,270.2188 Q243.2188,269.8906 242.6563,269.7031 Q242.0938,269.5 241.5313,269.5 Q240.8281,269.5 240.2344,269.7813 Q239.6563,270.0625 239.2031,270.6875 Q238.75,271.3125 238.75,272.1719 L238.75,273.0938 Q238.75,274.125 239.5938,274.8125 Q240.4375,275.5 241.9375,275.5 Q242.8281,275.5 243.4531,275.2969 Q243.8125,275.1875 244.2188,274.8281 Q244.4844,274.625 244.625,274.5625 Q244.7656,274.5 244.9375,274.5 Q245.2656,274.5 245.5,274.7656 Q245.75,275.0156 245.75,275.375 Q245.75,275.7188 245.4063,276.125 Q244.9063,276.7188 244.1094,277.0469 Q243.0625,277.5 241.7813,277.5 Q240.2813,277.5 239.0781,276.9063 Q238.1094,276.4375 237.4219,275.4219 Q236.75,274.4063 236.75,273.2031 L236.75,272.1094 Q236.75,270.8594 237.3438,269.7656 Q237.9531,268.6719 239,268.0938 Q240.0625,267.5 241.25,267.5 Q241.9688,267.5 242.5938,267.75 Q243.2188,268 243.75,268.5 Z " fill="#000000"/><text fill="#000000" font-family="sans-serif" font-size="12" lengthAdjust="spacing" textLength="83" x="262.25" y="276.9102">FreightNetwork</text><line style="stroke:#A80036;stroke-width:1.5;" x1="8" x2="567" y1="288" y2="288"/><rect fill="none" height="6" style="stroke:#C82930;stroke-width:1.0;" width="6" x="15" y="296"/><text fill="#000000" font-family="sans-serif" font-size="11" lengthAdjust="spacing" textLength="317" x="27" y="303.4189">AdjacencyMatrixGraph&lt;VertexLocation, Double&gt; freightNetwork2</text><line style="stroke:#A80036;stroke-width:1.5;" x1="8" x2="567" y1="309.8359" y2="309.8359"/><ellipse cx="18" cy="320.8359" fill="#84BE84" rx="3" ry="3" style="stroke:#038048;stroke-width:1.0;"/><text fill="#000000" font-family="sans-serif" font-size="11" lengthAdjust="spacing" textLength="535" x="27" y="325.2549">Map&lt;Integer,Pair&lt;Pair&lt;VertexLocation,VertexLocation&gt;,Double&gt;&gt; getMostEfficiencyCircuit(VertexLocation ver)</text><!--MD5=[67b8b57066734d79645d590dad78d8d4]
link MostEfficiencyCircuitUI to MostEfficiencyCircuitController--><path codeLine="28" d="M287.5,55.07 C287.5,73.15 287.5,98.39 287.5,117.69 " fill="none" id="MostEfficiencyCircuitUI-to-MostEfficiencyCircuitController" style="stroke:#A80036;stroke-width:1.0;stroke-dasharray:7.0,7.0;"/><polygon fill="#A80036" points="287.5,122.96,291.5,113.96,287.5,117.96,283.5,113.96,287.5,122.96" style="stroke:#A80036;stroke-width:1.0;"/><!--MD5=[0e789ec86514c8a6121d25859396048b]
link MostEfficiencyCircuitController to FreightNetwork--><path codeLine="30" d="M287.5,171.3 C287.5,192.69 287.5,224.89 287.5,250.81 " fill="none" id="MostEfficiencyCircuitController-to-FreightNetwork" style="stroke:#A80036;stroke-width:1.0;stroke-dasharray:7.0,7.0;"/><polygon fill="#A80036" points="287.5,255.9,291.5,246.9,287.5,250.9,283.5,246.9,287.5,255.9" style="stroke:#A80036;stroke-width:1.0;"/><!--MD5=[40ff9e226d93960748605a4b23c3f985]
link FreightNetwork to VertexLocation--><path codeLine="32" d="M319.9,332.01 C345.61,361.39 382.26,403.26 413.31,438.74 " fill="none" id="FreightNetwork-to-VertexLocation" style="stroke:#A80036;stroke-width:1.0;"/><polygon fill="#A80036" points="416.68,442.59,413.7638,433.1828,413.3875,438.8271,407.7432,438.4508,416.68,442.59" style="stroke:#A80036;stroke-width:1.0;"/><!--MD5=[394737a38e79ac14162584accbbc91c9]
link TrafficManager to VertexLocation--><path codeLine="33" d="M627.1,332.01 C601.39,361.39 564.74,403.26 533.69,438.74 " fill="none" id="TrafficManager-to-VertexLocation" style="stroke:#A80036;stroke-width:1.0;"/><polygon fill="#A80036" points="530.32,442.59,539.2568,438.4508,533.6125,438.8271,533.2362,433.1828,530.32,442.59" style="stroke:#A80036;stroke-width:1.0;"/><text fill="#000000" font-family="sans-serif" font-size="13" lengthAdjust="spacing" textLength="133" x="618" y="376.4951">find the most efficiency</text><text fill="#000000" font-family="sans-serif" font-size="13" lengthAdjust="spacing" textLength="168" x="600.5" y="392.8467">circuit that has more location</text><polygon fill="#000000" points="604.7071,407.6414,612.8756,402.7705,608.4525,398.8994,604.7071,407.6414" style="stroke:#000000;stroke-width:1.0;"/><text fill="#000000" font-family="sans-serif" font-size="13" lengthAdjust="spacing" textLength="154" x="616" y="409.1982">and shortest total distance</text><!--MD5=[683ea96df93176af8455607a7c1d2a32]
link Company to TrafficManager--><path codeLine="35" d="M659.5,178.04 C659.5,199.02 659.5,227.32 659.5,250.59 " fill="none" id="Company-to-TrafficManager" style="stroke:#A80036;stroke-width:1.0;"/><polygon fill="#A80036" points="659.5,255.78,663.5,246.78,659.5,250.78,655.5,246.78,659.5,255.78" style="stroke:#A80036;stroke-width:1.0;"/><polygon fill="#000000" points="664.5,222.1758,667.4389,213.1307,661.5611,213.1307,664.5,222.1758" style="stroke:#000000;stroke-width:1.0;"/><text fill="#000000" font-family="sans-serif" font-size="13" lengthAdjust="spacing" textLength="82" x="673.5" y="222.4951">has registered</text><!--MD5=[99e14f72ba35a7b6fc9665d1f3ae7a1f]
@startuml
'https://plantuml.com/class-diagram

class MostEfficiencyCircuitUI{}
class MostEfficiencyCircuitController{}
class TrafficManager{
    -String name
    -String email
}
class Company{
    -String designation
}

class VertexLocation{
    -String locationID
    -String locationName
    -String continent
    -String countryName
    -Double latitude
    -Double longitude
}

class FreightNetwork{
    -AdjacencyMatrixGraph<VertexLocation, Double> freightNetwork2
    +Map<Integer,Pair<Pair<VertexLocation,VertexLocation>,Double>> getMostEfficiencyCircuit(VertexLocation ver)
}


MostEfficiencyCircuitUI ..> MostEfficiencyCircuitController

MostEfficiencyCircuitController ..> FreightNetwork

FreightNetwork - -> VertexLocation
TrafficManager - -> VertexLocation : find the most efficiency \ncircuit that has more location \nand shortest total distance >

Company - -> TrafficManager : has registered >

@enduml

@startuml

class MostEfficiencyCircuitUI{}
class MostEfficiencyCircuitController{}
class TrafficManager{
    -String name
    -String email
}
class Company{
    -String designation
}

class VertexLocation{
    -String locationID
    -String locationName
    -String continent
    -String countryName
    -Double latitude
    -Double longitude
}

class FreightNetwork{
    -AdjacencyMatrixGraph<VertexLocation, Double> freightNetwork2
    +Map<Integer,Pair<Pair<VertexLocation,VertexLocation>,Double>> getMostEfficiencyCircuit(VertexLocation ver)
}


MostEfficiencyCircuitUI ..> MostEfficiencyCircuitController

MostEfficiencyCircuitController ..> FreightNetwork

FreightNetwork - -> VertexLocation
TrafficManager - -> VertexLocation : find the most efficiency \ncircuit that has more location \nand shortest total distance >

Company - -> TrafficManager : has registered >

@enduml

PlantUML version 1.2021.11(Sat Oct 02 14:26:11 BST 2021)
(GPL source distribution)
Java Runtime: OpenJDK Runtime Environment
JVM: OpenJDK 64-Bit Server VM
Default Encoding: Cp1252
Language: pt
Country: PT
--></g></svg>