<?xml version="1.0" encoding="UTF-8" standalone="no"?><svg xmlns="http://www.w3.org/2000/svg" xmlns:xlink="http://www.w3.org/1999/xlink" contentScriptType="application/ecmascript" contentStyleType="text/css" height="99px" preserveAspectRatio="none" style="width:721px;height:99px;background:#FFFFFF;" version="1.1" viewBox="0 0 721 99" width="721px" zoomAndPan="magnify"><defs><filter height="300%" id="f1nkfw8aofw7ga" width="300%" x="-1" y="-1"><feGaussianBlur result="blurOut" stdDeviation="2.0"/><feColorMatrix in="blurOut" result="blurOut2" type="matrix" values="0 0 0 0 0 0 0 0 0 0 0 0 0 0 0 0 0 0 .4 0"/><feOffset dx="4.0" dy="4.0" in="blurOut2" result="blurOut3"/><feBlend in="SourceGraphic" in2="blurOut3" mode="normal"/></filter></defs><g><!--MD5=[c6ddddda358f072e4f19aa798de5fbe9]
entity TM--><ellipse cx="244.5" cy="14.5" fill="#FEFECE" filter="url(#f1nkfw8aofw7ga)" rx="8" ry="8" style="stroke:#A80036;stroke-width:1.5;"/><path d="M244.5,22.5 L244.5,49.5 M231.5,30.5 L257.5,30.5 M244.5,49.5 L231.5,64.5 M244.5,49.5 L257.5,64.5 " fill="none" filter="url(#f1nkfw8aofw7ga)" style="stroke:#A80036;stroke-width:1.5;"/><text fill="#000000" font-family="sans-serif" font-size="14" lengthAdjust="spacing" textLength="96" x="196.5" y="84.5332">TrafficManager</text><ellipse cx="518.7347" cy="46.5469" fill="#FEFECE" filter="url(#f1nkfw8aofw7ga)" rx="190.7347" ry="40.5469" style="stroke:#A80036;stroke-width:1.5;"/><text fill="#000000" font-family="sans-serif" font-size="14" lengthAdjust="spacing" textLength="353" x="342.2347" y="50.2755">Knows the most efficiency circuit given a source location</text><path d="M6,33.5 L6,59.8516 A0,0 0 0 0 6,59.8516 L161,59.8516 A0,0 0 0 0 161,59.8516 L161,51.5 L196.32,46.5 L161,43.5 L161,43.5 L151,33.5 L6,33.5 A0,0 0 0 0 6,33.5 " fill="#FBFB77" filter="url(#f1nkfw8aofw7ga)" style="stroke:#A80036;stroke-width:1.0;"/><path d="M151,33.5 L151,43.5 L161,43.5 L151,33.5 " fill="#FBFB77" style="stroke:#A80036;stroke-width:1.0;"/><text fill="#000000" font-family="sans-serif" font-size="13" lengthAdjust="spacing" textLength="134" x="12" y="51.9951">This an TrafficManager.</text><!--MD5=[805a98a317d72795511e60781c9eef0b]
link TM to Circuit--><path d="M292.66,46.5 C302.68,46.5 312.7,46.5 322.71,46.5 " fill="none" id="TM-to-Circuit" style="stroke:#A80036;stroke-width:1.0;"/><polygon fill="#A80036" points="327.95,46.5,318.95,42.5,322.95,46.5,318.95,50.5,327.95,46.5" style="stroke:#A80036;stroke-width:1.0;"/><!--MD5=[a624327646f1f47a0ebc28038977b8b2]
@startuml
'https://plantuml.com/use-case-diagram

:TrafficManager: as TM
(Knows the most efficiency circuit given a source location) as (Circuit)

TM -> (Circuit)

note left of TM : This an TrafficManager.

@enduml

@startuml

:TrafficManager: as TM
(Knows the most efficiency circuit given a source location) as (Circuit)

TM -> (Circuit)

note left of TM : This an TrafficManager.

@enduml

PlantUML version 1.2021.11(Sat Oct 02 14:26:11 BST 2021)
(GPL source distribution)
Java Runtime: OpenJDK Runtime Environment
JVM: OpenJDK 64-Bit Server VM
Default Encoding: Cp1252
Language: pt
Country: PT
--></g></svg>