<?xml version="1.0" encoding="UTF-8" standalone="no"?><svg xmlns="http://www.w3.org/2000/svg" xmlns:xlink="http://www.w3.org/1999/xlink" contentScriptType="application/ecmascript" contentStyleType="text/css" height="347px" preserveAspectRatio="none" style="width:1213px;height:347px;background:#FFFFFF;" version="1.1" viewBox="0 0 1213 347" width="1213px" zoomAndPan="magnify"><defs/><g><!--MD5=[0dc7f2ddb409b58bcf52b12238c25399]
class Ship--><rect fill="#FEFECE" height="25.0938" id="Ship" style="stroke:#A80036;stroke-width:1.5;" width="31" x="562.5" y="110"/><text fill="#000000" font-family="sans-serif" font-size="12" lengthAdjust="spacing" textLength="25" x="565.5" y="127.457">Ship</text><!--MD5=[9fd742b094c67d7815d2f7d0fa73840f]
class ShipCargo--><rect fill="#FEFECE" height="25.0938" id="ShipCargo" style="stroke:#A80036;stroke-width:1.5;" width="65" x="383.5" y="213"/><text fill="#000000" font-family="sans-serif" font-size="12" lengthAdjust="spacing" textLength="59" x="386.5" y="230.457">ShipCargo</text><!--MD5=[1659f4066508979f3cd3e9133bca26e2]
class ShipDynamicData--><rect fill="#FEFECE" height="25.0938" id="ShipDynamicData" style="stroke:#A80036;stroke-width:1.5;" width="105" x="608.5" y="213"/><text fill="#000000" font-family="sans-serif" font-size="12" lengthAdjust="spacing" textLength="99" x="611.5" y="230.457">ShipDynamicData</text><!--MD5=[cf9c7d7c3da40397ddde4f51b7097da6]
class VesselType--><rect fill="#FEFECE" height="25.0938" id="VesselType" style="stroke:#A80036;stroke-width:1.5;" width="70" x="686" y="7"/><text fill="#000000" font-family="sans-serif" font-size="12" lengthAdjust="spacing" textLength="64" x="689" y="24.457">VesselType</text><!--MD5=[f2ba7f6ab60af8dd0d3e354f91729b14]
class Truck--><rect fill="#FEFECE" height="25.0938" id="Truck" style="stroke:#A80036;stroke-width:1.5;" width="36" x="847" y="110"/><text fill="#000000" font-family="sans-serif" font-size="12" lengthAdjust="spacing" textLength="30" x="850" y="127.457">Truck</text><!--MD5=[a93a86a91abc8796b23cdcc7cc3b17ff]
class TruckDriver--><rect fill="#FEFECE" height="25.0938" id="TruckDriver" style="stroke:#A80036;stroke-width:1.5;" width="68" x="828" y="213"/><text fill="#000000" font-family="sans-serif" font-size="12" lengthAdjust="spacing" textLength="62" x="831" y="230.457">TruckDriver</text><!--MD5=[b9b9c65b9e2e913ec2bf11d47432d54f]
class TruckCargo--><rect fill="#FEFECE" height="25.0938" id="TruckCargo" style="stroke:#A80036;stroke-width:1.5;" width="70" x="1009" y="213"/><text fill="#000000" font-family="sans-serif" font-size="12" lengthAdjust="spacing" textLength="64" x="1012" y="230.457">TruckCargo</text><!--MD5=[4f1f3706c1a355a8488e154afcaed5df]
class Location--><rect fill="#FEFECE" height="25.0938" id="Location" style="stroke:#A80036;stroke-width:1.5;" width="53" x="1017.5" y="110"/><text fill="#000000" font-family="sans-serif" font-size="12" lengthAdjust="spacing" textLength="47" x="1020.5" y="127.457">Location</text><!--MD5=[76562047389981627aea27c31a97aff5]
class CargoManifest--><rect fill="#FEFECE" height="25.0938" id="CargoManifest" style="stroke:#A80036;stroke-width:1.5;" width="86" x="1106" y="110"/><text fill="#000000" font-family="sans-serif" font-size="12" lengthAdjust="spacing" textLength="80" x="1109" y="127.457">CargoManifest</text><!--MD5=[e9a58730c562b34349daa605d1ed6662]
class Container--><rect fill="#FEFECE" height="25.0938" id="Container" style="stroke:#A80036;stroke-width:1.5;" width="60" x="1119" y="7"/><text fill="#000000" font-family="sans-serif" font-size="12" lengthAdjust="spacing" textLength="54" x="1122" y="24.457">Container</text><!--MD5=[a0bfe97ac0a38e6e74cc1c7c7b744b71]
class Port--><rect fill="#FEFECE" height="25.0938" id="Port" style="stroke:#A80036;stroke-width:1.5;" width="28" x="275" y="110"/><text fill="#000000" font-family="sans-serif" font-size="12" lengthAdjust="spacing" textLength="22" x="278" y="127.457">Port</text><!--MD5=[c5149b4909ffd2688ff51a939867f774]
class Warehouse--><rect fill="#FEFECE" height="25.0938" id="Warehouse" style="stroke:#A80036;stroke-width:1.5;" width="70" x="85" y="213"/><text fill="#000000" font-family="sans-serif" font-size="12" lengthAdjust="spacing" textLength="64" x="88" y="230.457">Warehouse</text><!--MD5=[e6b394b930674b2255938b8afe6bb7b4]
class ShipCaptain--><rect fill="#FEFECE" height="25.0938" id="ShipCaptain" style="stroke:#A80036;stroke-width:1.5;" width="74" x="382" y="7"/><text fill="#000000" font-family="sans-serif" font-size="12" lengthAdjust="spacing" textLength="68" x="385" y="24.457">ShipCaptain</text><!--MD5=[d14076b1fa5ff6fc34e7abc31c5e1daa]
class ShipChiefElectricalEngineer--><rect fill="#FEFECE" height="25.0938" id="ShipChiefElectricalEngineer" style="stroke:#A80036;stroke-width:1.5;" width="160" x="491" y="7"/><text fill="#000000" font-family="sans-serif" font-size="12" lengthAdjust="spacing" textLength="154" x="494" y="24.457">ShipChiefElectricalEngineer</text><!--MD5=[a0e14dc1c5f22798a4d68a7546a0e1d4]
class PortStaff--><rect fill="#FEFECE" height="25.0938" id="PortStaff" style="stroke:#A80036;stroke-width:1.5;" width="52" x="263" y="213"/><text fill="#000000" font-family="sans-serif" font-size="12" lengthAdjust="spacing" textLength="46" x="266" y="230.457">PortStaff</text><!--MD5=[7fcbedb88579745280c367cebf31fce2]
class WarehouseStaff--><rect fill="#FEFECE" height="25.0938" id="WarehouseStaff" style="stroke:#A80036;stroke-width:1.5;" width="94" x="73" y="316"/><text fill="#000000" font-family="sans-serif" font-size="12" lengthAdjust="spacing" textLength="88" x="76" y="333.457">WarehouseStaff</text><!--MD5=[ddaf6f62b0bc30921877ec9fb9463c9f]
class TrafficManager--><rect fill="#FEFECE" height="25.0938" id="TrafficManager" style="stroke:#A80036;stroke-width:1.5;" width="87" x="696.5" y="110"/><text fill="#000000" font-family="sans-serif" font-size="12" lengthAdjust="spacing" textLength="81" x="699.5" y="127.457">TrafficManager</text><!--MD5=[019a73386217e12d5bb8e34bf0b46b9e]
class FleetManager--><rect fill="#FEFECE" height="25.0938" id="FleetManager" style="stroke:#A80036;stroke-width:1.5;" width="81" x="808.5" y="7"/><text fill="#000000" font-family="sans-serif" font-size="12" lengthAdjust="spacing" textLength="75" x="811.5" y="24.457">FleetManager</text><!--MD5=[99d8f1361a72f685c413d1fd21efef1c]
class PortManager--><rect fill="#FEFECE" height="25.0938" id="PortManager" style="stroke:#A80036;stroke-width:1.5;" width="76" x="251" y="7"/><text fill="#000000" font-family="sans-serif" font-size="12" lengthAdjust="spacing" textLength="70" x="254" y="24.457">PortManager</text><!--MD5=[5e1deb958606d83ef5f4988eb2b8f966]
class WarehouseManager--><rect fill="#FEFECE" height="25.0938" id="WarehouseManager" style="stroke:#A80036;stroke-width:1.5;" width="118" x="7" y="110"/><text fill="#000000" font-family="sans-serif" font-size="12" lengthAdjust="spacing" textLength="112" x="10" y="127.457">WarehouseManager</text><!--MD5=[ebaad5c2e4d489b442c1d2b8ee83b97e]
link Ship to ShipCargo--><path codeLine="4" d="M562.28,126.85 C539.84,132.18 498.02,144.17 468,165 C449.07,178.14 432.59,199.66 423.5,212.9 " fill="none" id="Ship-ShipCargo" style="stroke:#A80036;stroke-width:1.0;"/><polygon fill="#000000" points="477.2494,171.5409,468.0134,173.8097,471.1109,178.8052,477.2494,171.5409" style="stroke:#000000;stroke-width:1.0;"/><text fill="#000000" font-family="sans-serif" font-size="13" lengthAdjust="spacing" textLength="79" x="482" y="179.4951">is transported</text><text fill="#000000" font-family="sans-serif" font-size="13" lengthAdjust="spacing" textLength="7" x="547.3517" y="122.8927">1</text><text fill="#000000" font-family="sans-serif" font-size="13" lengthAdjust="spacing" textLength="5" x="420.5625" y="201.9508">*</text><!--MD5=[9a349e3fe139691f8d5fdcec09531234]
link Ship to ShipDynamicData--><path codeLine="5" d="M573.62,135.46 C569.75,148.26 565.98,168.63 575,183 C583.9,197.18 599.17,206.63 614.39,212.88 " fill="none" id="Ship-ShipDynamicData" style="stroke:#A80036;stroke-width:1.0;"/><polygon fill="#000000" points="582.3297,178.5998,580.7156,169.2273,575.5148,171.966,582.3297,178.5998" style="stroke:#000000;stroke-width:1.0;"/><text fill="#000000" font-family="sans-serif" font-size="13" lengthAdjust="spacing" textLength="103" x="589" y="179.4951">is located through</text><text fill="#000000" font-family="sans-serif" font-size="13" lengthAdjust="spacing" textLength="7" x="563.8128" y="156.468">1</text><text fill="#000000" font-family="sans-serif" font-size="13" lengthAdjust="spacing" textLength="5" x="595.5778" y="204.612">*</text><!--MD5=[7196148583ae11c87d59bb1217350b96]
link VesselType to Ship--><path codeLine="6" d="M706.38,32 C690.69,44.22 664.93,63.96 642,80 C625.83,91.31 606.8,103.51 593.72,111.74 " fill="none" id="VesselType-Ship" style="stroke:#A80036;stroke-width:1.0;"/><polygon fill="#000000" points="676.0812,68.2872,667.0004,71.1139,670.3962,75.9116,676.0812,68.2872" style="stroke:#000000;stroke-width:1.0;"/><text fill="#000000" font-family="sans-serif" font-size="13" lengthAdjust="spacing" textLength="21" x="681" y="76.4951">has</text><text fill="#000000" font-family="sans-serif" font-size="13" lengthAdjust="spacing" textLength="7" x="692.2452" y="53.6177">1</text><text fill="#000000" font-family="sans-serif" font-size="13" lengthAdjust="spacing" textLength="5" x="601.6913" y="101.084">*</text><!--MD5=[69c0c315057270c77c6273af23b4531b]
link Truck to TruckDriver--><path codeLine="8" d="M862.87,135.08 C861.46,143.38 859.73,154.83 859,165 C857.81,181.51 859.28,200.62 860.55,212.64 " fill="none" id="Truck-TruckDriver" style="stroke:#A80036;stroke-width:1.0;"/><polygon fill="#000000" points="864.1495,169.178,860.9414,178.1312,866.8167,178.3069,864.1495,169.178" style="stroke:#000000;stroke-width:1.0;"/><text fill="#000000" font-family="sans-serif" font-size="13" lengthAdjust="spacing" textLength="33" x="873" y="179.4951">drives</text><text fill="#000000" font-family="sans-serif" font-size="13" lengthAdjust="spacing" textLength="7" x="853.7236" y="156.4704">1</text><text fill="#000000" font-family="sans-serif" font-size="13" lengthAdjust="spacing" textLength="7" x="851.6628" y="202.2314">1</text><!--MD5=[92936d4f6a950602187a62a88634b3e3]
link Truck to TruckCargo--><path codeLine="9" d="M883.15,133.74 C916.75,152.7 988.41,193.13 1023.62,213 " fill="none" id="Truck-TruckCargo" style="stroke:#A80036;stroke-width:1.0;"/><polygon fill="#000000" points="975.3546,176.6329,968.9213,169.6284,966.0328,174.7475,975.3546,176.6329" style="stroke:#000000;stroke-width:1.0;"/><text fill="#000000" font-family="sans-serif" font-size="13" lengthAdjust="spacing" textLength="39" x="980" y="179.4951">carries</text><text fill="#000000" font-family="sans-serif" font-size="13" lengthAdjust="spacing" textLength="7" x="891.1334" y="132.4774">1</text><text fill="#000000" font-family="sans-serif" font-size="13" lengthAdjust="spacing" textLength="5" x="1009.182" y="202.092">*</text><!--MD5=[ce12529fb4d87d725383b6d5fffdff63]
link Location to TruckCargo--><path codeLine="10" d="M1044,135.09 C1044,154.46 1044,193.24 1044,212.74 " fill="none" id="Location-TruckCargo" style="stroke:#A80036;stroke-width:1.0;"/><polygon fill="#000000" points="1049,179.1758,1051.9389,170.1307,1046.0611,170.1307,1049,179.1758" style="stroke:#000000;stroke-width:1.0;"/><text fill="#000000" font-family="sans-serif" font-size="13" lengthAdjust="spacing" textLength="10" x="1058" y="179.4951">of</text><text fill="#000000" font-family="sans-serif" font-size="13" lengthAdjust="spacing" textLength="7" x="1035.6656" y="156.4842">1</text><text fill="#000000" font-family="sans-serif" font-size="13" lengthAdjust="spacing" textLength="5" x="1038.0156" y="202.1116">*</text><!--MD5=[709f7f4b03ea17bc240dbf4cc92c5b99]
link CargoManifest to TruckCargo--><path codeLine="11" d="M1136.96,135.09 C1116.81,154.46 1076.5,193.24 1056.23,212.74 " fill="none" id="CargoManifest-TruckCargo" style="stroke:#A80036;stroke-width:1.0;"/><polygon fill="#000000" points="1110.6036,170.7097,1102.0473,174.8618,1106.122,179.0981,1110.6036,170.7097" style="stroke:#000000;stroke-width:1.0;"/><text fill="#000000" font-family="sans-serif" font-size="13" lengthAdjust="spacing" textLength="21" x="1116" y="179.4951">has</text><text fill="#000000" font-family="sans-serif" font-size="13" lengthAdjust="spacing" textLength="7" x="1124.0354" y="156.4842">1</text><text fill="#000000" font-family="sans-serif" font-size="13" lengthAdjust="spacing" textLength="5" x="1055.0612" y="202.1116">*</text><!--MD5=[f0bdc6c669370d32d41c923ef98b5140]
link Container to CargoManifest--><path codeLine="12" d="M1149,32.09 C1149,51.46 1149,90.24 1149,109.74 " fill="none" id="Container-CargoManifest" style="stroke:#A80036;stroke-width:1.0;"/><polygon fill="#000000" points="1154,76.1758,1156.9389,67.1307,1151.0611,67.1307,1154,76.1758" style="stroke:#000000;stroke-width:1.0;"/><text fill="#000000" font-family="sans-serif" font-size="13" lengthAdjust="spacing" textLength="42" x="1163" y="76.4951">locates</text><text fill="#000000" font-family="sans-serif" font-size="13" lengthAdjust="spacing" textLength="7" x="1140.6656" y="53.4842">1</text><text fill="#000000" font-family="sans-serif" font-size="13" lengthAdjust="spacing" textLength="5" x="1143.0156" y="99.1116">*</text><!--MD5=[d628947bd94ec1c816b053e15dee3862]
link Port to ShipCargo--><path codeLine="14" d="M302.9,135.03 C317.52,147.1 341.23,166.56 362,183 C374.98,193.27 389.91,204.72 400.78,212.99 " fill="none" id="Port-ShipCargo" style="stroke:#A80036;stroke-width:1.0;"/><polygon fill="#000000" points="363.089,171.0607,368.3331,178.9948,371.9951,174.3971,363.089,171.0607" style="stroke:#000000;stroke-width:1.0;"/><text fill="#000000" font-family="sans-serif" font-size="13" lengthAdjust="spacing" textLength="28" x="376" y="179.4951">is on</text><text fill="#000000" font-family="sans-serif" font-size="13" lengthAdjust="spacing" textLength="7" x="299.995" y="156.6596">1</text><text fill="#000000" font-family="sans-serif" font-size="13" lengthAdjust="spacing" textLength="5" x="388.4705" y="202.0779">*</text><!--MD5=[4458acb2b21522d24d96fa6a00f84fab]
link Port to Warehouse--><path codeLine="15" d="M274.91,129.4 C257.56,136.87 227.38,150.53 203,165 C177.85,179.93 150.64,200.34 134.47,212.95 " fill="none" id="Port-Warehouse" style="stroke:#A80036;stroke-width:1.0;"/><polygon fill="#000000" points="212.2971,171.6194,203.021,173.7182,206.0262,178.7697,212.2971,171.6194" style="stroke:#000000;stroke-width:1.0;"/><text fill="#000000" font-family="sans-serif" font-size="13" lengthAdjust="spacing" textLength="60" x="217" y="179.4951">belongs to</text><text fill="#000000" font-family="sans-serif" font-size="13" lengthAdjust="spacing" textLength="7" x="260.2144" y="126.4703">1</text><text fill="#000000" font-family="sans-serif" font-size="13" lengthAdjust="spacing" textLength="7" x="131.9951" y="202.0214">1</text><!--MD5=[f065240a342e449619d6d797ab4a538f]
link ShipCaptain to Ship--><path codeLine="17" d="M437.24,32.09 C468.73,52.09 532.74,92.75 562.34,111.55 " fill="none" id="ShipCaptain-Ship" style="stroke:#A80036;stroke-width:1.0;"/><polygon fill="#000000" points="518.2206,73.8566,512.1612,66.5262,509.0097,71.4878,518.2206,73.8566" style="stroke:#000000;stroke-width:1.0;"/><text fill="#000000" font-family="sans-serif" font-size="13" lengthAdjust="spacing" textLength="31" x="523" y="76.4951">leads</text><text fill="#000000" font-family="sans-serif" font-size="13" lengthAdjust="spacing" textLength="7" x="435.8596" y="53.4842">1</text><text fill="#000000" font-family="sans-serif" font-size="13" lengthAdjust="spacing" textLength="7" x="547.4365" y="101.2814">1</text><!--MD5=[c5ef8141e8a198f4a84e54199c61ab67]
link ShipChiefElectricalEngineer to Ship--><path codeLine="18" d="M570.42,32.38 C569.97,44.41 569.62,63.53 571,80 C571.85,90.19 573.87,101.65 575.52,109.94 " fill="none" id="ShipChiefElectricalEngineer-Ship" style="stroke:#A80036;stroke-width:1.0;"/><polygon fill="#000000" points="576.3281,76.165,578.6672,66.9466,572.802,67.3322,576.3281,76.165" style="stroke:#000000;stroke-width:1.0;"/><text fill="#000000" font-family="sans-serif" font-size="13" lengthAdjust="spacing" textLength="52" x="585" y="76.4951">works on</text><text fill="#000000" font-family="sans-serif" font-size="13" lengthAdjust="spacing" textLength="7" x="561.9155" y="53.6222">1</text><text fill="#000000" font-family="sans-serif" font-size="13" lengthAdjust="spacing" textLength="7" x="566.0532" y="99.0073">1</text><!--MD5=[523305c00a070bde6e5f3e4da262743d]
link Port to PortStaff--><path codeLine="20" d="M287.8,135.35 C286.72,147.35 285.4,166.46 286,183 C286.36,193.11 287.23,204.57 287.94,212.88 " fill="none" id="Port-PortStaff" style="stroke:#A80036;stroke-width:1.0;"/><polygon fill="#000000" points="291.009,179.1758,293.9316,170.1254,288.0538,170.136,291.009,179.1758" style="stroke:#000000;stroke-width:1.0;"/><text fill="#000000" font-family="sans-serif" font-size="13" lengthAdjust="spacing" textLength="21" x="300" y="179.4951">has</text><text fill="#000000" font-family="sans-serif" font-size="13" lengthAdjust="spacing" textLength="7" x="279.0669" y="156.5811">1</text><text fill="#000000" font-family="sans-serif" font-size="13" lengthAdjust="spacing" textLength="5" x="281.4715" y="201.9225">*</text><!--MD5=[0190973f8c5de701e926b865ec575606]
link Warehouse to WarehouseStaff--><path codeLine="21" d="M120,238.09 C120,257.46 120,296.24 120,315.74 " fill="none" id="Warehouse-WarehouseStaff" style="stroke:#A80036;stroke-width:1.0;"/><polygon fill="#000000" points="125,282.1758,127.9389,273.1307,122.0611,273.1307,125,282.1758" style="stroke:#000000;stroke-width:1.0;"/><text fill="#000000" font-family="sans-serif" font-size="13" lengthAdjust="spacing" textLength="21" x="134" y="282.4951">has</text><text fill="#000000" font-family="sans-serif" font-size="13" lengthAdjust="spacing" textLength="7" x="111.6656" y="259.4842">1</text><text fill="#000000" font-family="sans-serif" font-size="13" lengthAdjust="spacing" textLength="5" x="114.0156" y="305.1116">*</text><!--MD5=[1011214759908b79645d2ac652a468b7]
link TrafficManager to ShipDynamicData--><path codeLine="23" d="M733.14,135.35 C725.78,147.69 713.48,167.36 701,183 C692.51,193.64 681.75,204.68 673.53,212.7 " fill="none" id="TrafficManager-ShipDynamicData" style="stroke:#A80036;stroke-width:1.0;"/><polygon fill="#000000" points="715.9479,178.1362,723.7971,172.7657,719.1413,169.1778,715.9479,178.1362" style="stroke:#000000;stroke-width:1.0;"/><text fill="#000000" font-family="sans-serif" font-size="13" lengthAdjust="spacing" textLength="53" x="728" y="179.4951">manages</text><text fill="#000000" font-family="sans-serif" font-size="13" lengthAdjust="spacing" textLength="7" x="722.3198" y="156.5811">1</text><text fill="#000000" font-family="sans-serif" font-size="13" lengthAdjust="spacing" textLength="5" x="672.4793" y="202.0559">*</text><!--MD5=[468ddd4b70c80a28a8ccd89867b6518f]
link FleetManager to Ship--><path codeLine="24" d="M824.39,32.04 C797.03,44.65 751.37,65.05 711,80 C669.27,95.46 618.82,110.14 593.74,117.17 " fill="none" id="FleetManager-Ship" style="stroke:#A80036;stroke-width:1.0;"/><polygon fill="#000000" points="754.3093,72.9071,763.8125,72.5323,761.7772,67.018,754.3093,72.9071" style="stroke:#000000;stroke-width:1.0;"/><text fill="#000000" font-family="sans-serif" font-size="13" lengthAdjust="spacing" textLength="53" x="768" y="76.4951">manages</text><text fill="#000000" font-family="sans-serif" font-size="13" lengthAdjust="spacing" textLength="7" x="806.3217" y="53.6735">1</text><text fill="#000000" font-family="sans-serif" font-size="13" lengthAdjust="spacing" textLength="5" x="601.72" y="131.8896">*</text><!--MD5=[ae950acd48e0def00fc2e9cce236db57]
link FleetManager to Truck--><path codeLine="25" d="M850.84,32.09 C853.91,51.46 860.05,90.24 863.14,109.74 " fill="none" id="FleetManager-Truck" style="stroke:#A80036;stroke-width:1.0;"/><polygon fill="#000000" points="863.7823,76.1142,865.2699,66.7207,859.4644,67.6403,863.7823,76.1142" style="stroke:#000000;stroke-width:1.0;"/><text fill="#000000" font-family="sans-serif" font-size="13" lengthAdjust="spacing" textLength="53" x="872" y="76.4951">manages</text><text fill="#000000" font-family="sans-serif" font-size="13" lengthAdjust="spacing" textLength="7" x="843.2071" y="53.4842">1</text><text fill="#000000" font-family="sans-serif" font-size="13" lengthAdjust="spacing" textLength="5" x="856.4232" y="99.1116">*</text><!--MD5=[9eb8cece74e91f217f5849e8308bf70d]
link PortManager to Port--><path codeLine="26" d="M289,32.09 C289,51.46 289,90.24 289,109.74 " fill="none" id="PortManager-Port" style="stroke:#A80036;stroke-width:1.0;"/><polygon fill="#000000" points="294,76.1758,296.9389,67.1307,291.0611,67.1307,294,76.1758" style="stroke:#000000;stroke-width:1.0;"/><text fill="#000000" font-family="sans-serif" font-size="13" lengthAdjust="spacing" textLength="53" x="303" y="76.4951">manages</text><text fill="#000000" font-family="sans-serif" font-size="13" lengthAdjust="spacing" textLength="7" x="280.6656" y="53.4842">1</text><text fill="#000000" font-family="sans-serif" font-size="13" lengthAdjust="spacing" textLength="5" x="283.0156" y="99.1116">*</text><!--MD5=[641af49703b38e745c9a3976df66996b]
link WarehouseManager to Warehouse--><path codeLine="27" d="M62.14,135.17 C58.7,147.72 55.31,167.88 63,183 C69.66,196.09 82.6,206.03 94.47,212.89 " fill="none" id="WarehouseManager-Warehouse" style="stroke:#A80036;stroke-width:1.0;"/><polygon fill="#000000" points="69.9204,178.7923,69.1599,169.3122,63.7329,171.5697,69.9204,178.7923" style="stroke:#000000;stroke-width:1.0;"/><text fill="#000000" font-family="sans-serif" font-size="13" lengthAdjust="spacing" textLength="53" x="77" y="179.4951">manages</text><text fill="#000000" font-family="sans-serif" font-size="13" lengthAdjust="spacing" textLength="7" x="52.334" y="156.5947">1</text><text fill="#000000" font-family="sans-serif" font-size="13" lengthAdjust="spacing" textLength="7" x="75.4951" y="201.9367">1</text><!--MD5=[02c6b5bcfae3eacb75e6ebd3672f8c3d]
@startuml Domain Model
skinparam style strictuml
hide empty members

Ship "1" - - "*" ShipCargo : is transported <
Ship "1" - - "*" ShipDynamicData : is located through >
VesselType "1" - - "*" Ship : has <

Truck "1" - - "1" TruckDriver : drives <
Truck "1" - - "*" TruckCargo : carries >
Location "1" - - "*" TruckCargo : of >
CargoManifest "1" - - "*" TruckCargo : has <
Container "1" - - "*" CargoManifest : locates >

Port "1" - - "*" ShipCargo : is on <
Port "1" - - "1" Warehouse : belongs to <

ShipCaptain "1" - - "1" Ship : leads >
ShipChiefElectricalEngineer "1" - - "1" Ship : works on >

Port "1" - - "*" PortStaff : has >
Warehouse "1" - - "*" WarehouseStaff : has >

TrafficManager "1" - - "*" ShipDynamicData : manages >
FleetManager "1" - - "*" Ship : manages >
FleetManager "1" - - "*" Truck : manages >
PortManager "1" - - "*" Port : manages >
WarehouseManager "1" - - "1" Warehouse : manages >

@enduml

PlantUML version 1.2021.7(Sun May 23 13:40:07 BST 2021)
(GPL source distribution)
Java Runtime: OpenJDK Runtime Environment
JVM: OpenJDK 64-Bit Server VM
Default Encoding: Cp1252
Language: en
Country: US
--></g></svg>