<?xml version="1.0" encoding="UTF-8" standalone="no"?><svg xmlns="http://www.w3.org/2000/svg" xmlns:xlink="http://www.w3.org/1999/xlink" contentScriptType="application/ecmascript" contentStyleType="text/css" height="347px" preserveAspectRatio="none" style="width:1329px;height:347px;background:#FFFFFF;" version="1.1" viewBox="0 0 1329 347" width="1329px" zoomAndPan="magnify"><defs/><g><!--MD5=[0dc7f2ddb409b58bcf52b12238c25399]
class Ship--><rect fill="#FEFECE" height="25.0938" id="Ship" style="stroke:#A80036;stroke-width:1.5;" width="31" x="674.5" y="110"/><text fill="#000000" font-family="sans-serif" font-size="12" lengthAdjust="spacing" textLength="25" x="677.5" y="127.457">Ship</text><!--MD5=[9fd742b094c67d7815d2f7d0fa73840f]
class ShipCargo--><rect fill="#FEFECE" height="25.0938" id="ShipCargo" style="stroke:#A80036;stroke-width:1.5;" width="65" x="437.5" y="213"/><text fill="#000000" font-family="sans-serif" font-size="12" lengthAdjust="spacing" textLength="59" x="440.5" y="230.457">ShipCargo</text><!--MD5=[1659f4066508979f3cd3e9133bca26e2]
class ShipDynamicData--><rect fill="#FEFECE" height="25.0938" id="ShipDynamicData" style="stroke:#A80036;stroke-width:1.5;" width="105" x="587.5" y="213"/><text fill="#000000" font-family="sans-serif" font-size="12" lengthAdjust="spacing" textLength="99" x="590.5" y="230.457">ShipDynamicData</text><!--MD5=[640ee3fc06c6afdbbdc2004f4e297605]
class AISMessage--><rect fill="#FEFECE" height="25.0938" id="AISMessage" style="stroke:#A80036;stroke-width:1.5;" width="75" x="810.5" y="213"/><text fill="#000000" font-family="sans-serif" font-size="12" lengthAdjust="spacing" textLength="69" x="813.5" y="230.457">AISMessage</text><!--MD5=[cf9c7d7c3da40397ddde4f51b7097da6]
class VesselType--><rect fill="#FEFECE" height="25.0938" id="VesselType" style="stroke:#A80036;stroke-width:1.5;" width="70" x="793" y="7"/><text fill="#000000" font-family="sans-serif" font-size="12" lengthAdjust="spacing" textLength="64" x="796" y="24.457">VesselType</text><!--MD5=[f2ba7f6ab60af8dd0d3e354f91729b14]
class Truck--><rect fill="#FEFECE" height="25.0938" id="Truck" style="stroke:#A80036;stroke-width:1.5;" width="36" x="972" y="110"/><text fill="#000000" font-family="sans-serif" font-size="12" lengthAdjust="spacing" textLength="30" x="975" y="127.457">Truck</text><!--MD5=[a93a86a91abc8796b23cdcc7cc3b17ff]
class TruckDriver--><rect fill="#FEFECE" height="25.0938" id="TruckDriver" style="stroke:#A80036;stroke-width:1.5;" width="68" x="944" y="213"/><text fill="#000000" font-family="sans-serif" font-size="12" lengthAdjust="spacing" textLength="62" x="947" y="230.457">TruckDriver</text><!--MD5=[b9b9c65b9e2e913ec2bf11d47432d54f]
class TruckCargo--><rect fill="#FEFECE" height="25.0938" id="TruckCargo" style="stroke:#A80036;stroke-width:1.5;" width="70" x="1125" y="213"/><text fill="#000000" font-family="sans-serif" font-size="12" lengthAdjust="spacing" textLength="64" x="1128" y="230.457">TruckCargo</text><!--MD5=[4f1f3706c1a355a8488e154afcaed5df]
class Location--><rect fill="#FEFECE" height="25.0938" id="Location" style="stroke:#A80036;stroke-width:1.5;" width="53" x="1133.5" y="110"/><text fill="#000000" font-family="sans-serif" font-size="12" lengthAdjust="spacing" textLength="47" x="1136.5" y="127.457">Location</text><!--MD5=[76562047389981627aea27c31a97aff5]
class CargoManifest--><rect fill="#FEFECE" height="25.0938" id="CargoManifest" style="stroke:#A80036;stroke-width:1.5;" width="86" x="1222" y="110"/><text fill="#000000" font-family="sans-serif" font-size="12" lengthAdjust="spacing" textLength="80" x="1225" y="127.457">CargoManifest</text><!--MD5=[e9a58730c562b34349daa605d1ed6662]
class Container--><rect fill="#FEFECE" height="25.0938" id="Container" style="stroke:#A80036;stroke-width:1.5;" width="60" x="1235" y="7"/><text fill="#000000" font-family="sans-serif" font-size="12" lengthAdjust="spacing" textLength="54" x="1238" y="24.457">Container</text><!--MD5=[a0bfe97ac0a38e6e74cc1c7c7b744b71]
class Port--><rect fill="#FEFECE" height="25.0938" id="Port" style="stroke:#A80036;stroke-width:1.5;" width="28" x="275" y="110"/><text fill="#000000" font-family="sans-serif" font-size="12" lengthAdjust="spacing" textLength="22" x="278" y="127.457">Port</text><!--MD5=[c5149b4909ffd2688ff51a939867f774]
class Warehouse--><rect fill="#FEFECE" height="25.0938" id="Warehouse" style="stroke:#A80036;stroke-width:1.5;" width="70" x="85" y="213"/><text fill="#000000" font-family="sans-serif" font-size="12" lengthAdjust="spacing" textLength="64" x="88" y="230.457">Warehouse</text><!--MD5=[e6b394b930674b2255938b8afe6bb7b4]
class ShipCaptain--><rect fill="#FEFECE" height="25.0938" id="ShipCaptain" style="stroke:#A80036;stroke-width:1.5;" width="74" x="489" y="7"/><text fill="#000000" font-family="sans-serif" font-size="12" lengthAdjust="spacing" textLength="68" x="492" y="24.457">ShipCaptain</text><!--MD5=[d14076b1fa5ff6fc34e7abc31c5e1daa]
class ShipChiefElectricalEngineer--><rect fill="#FEFECE" height="25.0938" id="ShipChiefElectricalEngineer" style="stroke:#A80036;stroke-width:1.5;" width="160" x="598" y="7"/><text fill="#000000" font-family="sans-serif" font-size="12" lengthAdjust="spacing" textLength="154" x="601" y="24.457">ShipChiefElectricalEngineer</text><!--MD5=[a0e14dc1c5f22798a4d68a7546a0e1d4]
class PortStaff--><rect fill="#FEFECE" height="25.0938" id="PortStaff" style="stroke:#A80036;stroke-width:1.5;" width="52" x="263" y="213"/><text fill="#000000" font-family="sans-serif" font-size="12" lengthAdjust="spacing" textLength="46" x="266" y="230.457">PortStaff</text><!--MD5=[7fcbedb88579745280c367cebf31fce2]
class WarehouseStaff--><rect fill="#FEFECE" height="25.0938" id="WarehouseStaff" style="stroke:#A80036;stroke-width:1.5;" width="94" x="73" y="316"/><text fill="#000000" font-family="sans-serif" font-size="12" lengthAdjust="spacing" textLength="88" x="76" y="333.457">WarehouseStaff</text><!--MD5=[ddaf6f62b0bc30921877ec9fb9463c9f]
class TrafficManager--><rect fill="#FEFECE" height="25.0938" id="TrafficManager" style="stroke:#A80036;stroke-width:1.5;" width="87" x="404.5" y="110"/><text fill="#000000" font-family="sans-serif" font-size="12" lengthAdjust="spacing" textLength="81" x="407.5" y="127.457">TrafficManager</text><!--MD5=[019a73386217e12d5bb8e34bf0b46b9e]
class FleetManager--><rect fill="#FEFECE" height="25.0938" id="FleetManager" style="stroke:#A80036;stroke-width:1.5;" width="81" x="924.5" y="7"/><text fill="#000000" font-family="sans-serif" font-size="12" lengthAdjust="spacing" textLength="75" x="927.5" y="24.457">FleetManager</text><!--MD5=[99d8f1361a72f685c413d1fd21efef1c]
class PortManager--><rect fill="#FEFECE" height="25.0938" id="PortManager" style="stroke:#A80036;stroke-width:1.5;" width="76" x="251" y="7"/><text fill="#000000" font-family="sans-serif" font-size="12" lengthAdjust="spacing" textLength="70" x="254" y="24.457">PortManager</text><!--MD5=[5e1deb958606d83ef5f4988eb2b8f966]
class WarehouseManager--><rect fill="#FEFECE" height="25.0938" id="WarehouseManager" style="stroke:#A80036;stroke-width:1.5;" width="118" x="7" y="110"/><text fill="#000000" font-family="sans-serif" font-size="12" lengthAdjust="spacing" textLength="112" x="10" y="127.457">WarehouseManager</text><!--MD5=[ebaad5c2e4d489b442c1d2b8ee83b97e]
link Ship to ShipCargo--><path codeLine="4" d="M674.4,127.08 C649.62,133.08 600.07,146.36 561,165 C532.55,178.57 502.49,199.76 485.03,212.85 " fill="none" id="Ship-ShipCargo" style="stroke:#A80036;stroke-width:1.0;"/><polygon fill="#000000" points="570.5546,172.1129,561.1027,173.1676,563.5278,178.5218,570.5546,172.1129" style="stroke:#000000;stroke-width:1.0;"/><text fill="#000000" font-family="sans-serif" font-size="13" lengthAdjust="spacing" textLength="79" x="575" y="179.4951">is transported</text><text fill="#000000" font-family="sans-serif" font-size="13" lengthAdjust="spacing" textLength="7" x="659.5213" y="145.8175">1</text><text fill="#000000" font-family="sans-serif" font-size="13" lengthAdjust="spacing" textLength="5" x="484.9637" y="202.2649">*</text><!--MD5=[9a349e3fe139691f8d5fdcec09531234]
link Ship to ShipDynamicData--><path codeLine="5" d="M684.26,135.09 C674.67,154.46 655.47,193.24 645.82,212.74 " fill="none" id="Ship-ShipDynamicData" style="stroke:#A80036;stroke-width:1.0;"/><polygon fill="#000000" points="670.7817,178.6568,677.4285,171.8545,672.1608,169.2467,670.7817,178.6568" style="stroke:#000000;stroke-width:1.0;"/><text fill="#000000" font-family="sans-serif" font-size="13" lengthAdjust="spacing" textLength="103" x="682" y="179.4951">is located through</text><text fill="#000000" font-family="sans-serif" font-size="13" lengthAdjust="spacing" textLength="7" x="673.7373" y="156.4842">1</text><text fill="#000000" font-family="sans-serif" font-size="13" lengthAdjust="spacing" textLength="5" x="642.1273" y="202.1116">*</text><!--MD5=[b28ddc43d72cac3a79123039941f2d4a]
link Ship to AISMessage--><path codeLine="6" d="M705.52,127.31 C726.84,133.05 765.73,145.38 794,165 C813.25,178.36 830.49,199.81 840.07,212.98 " fill="none" id="Ship-AISMessage" style="stroke:#A80036;stroke-width:1.0;"/><polygon fill="#000000" points="824.2176,176.8612,818.1663,169.5242,815.0094,174.4823,824.2176,176.8612" style="stroke:#000000;stroke-width:1.0;"/><text fill="#000000" font-family="sans-serif" font-size="13" lengthAdjust="spacing" textLength="35" x="829" y="179.4951">sends</text><text fill="#000000" font-family="sans-serif" font-size="13" lengthAdjust="spacing" textLength="7" x="713.3657" y="146.1424">1</text><text fill="#000000" font-family="sans-serif" font-size="13" lengthAdjust="spacing" textLength="5" x="830.7676" y="202.0638">*</text><!--MD5=[7196148583ae11c87d59bb1217350b96]
link VesselType to Ship--><path codeLine="7" d="M816.04,32.18 C802.88,44.73 780.83,64.91 760,80 C742.15,92.93 720.06,105.51 705.53,113.37 " fill="none" id="VesselType-Ship" style="stroke:#A80036;stroke-width:1.0;"/><polygon fill="#000000" points="791.0294,68.2154,782.0001,71.2023,785.4802,75.9392,791.0294,68.2154" style="stroke:#000000;stroke-width:1.0;"/><text fill="#000000" font-family="sans-serif" font-size="13" lengthAdjust="spacing" textLength="21" x="796" y="76.4951">has</text><text fill="#000000" font-family="sans-serif" font-size="13" lengthAdjust="spacing" textLength="7" x="803.1459" y="53.6085">1</text><text fill="#000000" font-family="sans-serif" font-size="13" lengthAdjust="spacing" textLength="5" x="713.4181" y="103.4271">*</text><!--MD5=[69c0c315057270c77c6273af23b4531b]
link Truck to TruckDriver--><path codeLine="9" d="M984.54,135.19 C981.04,143.34 976.82,154.59 975,165 C972.14,181.3 974.03,200.47 975.85,212.55 " fill="none" id="Truck-TruckDriver" style="stroke:#A80036;stroke-width:1.0;"/><polygon fill="#000000" points="980.5581,169.207,976.6279,177.8675,982.469,178.5237,980.5581,169.207" style="stroke:#000000;stroke-width:1.0;"/><text fill="#000000" font-family="sans-serif" font-size="13" lengthAdjust="spacing" textLength="33" x="989" y="179.4951">drives</text><text fill="#000000" font-family="sans-serif" font-size="13" lengthAdjust="spacing" textLength="7" x="974.124" y="156.6223">1</text><text fill="#000000" font-family="sans-serif" font-size="13" lengthAdjust="spacing" textLength="7" x="966.6959" y="202.1071">1</text><!--MD5=[92936d4f6a950602187a62a88634b3e3]
link Truck to TruckCargo--><path codeLine="10" d="M1008.19,134.31 C1040.48,153.49 1107.53,193.33 1140.64,213 " fill="none" id="Truck-TruckCargo" style="stroke:#A80036;stroke-width:1.0;"/><polygon fill="#000000" points="1095.2986,176.7296,1089.0235,169.583,1086.0213,174.6363,1095.2986,176.7296" style="stroke:#000000;stroke-width:1.0;"/><text fill="#000000" font-family="sans-serif" font-size="13" lengthAdjust="spacing" textLength="39" x="1100" y="179.4951">carries</text><text fill="#000000" font-family="sans-serif" font-size="13" lengthAdjust="spacing" textLength="7" x="1007.6169" y="156.5284">1</text><text fill="#000000" font-family="sans-serif" font-size="13" lengthAdjust="spacing" textLength="5" x="1126.6228" y="202.092">*</text><!--MD5=[ce12529fb4d87d725383b6d5fffdff63]
link Location to TruckCargo--><path codeLine="11" d="M1160,135.09 C1160,154.46 1160,193.24 1160,212.74 " fill="none" id="Location-TruckCargo" style="stroke:#A80036;stroke-width:1.0;"/><polygon fill="#000000" points="1165,179.1758,1167.9389,170.1307,1162.0611,170.1307,1165,179.1758" style="stroke:#000000;stroke-width:1.0;"/><text fill="#000000" font-family="sans-serif" font-size="13" lengthAdjust="spacing" textLength="10" x="1174" y="179.4951">of</text><text fill="#000000" font-family="sans-serif" font-size="13" lengthAdjust="spacing" textLength="7" x="1151.6656" y="156.4842">1</text><text fill="#000000" font-family="sans-serif" font-size="13" lengthAdjust="spacing" textLength="5" x="1154.0156" y="202.1116">*</text><!--MD5=[709f7f4b03ea17bc240dbf4cc92c5b99]
link CargoManifest to TruckCargo--><path codeLine="12" d="M1252.96,135.09 C1232.81,154.46 1192.5,193.24 1172.23,212.74 " fill="none" id="CargoManifest-TruckCargo" style="stroke:#A80036;stroke-width:1.0;"/><polygon fill="#000000" points="1226.6036,170.7097,1218.0473,174.8618,1222.122,179.0981,1226.6036,170.7097" style="stroke:#000000;stroke-width:1.0;"/><text fill="#000000" font-family="sans-serif" font-size="13" lengthAdjust="spacing" textLength="21" x="1232" y="179.4951">has</text><text fill="#000000" font-family="sans-serif" font-size="13" lengthAdjust="spacing" textLength="7" x="1240.0354" y="156.4842">1</text><text fill="#000000" font-family="sans-serif" font-size="13" lengthAdjust="spacing" textLength="5" x="1171.0612" y="202.1116">*</text><!--MD5=[f0bdc6c669370d32d41c923ef98b5140]
link Container to CargoManifest--><path codeLine="13" d="M1265,32.09 C1265,51.46 1265,90.24 1265,109.74 " fill="none" id="Container-CargoManifest" style="stroke:#A80036;stroke-width:1.0;"/><polygon fill="#000000" points="1270,76.1758,1272.9389,67.1307,1267.0611,67.1307,1270,76.1758" style="stroke:#000000;stroke-width:1.0;"/><text fill="#000000" font-family="sans-serif" font-size="13" lengthAdjust="spacing" textLength="42" x="1279" y="76.4951">locates</text><text fill="#000000" font-family="sans-serif" font-size="13" lengthAdjust="spacing" textLength="7" x="1256.6656" y="53.4842">1</text><text fill="#000000" font-family="sans-serif" font-size="13" lengthAdjust="spacing" textLength="5" x="1259.0156" y="99.1116">*</text><!--MD5=[d628947bd94ec1c816b053e15dee3862]
link Port to ShipCargo--><path codeLine="15" d="M300.77,135.11 C314.51,148.16 338.38,169.31 362,183 C385.81,196.8 415.06,207.72 437.12,214.88 " fill="none" id="Port-ShipCargo" style="stroke:#A80036;stroke-width:1.0;"/><polygon fill="#000000" points="362.6843,171.6509,369.0074,178.7551,371.9755,173.6817,362.6843,171.6509" style="stroke:#000000;stroke-width:1.0;"/><text fill="#000000" font-family="sans-serif" font-size="13" lengthAdjust="spacing" textLength="28" x="376" y="179.4951">is on</text><text fill="#000000" font-family="sans-serif" font-size="13" lengthAdjust="spacing" textLength="7" x="296.9229" y="156.5118">1</text><text fill="#000000" font-family="sans-serif" font-size="13" lengthAdjust="spacing" textLength="5" x="424.3806" y="208.3302">*</text><!--MD5=[4458acb2b21522d24d96fa6a00f84fab]
link Port to Warehouse--><path codeLine="16" d="M274.91,129.4 C257.56,136.87 227.38,150.53 203,165 C177.85,179.93 150.64,200.34 134.47,212.95 " fill="none" id="Port-Warehouse" style="stroke:#A80036;stroke-width:1.0;"/><polygon fill="#000000" points="212.2971,171.6194,203.021,173.7182,206.0262,178.7697,212.2971,171.6194" style="stroke:#000000;stroke-width:1.0;"/><text fill="#000000" font-family="sans-serif" font-size="13" lengthAdjust="spacing" textLength="60" x="217" y="179.4951">belongs to</text><text fill="#000000" font-family="sans-serif" font-size="13" lengthAdjust="spacing" textLength="7" x="260.2144" y="126.4703">1</text><text fill="#000000" font-family="sans-serif" font-size="13" lengthAdjust="spacing" textLength="7" x="131.9951" y="202.0214">1</text><!--MD5=[f065240a342e449619d6d797ab4a538f]
link ShipCaptain to Ship--><path codeLine="18" d="M544.81,32.09 C577.46,52.19 644,93.17 674.32,111.84 " fill="none" id="ShipCaptain-Ship" style="stroke:#A80036;stroke-width:1.0;"/><polygon fill="#000000" points="627.2575,73.7975,621.0966,66.5523,618.0146,71.5573,627.2575,73.7975" style="stroke:#000000;stroke-width:1.0;"/><text fill="#000000" font-family="sans-serif" font-size="13" lengthAdjust="spacing" textLength="31" x="632" y="76.4951">leads</text><text fill="#000000" font-family="sans-serif" font-size="13" lengthAdjust="spacing" textLength="7" x="543.6469" y="53.4842">1</text><text fill="#000000" font-family="sans-serif" font-size="13" lengthAdjust="spacing" textLength="7" x="659.4083" y="101.691">1</text><!--MD5=[c5ef8141e8a198f4a84e54199c61ab67]
link ShipChiefElectricalEngineer to Ship--><path codeLine="19" d="M679.38,32.09 C681.68,51.46 686.29,90.24 688.6,109.74 " fill="none" id="ShipChiefElectricalEngineer-Ship" style="stroke:#A80036;stroke-width:1.0;"/><polygon fill="#000000" points="690.5895,76.1409,692.4415,66.8124,686.6046,67.5054,690.5895,76.1409" style="stroke:#000000;stroke-width:1.0;"/><text fill="#000000" font-family="sans-serif" font-size="13" lengthAdjust="spacing" textLength="52" x="699" y="76.4951">works on</text><text fill="#000000" font-family="sans-serif" font-size="13" lengthAdjust="spacing" textLength="7" x="671.5718" y="53.4842">1</text><text fill="#000000" font-family="sans-serif" font-size="13" lengthAdjust="spacing" textLength="7" x="679.6706" y="99.1116">1</text><!--MD5=[523305c00a070bde6e5f3e4da262743d]
link Port to PortStaff--><path codeLine="21" d="M287.8,135.35 C286.72,147.35 285.4,166.46 286,183 C286.36,193.11 287.23,204.57 287.94,212.88 " fill="none" id="Port-PortStaff" style="stroke:#A80036;stroke-width:1.0;"/><polygon fill="#000000" points="291.009,179.1758,293.9316,170.1254,288.0538,170.136,291.009,179.1758" style="stroke:#000000;stroke-width:1.0;"/><text fill="#000000" font-family="sans-serif" font-size="13" lengthAdjust="spacing" textLength="21" x="300" y="179.4951">has</text><text fill="#000000" font-family="sans-serif" font-size="13" lengthAdjust="spacing" textLength="7" x="279.0669" y="156.5811">1</text><text fill="#000000" font-family="sans-serif" font-size="13" lengthAdjust="spacing" textLength="5" x="281.4715" y="201.9225">*</text><!--MD5=[0190973f8c5de701e926b865ec575606]
link Warehouse to WarehouseStaff--><path codeLine="22" d="M120,238.09 C120,257.46 120,296.24 120,315.74 " fill="none" id="Warehouse-WarehouseStaff" style="stroke:#A80036;stroke-width:1.0;"/><polygon fill="#000000" points="125,282.1758,127.9389,273.1307,122.0611,273.1307,125,282.1758" style="stroke:#000000;stroke-width:1.0;"/><text fill="#000000" font-family="sans-serif" font-size="13" lengthAdjust="spacing" textLength="21" x="134" y="282.4951">has</text><text fill="#000000" font-family="sans-serif" font-size="13" lengthAdjust="spacing" textLength="7" x="111.6656" y="259.4842">1</text><text fill="#000000" font-family="sans-serif" font-size="13" lengthAdjust="spacing" textLength="5" x="114.0156" y="305.1116">*</text><!--MD5=[1011214759908b79645d2ac652a468b7]
link TrafficManager to ShipDynamicData--><path codeLine="24" d="M443.14,135.44 C438.67,148.6 434.2,169.66 445,183 C462.59,204.72 535.59,215.55 587.09,220.59 " fill="none" id="TrafficManager-ShipDynamicData" style="stroke:#A80036;stroke-width:1.0;"/><polygon fill="#000000" points="454.3035,176.7214,448.0147,169.5868,445.0221,174.6459,454.3035,176.7214" style="stroke:#000000;stroke-width:1.0;"/><text fill="#000000" font-family="sans-serif" font-size="13" lengthAdjust="spacing" textLength="53" x="459" y="179.4951">manages</text><text fill="#000000" font-family="sans-serif" font-size="13" lengthAdjust="spacing" textLength="7" x="433.0572" y="156.7043">1</text><text fill="#000000" font-family="sans-serif" font-size="13" lengthAdjust="spacing" textLength="5" x="574.6443" y="216.3677">*</text><!--MD5=[468ddd4b70c80a28a8ccd89867b6518f]
link FleetManager to Ship--><path codeLine="25" d="M940.22,32.08 C912.67,44.71 866.68,65.14 826,80 C783.1,95.67 731.18,110.37 705.68,117.31 " fill="none" id="FleetManager-Ship" style="stroke:#A80036;stroke-width:1.0;"/><polygon fill="#000000" points="869.3007,72.8835,878.8056,72.5564,876.7981,67.032,869.3007,72.8835" style="stroke:#000000;stroke-width:1.0;"/><text fill="#000000" font-family="sans-serif" font-size="13" lengthAdjust="spacing" textLength="53" x="883" y="76.4951">manages</text><text fill="#000000" font-family="sans-serif" font-size="13" lengthAdjust="spacing" textLength="7" x="922.4383" y="53.4704">1</text><text fill="#000000" font-family="sans-serif" font-size="13" lengthAdjust="spacing" textLength="5" x="713.6338" y="132.0909">*</text><!--MD5=[ae950acd48e0def00fc2e9cce236db57]
link FleetManager to Truck--><path codeLine="26" d="M967.87,32.09 C972.66,51.46 982.26,90.24 987.09,109.74 " fill="none" id="FleetManager-Truck" style="stroke:#A80036;stroke-width:1.0;"/><polygon fill="#000000" points="985.2014,76.0293,985.8809,66.5431,980.1753,67.9553,985.2014,76.0293" style="stroke:#000000;stroke-width:1.0;"/><text fill="#000000" font-family="sans-serif" font-size="13" lengthAdjust="spacing" textLength="53" x="993" y="76.4951">manages</text><text fill="#000000" font-family="sans-serif" font-size="13" lengthAdjust="spacing" textLength="7" x="960.6298" y="53.4842">1</text><text fill="#000000" font-family="sans-serif" font-size="13" lengthAdjust="spacing" textLength="5" x="979.9598" y="99.1116">*</text><!--MD5=[9eb8cece74e91f217f5849e8308bf70d]
link PortManager to Port--><path codeLine="27" d="M289,32.09 C289,51.46 289,90.24 289,109.74 " fill="none" id="PortManager-Port" style="stroke:#A80036;stroke-width:1.0;"/><polygon fill="#000000" points="294,76.1758,296.9389,67.1307,291.0611,67.1307,294,76.1758" style="stroke:#000000;stroke-width:1.0;"/><text fill="#000000" font-family="sans-serif" font-size="13" lengthAdjust="spacing" textLength="53" x="303" y="76.4951">manages</text><text fill="#000000" font-family="sans-serif" font-size="13" lengthAdjust="spacing" textLength="7" x="280.6656" y="53.4842">1</text><text fill="#000000" font-family="sans-serif" font-size="13" lengthAdjust="spacing" textLength="5" x="283.0156" y="99.1116">*</text><!--MD5=[641af49703b38e745c9a3976df66996b]
link WarehouseManager to Warehouse--><path codeLine="28" d="M62.14,135.17 C58.7,147.72 55.31,167.88 63,183 C69.66,196.09 82.6,206.03 94.47,212.89 " fill="none" id="WarehouseManager-Warehouse" style="stroke:#A80036;stroke-width:1.0;"/><polygon fill="#000000" points="69.9204,178.7923,69.1599,169.3122,63.7329,171.5697,69.9204,178.7923" style="stroke:#000000;stroke-width:1.0;"/><text fill="#000000" font-family="sans-serif" font-size="13" lengthAdjust="spacing" textLength="53" x="77" y="179.4951">manages</text><text fill="#000000" font-family="sans-serif" font-size="13" lengthAdjust="spacing" textLength="7" x="52.334" y="156.5947">1</text><text fill="#000000" font-family="sans-serif" font-size="13" lengthAdjust="spacing" textLength="7" x="75.4951" y="201.9367">1</text><!--MD5=[44b40b83e233303cdfe4daa7c47ec273]
@startuml Domain Model
skinparam style strictuml
hide empty members

Ship "1" - - "*" ShipCargo : is transported <
Ship "1" - - "*" ShipDynamicData : is located through >
Ship "1" - - "*" AISMessage : sends >
VesselType "1" - - "*" Ship : has <

Truck "1" - - "1" TruckDriver : drives <
Truck "1" - - "*" TruckCargo : carries >
Location "1" - - "*" TruckCargo : of >
CargoManifest "1" - - "*" TruckCargo : has <
Container "1" - - "*" CargoManifest : locates >

Port "1" - - "*" ShipCargo : is on <
Port "1" - - "1" Warehouse : belongs to <

ShipCaptain "1" - - "1" Ship : leads >
ShipChiefElectricalEngineer "1" - - "1" Ship : works on >

Port "1" - - "*" PortStaff : has >
Warehouse "1" - - "*" WarehouseStaff : has >

TrafficManager "1" - - "*" ShipDynamicData : manages >
FleetManager "1" - - "*" Ship : manages >
FleetManager "1" - - "*" Truck : manages >
PortManager "1" - - "*" Port : manages >
WarehouseManager "1" - - "1" Warehouse : manages >

@enduml

PlantUML version 1.2021.11(Sat Oct 02 14:26:11 BST 2021)
(GPL source distribution)
Java Runtime: OpenJDK Runtime Environment
JVM: OpenJDK 64-Bit Server VM
Default Encoding: Cp1252
Language: pt
Country: PT
--></g></svg>