<?xml version="1.0" encoding="UTF-8" standalone="no"?><svg xmlns="http://www.w3.org/2000/svg" xmlns:xlink="http://www.w3.org/1999/xlink" contentScriptType="application/ecmascript" contentStyleType="text/css" height="304px" preserveAspectRatio="none" style="width:266px;height:304px;background:#FFFFFF;" version="1.1" viewBox="0 0 266 304" width="266px" zoomAndPan="magnify"><defs><filter height="300%" id="f3ob9th9d905" width="300%" x="-1" y="-1"><feGaussianBlur result="blurOut" stdDeviation="2.0"/><feColorMatrix in="blurOut" result="blurOut2" type="matrix" values="0 0 0 0 0 0 0 0 0 0 0 0 0 0 0 0 0 0 .4 0"/><feOffset dx="4.0" dy="4.0" in="blurOut2" result="blurOut3"/><feBlend in="SourceGraphic" in2="blurOut3" mode="normal"/></filter></defs><g><!--MD5=[8b944653c655024075d894af29a33c78]
entity SC--><ellipse cx="134" cy="14" fill="#FEFECE" filter="url(#f3ob9th9d905)" rx="8" ry="8" style="stroke:#A80036;stroke-width:1.5;"/><path d="M134,22 L134,49 M121,30 L147,30 M134,49 L121,64 M134,49 L147,64 " fill="none" filter="url(#f3ob9th9d905)" style="stroke:#A80036;stroke-width:1.5;"/><text fill="#000000" font-family="sans-serif" font-size="14" lengthAdjust="spacing" textLength="81" x="93.5" y="84.0332">Ship Captain</text><ellipse cx="134.091" cy="265.9182" fill="#FEFECE" filter="url(#f3ob9th9d905)" rx="120.091" ry="26.4182" style="stroke:#A80036;stroke-width:1.5;"/><text fill="#000000" font-family="sans-serif" font-size="14" lengthAdjust="spacing" textLength="205" x="31.591" y="269.6467">Knows how much the vessel sink</text><ellipse cx="74.0887" cy="163.5177" fill="#FEFECE" filter="url(#f3ob9th9d905)" rx="68.0887" ry="16.0177" style="stroke:#A80036;stroke-width:1.5;"/><text fill="#000000" font-family="sans-serif" font-size="14" lengthAdjust="spacing" textLength="82" x="30.0887" y="168.0343">Start the app</text><!--MD5=[5e2b843174474edafaffa60381fe13af]
link SC to Start the app--><path d="M112.85,87.72 C103.12,106.44 92.04,127.78 84.21,142.85 " fill="none" id="SC-to-Start the app" style="stroke:#A80036;stroke-width:1.0;"/><polygon fill="#A80036" points="81.88,147.32,89.5779,141.1765,84.1845,142.8827,82.4783,137.4893,81.88,147.32" style="stroke:#A80036;stroke-width:1.0;"/><!--MD5=[1f58a08cc5dd49b85ffaa7505db96a07]
link SC to Use--><path d="M149.32,87.72 C157.33,113.84 164.6,148.55 160,179.5 C157.23,198.14 151.24,218.33 145.7,234.41 " fill="none" id="SC-to-Use" style="stroke:#A80036;stroke-width:1.0;"/><polygon fill="#A80036" points="144,239.26,150.7321,232.0712,145.6409,234.5369,143.1752,229.4457,144,239.26" style="stroke:#A80036;stroke-width:1.0;"/><!--MD5=[0608e5789242ddb8e2389dc9375ddd97]
link Start the app to Use--><path d="M83.11,179.76 C92.55,195.58 107.48,220.57 118.72,239.41 " fill="none" id="Start the app-Use" style="stroke:#A80036;stroke-width:1.0;stroke-dasharray:7.0,7.0;"/><!--MD5=[6ab62b319e56372254a23fc3cf6d93d1]
@startuml
'https://plantuml.com/use-case-diagram

:Ship Captain: as SC
(Knows how much the vessel sink) as (Use)

SC -> (Start the app)

SC - - -> (Use)

(Start the app) ..  (Use)
@enduml

@startuml

:Ship Captain: as SC
(Knows how much the vessel sink) as (Use)

SC -> (Start the app)

SC - - -> (Use)

(Start the app) ..  (Use)
@enduml

PlantUML version 1.2021.11(Sat Oct 02 14:26:11 BST 2021)
(GPL source distribution)
Java Runtime: OpenJDK Runtime Environment
JVM: OpenJDK 64-Bit Server VM
Default Encoding: Cp1252
Language: pt
Country: PT
--></g></svg>