<?xml version="1.0" encoding="UTF-8" standalone="no"?><svg xmlns="http://www.w3.org/2000/svg" xmlns:xlink="http://www.w3.org/1999/xlink" contentScriptType="application/ecmascript" contentStyleType="text/css" height="473px" preserveAspectRatio="none" style="width:652px;height:473px;background:#FFFFFF;" version="1.1" viewBox="0 0 652 473" width="652px" zoomAndPan="magnify"><defs><filter height="300%" id="f36arjlan7594" width="300%" x="-1" y="-1"><feGaussianBlur result="blurOut" stdDeviation="2.0"/><feColorMatrix in="blurOut" result="blurOut2" type="matrix" values="0 0 0 0 0 0 0 0 0 0 0 0 0 0 0 0 0 0 .4 0"/><feOffset dx="4.0" dy="4.0" in="blurOut2" result="blurOut3"/><feBlend in="SourceGraphic" in2="blurOut3" mode="normal"/></filter></defs><g><!--MD5=[02e4b9b7573f1156f41e60aa5b4e25a4]
class Company--><rect codeLine="2" fill="#FEFECE" filter="url(#f36arjlan7594)" height="61.8359" id="Company" style="stroke:#A80036;stroke-width:1.5;" width="112" x="232" y="7"/><ellipse cx="259.15" cy="23" fill="#ADD1B2" rx="11" ry="11" style="stroke:#A80036;stroke-width:1.0;"/><path d="M261.15,19.5 Q261.3531,19 261.5875,18.75 Q261.8219,18.5 262.0875,18.5 Q262.5563,18.5 262.8531,18.7813 Q263.15,19.0625 263.15,19.7188 L263.15,21.2813 Q263.15,21.9375 262.8688,22.2188 Q262.5875,22.5 262.15,22.5 Q261.7594,22.5 261.5094,22.3281 Q261.2594,22.1563 261.15,21.7031 Q261.1031,21.3906 260.9313,21.2188 Q260.6188,20.8906 260.0563,20.7031 Q259.4938,20.5 258.9313,20.5 Q258.2281,20.5 257.6344,20.7813 Q257.0563,21.0625 256.6031,21.6875 Q256.15,22.3125 256.15,23.1719 L256.15,24.0938 Q256.15,25.125 256.9938,25.8125 Q257.8375,26.5 259.3375,26.5 Q260.2281,26.5 260.8531,26.2969 Q261.2125,26.1875 261.6188,25.8281 Q261.8844,25.625 262.025,25.5625 Q262.1656,25.5 262.3375,25.5 Q262.6656,25.5 262.9,25.7656 Q263.15,26.0156 263.15,26.375 Q263.15,26.7188 262.8063,27.125 Q262.3063,27.7188 261.5094,28.0469 Q260.4625,28.5 259.1813,28.5 Q257.6813,28.5 256.4781,27.9063 Q255.5094,27.4375 254.8219,26.4219 Q254.15,25.4063 254.15,24.2031 L254.15,23.1094 Q254.15,21.8594 254.7437,20.7656 Q255.3531,19.6719 256.4,19.0938 Q257.4625,18.5 258.65,18.5 Q259.3688,18.5 259.9938,18.75 Q260.6188,19 261.15,19.5 Z " fill="#000000"/><text fill="#000000" font-family="sans-serif" font-size="12" lengthAdjust="spacing" textLength="53" x="275.85" y="27.9102">Company</text><line style="stroke:#A80036;stroke-width:1.5;" x1="233" x2="343" y1="39" y2="39"/><rect fill="none" height="6" style="stroke:#C82930;stroke-width:1.0;" width="6" x="240" y="47"/><text fill="#000000" font-family="sans-serif" font-size="11" lengthAdjust="spacing" textLength="86" x="252" y="54.4189">String designation</text><line style="stroke:#A80036;stroke-width:1.5;" x1="233" x2="343" y1="60.8359" y2="60.8359"/><!--MD5=[ddaf6f62b0bc30921877ec9fb9463c9f]
class TrafficManager--><rect codeLine="6" fill="#FEFECE" filter="url(#f36arjlan7594)" height="75.6719" id="TrafficManager" style="stroke:#A80036;stroke-width:1.5;" width="113" x="231.5" y="147"/><ellipse cx="246.5" cy="163" fill="#ADD1B2" rx="11" ry="11" style="stroke:#A80036;stroke-width:1.0;"/><path d="M248.5,159.5 Q248.7031,159 248.9375,158.75 Q249.1719,158.5 249.4375,158.5 Q249.9063,158.5 250.2031,158.7813 Q250.5,159.0625 250.5,159.7188 L250.5,161.2813 Q250.5,161.9375 250.2188,162.2188 Q249.9375,162.5 249.5,162.5 Q249.1094,162.5 248.8594,162.3281 Q248.6094,162.1563 248.5,161.7031 Q248.4531,161.3906 248.2813,161.2188 Q247.9688,160.8906 247.4063,160.7031 Q246.8438,160.5 246.2813,160.5 Q245.5781,160.5 244.9844,160.7813 Q244.4063,161.0625 243.9531,161.6875 Q243.5,162.3125 243.5,163.1719 L243.5,164.0938 Q243.5,165.125 244.3438,165.8125 Q245.1875,166.5 246.6875,166.5 Q247.5781,166.5 248.2031,166.2969 Q248.5625,166.1875 248.9688,165.8281 Q249.2344,165.625 249.375,165.5625 Q249.5156,165.5 249.6875,165.5 Q250.0156,165.5 250.25,165.7656 Q250.5,166.0156 250.5,166.375 Q250.5,166.7188 250.1563,167.125 Q249.6563,167.7188 248.8594,168.0469 Q247.8125,168.5 246.5313,168.5 Q245.0313,168.5 243.8281,167.9063 Q242.8594,167.4375 242.1719,166.4219 Q241.5,165.4063 241.5,164.2031 L241.5,163.1094 Q241.5,161.8594 242.0938,160.7656 Q242.7031,159.6719 243.75,159.0938 Q244.8125,158.5 246,158.5 Q246.7188,158.5 247.3438,158.75 Q247.9688,159 248.5,159.5 Z " fill="#000000"/><text fill="#000000" font-family="sans-serif" font-size="12" lengthAdjust="spacing" textLength="81" x="260.5" y="167.9102">TrafficManager</text><line style="stroke:#A80036;stroke-width:1.5;" x1="232.5" x2="343.5" y1="179" y2="179"/><rect fill="none" height="6" style="stroke:#C82930;stroke-width:1.0;" width="6" x="239.5" y="187"/><text fill="#000000" font-family="sans-serif" font-size="11" lengthAdjust="spacing" textLength="57" x="251.5" y="194.4189">String name</text><rect fill="none" height="6" style="stroke:#C82930;stroke-width:1.0;" width="6" x="239.5" y="200.8359"/><text fill="#000000" font-family="sans-serif" font-size="11" lengthAdjust="spacing" textLength="55" x="251.5" y="208.2549">String email</text><line style="stroke:#A80036;stroke-width:1.5;" x1="232.5" x2="343.5" y1="214.6719" y2="214.6719"/><!--MD5=[deb4e1f6eb1e3c1256fdb830f96abfbb]
class Country--><rect codeLine="11" fill="#FEFECE" filter="url(#f36arjlan7594)" height="158.6875" id="Country" style="stroke:#A80036;stroke-width:1.5;" width="120" x="7" y="301"/><ellipse cx="42.7" cy="317" fill="#ADD1B2" rx="11" ry="11" style="stroke:#A80036;stroke-width:1.0;"/><path d="M44.7,313.5 Q44.9031,313 45.1375,312.75 Q45.3719,312.5 45.6375,312.5 Q46.1063,312.5 46.4031,312.7813 Q46.7,313.0625 46.7,313.7188 L46.7,315.2813 Q46.7,315.9375 46.4188,316.2188 Q46.1375,316.5 45.7,316.5 Q45.3094,316.5 45.0594,316.3281 Q44.8094,316.1563 44.7,315.7031 Q44.6531,315.3906 44.4813,315.2188 Q44.1688,314.8906 43.6063,314.7031 Q43.0438,314.5 42.4813,314.5 Q41.7781,314.5 41.1844,314.7813 Q40.6063,315.0625 40.1531,315.6875 Q39.7,316.3125 39.7,317.1719 L39.7,318.0938 Q39.7,319.125 40.5438,319.8125 Q41.3875,320.5 42.8875,320.5 Q43.7781,320.5 44.4031,320.2969 Q44.7625,320.1875 45.1688,319.8281 Q45.4344,319.625 45.575,319.5625 Q45.7156,319.5 45.8875,319.5 Q46.2156,319.5 46.45,319.7656 Q46.7,320.0156 46.7,320.375 Q46.7,320.7188 46.3563,321.125 Q45.8563,321.7188 45.0594,322.0469 Q44.0125,322.5 42.7313,322.5 Q41.2313,322.5 40.0281,321.9063 Q39.0594,321.4375 38.3719,320.4219 Q37.7,319.4063 37.7,318.2031 L37.7,317.1094 Q37.7,315.8594 38.2938,314.7656 Q38.9031,313.6719 39.95,313.0938 Q41.0125,312.5 42.2,312.5 Q42.9188,312.5 43.5438,312.75 Q44.1688,313 44.7,313.5 Z " fill="#000000"/><text fill="#000000" font-family="sans-serif" font-size="12" lengthAdjust="spacing" textLength="42" x="61.3" y="321.9102">Country</text><line style="stroke:#A80036;stroke-width:1.5;" x1="8" x2="126" y1="333" y2="333"/><rect fill="none" height="6" style="stroke:#C82930;stroke-width:1.0;" width="6" x="15" y="341"/><text fill="#000000" font-family="sans-serif" font-size="11" lengthAdjust="spacing" textLength="75" x="27" y="348.4189">String continent</text><rect fill="none" height="6" style="stroke:#C82930;stroke-width:1.0;" width="6" x="15" y="354.8359"/><text fill="#000000" font-family="sans-serif" font-size="11" lengthAdjust="spacing" textLength="94" x="27" y="362.2549">String Alpha2-Code</text><rect fill="none" height="6" style="stroke:#C82930;stroke-width:1.0;" width="6" x="15" y="368.6719"/><text fill="#000000" font-family="sans-serif" font-size="11" lengthAdjust="spacing" textLength="94" x="27" y="376.0908">String Alpha3-Code</text><rect fill="none" height="6" style="stroke:#C82930;stroke-width:1.0;" width="6" x="15" y="382.5078"/><text fill="#000000" font-family="sans-serif" font-size="11" lengthAdjust="spacing" textLength="57" x="27" y="389.9268">String name</text><rect fill="none" height="6" style="stroke:#C82930;stroke-width:1.0;" width="6" x="15" y="396.3438"/><text fill="#000000" font-family="sans-serif" font-size="11" lengthAdjust="spacing" textLength="84" x="27" y="403.7627">double population</text><rect fill="none" height="6" style="stroke:#C82930;stroke-width:1.0;" width="6" x="15" y="410.1797"/><text fill="#000000" font-family="sans-serif" font-size="11" lengthAdjust="spacing" textLength="62" x="27" y="417.5986">String capital</text><rect fill="none" height="6" style="stroke:#C82930;stroke-width:1.0;" width="6" x="15" y="424.0156"/><text fill="#000000" font-family="sans-serif" font-size="11" lengthAdjust="spacing" textLength="69" x="27" y="431.4346">double latitude</text><rect fill="none" height="6" style="stroke:#C82930;stroke-width:1.0;" width="6" x="15" y="437.8516"/><text fill="#000000" font-family="sans-serif" font-size="11" lengthAdjust="spacing" textLength="78" x="27" y="445.2705">double longitude</text><line style="stroke:#A80036;stroke-width:1.5;" x1="8" x2="126" y1="451.6875" y2="451.6875"/><!--MD5=[a0bfe97ac0a38e6e74cc1c7c7b744b71]
class Port--><rect codeLine="22" fill="#FEFECE" filter="url(#f36arjlan7594)" height="131.0156" id="Port" style="stroke:#A80036;stroke-width:1.5;" width="101" x="417.5" y="315"/><ellipse cx="453.65" cy="331" fill="#ADD1B2" rx="11" ry="11" style="stroke:#A80036;stroke-width:1.0;"/><path d="M455.65,327.5 Q455.8531,327 456.0875,326.75 Q456.3219,326.5 456.5875,326.5 Q457.0563,326.5 457.3531,326.7813 Q457.65,327.0625 457.65,327.7188 L457.65,329.2813 Q457.65,329.9375 457.3688,330.2188 Q457.0875,330.5 456.65,330.5 Q456.2594,330.5 456.0094,330.3281 Q455.7594,330.1563 455.65,329.7031 Q455.6031,329.3906 455.4313,329.2188 Q455.1188,328.8906 454.5563,328.7031 Q453.9938,328.5 453.4313,328.5 Q452.7281,328.5 452.1344,328.7813 Q451.5563,329.0625 451.1031,329.6875 Q450.65,330.3125 450.65,331.1719 L450.65,332.0938 Q450.65,333.125 451.4938,333.8125 Q452.3375,334.5 453.8375,334.5 Q454.7281,334.5 455.3531,334.2969 Q455.7125,334.1875 456.1188,333.8281 Q456.3844,333.625 456.525,333.5625 Q456.6656,333.5 456.8375,333.5 Q457.1656,333.5 457.4,333.7656 Q457.65,334.0156 457.65,334.375 Q457.65,334.7188 457.3063,335.125 Q456.8063,335.7188 456.0094,336.0469 Q454.9625,336.5 453.6813,336.5 Q452.1813,336.5 450.9781,335.9063 Q450.0094,335.4375 449.3219,334.4219 Q448.65,333.4063 448.65,332.2031 L448.65,331.1094 Q448.65,329.8594 449.2438,328.7656 Q449.8531,327.6719 450.9,327.0938 Q451.9625,326.5 453.15,326.5 Q453.8688,326.5 454.4938,326.75 Q455.1188,327 455.65,327.5 Z " fill="#000000"/><text fill="#000000" font-family="sans-serif" font-size="12" lengthAdjust="spacing" textLength="22" x="472.35" y="335.9102">Port</text><line style="stroke:#A80036;stroke-width:1.5;" x1="418.5" x2="517.5" y1="347" y2="347"/><rect fill="none" height="6" style="stroke:#C82930;stroke-width:1.0;" width="6" x="425.5" y="355"/><text fill="#000000" font-family="sans-serif" font-size="11" lengthAdjust="spacing" textLength="75" x="437.5" y="362.4189">String continent</text><rect fill="none" height="6" style="stroke:#C82930;stroke-width:1.0;" width="6" x="425.5" y="368.8359"/><text fill="#000000" font-family="sans-serif" font-size="11" lengthAdjust="spacing" textLength="68" x="437.5" y="376.2549">String country</text><rect fill="none" height="6" style="stroke:#C82930;stroke-width:1.0;" width="6" x="425.5" y="382.6719"/><text fill="#000000" font-family="sans-serif" font-size="11" lengthAdjust="spacing" textLength="60" x="437.5" y="390.0908">Integer code</text><rect fill="none" height="6" style="stroke:#C82930;stroke-width:1.0;" width="6" x="425.5" y="396.5078"/><text fill="#000000" font-family="sans-serif" font-size="11" lengthAdjust="spacing" textLength="50" x="437.5" y="403.9268">String port</text><rect fill="none" height="6" style="stroke:#C82930;stroke-width:1.0;" width="6" x="425.5" y="410.3438"/><text fill="#000000" font-family="sans-serif" font-size="11" lengthAdjust="spacing" textLength="47" x="437.5" y="417.7627">Double lat</text><rect fill="none" height="6" style="stroke:#C82930;stroke-width:1.0;" width="6" x="425.5" y="424.1797"/><text fill="#000000" font-family="sans-serif" font-size="11" lengthAdjust="spacing" textLength="50" x="437.5" y="431.5986">Double lon</text><line style="stroke:#A80036;stroke-width:1.5;" x1="418.5" x2="517.5" y1="438.0156" y2="438.0156"/><!--MD5=[683ea96df93176af8455607a7c1d2a32]
link Company to TrafficManager--><path codeLine="32" d="M288,69.04 C288,91.61 288,122.64 288,146.78 " fill="none" id="Company-TrafficManager" style="stroke:#A80036;stroke-width:1.0;"/><polygon fill="#000000" points="293,113.1758,295.9389,104.1307,290.0611,104.1307,293,113.1758" style="stroke:#000000;stroke-width:1.0;"/><text fill="#000000" font-family="sans-serif" font-size="13" lengthAdjust="spacing" textLength="82" x="302" y="113.4951">has registered</text><text fill="#000000" font-family="sans-serif" font-size="13" lengthAdjust="spacing" textLength="7" x="280.3109" y="90.2719">1</text><text fill="#000000" font-family="sans-serif" font-size="13" lengthAdjust="spacing" textLength="5" x="282.5547" y="136.1027">*</text><!--MD5=[5fd98a8c03cc0e5a408f548eb1c0ace8]
link Company to Port--><path codeLine="33" d="M344.12,62.18 C411.97,93.77 522.35,157.57 565,253 C580.92,288.63 549.88,323.38 518.78,347.42 " fill="none" id="Company-Port" style="stroke:#A80036;stroke-width:1.0;"/><polygon fill="#000000" points="555.611,189.4399,553.394,180.1913,548.3813,183.2608,555.611,189.4399" style="stroke:#000000;stroke-width:1.0;"/><text fill="#000000" font-family="sans-serif" font-size="13" lengthAdjust="spacing" textLength="82" x="562" y="190.4951">has registered</text><text fill="#000000" font-family="sans-serif" font-size="13" lengthAdjust="spacing" textLength="7" x="352.1314" y="61.8839">1</text><text fill="#000000" font-family="sans-serif" font-size="13" lengthAdjust="spacing" textLength="5" x="526.6055" y="338.9062">*</text><!--MD5=[da7744a491085abf6337b551ad49e0b8]
link Company to Country--><path codeLine="34" d="M231.88,61.12 C193.99,78.87 145.8,107.38 117,147 C84.72,191.42 72.48,252.44 68.18,300.82 " fill="none" id="Company-Country" style="stroke:#A80036;stroke-width:1.0;"/><polygon fill="#000000" points="119.1802,189.3048,126.7083,183.4928,121.8543,180.1779,119.1802,189.3048" style="stroke:#000000;stroke-width:1.0;"/><text fill="#000000" font-family="sans-serif" font-size="13" lengthAdjust="spacing" textLength="82" x="131" y="190.4951">has registered</text><text fill="#000000" font-family="sans-serif" font-size="13" lengthAdjust="spacing" textLength="7" x="216.8686" y="60.6815">1</text><text fill="#000000" font-family="sans-serif" font-size="13" lengthAdjust="spacing" textLength="5" x="63.0583" y="290.2627">*</text><!--MD5=[6b4da2671412f4786b9d77d6f2672bd6]
link TrafficManager to Port--><path codeLine="35" d="M311.2,223.37 C321.42,238.73 334.04,256.32 347,271 C368.29,295.11 394.61,319.27 417.26,338.64 " fill="none" id="TrafficManager-Port" style="stroke:#A80036;stroke-width:1.0;"/><polygon fill="#000000" points="355.3855,265.8553,351.4238,257.2091,347.0983,261.189,355.3855,265.8553" style="stroke:#000000;stroke-width:1.0;"/><text fill="#000000" font-family="sans-serif" font-size="13" lengthAdjust="spacing" textLength="199" x="361" y="267.4951">which to know closest places from</text><text fill="#000000" font-family="sans-serif" font-size="13" lengthAdjust="spacing" textLength="5" x="309.4991" y="244.3095">*</text><text fill="#000000" font-family="sans-serif" font-size="13" lengthAdjust="spacing" textLength="5" x="404.4404" y="328.8366">*</text><!--MD5=[3ddcd10e799c08eb09ca90d11440413b]
link TrafficManager to Country--><path codeLine="36" d="M231.26,194.59 C192.65,203.21 142.97,220.15 111,253 C98.11,266.25 88.98,283.47 82.52,300.91 " fill="none" id="TrafficManager-Country" style="stroke:#A80036;stroke-width:1.0;"/><polygon fill="#000000" points="111.9323,265.0834,120.9999,262.2144,117.5818,257.4326,111.9323,265.0834" style="stroke:#000000;stroke-width:1.0;"/><text fill="#000000" font-family="sans-serif" font-size="13" lengthAdjust="spacing" textLength="199" x="125" y="267.4951">which to know closest places from</text><text fill="#000000" font-family="sans-serif" font-size="13" lengthAdjust="spacing" textLength="5" x="218.6699" y="192.3324">*</text><text fill="#000000" font-family="sans-serif" font-size="13" lengthAdjust="spacing" textLength="5" x="78.761" y="290.0883">*</text><!--MD5=[d10fa9535ef6f156fb662f568fd5b07d]
@startuml

class Company{
    -String designation
}

class TrafficManager{
    -String name
    -String email
}

class Country{
    -String continent
    -String Alpha2-Code
    -String Alpha3-Code
    -String name
    -double population
    -String capital
    -double latitude
    -double longitude
}

class Port{
     -String continent
     -String country
     -Integer code
     -String port
     -Double lat
     -Double lon
}


Company "1" - - "*" TrafficManager : has registered >
Company "1" - - "*" Port : has registered >
Company "1" - - "*" Country : has registered >
TrafficManager "*" - - "*" Port : which to know closest places from >
TrafficManager "*" - - "*" Country : which to know closest places from >

@enduml

PlantUML version 1.2021.11(Sat Oct 02 14:26:11 BST 2021)
(GPL source distribution)
Java Runtime: OpenJDK Runtime Environment
JVM: OpenJDK 64-Bit Server VM
Default Encoding: Cp1252
Language: pt
Country: PT
--></g></svg>