<?xml version="1.0" encoding="UTF-8" standalone="no"?><svg xmlns="http://www.w3.org/2000/svg" xmlns:xlink="http://www.w3.org/1999/xlink" contentScriptType="application/ecmascript" contentStyleType="text/css" height="905px" preserveAspectRatio="none" style="width:386px;height:905px;background:#FFFFFF;" version="1.1" viewBox="0 0 386 905" width="386px" zoomAndPan="magnify"><defs><filter height="300%" id="fz1us46ltrexr" width="300%" x="-1" y="-1"><feGaussianBlur result="blurOut" stdDeviation="2.0"/><feColorMatrix in="blurOut" result="blurOut2" type="matrix" values="0 0 0 0 0 0 0 0 0 0 0 0 0 0 0 0 0 0 .4 0"/><feOffset dx="4.0" dy="4.0" in="blurOut2" result="blurOut3"/><feBlend in="SourceGraphic" in2="blurOut3" mode="normal"/></filter></defs><g><!--MD5=[0dc7f2ddb409b58bcf52b12238c25399]
class Ship--><rect codeLine="3" fill="#FEFECE" filter="url(#fz1us46ltrexr)" height="158.6875" id="Ship" style="stroke:#A80036;stroke-width:1.5;" width="116" x="14.5" y="496"/><ellipse cx="56.05" cy="512" fill="#ADD1B2" rx="11" ry="11" style="stroke:#A80036;stroke-width:1.0;"/><path d="M58.05,508.5 Q58.2531,508 58.4875,507.75 Q58.7219,507.5 58.9875,507.5 Q59.4563,507.5 59.7531,507.7813 Q60.05,508.0625 60.05,508.7188 L60.05,510.2813 Q60.05,510.9375 59.7688,511.2188 Q59.4875,511.5 59.05,511.5 Q58.6594,511.5 58.4094,511.3281 Q58.1594,511.1563 58.05,510.7031 Q58.0031,510.3906 57.8313,510.2188 Q57.5188,509.8906 56.9563,509.7031 Q56.3938,509.5 55.8313,509.5 Q55.1281,509.5 54.5344,509.7813 Q53.9563,510.0625 53.5031,510.6875 Q53.05,511.3125 53.05,512.1719 L53.05,513.0938 Q53.05,514.125 53.8938,514.8125 Q54.7375,515.5 56.2375,515.5 Q57.1281,515.5 57.7531,515.2969 Q58.1125,515.1875 58.5188,514.8281 Q58.7844,514.625 58.925,514.5625 Q59.0656,514.5 59.2375,514.5 Q59.5656,514.5 59.8,514.7656 Q60.05,515.0156 60.05,515.375 Q60.05,515.7188 59.7063,516.125 Q59.2063,516.7188 58.4094,517.0469 Q57.3625,517.5 56.0813,517.5 Q54.5813,517.5 53.3781,516.9063 Q52.4094,516.4375 51.7219,515.4219 Q51.05,514.4063 51.05,513.2031 L51.05,512.1094 Q51.05,510.8594 51.6438,509.7656 Q52.2531,508.6719 53.3,508.0938 Q54.3625,507.5 55.55,507.5 Q56.2688,507.5 56.8938,507.75 Q57.5188,508 58.05,508.5 Z " fill="#000000"/><text fill="#000000" font-family="sans-serif" font-size="12" lengthAdjust="spacing" textLength="25" x="75.95" y="516.9102">Ship</text><line style="stroke:#A80036;stroke-width:1.5;" x1="15.5" x2="129.5" y1="528" y2="528"/><rect fill="none" height="6" style="stroke:#C82930;stroke-width:1.0;" width="6" x="22.5" y="536"/><text fill="#000000" font-family="sans-serif" font-size="11" lengthAdjust="spacing" textLength="60" x="34.5" y="543.4189">Integer mmsi</text><rect fill="none" height="6" style="stroke:#C82930;stroke-width:1.0;" width="6" x="22.5" y="549.8359"/><text fill="#000000" font-family="sans-serif" font-size="11" lengthAdjust="spacing" textLength="90" x="34.5" y="557.2549">String vesselName</text><rect fill="none" height="6" style="stroke:#C82930;stroke-width:1.0;" width="6" x="22.5" y="563.6719"/><text fill="#000000" font-family="sans-serif" font-size="11" lengthAdjust="spacing" textLength="52" x="34.5" y="571.0908">Integer imo</text><rect fill="none" height="6" style="stroke:#C82930;stroke-width:1.0;" width="6" x="22.5" y="577.5078"/><text fill="#000000" font-family="sans-serif" font-size="11" lengthAdjust="spacing" textLength="73" x="34.5" y="584.9268">Integer callSign</text><rect fill="none" height="6" style="stroke:#C82930;stroke-width:1.0;" width="6" x="22.5" y="591.3438"/><text fill="#000000" font-family="sans-serif" font-size="11" lengthAdjust="spacing" textLength="82" x="34.5" y="598.7627">VesselType type</text><rect fill="none" height="6" style="stroke:#C82930;stroke-width:1.0;" width="6" x="22.5" y="605.1797"/><text fill="#000000" font-family="sans-serif" font-size="11" lengthAdjust="spacing" textLength="65" x="34.5" y="612.5986">Double length</text><rect fill="none" height="6" style="stroke:#C82930;stroke-width:1.0;" width="6" x="22.5" y="619.0156"/><text fill="#000000" font-family="sans-serif" font-size="11" lengthAdjust="spacing" textLength="63" x="34.5" y="626.4346">Double width</text><rect fill="none" height="6" style="stroke:#C82930;stroke-width:1.0;" width="6" x="22.5" y="632.8516"/><text fill="#000000" font-family="sans-serif" font-size="11" lengthAdjust="spacing" textLength="59" x="34.5" y="640.2705">Double draft</text><line style="stroke:#A80036;stroke-width:1.5;" x1="15.5" x2="129.5" y1="646.6875" y2="646.6875"/><!--MD5=[ddaf6f62b0bc30921877ec9fb9463c9f]
class TrafficManager--><rect codeLine="13" fill="#FEFECE" filter="url(#fz1us46ltrexr)" height="75.6719" id="TrafficManager" style="stroke:#A80036;stroke-width:1.5;" width="113" x="97" y="147"/><ellipse cx="112" cy="163" fill="#ADD1B2" rx="11" ry="11" style="stroke:#A80036;stroke-width:1.0;"/><path d="M114,159.5 Q114.2031,159 114.4375,158.75 Q114.6719,158.5 114.9375,158.5 Q115.4063,158.5 115.7031,158.7813 Q116,159.0625 116,159.7188 L116,161.2813 Q116,161.9375 115.7188,162.2188 Q115.4375,162.5 115,162.5 Q114.6094,162.5 114.3594,162.3281 Q114.1094,162.1563 114,161.7031 Q113.9531,161.3906 113.7813,161.2188 Q113.4688,160.8906 112.9063,160.7031 Q112.3438,160.5 111.7813,160.5 Q111.0781,160.5 110.4844,160.7813 Q109.9063,161.0625 109.4531,161.6875 Q109,162.3125 109,163.1719 L109,164.0938 Q109,165.125 109.8438,165.8125 Q110.6875,166.5 112.1875,166.5 Q113.0781,166.5 113.7031,166.2969 Q114.0625,166.1875 114.4688,165.8281 Q114.7344,165.625 114.875,165.5625 Q115.0156,165.5 115.1875,165.5 Q115.5156,165.5 115.75,165.7656 Q116,166.0156 116,166.375 Q116,166.7188 115.6563,167.125 Q115.1563,167.7188 114.3594,168.0469 Q113.3125,168.5 112.0313,168.5 Q110.5313,168.5 109.3281,167.9063 Q108.3594,167.4375 107.6719,166.4219 Q107,165.4063 107,164.2031 L107,163.1094 Q107,161.8594 107.5938,160.7656 Q108.2031,159.6719 109.25,159.0938 Q110.3125,158.5 111.5,158.5 Q112.2188,158.5 112.8438,158.75 Q113.4688,159 114,159.5 Z " fill="#000000"/><text fill="#000000" font-family="sans-serif" font-size="12" lengthAdjust="spacing" textLength="81" x="126" y="167.9102">TrafficManager</text><line style="stroke:#A80036;stroke-width:1.5;" x1="98" x2="209" y1="179" y2="179"/><rect fill="none" height="6" style="stroke:#C82930;stroke-width:1.0;" width="6" x="105" y="187"/><text fill="#000000" font-family="sans-serif" font-size="11" lengthAdjust="spacing" textLength="57" x="117" y="194.4189">String name</text><rect fill="none" height="6" style="stroke:#C82930;stroke-width:1.0;" width="6" x="105" y="200.8359"/><text fill="#000000" font-family="sans-serif" font-size="11" lengthAdjust="spacing" textLength="55" x="117" y="208.2549">String email</text><line style="stroke:#A80036;stroke-width:1.5;" x1="98" x2="209" y1="214.6719" y2="214.6719"/><!--MD5=[02e4b9b7573f1156f41e60aa5b4e25a4]
class Company--><rect codeLine="18" fill="#FEFECE" filter="url(#fz1us46ltrexr)" height="61.8359" id="Company" style="stroke:#A80036;stroke-width:1.5;" width="112" x="97.5" y="7"/><ellipse cx="124.65" cy="23" fill="#ADD1B2" rx="11" ry="11" style="stroke:#A80036;stroke-width:1.0;"/><path d="M126.65,19.5 Q126.8531,19 127.0875,18.75 Q127.3219,18.5 127.5875,18.5 Q128.0563,18.5 128.3531,18.7813 Q128.65,19.0625 128.65,19.7188 L128.65,21.2813 Q128.65,21.9375 128.3688,22.2188 Q128.0875,22.5 127.65,22.5 Q127.2594,22.5 127.0094,22.3281 Q126.7594,22.1563 126.65,21.7031 Q126.6031,21.3906 126.4313,21.2188 Q126.1188,20.8906 125.5563,20.7031 Q124.9938,20.5 124.4313,20.5 Q123.7281,20.5 123.1344,20.7813 Q122.5563,21.0625 122.1031,21.6875 Q121.65,22.3125 121.65,23.1719 L121.65,24.0938 Q121.65,25.125 122.4938,25.8125 Q123.3375,26.5 124.8375,26.5 Q125.7281,26.5 126.3531,26.2969 Q126.7125,26.1875 127.1188,25.8281 Q127.3844,25.625 127.525,25.5625 Q127.6656,25.5 127.8375,25.5 Q128.1656,25.5 128.4,25.7656 Q128.65,26.0156 128.65,26.375 Q128.65,26.7188 128.3063,27.125 Q127.8063,27.7188 127.0094,28.0469 Q125.9625,28.5 124.6813,28.5 Q123.1813,28.5 121.9781,27.9063 Q121.0094,27.4375 120.3219,26.4219 Q119.65,25.4063 119.65,24.2031 L119.65,23.1094 Q119.65,21.8594 120.2438,20.7656 Q120.8531,19.6719 121.9,19.0938 Q122.9625,18.5 124.15,18.5 Q124.8688,18.5 125.4938,18.75 Q126.1188,19 126.65,19.5 Z " fill="#000000"/><text fill="#000000" font-family="sans-serif" font-size="12" lengthAdjust="spacing" textLength="53" x="141.35" y="27.9102">Company</text><line style="stroke:#A80036;stroke-width:1.5;" x1="98.5" x2="208.5" y1="39" y2="39"/><rect fill="none" height="6" style="stroke:#C82930;stroke-width:1.0;" width="6" x="105.5" y="47"/><text fill="#000000" font-family="sans-serif" font-size="11" lengthAdjust="spacing" textLength="86" x="117.5" y="54.4189">String designation</text><line style="stroke:#A80036;stroke-width:1.5;" x1="98.5" x2="208.5" y1="60.8359" y2="60.8359"/><!--MD5=[1659f4066508979f3cd3e9133bca26e2]
class ShipDynamicData--><rect codeLine="22" fill="#FEFECE" filter="url(#fz1us46ltrexr)" height="158.6875" id="ShipDynamicData" style="stroke:#A80036;stroke-width:1.5;" width="131" x="7" y="733"/><ellipse cx="22" cy="749" fill="#ADD1B2" rx="11" ry="11" style="stroke:#A80036;stroke-width:1.0;"/><path d="M24,745.5 Q24.2031,745 24.4375,744.75 Q24.6719,744.5 24.9375,744.5 Q25.4063,744.5 25.7031,744.7813 Q26,745.0625 26,745.7188 L26,747.2813 Q26,747.9375 25.7188,748.2188 Q25.4375,748.5 25,748.5 Q24.6094,748.5 24.3594,748.3281 Q24.1094,748.1563 24,747.7031 Q23.9531,747.3906 23.7813,747.2188 Q23.4688,746.8906 22.9063,746.7031 Q22.3438,746.5 21.7813,746.5 Q21.0781,746.5 20.4844,746.7813 Q19.9063,747.0625 19.4531,747.6875 Q19,748.3125 19,749.1719 L19,750.0938 Q19,751.125 19.8438,751.8125 Q20.6875,752.5 22.1875,752.5 Q23.0781,752.5 23.7031,752.2969 Q24.0625,752.1875 24.4688,751.8281 Q24.7344,751.625 24.875,751.5625 Q25.0156,751.5 25.1875,751.5 Q25.5156,751.5 25.75,751.7656 Q26,752.0156 26,752.375 Q26,752.7188 25.6563,753.125 Q25.1563,753.7188 24.3594,754.0469 Q23.3125,754.5 22.0313,754.5 Q20.5313,754.5 19.3281,753.9063 Q18.3594,753.4375 17.6719,752.4219 Q17,751.4063 17,750.2031 L17,749.1094 Q17,747.8594 17.5938,746.7656 Q18.2031,745.6719 19.25,745.0938 Q20.3125,744.5 21.5,744.5 Q22.2188,744.5 22.8438,744.75 Q23.4688,745 24,745.5 Z " fill="#000000"/><text fill="#000000" font-family="sans-serif" font-size="12" lengthAdjust="spacing" textLength="99" x="36" y="753.9102">ShipDynamicData</text><line style="stroke:#A80036;stroke-width:1.5;" x1="8" x2="137" y1="765" y2="765"/><rect fill="none" height="6" style="stroke:#C82930;stroke-width:1.0;" width="6" x="15" y="773"/><text fill="#000000" font-family="sans-serif" font-size="11" lengthAdjust="spacing" textLength="68" x="27" y="780.4189">Date dateTime</text><rect fill="none" height="6" style="stroke:#C82930;stroke-width:1.0;" width="6" x="15" y="786.8359"/><text fill="#000000" font-family="sans-serif" font-size="11" lengthAdjust="spacing" textLength="47" x="27" y="794.2549">Double lat</text><rect fill="none" height="6" style="stroke:#C82930;stroke-width:1.0;" width="6" x="15" y="800.6719"/><text fill="#000000" font-family="sans-serif" font-size="11" lengthAdjust="spacing" textLength="50" x="27" y="808.0908">Double lon</text><rect fill="none" height="6" style="stroke:#C82930;stroke-width:1.0;" width="6" x="15" y="814.5078"/><text fill="#000000" font-family="sans-serif" font-size="11" lengthAdjust="spacing" textLength="54" x="27" y="821.9268">Double sog</text><rect fill="none" height="6" style="stroke:#C82930;stroke-width:1.0;" width="6" x="15" y="828.3438"/><text fill="#000000" font-family="sans-serif" font-size="11" lengthAdjust="spacing" textLength="54" x="27" y="835.7627">Double cog</text><rect fill="none" height="6" style="stroke:#C82930;stroke-width:1.0;" width="6" x="15" y="842.1797"/><text fill="#000000" font-family="sans-serif" font-size="11" lengthAdjust="spacing" textLength="74" x="27" y="849.5986">Integer heading</text><rect fill="none" height="6" style="stroke:#C82930;stroke-width:1.0;" width="6" x="15" y="856.0156"/><text fill="#000000" font-family="sans-serif" font-size="11" lengthAdjust="spacing" textLength="71" x="27" y="863.4346">Integer trailerId</text><rect fill="none" height="6" style="stroke:#C82930;stroke-width:1.0;" width="6" x="15" y="869.8516"/><text fill="#000000" font-family="sans-serif" font-size="11" lengthAdjust="spacing" textLength="86" x="27" y="877.2705">String transceiver</text><line style="stroke:#A80036;stroke-width:1.5;" x1="8" x2="137" y1="883.6875" y2="883.6875"/><!--MD5=[25753d27989ba92a2248f66039bf225e]
class PositionalMessage--><rect codeLine="33" fill="#FEFECE" filter="url(#fz1us46ltrexr)" height="117.1797" id="PositionalMessage" style="stroke:#A80036;stroke-width:1.5;" width="202" x="96.5" y="301"/><ellipse cx="140.3" cy="317" fill="#ADD1B2" rx="11" ry="11" style="stroke:#A80036;stroke-width:1.0;"/><path d="M142.3,313.5 Q142.5031,313 142.7375,312.75 Q142.9719,312.5 143.2375,312.5 Q143.7063,312.5 144.0031,312.7813 Q144.3,313.0625 144.3,313.7188 L144.3,315.2813 Q144.3,315.9375 144.0188,316.2188 Q143.7375,316.5 143.3,316.5 Q142.9094,316.5 142.6594,316.3281 Q142.4094,316.1563 142.3,315.7031 Q142.2531,315.3906 142.0813,315.2188 Q141.7688,314.8906 141.2063,314.7031 Q140.6438,314.5 140.0813,314.5 Q139.3781,314.5 138.7844,314.7813 Q138.2063,315.0625 137.7531,315.6875 Q137.3,316.3125 137.3,317.1719 L137.3,318.0938 Q137.3,319.125 138.1438,319.8125 Q138.9875,320.5 140.4875,320.5 Q141.3781,320.5 142.0031,320.2969 Q142.3625,320.1875 142.7688,319.8281 Q143.0344,319.625 143.175,319.5625 Q143.3156,319.5 143.4875,319.5 Q143.8156,319.5 144.05,319.7656 Q144.3,320.0156 144.3,320.375 Q144.3,320.7188 143.9563,321.125 Q143.4563,321.7188 142.6594,322.0469 Q141.6125,322.5 140.3313,322.5 Q138.8313,322.5 137.6281,321.9063 Q136.6594,321.4375 135.9719,320.4219 Q135.3,319.4063 135.3,318.2031 L135.3,317.1094 Q135.3,315.8594 135.8938,314.7656 Q136.5031,313.6719 137.55,313.0938 Q138.6125,312.5 139.8,312.5 Q140.5188,312.5 141.1438,312.75 Q141.7688,313 142.3,313.5 Z " fill="#000000"/><text fill="#000000" font-family="sans-serif" font-size="12" lengthAdjust="spacing" textLength="106" x="160.7" y="321.9102">PositionalMessage</text><line style="stroke:#A80036;stroke-width:1.5;" x1="97.5" x2="297.5" y1="333" y2="333"/><rect fill="none" height="6" style="stroke:#C82930;stroke-width:1.0;" width="6" x="104.5" y="341"/><text fill="#000000" font-family="sans-serif" font-size="11" lengthAdjust="spacing" textLength="60" x="116.5" y="348.4189">Integer mmsi</text><rect fill="none" height="6" style="stroke:#C82930;stroke-width:1.0;" width="6" x="104.5" y="354.8359"/><text fill="#000000" font-family="sans-serif" font-size="11" lengthAdjust="spacing" textLength="153" x="116.5" y="362.2549">ShipDynamicData actualPosition</text><line style="stroke:#A80036;stroke-width:1.5;" x1="97.5" x2="297.5" y1="368.6719" y2="368.6719"/><ellipse cx="107.5" cy="379.6719" fill="#84BE84" rx="3" ry="3" style="stroke:#038048;stroke-width:1.0;"/><text fill="#000000" font-family="sans-serif" font-size="11" lengthAdjust="spacing" textLength="134" x="116.5" y="384.0908">void organizeListMessage()</text><ellipse cx="107.5" cy="393.5078" fill="#84BE84" rx="3" ry="3" style="stroke:#038048;stroke-width:1.0;"/><text fill="#000000" font-family="sans-serif" font-size="11" lengthAdjust="spacing" textLength="176" x="116.5" y="397.9268">List getMessagesByShipCode(code)</text><ellipse cx="107.5" cy="407.3438" fill="#84BE84" rx="3" ry="3" style="stroke:#038048;stroke-width:1.0;"/><text fill="#000000" font-family="sans-serif" font-size="11" lengthAdjust="spacing" textLength="105" x="116.5" y="411.7627">List getAllMessages()</text><!--MD5=[683ea96df93176af8455607a7c1d2a32]
link Company to TrafficManager--><path codeLine="41" d="M153.5,69.04 C153.5,91.61 153.5,122.64 153.5,146.78 " fill="none" id="Company-TrafficManager" style="stroke:#A80036;stroke-width:1.0;"/><polygon fill="#000000" points="158.5,113.1758,161.4389,104.1307,155.5611,104.1307,158.5,113.1758" style="stroke:#000000;stroke-width:1.0;"/><text fill="#000000" font-family="sans-serif" font-size="13" lengthAdjust="spacing" textLength="82" x="167.5" y="113.4951">has registered</text><text fill="#000000" font-family="sans-serif" font-size="13" lengthAdjust="spacing" textLength="7" x="145.8109" y="90.2719">1</text><text fill="#000000" font-family="sans-serif" font-size="13" lengthAdjust="spacing" textLength="20" x="131.7188" y="136.1027">1..*</text><!--MD5=[37a14a5de6d6fd738aee271300f4b5c8]
link Company to Ship--><path codeLine="42" d="M126.71,69.3 C110.21,89.79 90.22,118.25 79.5,147 C36.47,262.46 46.3,407.94 58.53,495.95 " fill="none" id="Company-Ship" style="stroke:#A80036;stroke-width:1.0;"/><polygon fill="#000000" points="58.711,267.1131,63.0404,258.6451,57.2362,257.7176,58.711,267.1131" style="stroke:#000000;stroke-width:1.0;"/><text fill="#000000" font-family="sans-serif" font-size="13" lengthAdjust="spacing" textLength="82" x="68.5" y="267.4951">has registered</text><text fill="#000000" font-family="sans-serif" font-size="13" lengthAdjust="spacing" textLength="7" x="113.936" y="90.3358">1</text><text fill="#000000" font-family="sans-serif" font-size="13" lengthAdjust="spacing" textLength="20" x="36.2454" y="485.1322">1..*</text><!--MD5=[0dd1d7a0f2d3307d8a75ebf027e9634a]
link Company to PositionalMessage--><path codeLine="43" d="M209.55,57.63 C228.53,66.93 247.65,80.3 258.5,99 C296.87,165.12 281.41,198.07 258.5,271 C255.28,281.25 250.39,291.34 244.75,300.83 " fill="none" id="Company-PositionalMessage" style="stroke:#A80036;stroke-width:1.0;"/><polygon fill="#000000" points="288.2162,190.1242,289.8292,180.7514,284.0119,181.5934,288.2162,190.1242" style="stroke:#000000;stroke-width:1.0;"/><text fill="#000000" font-family="sans-serif" font-size="13" lengthAdjust="spacing" textLength="82" x="296.5" y="190.4951">has registered</text><text fill="#000000" font-family="sans-serif" font-size="13" lengthAdjust="spacing" textLength="7" x="217.552" y="56.7225">1</text><text fill="#000000" font-family="sans-serif" font-size="13" lengthAdjust="spacing" textLength="20" x="229.2898" y="290.2102">1..*</text><!--MD5=[9a349e3fe139691f8d5fdcec09531234]
link Ship to ShipDynamicData--><path codeLine="44" d="M72.5,655.08 C72.5,680.16 72.5,707.92 72.5,733 " fill="none" id="Ship-ShipDynamicData" style="stroke:#A80036;stroke-width:1.0;"/><polygon fill="#000000" points="77.5,699.1758,80.4389,690.1307,74.5611,690.1307,77.5,699.1758" style="stroke:#000000;stroke-width:1.0;"/><text fill="#000000" font-family="sans-serif" font-size="13" lengthAdjust="spacing" textLength="21" x="86.5" y="699.4951">has</text><text fill="#000000" font-family="sans-serif" font-size="13" lengthAdjust="spacing" textLength="7" x="65.1992" y="676.1301">1</text><text fill="#000000" font-family="sans-serif" font-size="13" lengthAdjust="spacing" textLength="20" x="51.5469" y="722.1869">1..*</text><!--MD5=[dd365fef403d024d3436c83ea9160fba]
link TrafficManager to PositionalMessage--><path codeLine="45" d="M162.94,223.01 C168.72,245.68 176.25,275.17 182.8,300.85 " fill="none" id="TrafficManager-PositionalMessage" style="stroke:#A80036;stroke-width:1.0;"/><polygon fill="#000000" points="180.7361,267.0206,181.3477,257.5297,175.6523,258.9828,180.7361,267.0206" style="stroke:#000000;stroke-width:1.0;"/><text fill="#000000" font-family="sans-serif" font-size="13" lengthAdjust="spacing" textLength="61" x="188.5" y="267.4951">control the</text><text fill="#000000" font-family="sans-serif" font-size="13" lengthAdjust="spacing" textLength="20" x="142.8473" y="244.1818">1..*</text><text fill="#000000" font-family="sans-serif" font-size="13" lengthAdjust="spacing" textLength="20" x="159.7897" y="290.2326">0..*</text><!--MD5=[a38fb0c4d0b3209da342b5f7a4f6f9c8]
link PositionalMessage to Ship--><path codeLine="46" d="M163.84,418.13 C149.88,442.02 133.47,470.12 118.43,495.86 " fill="none" id="PositionalMessage-Ship" style="stroke:#A80036;stroke-width:1.0;"/><polygon fill="#000000" points="148.9778,461.493,156.0781,455.1655,151.0028,452.2006,148.9778,461.493" style="stroke:#000000;stroke-width:1.0;"/><text fill="#000000" font-family="sans-serif" font-size="13" lengthAdjust="spacing" textLength="32" x="160.5" y="462.4951">of the</text><text fill="#000000" font-family="sans-serif" font-size="13" lengthAdjust="spacing" textLength="20" x="138.5189" y="439.7561">1..*</text><text fill="#000000" font-family="sans-serif" font-size="13" lengthAdjust="spacing" textLength="7" x="115.4741" y="485.0336">1</text><!--MD5=[bb9522a79867e66a98c8a585c279d39d]
@startuml
'Created by Danilton 1191240

class Ship {
    -Integer mmsi
    -String vesselName
    -Integer imo
    -Integer callSign
    -VesselType type
    -Double length
    -Double width
    -Double draft
}
class TrafficManager{
  -String name
  -String email
}

class Company {
  -String designation
}

class ShipDynamicData {
    -Date dateTime
    -Double lat
    -Double lon
    -Double sog
    -Double cog
    -Integer heading
    -Integer trailerId
    -String transceiver
}

class PositionalMessage {
   -Integer mmsi
   -ShipDynamicData actualPosition
   +void organizeListMessage()
   +List getMessagesByShipCode(code)
   +List getAllMessages()
}

Company "1" - - "1..*" TrafficManager : has registered >
Company "1" - - "1..*" Ship : has registered >
Company "1" - - "1..*" PositionalMessage : has registered >
Ship "1" - - "1..*" ShipDynamicData : has >
TrafficManager "1..*" - - "0..*" PositionalMessage : control the >
PositionalMessage "1..*" - - "1" Ship : of the >



@enduml

@startuml

class Ship {
    -Integer mmsi
    -String vesselName
    -Integer imo
    -Integer callSign
    -VesselType type
    -Double length
    -Double width
    -Double draft
}
class TrafficManager{
  -String name
  -String email
}

class Company {
  -String designation
}

class ShipDynamicData {
    -Date dateTime
    -Double lat
    -Double lon
    -Double sog
    -Double cog
    -Integer heading
    -Integer trailerId
    -String transceiver
}

class PositionalMessage {
   -Integer mmsi
   -ShipDynamicData actualPosition
   +void organizeListMessage()
   +List getMessagesByShipCode(code)
   +List getAllMessages()
}

Company "1" - - "1..*" TrafficManager : has registered >
Company "1" - - "1..*" Ship : has registered >
Company "1" - - "1..*" PositionalMessage : has registered >
Ship "1" - - "1..*" ShipDynamicData : has >
TrafficManager "1..*" - - "0..*" PositionalMessage : control the >
PositionalMessage "1..*" - - "1" Ship : of the >



@enduml

PlantUML version 1.2021.11(Sat Oct 02 14:26:11 BST 2021)
(GPL source distribution)
Java Runtime: OpenJDK Runtime Environment
JVM: OpenJDK 64-Bit Server VM
Default Encoding: Cp1252
Language: pt
Country: PT
--></g></svg>