<?xml version="1.0" encoding="UTF-8" standalone="no"?><svg xmlns="http://www.w3.org/2000/svg" xmlns:xlink="http://www.w3.org/1999/xlink" contentScriptType="application/ecmascript" contentStyleType="text/css" height="538px" preserveAspectRatio="none" style="width:436px;height:538px;background:#FFFFFF;" version="1.1" viewBox="0 0 436 538" width="436px" zoomAndPan="magnify"><defs><filter height="300%" id="f1kq2l4c110cwx" width="300%" x="-1" y="-1"><feGaussianBlur result="blurOut" stdDeviation="2.0"/><feColorMatrix in="blurOut" result="blurOut2" type="matrix" values="0 0 0 0 0 0 0 0 0 0 0 0 0 0 0 0 0 0 .4 0"/><feOffset dx="4.0" dy="4.0" in="blurOut2" result="blurOut3"/><feBlend in="SourceGraphic" in2="blurOut3" mode="normal"/></filter></defs><g><!--MD5=[4ef6908475cadc30f0fafd08f4b25416]
class ship--><rect codeLine="49" fill="#FEFECE" filter="url(#f1kq2l4c110cwx)" height="164.5234" id="ship" style="stroke:#A80036;stroke-width:1.5;" width="121" x="7" y="7"/><ellipse cx="51.25" cy="23" fill="#FFAAAA" rx="11" ry="11" style="stroke:#A80036;stroke-width:1.0;"/><path d="M52.1719,20.3906 L52.1719,27.0469 L53.3281,27.0469 Q53.9375,27.0469 54.1875,27.2813 Q54.4531,27.5156 54.4531,27.9063 Q54.4531,28.2813 54.1875,28.5156 Q53.9375,28.75 53.3281,28.75 L49.3438,28.75 Q48.7188,28.75 48.4531,28.5156 Q48.2031,28.2813 48.2031,27.8906 Q48.2031,27.5156 48.4531,27.2813 Q48.7188,27.0469 49.3438,27.0469 L50.4688,27.0469 L50.4688,20.3906 L48.625,20.3906 L48.625,22 Q48.625,22.6094 48.3906,22.875 Q48.1563,23.1406 47.7813,23.1406 Q47.4063,23.1406 47.1719,22.875 Q46.9375,22.6094 46.9375,22 L46.9375,18.6875 L55.75,18.6875 L55.75,22 Q55.75,22.6094 55.5,22.875 Q55.2656,23.1406 54.8906,23.1406 Q54.5156,23.1406 54.2813,22.875 Q54.0469,22.6094 54.0469,22 L54.0469,20.3906 L52.1719,20.3906 Z " fill="#000000"/><text fill="#000000" font-family="sans-serif" font-size="12" lengthAdjust="spacing" textLength="24" x="71.75" y="27.9102">ship</text><line style="stroke:#A80036;stroke-width:1.5;" x1="8" x2="127" y1="39" y2="39"/><text fill="#000000" font-family="sans-serif" font-size="11" font-weight="bold" lengthAdjust="spacing" textLength="45" x="13" y="54.4189">shipIMO</text><text fill="#000000" font-family="sans-serif" font-size="11" lengthAdjust="spacing" textLength="45" x="13" y="68.2549">shipMMSI</text><text fill="#000000" font-family="sans-serif" font-size="11" lengthAdjust="spacing" textLength="47" x="13" y="82.0908">shipName</text><text fill="#000000" font-family="sans-serif" font-size="11" lengthAdjust="spacing" textLength="109" x="13" y="95.9268">shipEnergyGenerators</text><text fill="#000000" font-family="sans-serif" font-size="11" lengthAdjust="spacing" textLength="58" x="13" y="109.7627">shipCallSign</text><text fill="#000000" font-family="sans-serif" font-size="11" lengthAdjust="spacing" textLength="53" x="13" y="123.5986">shipLength</text><text fill="#000000" font-family="sans-serif" font-size="11" lengthAdjust="spacing" textLength="47" x="13" y="137.4346">shipWidth</text><text fill="#000000" font-family="sans-serif" font-size="11" lengthAdjust="spacing" textLength="86" x="13" y="151.2705">shipLoadCapacity</text><text fill="#000000" font-family="sans-serif" font-size="11" lengthAdjust="spacing" textLength="44" x="13" y="165.1064">shipDraft</text><!--MD5=[22bcbb11b196924fd3568cb3983713df]
class shipPositioning--><rect codeLine="61" fill="#FEFECE" filter="url(#f1kq2l4c110cwx)" height="150.6875" id="shipPositioning" style="stroke:#A80036;stroke-width:1.5;" width="118" x="163.5" y="14"/><ellipse cx="178.5" cy="30" fill="#FFAAAA" rx="11" ry="11" style="stroke:#A80036;stroke-width:1.0;"/><path d="M179.4219,27.3906 L179.4219,34.0469 L180.5781,34.0469 Q181.1875,34.0469 181.4375,34.2813 Q181.7031,34.5156 181.7031,34.9063 Q181.7031,35.2813 181.4375,35.5156 Q181.1875,35.75 180.5781,35.75 L176.5938,35.75 Q175.9688,35.75 175.7031,35.5156 Q175.4531,35.2813 175.4531,34.8906 Q175.4531,34.5156 175.7031,34.2813 Q175.9688,34.0469 176.5938,34.0469 L177.7188,34.0469 L177.7188,27.3906 L175.875,27.3906 L175.875,29 Q175.875,29.6094 175.6406,29.875 Q175.4063,30.1406 175.0313,30.1406 Q174.6563,30.1406 174.4219,29.875 Q174.1875,29.6094 174.1875,29 L174.1875,25.6875 L183,25.6875 L183,29 Q183,29.6094 182.75,29.875 Q182.5156,30.1406 182.1406,30.1406 Q181.7656,30.1406 181.5313,29.875 Q181.2969,29.6094 181.2969,29 L181.2969,27.3906 L179.4219,27.3906 Z " fill="#000000"/><text fill="#000000" font-family="sans-serif" font-size="12" lengthAdjust="spacing" textLength="86" x="192.5" y="34.9102">shipPositioning</text><line style="stroke:#A80036;stroke-width:1.5;" x1="164.5" x2="280.5" y1="46" y2="46"/><text fill="#000000" font-family="sans-serif" font-size="11" font-weight="bold" lengthAdjust="spacing" textLength="93" x="169.5" y="61.4189">dateAISMessage</text><text fill="#000000" font-family="sans-serif" font-size="11" lengthAdjust="spacing" textLength="58" x="169.5" y="75.2549">shipLatitude</text><text fill="#000000" font-family="sans-serif" font-size="11" lengthAdjust="spacing" textLength="67" x="169.5" y="89.0908">shipLongitude</text><text fill="#000000" font-family="sans-serif" font-size="11" lengthAdjust="spacing" textLength="43" x="169.5" y="102.9268">shipSOG</text><text fill="#000000" font-family="sans-serif" font-size="11" lengthAdjust="spacing" textLength="43" x="169.5" y="116.7627">shipCOG</text><text fill="#000000" font-family="sans-serif" font-size="11" lengthAdjust="spacing" textLength="59" x="169.5" y="130.5986">shipHeading</text><text fill="#000000" font-family="sans-serif" font-size="11" lengthAdjust="spacing" textLength="57" x="169.5" y="144.4346">shipPosition</text><text fill="#000000" font-family="sans-serif" font-size="11" lengthAdjust="spacing" textLength="99" x="169.5" y="158.2705">shipTranceiverClass</text><!--MD5=[ae35583bffd6b218115a45da328b3435]
class vesselType--><rect codeLine="72" fill="#FEFECE" filter="url(#f1kq2l4c110cwx)" height="53.8359" id="vesselType" style="stroke:#A80036;stroke-width:1.5;" width="105" x="317" y="62.5"/><ellipse cx="336.95" cy="78.5" fill="#FFAAAA" rx="11" ry="11" style="stroke:#A80036;stroke-width:1.0;"/><path d="M337.8719,75.8906 L337.8719,82.5469 L339.0281,82.5469 Q339.6375,82.5469 339.8875,82.7813 Q340.1531,83.0156 340.1531,83.4063 Q340.1531,83.7813 339.8875,84.0156 Q339.6375,84.25 339.0281,84.25 L335.0438,84.25 Q334.4188,84.25 334.1531,84.0156 Q333.9031,83.7813 333.9031,83.3906 Q333.9031,83.0156 334.1531,82.7813 Q334.4188,82.5469 335.0438,82.5469 L336.1688,82.5469 L336.1688,75.8906 L334.325,75.8906 L334.325,77.5 Q334.325,78.1094 334.0906,78.375 Q333.8563,78.6406 333.4813,78.6406 Q333.1063,78.6406 332.8719,78.375 Q332.6375,78.1094 332.6375,77.5 L332.6375,74.1875 L341.45,74.1875 L341.45,77.5 Q341.45,78.1094 341.2,78.375 Q340.9656,78.6406 340.5906,78.6406 Q340.2156,78.6406 339.9813,78.375 Q339.7469,78.1094 339.7469,77.5 L339.7469,75.8906 L337.8719,75.8906 Z " fill="#000000"/><text fill="#000000" font-family="sans-serif" font-size="12" lengthAdjust="spacing" textLength="62" x="352.05" y="83.4102">vesselType</text><line style="stroke:#A80036;stroke-width:1.5;" x1="318" x2="421" y1="94.5" y2="94.5"/><text fill="#000000" font-family="sans-serif" font-size="11" font-weight="bold" lengthAdjust="spacing" textLength="93" x="323" y="109.9189">vesselTypeCode</text><!--MD5=[1816e661d25430e6ffb111b8de0cbab6]
class container--><rect codeLine="76" fill="#FEFECE" filter="url(#f1kq2l4c110cwx)" height="136.8516" id="container" style="stroke:#A80036;stroke-width:1.5;" width="118" x="8.5" y="232"/><ellipse cx="39.25" cy="248" fill="#FFAAAA" rx="11" ry="11" style="stroke:#A80036;stroke-width:1.0;"/><path d="M40.1719,245.3906 L40.1719,252.0469 L41.3281,252.0469 Q41.9375,252.0469 42.1875,252.2813 Q42.4531,252.5156 42.4531,252.9063 Q42.4531,253.2813 42.1875,253.5156 Q41.9375,253.75 41.3281,253.75 L37.3438,253.75 Q36.7188,253.75 36.4531,253.5156 Q36.2031,253.2813 36.2031,252.8906 Q36.2031,252.5156 36.4531,252.2813 Q36.7188,252.0469 37.3438,252.0469 L38.4688,252.0469 L38.4688,245.3906 L36.625,245.3906 L36.625,247 Q36.625,247.6094 36.3906,247.875 Q36.1563,248.1406 35.7813,248.1406 Q35.4063,248.1406 35.1719,247.875 Q34.9375,247.6094 34.9375,247 L34.9375,243.6875 L43.75,243.6875 L43.75,247 Q43.75,247.6094 43.5,247.875 Q43.2656,248.1406 42.8906,248.1406 Q42.5156,248.1406 42.2813,247.875 Q42.0469,247.6094 42.0469,247 L42.0469,245.3906 L40.1719,245.3906 Z " fill="#000000"/><text fill="#000000" font-family="sans-serif" font-size="12" lengthAdjust="spacing" textLength="51" x="56.75" y="252.9102">container</text><line style="stroke:#A80036;stroke-width:1.5;" x1="9.5" x2="125.5" y1="264" y2="264"/><text fill="#000000" font-family="sans-serif" font-size="11" font-weight="bold" lengthAdjust="spacing" textLength="62" x="14.5" y="279.4189">containerID</text><text fill="#000000" font-family="sans-serif" font-size="11" lengthAdjust="spacing" textLength="83" x="14.5" y="293.2549">containerPayload</text><text fill="#000000" font-family="sans-serif" font-size="11" lengthAdjust="spacing" textLength="67" x="14.5" y="307.0908">containerTare</text><text fill="#000000" font-family="sans-serif" font-size="11" lengthAdjust="spacing" textLength="75" x="14.5" y="320.9268">containerGross</text><text fill="#000000" font-family="sans-serif" font-size="11" lengthAdjust="spacing" textLength="87" x="14.5" y="334.7627">containerISOCode</text><text fill="#000000" font-family="sans-serif" font-size="11" lengthAdjust="spacing" textLength="105" x="14.5" y="348.5986">containerRefrigerated</text><text fill="#000000" font-family="sans-serif" font-size="11" lengthAdjust="spacing" textLength="106" x="14.5" y="362.4346">containerTemperature</text><!--MD5=[3faf8ef4421de4514b6364bc5b2bd700]
class port--><rect codeLine="86" fill="#FEFECE" filter="url(#f1kq2l4c110cwx)" height="123.0156" id="port" style="stroke:#A80036;stroke-width:1.5;" width="78" x="161.5" y="239"/><ellipse cx="187.75" cy="255" fill="#FFAAAA" rx="11" ry="11" style="stroke:#A80036;stroke-width:1.0;"/><path d="M188.6719,252.3906 L188.6719,259.0469 L189.8281,259.0469 Q190.4375,259.0469 190.6875,259.2813 Q190.9531,259.5156 190.9531,259.9063 Q190.9531,260.2813 190.6875,260.5156 Q190.4375,260.75 189.8281,260.75 L185.8438,260.75 Q185.2188,260.75 184.9531,260.5156 Q184.7031,260.2813 184.7031,259.8906 Q184.7031,259.5156 184.9531,259.2813 Q185.2188,259.0469 185.8438,259.0469 L186.9688,259.0469 L186.9688,252.3906 L185.125,252.3906 L185.125,254 Q185.125,254.6094 184.8906,254.875 Q184.6563,255.1406 184.2813,255.1406 Q183.9063,255.1406 183.6719,254.875 Q183.4375,254.6094 183.4375,254 L183.4375,250.6875 L192.25,250.6875 L192.25,254 Q192.25,254.6094 192,254.875 Q191.7656,255.1406 191.3906,255.1406 Q191.0156,255.1406 190.7813,254.875 Q190.5469,254.6094 190.5469,254 L190.5469,252.3906 L188.6719,252.3906 Z " fill="#000000"/><text fill="#000000" font-family="sans-serif" font-size="12" lengthAdjust="spacing" textLength="21" x="204.25" y="259.9102">port</text><line style="stroke:#A80036;stroke-width:1.5;" x1="162.5" x2="238.5" y1="271" y2="271"/><text fill="#000000" font-family="sans-serif" font-size="11" font-weight="bold" lengthAdjust="spacing" textLength="33" x="167.5" y="286.4189">portID</text><text fill="#000000" font-family="sans-serif" font-size="11" lengthAdjust="spacing" textLength="46" x="167.5" y="300.2549">portName</text><text fill="#000000" font-family="sans-serif" font-size="11" lengthAdjust="spacing" textLength="64" x="167.5" y="314.0908">portContinent</text><text fill="#000000" font-family="sans-serif" font-size="11" lengthAdjust="spacing" textLength="57" x="167.5" y="327.9268">portCountry</text><text fill="#000000" font-family="sans-serif" font-size="11" lengthAdjust="spacing" textLength="57" x="167.5" y="341.7627">portLatitude</text><text fill="#000000" font-family="sans-serif" font-size="11" lengthAdjust="spacing" textLength="66" x="167.5" y="355.5986">portLongitude</text><!--MD5=[d97d4a208dedb56357fb47beb16f6d34]
class warehouse--><rect codeLine="95" fill="#FEFECE" filter="url(#f1kq2l4c110cwx)" height="123.0156" id="warehouse" style="stroke:#A80036;stroke-width:1.5;" width="115" x="275" y="239"/><ellipse cx="299.45" cy="255" fill="#FFAAAA" rx="11" ry="11" style="stroke:#A80036;stroke-width:1.0;"/><path d="M300.3719,252.3906 L300.3719,259.0469 L301.5281,259.0469 Q302.1375,259.0469 302.3875,259.2813 Q302.6531,259.5156 302.6531,259.9063 Q302.6531,260.2813 302.3875,260.5156 Q302.1375,260.75 301.5281,260.75 L297.5438,260.75 Q296.9188,260.75 296.6531,260.5156 Q296.4031,260.2813 296.4031,259.8906 Q296.4031,259.5156 296.6531,259.2813 Q296.9188,259.0469 297.5438,259.0469 L298.6688,259.0469 L298.6688,252.3906 L296.825,252.3906 L296.825,254 Q296.825,254.6094 296.5906,254.875 Q296.3563,255.1406 295.9813,255.1406 Q295.6063,255.1406 295.3719,254.875 Q295.1375,254.6094 295.1375,254 L295.1375,250.6875 L303.95,250.6875 L303.95,254 Q303.95,254.6094 303.7,254.875 Q303.4656,255.1406 303.0906,255.1406 Q302.7156,255.1406 302.4813,254.875 Q302.2469,254.6094 302.2469,254 L302.2469,252.3906 L300.3719,252.3906 Z " fill="#000000"/><text fill="#000000" font-family="sans-serif" font-size="12" lengthAdjust="spacing" textLength="62" x="315.55" y="259.9102">warehouse</text><line style="stroke:#A80036;stroke-width:1.5;" x1="276" x2="389" y1="271" y2="271"/><text fill="#000000" font-family="sans-serif" font-size="11" font-weight="bold" lengthAdjust="spacing" textLength="73" x="281" y="286.4189">warehouseID</text><text fill="#000000" font-family="sans-serif" font-size="11" lengthAdjust="spacing" textLength="83" x="281" y="300.2549">warehouseName</text><text fill="#000000" font-family="sans-serif" font-size="11" lengthAdjust="spacing" textLength="101" x="281" y="314.0908">warehouseContinent</text><text fill="#000000" font-family="sans-serif" font-size="11" lengthAdjust="spacing" textLength="94" x="281" y="327.9268">warehouseCountry</text><text fill="#000000" font-family="sans-serif" font-size="11" lengthAdjust="spacing" textLength="94" x="281" y="341.7627">warehouseLatitude</text><text fill="#000000" font-family="sans-serif" font-size="11" lengthAdjust="spacing" textLength="103" x="281" y="355.5986">warehouseLongitude</text><!--MD5=[db60dd7f2a7cf2909f3631478130250d]
class cargoManifest--><rect codeLine="104" fill="#FEFECE" filter="url(#f1kq2l4c110cwx)" height="95.3438" id="cargoManifest" style="stroke:#A80036;stroke-width:1.5;" width="109" x="13" y="429"/><ellipse cx="28" cy="445" fill="#FFAAAA" rx="11" ry="11" style="stroke:#A80036;stroke-width:1.0;"/><path d="M28.9219,442.3906 L28.9219,449.0469 L30.0781,449.0469 Q30.6875,449.0469 30.9375,449.2813 Q31.2031,449.5156 31.2031,449.9063 Q31.2031,450.2813 30.9375,450.5156 Q30.6875,450.75 30.0781,450.75 L26.0938,450.75 Q25.4688,450.75 25.2031,450.5156 Q24.9531,450.2813 24.9531,449.8906 Q24.9531,449.5156 25.2031,449.2813 Q25.4688,449.0469 26.0938,449.0469 L27.2188,449.0469 L27.2188,442.3906 L25.375,442.3906 L25.375,444 Q25.375,444.6094 25.1406,444.875 Q24.9063,445.1406 24.5313,445.1406 Q24.1563,445.1406 23.9219,444.875 Q23.6875,444.6094 23.6875,444 L23.6875,440.6875 L32.5,440.6875 L32.5,444 Q32.5,444.6094 32.25,444.875 Q32.0156,445.1406 31.6406,445.1406 Q31.2656,445.1406 31.0313,444.875 Q30.7969,444.6094 30.7969,444 L30.7969,442.3906 L28.9219,442.3906 Z " fill="#000000"/><text fill="#000000" font-family="sans-serif" font-size="12" lengthAdjust="spacing" textLength="77" x="42" y="449.9102">cargoManifest</text><line style="stroke:#A80036;stroke-width:1.5;" x1="14" x2="121" y1="461" y2="461"/><text fill="#000000" font-family="sans-serif" font-size="11" lengthAdjust="spacing" textLength="72" x="19" y="476.4189">cargoPositionX</text><text fill="#000000" font-family="sans-serif" font-size="11" lengthAdjust="spacing" textLength="73" x="19" y="490.2549">cargoPositionY</text><text fill="#000000" font-family="sans-serif" font-size="11" lengthAdjust="spacing" textLength="72" x="19" y="504.0908">cargoPositionZ</text><text fill="#000000" font-family="sans-serif" font-size="11" lengthAdjust="spacing" textLength="75" x="19" y="517.9268">containerGross</text><!--MD5=[2a84793bc4e317d90a72b7b0f8dce991]
link ship to shipPositioning--><!--MD5=[e61bb9b28c6e465fa3af541058cbadd7]
link shipPositioning to vesselType--><!--MD5=[99a13845952ab9dacdf59facf681ec78]
link ship to container--><!--MD5=[ea44ebd6f47ef050880f7e705ab3cb9f]
link container to port--><!--MD5=[6802b39edd35e83721adb45da2e8eff9]
link port to warehouse--><!--MD5=[81b916469f9d1f04ca83e51f8c062714]
link container to cargoManifest--><!--MD5=[9ea5e6276cb5a5924df5e33dd6d615d4]
@startuml
' uncomment the line below if you're using computer with a retina display
' skinparam dpi 300
!define Table(name,desc) class name as "desc" << (T,#FFAAAA) >>
' we use bold for primary key
' green color for unique
' and underscore for not_null
!define primary_key(x) <b>x</b>
!define unique(x) <color:green>x</color>
!define not_null(x) <u>x</u>
' other tags available:
' <i></i>
' <back:COLOR></color>, where color is a color name or html color code
' (#FFAACC)
' see: http://plantuml.com/classes.html#More
hide methods
hide stereotypes

' entities
' Table(user, "user\n(User in our system)") {
'     primary_key(id) INTEGER
'     not_null(unique(username)) VARCHAR[32]
'     not_null(password) VARCHAR[64]
' }
' 
' Table(session, "session\n(session for user)") {
'     primary_key(id) INTEGER
'     not_null(user_id) INTEGER
'     not_null(unique(session_id)) VARCHAR[64]
' }
' 
' Table(user_profile, "user_profile\n(Some info of user)") {
'     primary_key(user_id) INTEGER
'     age SMALLINT
'     gender SMALLINT
'     birthday DATETIME
' }
' 
' Table(group, "group\n(group of users)") {
'     primary_key(id) INTEGER
'     not_null(name) VARCHAR[32]
' }
' 
' Table(user_group, "user_group\n(relationship of user and group)") {
'     primary_key(user_id) INTEGER
'     primary_key(group_id) INTEGER
'     joined_at DATETIME
' }

Table(ship, "ship") {
    primary_key(shipIMO)
    shipMMSI
    shipName
    shipEnergyGenerators
    shipCallSign
    shipLength
    shipWidth
    shipLoadCapacity
    shipDraft
}

Table(shipPositioning, "shipPositioning") {
    primary_key(dateAISMessage)
    shipLatitude
    shipLongitude
    shipSOG
    shipCOG
    shipHeading
    shipPosition
    shipTranceiverClass
}

Table(vesselType, "vesselType") {
    primary_key(vesselTypeCode)
}

Table(container, "container") {
    primary_key(containerID)
    containerPayload
    containerTare
    containerGross
    containerISOCode
    containerRefrigerated
    containerTemperature
}

Table(port, "port") {
    primary_key(portID)
    portName
    portContinent
    portCountry
    portLatitude
    portLongitude
}

Table(warehouse, "warehouse") {
    primary_key(warehouseID)
    warehouseName
    warehouseContinent
    warehouseCountry
    warehouseLatitude
    warehouseLongitude
}

Table(cargoManifest, "cargoManifest") {
    cargoPositionX
    cargoPositionY
    cargoPositionZ
    containerGross
}

' relationships
' one-to-one relationship
' user - - user_profile : "A user only \nhas one profile"
' one to may relationship
' user - -> session : "A user may have\n many sessions"
' many to many relationship
' Add mark if you like
' user "1" - -> "*" user_group : "A user may be \nin many groups"
' group "1" - -> "0..N" user_group : "A group may \ncontain many users"

@enduml

@startuml
hide methods
hide stereotypes


class ship as "ship" << (T,#FFAAAA) >> {
    <b>shipIMO</b>
    shipMMSI
    shipName
    shipEnergyGenerators
    shipCallSign
    shipLength
    shipWidth
    shipLoadCapacity
    shipDraft
}

class shipPositioning as "shipPositioning" << (T,#FFAAAA) >> {
    <b>dateAISMessage</b>
    shipLatitude
    shipLongitude
    shipSOG
    shipCOG
    shipHeading
    shipPosition
    shipTranceiverClass
}

class vesselType as "vesselType" << (T,#FFAAAA) >> {
    <b>vesselTypeCode</b>
}

class container as "container" << (T,#FFAAAA) >> {
    <b>containerID</b>
    containerPayload
    containerTare
    containerGross
    containerISOCode
    containerRefrigerated
    containerTemperature
}

class port as "port" << (T,#FFAAAA) >> {
    <b>portID</b>
    portName
    portContinent
    portCountry
    portLatitude
    portLongitude
}

class warehouse as "warehouse" << (T,#FFAAAA) >> {
    <b>warehouseID</b>
    warehouseName
    warehouseContinent
    warehouseCountry
    warehouseLatitude
    warehouseLongitude
}

class cargoManifest as "cargoManifest" << (T,#FFAAAA) >> {
    cargoPositionX
    cargoPositionY
    cargoPositionZ
    containerGross
}


@enduml

PlantUML version 1.2021.7(Sun May 23 13:40:07 BST 2021)
(GPL source distribution)
Java Runtime: OpenJDK Runtime Environment
JVM: OpenJDK 64-Bit Server VM
Default Encoding: Cp1252
Language: en
Country: US
--></g></svg>