<?xml version="1.0" encoding="UTF-8" standalone="no"?><svg xmlns="http://www.w3.org/2000/svg" xmlns:xlink="http://www.w3.org/1999/xlink" contentScriptType="application/ecmascript" contentStyleType="text/css" height="899px" preserveAspectRatio="none" style="width:460px;height:899px;background:#FFFFFF;" version="1.1" viewBox="0 0 460 899" width="460px" zoomAndPan="magnify"><defs><filter height="300%" id="f1j320oa5yg2aw" width="300%" x="-1" y="-1"><feGaussianBlur result="blurOut" stdDeviation="2.0"/><feColorMatrix in="blurOut" result="blurOut2" type="matrix" values="0 0 0 0 0 0 0 0 0 0 0 0 0 0 0 0 0 0 .4 0"/><feOffset dx="4.0" dy="4.0" in="blurOut2" result="blurOut3"/><feBlend in="SourceGraphic" in2="blurOut3" mode="normal"/></filter></defs><g><!--MD5=[79b080b7ba345813173c6579bd68be5e]
class SeeMMSIAndMoreInfoUI--><rect codeLine="5" fill="#FEFECE" filter="url(#f1j320oa5yg2aw)" height="61.8359" id="SeeMMSIAndMoreInfoUI" style="stroke:#A80036;stroke-width:1.5;" width="226" x="39.5" y="7"/><ellipse cx="82.85" cy="23" fill="#ADD1B2" rx="11" ry="11" style="stroke:#A80036;stroke-width:1.0;"/><path d="M84.85,19.5 Q85.0531,19 85.2875,18.75 Q85.5219,18.5 85.7875,18.5 Q86.2563,18.5 86.5531,18.7813 Q86.85,19.0625 86.85,19.7188 L86.85,21.2813 Q86.85,21.9375 86.5688,22.2188 Q86.2875,22.5 85.85,22.5 Q85.4594,22.5 85.2094,22.3281 Q84.9594,22.1563 84.85,21.7031 Q84.8031,21.3906 84.6313,21.2188 Q84.3188,20.8906 83.7563,20.7031 Q83.1938,20.5 82.6313,20.5 Q81.9281,20.5 81.3344,20.7813 Q80.7563,21.0625 80.3031,21.6875 Q79.85,22.3125 79.85,23.1719 L79.85,24.0938 Q79.85,25.125 80.6938,25.8125 Q81.5375,26.5 83.0375,26.5 Q83.9281,26.5 84.5531,26.2969 Q84.9125,26.1875 85.3188,25.8281 Q85.5844,25.625 85.725,25.5625 Q85.8656,25.5 86.0375,25.5 Q86.3656,25.5 86.6,25.7656 Q86.85,26.0156 86.85,26.375 Q86.85,26.7188 86.5063,27.125 Q86.0063,27.7188 85.2094,28.0469 Q84.1625,28.5 82.8813,28.5 Q81.3813,28.5 80.1781,27.9063 Q79.2094,27.4375 78.5219,26.4219 Q77.85,25.4063 77.85,24.2031 L77.85,23.1094 Q77.85,21.8594 78.4438,20.7656 Q79.0531,19.6719 80.1,19.0938 Q81.1625,18.5 82.35,18.5 Q83.0688,18.5 83.6938,18.75 Q84.3188,19 84.85,19.5 Z " fill="#000000"/><text fill="#000000" font-family="sans-serif" font-size="12" lengthAdjust="spacing" textLength="131" x="103.15" y="27.9102">SeeMMSIAndMoreInfoUI</text><line style="stroke:#A80036;stroke-width:1.5;" x1="40.5" x2="264.5" y1="39" y2="39"/><rect fill="none" height="6" style="stroke:#C82930;stroke-width:1.0;" width="6" x="47.5" y="47"/><text fill="#000000" font-family="sans-serif" font-size="11" lengthAdjust="spacing" textLength="200" x="59.5" y="54.4189">SeeMMSIAndMoreInfoController controller</text><line style="stroke:#A80036;stroke-width:1.5;" x1="40.5" x2="264.5" y1="60.8359" y2="60.8359"/><!--MD5=[22b3b2bc89efde91e966204732768e40]
class SeeMMSIAndMoreInfoController--><rect codeLine="9" fill="#FEFECE" filter="url(#f1j320oa5yg2aw)" height="131.0156" id="SeeMMSIAndMoreInfoController" style="stroke:#A80036;stroke-width:1.5;" width="219" x="43" y="130"/><ellipse cx="64.3" cy="146" fill="#ADD1B2" rx="11" ry="11" style="stroke:#A80036;stroke-width:1.0;"/><path d="M66.3,142.5 Q66.5031,142 66.7375,141.75 Q66.9719,141.5 67.2375,141.5 Q67.7063,141.5 68.0031,141.7813 Q68.3,142.0625 68.3,142.7188 L68.3,144.2813 Q68.3,144.9375 68.0188,145.2188 Q67.7375,145.5 67.3,145.5 Q66.9094,145.5 66.6594,145.3281 Q66.4094,145.1563 66.3,144.7031 Q66.2531,144.3906 66.0813,144.2188 Q65.7688,143.8906 65.2063,143.7031 Q64.6438,143.5 64.0813,143.5 Q63.3781,143.5 62.7844,143.7813 Q62.2063,144.0625 61.7531,144.6875 Q61.3,145.3125 61.3,146.1719 L61.3,147.0938 Q61.3,148.125 62.1438,148.8125 Q62.9875,149.5 64.4875,149.5 Q65.3781,149.5 66.0031,149.2969 Q66.3625,149.1875 66.7688,148.8281 Q67.0344,148.625 67.175,148.5625 Q67.3156,148.5 67.4875,148.5 Q67.8156,148.5 68.05,148.7656 Q68.3,149.0156 68.3,149.375 Q68.3,149.7188 67.9563,150.125 Q67.4563,150.7188 66.6594,151.0469 Q65.6125,151.5 64.3313,151.5 Q62.8313,151.5 61.6281,150.9063 Q60.6594,150.4375 59.9719,149.4219 Q59.3,148.4063 59.3,147.2031 L59.3,146.1094 Q59.3,144.8594 59.8938,143.7656 Q60.5031,142.6719 61.55,142.0938 Q62.6125,141.5 63.8,141.5 Q64.5188,141.5 65.1438,141.75 Q65.7688,142 66.3,142.5 Z " fill="#000000"/><text fill="#000000" font-family="sans-serif" font-size="12" lengthAdjust="spacing" textLength="173" x="79.7" y="150.9102">SeeMMSIAndMoreInfoController</text><line style="stroke:#A80036;stroke-width:1.5;" x1="44" x2="261" y1="162" y2="162"/><line style="stroke:#A80036;stroke-width:1.5;" x1="44" x2="261" y1="170" y2="170"/><ellipse cx="54" cy="181" fill="#84BE84" rx="3" ry="3" style="stroke:#038048;stroke-width:1.0;"/><text fill="#000000" font-family="sans-serif" font-size="11" lengthAdjust="spacing" textLength="134" x="63" y="185.4189">void String getAllInfos(Ship)</text><ellipse cx="54" cy="194.8359" fill="#84BE84" rx="3" ry="3" style="stroke:#038048;stroke-width:1.0;"/><text fill="#000000" font-family="sans-serif" font-size="11" lengthAdjust="spacing" textLength="193" x="63" y="199.2549">double calculateTravelledDistance(Ship)</text><ellipse cx="54" cy="208.6719" fill="#84BE84" rx="3" ry="3" style="stroke:#038048;stroke-width:1.0;"/><text fill="#000000" font-family="sans-serif" font-size="11" lengthAdjust="spacing" textLength="173" x="63" y="213.0908">double calculateDeltaDistance(Ship)</text><ellipse cx="54" cy="222.5078" fill="#84BE84" rx="3" ry="3" style="stroke:#038048;stroke-width:1.0;"/><text fill="#000000" font-family="sans-serif" font-size="11" lengthAdjust="spacing" textLength="164" x="63" y="226.9268">int calculateTotalMovements(Ship)</text><ellipse cx="54" cy="236.3438" fill="#84BE84" rx="3" ry="3" style="stroke:#038048;stroke-width:1.0;"/><text fill="#000000" font-family="sans-serif" font-size="11" lengthAdjust="spacing" textLength="82" x="63" y="240.7627">int getMmsi(Ship)</text><ellipse cx="54" cy="250.1797" fill="#84BE84" rx="3" ry="3" style="stroke:#038048;stroke-width:1.0;"/><text fill="#000000" font-family="sans-serif" font-size="11" lengthAdjust="spacing" textLength="115" x="63" y="254.5986">List&lt;Ship&gt; getAllShips()</text><!--MD5=[ea2206eefe09474e90beb17e18e6b3d8]
class ShipStore--><rect codeLine="18" fill="#FEFECE" filter="url(#f1j320oa5yg2aw)" height="75.6719" id="ShipStore" style="stroke:#A80036;stroke-width:1.5;" width="291" x="7" y="322"/><ellipse cx="121.25" cy="338" fill="#ADD1B2" rx="11" ry="11" style="stroke:#A80036;stroke-width:1.0;"/><path d="M123.25,334.5 Q123.4531,334 123.6875,333.75 Q123.9219,333.5 124.1875,333.5 Q124.6563,333.5 124.9531,333.7813 Q125.25,334.0625 125.25,334.7188 L125.25,336.2813 Q125.25,336.9375 124.9688,337.2188 Q124.6875,337.5 124.25,337.5 Q123.8594,337.5 123.6094,337.3281 Q123.3594,337.1563 123.25,336.7031 Q123.2031,336.3906 123.0313,336.2188 Q122.7188,335.8906 122.1563,335.7031 Q121.5938,335.5 121.0313,335.5 Q120.3281,335.5 119.7344,335.7813 Q119.1563,336.0625 118.7031,336.6875 Q118.25,337.3125 118.25,338.1719 L118.25,339.0938 Q118.25,340.125 119.0938,340.8125 Q119.9375,341.5 121.4375,341.5 Q122.3281,341.5 122.9531,341.2969 Q123.3125,341.1875 123.7188,340.8281 Q123.9844,340.625 124.125,340.5625 Q124.2656,340.5 124.4375,340.5 Q124.7656,340.5 125,340.7656 Q125.25,341.0156 125.25,341.375 Q125.25,341.7188 124.9063,342.125 Q124.4063,342.7188 123.6094,343.0469 Q122.5625,343.5 121.2813,343.5 Q119.7813,343.5 118.5781,342.9063 Q117.6094,342.4375 116.9219,341.4219 Q116.25,340.4063 116.25,339.2031 L116.25,338.1094 Q116.25,336.8594 116.8438,335.7656 Q117.4531,334.6719 118.5,334.0938 Q119.5625,333.5 120.75,333.5 Q121.4688,333.5 122.0938,333.75 Q122.7188,334 123.25,334.5 Z " fill="#000000"/><text fill="#000000" font-family="sans-serif" font-size="12" lengthAdjust="spacing" textLength="54" x="141.75" y="342.9102">ShipStore</text><line style="stroke:#A80036;stroke-width:1.5;" x1="8" x2="297" y1="354" y2="354"/><line style="stroke:#A80036;stroke-width:1.5;" x1="8" x2="297" y1="362" y2="362"/><ellipse cx="18" cy="373" fill="#84BE84" rx="3" ry="3" style="stroke:#038048;stroke-width:1.0;"/><text fill="#000000" font-family="sans-serif" font-size="11" lengthAdjust="spacing" textLength="115" x="27" y="377.4189">List&lt;Ship&gt; getAllShips()</text><ellipse cx="18" cy="386.8359" fill="#84BE84" rx="3" ry="3" style="stroke:#038048;stroke-width:1.0;"/><text fill="#000000" font-family="sans-serif" font-size="11" lengthAdjust="spacing" textLength="265" x="27" y="391.2549">double calculateDistance(double,double,double,double)</text><!--MD5=[ddaf6f62b0bc30921877ec9fb9463c9f]
class TrafficManager--><rect codeLine="23" fill="#FEFECE" filter="url(#f1j320oa5yg2aw)" height="75.6719" id="TrafficManager" style="stroke:#A80036;stroke-width:1.5;" width="113" x="333" y="322"/><ellipse cx="348" cy="338" fill="#ADD1B2" rx="11" ry="11" style="stroke:#A80036;stroke-width:1.0;"/><path d="M350,334.5 Q350.2031,334 350.4375,333.75 Q350.6719,333.5 350.9375,333.5 Q351.4063,333.5 351.7031,333.7813 Q352,334.0625 352,334.7188 L352,336.2813 Q352,336.9375 351.7188,337.2188 Q351.4375,337.5 351,337.5 Q350.6094,337.5 350.3594,337.3281 Q350.1094,337.1563 350,336.7031 Q349.9531,336.3906 349.7813,336.2188 Q349.4688,335.8906 348.9063,335.7031 Q348.3438,335.5 347.7813,335.5 Q347.0781,335.5 346.4844,335.7813 Q345.9063,336.0625 345.4531,336.6875 Q345,337.3125 345,338.1719 L345,339.0938 Q345,340.125 345.8438,340.8125 Q346.6875,341.5 348.1875,341.5 Q349.0781,341.5 349.7031,341.2969 Q350.0625,341.1875 350.4688,340.8281 Q350.7344,340.625 350.875,340.5625 Q351.0156,340.5 351.1875,340.5 Q351.5156,340.5 351.75,340.7656 Q352,341.0156 352,341.375 Q352,341.7188 351.6563,342.125 Q351.1563,342.7188 350.3594,343.0469 Q349.3125,343.5 348.0313,343.5 Q346.5313,343.5 345.3281,342.9063 Q344.3594,342.4375 343.6719,341.4219 Q343,340.4063 343,339.2031 L343,338.1094 Q343,336.8594 343.5938,335.7656 Q344.2031,334.6719 345.25,334.0938 Q346.3125,333.5 347.5,333.5 Q348.2188,333.5 348.8438,333.75 Q349.4688,334 350,334.5 Z " fill="#000000"/><text fill="#000000" font-family="sans-serif" font-size="12" lengthAdjust="spacing" textLength="81" x="362" y="342.9102">TrafficManager</text><line style="stroke:#A80036;stroke-width:1.5;" x1="334" x2="445" y1="354" y2="354"/><rect fill="none" height="6" style="stroke:#C82930;stroke-width:1.0;" width="6" x="341" y="362"/><text fill="#000000" font-family="sans-serif" font-size="11" lengthAdjust="spacing" textLength="57" x="353" y="369.4189">String name</text><rect fill="none" height="6" style="stroke:#C82930;stroke-width:1.0;" width="6" x="341" y="375.8359"/><text fill="#000000" font-family="sans-serif" font-size="11" lengthAdjust="spacing" textLength="55" x="353" y="383.2549">String email</text><line style="stroke:#A80036;stroke-width:1.5;" x1="334" x2="445" y1="389.6719" y2="389.6719"/><!--MD5=[0dc7f2ddb409b58bcf52b12238c25399]
class Ship--><rect codeLine="27" fill="#FEFECE" filter="url(#f1j320oa5yg2aw)" height="172.5234" id="Ship" style="stroke:#A80036;stroke-width:1.5;" width="126" x="208.5" y="476"/><ellipse cx="254.75" cy="492" fill="#ADD1B2" rx="11" ry="11" style="stroke:#A80036;stroke-width:1.0;"/><path d="M256.75,488.5 Q256.9531,488 257.1875,487.75 Q257.4219,487.5 257.6875,487.5 Q258.1563,487.5 258.4531,487.7813 Q258.75,488.0625 258.75,488.7188 L258.75,490.2813 Q258.75,490.9375 258.4688,491.2188 Q258.1875,491.5 257.75,491.5 Q257.3594,491.5 257.1094,491.3281 Q256.8594,491.1563 256.75,490.7031 Q256.7031,490.3906 256.5313,490.2188 Q256.2188,489.8906 255.6563,489.7031 Q255.0938,489.5 254.5313,489.5 Q253.8281,489.5 253.2344,489.7813 Q252.6563,490.0625 252.2031,490.6875 Q251.75,491.3125 251.75,492.1719 L251.75,493.0938 Q251.75,494.125 252.5938,494.8125 Q253.4375,495.5 254.9375,495.5 Q255.8281,495.5 256.4531,495.2969 Q256.8125,495.1875 257.2188,494.8281 Q257.4844,494.625 257.625,494.5625 Q257.7656,494.5 257.9375,494.5 Q258.2656,494.5 258.5,494.7656 Q258.75,495.0156 258.75,495.375 Q258.75,495.7188 258.4063,496.125 Q257.9063,496.7188 257.1094,497.0469 Q256.0625,497.5 254.7813,497.5 Q253.2813,497.5 252.0781,496.9063 Q251.1094,496.4375 250.4219,495.4219 Q249.75,494.4063 249.75,493.2031 L249.75,492.1094 Q249.75,490.8594 250.3438,489.7656 Q250.9531,488.6719 252,488.0938 Q253.0625,487.5 254.25,487.5 Q254.9688,487.5 255.5938,487.75 Q256.2188,488 256.75,488.5 Z " fill="#000000"/><text fill="#000000" font-family="sans-serif" font-size="12" lengthAdjust="spacing" textLength="25" x="275.25" y="496.9102">Ship</text><line style="stroke:#A80036;stroke-width:1.5;" x1="209.5" x2="333.5" y1="508" y2="508"/><rect fill="none" height="6" style="stroke:#C82930;stroke-width:1.0;" width="6" x="216.5" y="516"/><text fill="#000000" font-family="sans-serif" font-size="11" lengthAdjust="spacing" textLength="60" x="228.5" y="523.4189">Integer mmsi</text><rect fill="none" height="6" style="stroke:#C82930;stroke-width:1.0;" width="6" x="216.5" y="529.8359"/><text fill="#000000" font-family="sans-serif" font-size="11" lengthAdjust="spacing" textLength="90" x="228.5" y="537.2549">String vesselName</text><rect fill="none" height="6" style="stroke:#C82930;stroke-width:1.0;" width="6" x="216.5" y="543.6719"/><text fill="#000000" font-family="sans-serif" font-size="11" lengthAdjust="spacing" textLength="52" x="228.5" y="551.0908">Integer imo</text><rect fill="none" height="6" style="stroke:#C82930;stroke-width:1.0;" width="6" x="216.5" y="557.5078"/><text fill="#000000" font-family="sans-serif" font-size="11" lengthAdjust="spacing" textLength="73" x="228.5" y="564.9268">Integer callSign</text><rect fill="none" height="6" style="stroke:#C82930;stroke-width:1.0;" width="6" x="216.5" y="571.3438"/><text fill="#000000" font-family="sans-serif" font-size="11" lengthAdjust="spacing" textLength="82" x="228.5" y="578.7627">VesselType type</text><rect fill="none" height="6" style="stroke:#C82930;stroke-width:1.0;" width="6" x="216.5" y="585.1797"/><text fill="#000000" font-family="sans-serif" font-size="11" lengthAdjust="spacing" textLength="65" x="228.5" y="592.5986">Double length</text><rect fill="none" height="6" style="stroke:#C82930;stroke-width:1.0;" width="6" x="216.5" y="599.0156"/><text fill="#000000" font-family="sans-serif" font-size="11" lengthAdjust="spacing" textLength="63" x="228.5" y="606.4346">Double width</text><rect fill="none" height="6" style="stroke:#C82930;stroke-width:1.0;" width="6" x="216.5" y="612.8516"/><text fill="#000000" font-family="sans-serif" font-size="11" lengthAdjust="spacing" textLength="59" x="228.5" y="620.2705">Double draft</text><line style="stroke:#A80036;stroke-width:1.5;" x1="209.5" x2="333.5" y1="626.6875" y2="626.6875"/><ellipse cx="219.5" cy="637.6875" fill="#84BE84" rx="3" ry="3" style="stroke:#038048;stroke-width:1.0;"/><text fill="#000000" font-family="sans-serif" font-size="11" lengthAdjust="spacing" textLength="100" x="228.5" y="642.1064">List&lt;Ship&gt;getShips()</text><!--MD5=[1659f4066508979f3cd3e9133bca26e2]
class ShipDynamicData--><rect codeLine="39" fill="#FEFECE" filter="url(#f1j320oa5yg2aw)" height="158.6875" id="ShipDynamicData" style="stroke:#A80036;stroke-width:1.5;" width="139" x="126" y="727"/><ellipse cx="144.6" cy="743" fill="#ADD1B2" rx="11" ry="11" style="stroke:#A80036;stroke-width:1.0;"/><path d="M146.6,739.5 Q146.8031,739 147.0375,738.75 Q147.2719,738.5 147.5375,738.5 Q148.0063,738.5 148.3031,738.7813 Q148.6,739.0625 148.6,739.7188 L148.6,741.2813 Q148.6,741.9375 148.3188,742.2188 Q148.0375,742.5 147.6,742.5 Q147.2094,742.5 146.9594,742.3281 Q146.7094,742.1563 146.6,741.7031 Q146.5531,741.3906 146.3813,741.2188 Q146.0688,740.8906 145.5063,740.7031 Q144.9438,740.5 144.3813,740.5 Q143.6781,740.5 143.0844,740.7813 Q142.5063,741.0625 142.0531,741.6875 Q141.6,742.3125 141.6,743.1719 L141.6,744.0938 Q141.6,745.125 142.4438,745.8125 Q143.2875,746.5 144.7875,746.5 Q145.6781,746.5 146.3031,746.2969 Q146.6625,746.1875 147.0688,745.8281 Q147.3344,745.625 147.475,745.5625 Q147.6156,745.5 147.7875,745.5 Q148.1156,745.5 148.35,745.7656 Q148.6,746.0156 148.6,746.375 Q148.6,746.7188 148.2563,747.125 Q147.7563,747.7188 146.9594,748.0469 Q145.9125,748.5 144.6313,748.5 Q143.1313,748.5 141.9281,747.9063 Q140.9594,747.4375 140.2719,746.4219 Q139.6,745.4063 139.6,744.2031 L139.6,743.1094 Q139.6,741.8594 140.1938,740.7656 Q140.8031,739.6719 141.85,739.0938 Q142.9125,738.5 144.1,738.5 Q144.8188,738.5 145.4438,738.75 Q146.0688,739 146.6,739.5 Z " fill="#000000"/><text fill="#000000" font-family="sans-serif" font-size="12" lengthAdjust="spacing" textLength="99" x="159.4" y="747.9102">ShipDynamicData</text><line style="stroke:#A80036;stroke-width:1.5;" x1="127" x2="264" y1="759" y2="759"/><rect fill="none" height="6" style="stroke:#C82930;stroke-width:1.0;" width="6" x="134" y="767"/><text fill="#000000" font-family="sans-serif" font-size="11" lengthAdjust="spacing" textLength="99" x="146" y="774.4189">String baseDateTime</text><rect fill="none" height="6" style="stroke:#C82930;stroke-width:1.0;" width="6" x="134" y="780.8359"/><text fill="#000000" font-family="sans-serif" font-size="11" lengthAdjust="spacing" textLength="47" x="146" y="788.2549">Double lat</text><rect fill="none" height="6" style="stroke:#C82930;stroke-width:1.0;" width="6" x="134" y="794.6719"/><text fill="#000000" font-family="sans-serif" font-size="11" lengthAdjust="spacing" textLength="50" x="146" y="802.0908">Double lon</text><rect fill="none" height="6" style="stroke:#C82930;stroke-width:1.0;" width="6" x="134" y="808.5078"/><text fill="#000000" font-family="sans-serif" font-size="11" lengthAdjust="spacing" textLength="54" x="146" y="815.9268">Double sog</text><rect fill="none" height="6" style="stroke:#C82930;stroke-width:1.0;" width="6" x="134" y="822.3438"/><text fill="#000000" font-family="sans-serif" font-size="11" lengthAdjust="spacing" textLength="54" x="146" y="829.7627">Double cog</text><rect fill="none" height="6" style="stroke:#C82930;stroke-width:1.0;" width="6" x="134" y="836.1797"/><text fill="#000000" font-family="sans-serif" font-size="11" lengthAdjust="spacing" textLength="74" x="146" y="843.5986">Double heading</text><rect fill="none" height="6" style="stroke:#C82930;stroke-width:1.0;" width="6" x="134" y="850.0156"/><text fill="#000000" font-family="sans-serif" font-size="11" lengthAdjust="spacing" textLength="71" x="146" y="857.4346">Integer trailerId</text><rect fill="none" height="6" style="stroke:#C82930;stroke-width:1.0;" width="6" x="134" y="863.8516"/><text fill="#000000" font-family="sans-serif" font-size="11" lengthAdjust="spacing" textLength="113" x="146" y="871.2705">String transcieverClass</text><line style="stroke:#A80036;stroke-width:1.5;" x1="127" x2="264" y1="877.6875" y2="877.6875"/><!--MD5=[cf9c7d7c3da40397ddde4f51b7097da6]
class VesselType--><rect codeLine="50" fill="#FEFECE" filter="url(#f1j320oa5yg2aw)" height="89.5078" id="VesselType" style="stroke:#A80036;stroke-width:1.5;" width="96" x="300.5" y="761.5"/><ellipse cx="315.5" cy="777.5" fill="#EB937F" rx="11" ry="11" style="stroke:#A80036;stroke-width:1.0;"/><path d="M314,778.5 L314,780.5 L318,780.5 L318,779.5 L318,779.0156 L318.625,778.5 L319,778.5 L319.375,778.5 L320,779.0156 L320,779.5 L320,782.5 L312,782.5 L311.5156,782.5 L311,781.875 L311,781.5 L311,781.125 L311.5156,780.5 L312,780.5 L312,780.5 L312,774.5 L312,774.5 L311.5156,774.5 L311,773.875 L311,773.5 L311,773.125 L311.5156,772.5 L312,772.5 L320,772.5 L320,775.5 L320,775.9844 L319.375,776.5 L319,776.5 L318.625,776.5 L318,775.9844 L318,775.5 L318,774.5 L314,774.5 L314,776.5 L315,776.5 L315,776.0156 L315,776.0156 L315.625,775.5 L316,775.5 L316.375,775.5 L317,776.0156 L317,776.5 L317,778.5 L317,778.9844 L316.375,779.5 L316.375,779.5 L316,779.5 L315.625,779.5 L315,778.9844 L315,778.9844 L315,778.5 L314,778.5 Z " fill="#000000"/><text fill="#000000" font-family="sans-serif" font-size="12" lengthAdjust="spacing" textLength="64" x="329.5" y="782.4102">VesselType</text><line style="stroke:#A80036;stroke-width:1.5;" x1="301.5" x2="395.5" y1="793.5" y2="793.5"/><text fill="#000000" font-family="sans-serif" font-size="11" lengthAdjust="spacing" textLength="52" x="306.5" y="808.9189">Passenger</text><text fill="#000000" font-family="sans-serif" font-size="11" lengthAdjust="spacing" textLength="34" x="306.5" y="822.7549">Fishing</text><text fill="#000000" font-family="sans-serif" font-size="11" lengthAdjust="spacing" textLength="39" x="306.5" y="836.5908">Tugboat</text><line style="stroke:#A80036;stroke-width:1.5;" x1="301.5" x2="395.5" y1="843.0078" y2="843.0078"/><!--MD5=[ac53edcfe61f9118237c5e6adec9a178]
link SeeMMSIAndMoreInfoUI to SeeMMSIAndMoreInfoController--><path codeLine="56" d="M152.5,69.35 C152.5,85.11 152.5,105.06 152.5,124.38 " fill="none" id="SeeMMSIAndMoreInfoUI-to-SeeMMSIAndMoreInfoController" style="stroke:#A80036;stroke-width:1.0;stroke-dasharray:7.0,7.0;"/><polygon fill="#A80036" points="152.5,129.8,156.5,120.8,152.5,124.8,148.5,120.8,152.5,129.8" style="stroke:#A80036;stroke-width:1.0;"/><!--MD5=[04f8a42d1e6e73154d1a49e20d432069]
link SeeMMSIAndMoreInfoController to ShipStore--><path codeLine="57" d="M152.5,261.19 C152.5,279.8 152.5,299.62 152.5,316.52 " fill="none" id="SeeMMSIAndMoreInfoController-to-ShipStore" style="stroke:#A80036;stroke-width:1.0;stroke-dasharray:7.0,7.0;"/><polygon fill="#A80036" points="152.5,321.66,156.5,312.66,152.5,316.66,148.5,312.66,152.5,321.66" style="stroke:#A80036;stroke-width:1.0;"/><!--MD5=[f04e04ecc6998d67821b33eb17256457]
link ShipStore to Ship--><path codeLine="58" d="M174.6,398.24 C187.58,420.1 204.54,448.68 220.64,475.8 " fill="none" id="ShipStore-Ship" style="stroke:#A80036;stroke-width:1.0;"/><polygon fill="#000000" points="209.0522,441.4753,206.9624,432.1972,201.908,435.1975,209.0522,441.4753" style="stroke:#000000;stroke-width:1.0;"/><text fill="#000000" font-family="sans-serif" font-size="13" lengthAdjust="spacing" textLength="21" x="215.5" y="442.4951">has</text><text fill="#000000" font-family="sans-serif" font-size="13" lengthAdjust="spacing" textLength="7" x="170.5644" y="419.1588">1</text><text fill="#000000" font-family="sans-serif" font-size="13" lengthAdjust="spacing" textLength="20" x="195.4098" y="465.1924">0..*</text><!--MD5=[40e2b5717560220ad35e84810a8f1b44]
link TrafficManager to Ship--><path codeLine="59" d="M367.58,398.24 C354.72,420.1 337.9,448.68 321.94,475.8 " fill="none" id="TrafficManager-Ship" style="stroke:#A80036;stroke-width:1.0;"/><polygon fill="#000000" points="349.9642,441.4851,357.0844,435.18,352.0186,432.199,349.9642,441.4851" style="stroke:#000000;stroke-width:1.0;"/><text fill="#000000" font-family="sans-serif" font-size="13" lengthAdjust="spacing" textLength="67" x="361.5" y="442.4951">see the info</text><text fill="#000000" font-family="sans-serif" font-size="13" lengthAdjust="spacing" textLength="7" x="356.5287" y="419.1588">1</text><text fill="#000000" font-family="sans-serif" font-size="13" lengthAdjust="spacing" textLength="20" x="305.4153" y="465.1924">0..*</text><!--MD5=[9a349e3fe139691f8d5fdcec09531234]
link Ship to ShipDynamicData--><path codeLine="60" d="M244.6,649.16 C236.66,674.45 228,702 220.21,726.83 " fill="none" id="Ship-ShipDynamicData" style="stroke:#A80036;stroke-width:1.0;"/><polygon fill="#000000" points="237.002,692.9461,242.5158,685.197,236.908,683.436,237.002,692.9461" style="stroke:#000000;stroke-width:1.0;"/><text fill="#000000" font-family="sans-serif" font-size="13" lengthAdjust="spacing" textLength="21" x="247.5" y="693.4951">has</text><text fill="#000000" font-family="sans-serif" font-size="13" lengthAdjust="spacing" textLength="7" x="235.2725" y="669.9342">1</text><text fill="#000000" font-family="sans-serif" font-size="13" lengthAdjust="spacing" textLength="20" x="201.5661" y="716.2736">1..*</text><!--MD5=[c324832c0212842eac80843bc02aaded]
link Ship to VesselType--><path codeLine="61" d="M298.76,649.16 C310.83,687.1 324.51,730.11 334.47,761.41 " fill="none" id="Ship-VesselType" style="stroke:#A80036;stroke-width:1.0;"/><polygon fill="#000000" points="319.0158,692.9405,319.0743,683.4301,313.4731,685.212,319.0158,692.9405" style="stroke:#000000;stroke-width:1.0;"/><text fill="#000000" font-family="sans-serif" font-size="13" lengthAdjust="spacing" textLength="21" x="326.5" y="693.4951">has</text><text fill="#000000" font-family="sans-serif" font-size="13" lengthAdjust="spacing" textLength="7" x="293.5791" y="669.9342">1</text><text fill="#000000" font-family="sans-serif" font-size="13" lengthAdjust="spacing" textLength="7" x="324.6762" y="750.5111">1</text><!--MD5=[e4a616d340178f22bfe5d15d3f97acef]
@startuml
'https://plantuml.com/class-diagram



class SeeMMSIAndMoreInfoUI{
    -SeeMMSIAndMoreInfoController controller
}

class SeeMMSIAndMoreInfoController{
    +void String getAllInfos(Ship)
    +double calculateTravelledDistance(Ship)
    +double calculateDeltaDistance(Ship)
    +int calculateTotalMovements(Ship)
    +int getMmsi(Ship)
    +List<Ship> getAllShips()
}

class ShipStore{
    +List<Ship> getAllShips()
    +double calculateDistance(double,double,double,double)
}

class TrafficManager {
  -String name
  -String email
}
class Ship{
    -Integer mmsi
    -String vesselName
    -Integer imo
    -Integer callSign
    -VesselType type
    -Double length
    -Double width
    -Double draft
    +List<Ship>getShips()
}

class ShipDynamicData{
    -String baseDateTime
    -Double lat
    -Double lon
    -Double sog
    -Double cog
    -Double heading
    -Integer trailerId
    -String transcieverClass
}

enum VesselType {
  Passenger
  Fishing
  Tugboat
}

SeeMMSIAndMoreInfoUI ..> SeeMMSIAndMoreInfoController
SeeMMSIAndMoreInfoController ..> ShipStore
ShipStore "1" - - "0..*" Ship : has >
TrafficManager "1" - - "0..*" Ship : see the info >
Ship "1" - - "1..*" ShipDynamicData : has  >
Ship "1" - - "1" VesselType : has >
@enduml

@startuml



class SeeMMSIAndMoreInfoUI{
    -SeeMMSIAndMoreInfoController controller
}

class SeeMMSIAndMoreInfoController{
    +void String getAllInfos(Ship)
    +double calculateTravelledDistance(Ship)
    +double calculateDeltaDistance(Ship)
    +int calculateTotalMovements(Ship)
    +int getMmsi(Ship)
    +List<Ship> getAllShips()
}

class ShipStore{
    +List<Ship> getAllShips()
    +double calculateDistance(double,double,double,double)
}

class TrafficManager {
  -String name
  -String email
}
class Ship{
    -Integer mmsi
    -String vesselName
    -Integer imo
    -Integer callSign
    -VesselType type
    -Double length
    -Double width
    -Double draft
    +List<Ship>getShips()
}

class ShipDynamicData{
    -String baseDateTime
    -Double lat
    -Double lon
    -Double sog
    -Double cog
    -Double heading
    -Integer trailerId
    -String transcieverClass
}

enum VesselType {
  Passenger
  Fishing
  Tugboat
}

SeeMMSIAndMoreInfoUI ..> SeeMMSIAndMoreInfoController
SeeMMSIAndMoreInfoController ..> ShipStore
ShipStore "1" - - "0..*" Ship : has >
TrafficManager "1" - - "0..*" Ship : see the info >
Ship "1" - - "1..*" ShipDynamicData : has  >
Ship "1" - - "1" VesselType : has >
@enduml

PlantUML version 1.2021.11(Sat Oct 02 14:26:11 BST 2021)
(GPL source distribution)
Java Runtime: OpenJDK Runtime Environment
JVM: OpenJDK 64-Bit Server VM
Default Encoding: Cp1252
Language: pt
Country: PT
--></g></svg>