<?xml version="1.0" encoding="UTF-8" standalone="no"?><svg xmlns="http://www.w3.org/2000/svg" xmlns:xlink="http://www.w3.org/1999/xlink" contentScriptType="application/ecmascript" contentStyleType="text/css" height="710px" preserveAspectRatio="none" style="width:325px;height:710px;background:#FFFFFF;" version="1.1" viewBox="0 0 325 710" width="325px" zoomAndPan="magnify"><defs><filter height="300%" id="f196hz82x9nkds" width="300%" x="-1" y="-1"><feGaussianBlur result="blurOut" stdDeviation="2.0"/><feColorMatrix in="blurOut" result="blurOut2" type="matrix" values="0 0 0 0 0 0 0 0 0 0 0 0 0 0 0 0 0 0 .4 0"/><feOffset dx="4.0" dy="4.0" in="blurOut2" result="blurOut3"/><feBlend in="SourceGraphic" in2="blurOut3" mode="normal"/></filter></defs><g><!--MD5=[ddaf6f62b0bc30921877ec9fb9463c9f]
class TrafficManager--><rect codeLine="3" fill="#FEFECE" filter="url(#f196hz82x9nkds)" height="75.6719" id="TrafficManager" style="stroke:#A80036;stroke-width:1.5;" width="113" x="33" y="147"/><ellipse cx="48" cy="163" fill="#ADD1B2" rx="11" ry="11" style="stroke:#A80036;stroke-width:1.0;"/><path d="M50,159.5 Q50.2031,159 50.4375,158.75 Q50.6719,158.5 50.9375,158.5 Q51.4063,158.5 51.7031,158.7813 Q52,159.0625 52,159.7188 L52,161.2813 Q52,161.9375 51.7188,162.2188 Q51.4375,162.5 51,162.5 Q50.6094,162.5 50.3594,162.3281 Q50.1094,162.1563 50,161.7031 Q49.9531,161.3906 49.7813,161.2188 Q49.4688,160.8906 48.9063,160.7031 Q48.3438,160.5 47.7813,160.5 Q47.0781,160.5 46.4844,160.7813 Q45.9063,161.0625 45.4531,161.6875 Q45,162.3125 45,163.1719 L45,164.0938 Q45,165.125 45.8438,165.8125 Q46.6875,166.5 48.1875,166.5 Q49.0781,166.5 49.7031,166.2969 Q50.0625,166.1875 50.4688,165.8281 Q50.7344,165.625 50.875,165.5625 Q51.0156,165.5 51.1875,165.5 Q51.5156,165.5 51.75,165.7656 Q52,166.0156 52,166.375 Q52,166.7188 51.6563,167.125 Q51.1563,167.7188 50.3594,168.0469 Q49.3125,168.5 48.0313,168.5 Q46.5313,168.5 45.3281,167.9063 Q44.3594,167.4375 43.6719,166.4219 Q43,165.4063 43,164.2031 L43,163.1094 Q43,161.8594 43.5938,160.7656 Q44.2031,159.6719 45.25,159.0938 Q46.3125,158.5 47.5,158.5 Q48.2188,158.5 48.8438,158.75 Q49.4688,159 50,159.5 Z " fill="#000000"/><text fill="#000000" font-family="sans-serif" font-size="12" lengthAdjust="spacing" textLength="81" x="62" y="167.9102">TrafficManager</text><line style="stroke:#A80036;stroke-width:1.5;" x1="34" x2="145" y1="179" y2="179"/><rect fill="none" height="6" style="stroke:#C82930;stroke-width:1.0;" width="6" x="41" y="187"/><text fill="#000000" font-family="sans-serif" font-size="11" lengthAdjust="spacing" textLength="57" x="53" y="194.4189">String name</text><rect fill="none" height="6" style="stroke:#C82930;stroke-width:1.0;" width="6" x="41" y="200.8359"/><text fill="#000000" font-family="sans-serif" font-size="11" lengthAdjust="spacing" textLength="55" x="53" y="208.2549">String email</text><line style="stroke:#A80036;stroke-width:1.5;" x1="34" x2="145" y1="214.6719" y2="214.6719"/><!--MD5=[0dc7f2ddb409b58bcf52b12238c25399]
class Ship--><rect codeLine="8" fill="#FEFECE" filter="url(#f196hz82x9nkds)" height="158.6875" id="Ship" style="stroke:#A80036;stroke-width:1.5;" width="116" x="94.5" y="301"/><ellipse cx="136.05" cy="317" fill="#ADD1B2" rx="11" ry="11" style="stroke:#A80036;stroke-width:1.0;"/><path d="M138.05,313.5 Q138.2531,313 138.4875,312.75 Q138.7219,312.5 138.9875,312.5 Q139.4563,312.5 139.7531,312.7813 Q140.05,313.0625 140.05,313.7188 L140.05,315.2813 Q140.05,315.9375 139.7688,316.2188 Q139.4875,316.5 139.05,316.5 Q138.6594,316.5 138.4094,316.3281 Q138.1594,316.1563 138.05,315.7031 Q138.0031,315.3906 137.8313,315.2188 Q137.5188,314.8906 136.9563,314.7031 Q136.3938,314.5 135.8313,314.5 Q135.1281,314.5 134.5344,314.7813 Q133.9563,315.0625 133.5031,315.6875 Q133.05,316.3125 133.05,317.1719 L133.05,318.0938 Q133.05,319.125 133.8938,319.8125 Q134.7375,320.5 136.2375,320.5 Q137.1281,320.5 137.7531,320.2969 Q138.1125,320.1875 138.5188,319.8281 Q138.7844,319.625 138.925,319.5625 Q139.0656,319.5 139.2375,319.5 Q139.5656,319.5 139.8,319.7656 Q140.05,320.0156 140.05,320.375 Q140.05,320.7188 139.7063,321.125 Q139.2063,321.7188 138.4094,322.0469 Q137.3625,322.5 136.0813,322.5 Q134.5813,322.5 133.3781,321.9063 Q132.4094,321.4375 131.7219,320.4219 Q131.05,319.4063 131.05,318.2031 L131.05,317.1094 Q131.05,315.8594 131.6438,314.7656 Q132.2531,313.6719 133.3,313.0938 Q134.3625,312.5 135.55,312.5 Q136.2688,312.5 136.8938,312.75 Q137.5188,313 138.05,313.5 Z " fill="#000000"/><text fill="#000000" font-family="sans-serif" font-size="12" lengthAdjust="spacing" textLength="25" x="155.95" y="321.9102">Ship</text><line style="stroke:#A80036;stroke-width:1.5;" x1="95.5" x2="209.5" y1="333" y2="333"/><rect fill="none" height="6" style="stroke:#C82930;stroke-width:1.0;" width="6" x="102.5" y="341"/><text fill="#000000" font-family="sans-serif" font-size="11" lengthAdjust="spacing" textLength="60" x="114.5" y="348.4189">Integer mmsi</text><rect fill="none" height="6" style="stroke:#C82930;stroke-width:1.0;" width="6" x="102.5" y="354.8359"/><text fill="#000000" font-family="sans-serif" font-size="11" lengthAdjust="spacing" textLength="90" x="114.5" y="362.2549">String vesselName</text><rect fill="none" height="6" style="stroke:#C82930;stroke-width:1.0;" width="6" x="102.5" y="368.6719"/><text fill="#000000" font-family="sans-serif" font-size="11" lengthAdjust="spacing" textLength="52" x="114.5" y="376.0908">Integer imo</text><rect fill="none" height="6" style="stroke:#C82930;stroke-width:1.0;" width="6" x="102.5" y="382.5078"/><text fill="#000000" font-family="sans-serif" font-size="11" lengthAdjust="spacing" textLength="73" x="114.5" y="389.9268">Integer callSign</text><rect fill="none" height="6" style="stroke:#C82930;stroke-width:1.0;" width="6" x="102.5" y="396.3438"/><text fill="#000000" font-family="sans-serif" font-size="11" lengthAdjust="spacing" textLength="82" x="114.5" y="403.7627">VesselType type</text><rect fill="none" height="6" style="stroke:#C82930;stroke-width:1.0;" width="6" x="102.5" y="410.1797"/><text fill="#000000" font-family="sans-serif" font-size="11" lengthAdjust="spacing" textLength="65" x="114.5" y="417.5986">Double length</text><rect fill="none" height="6" style="stroke:#C82930;stroke-width:1.0;" width="6" x="102.5" y="424.0156"/><text fill="#000000" font-family="sans-serif" font-size="11" lengthAdjust="spacing" textLength="63" x="114.5" y="431.4346">Double width</text><rect fill="none" height="6" style="stroke:#C82930;stroke-width:1.0;" width="6" x="102.5" y="437.8516"/><text fill="#000000" font-family="sans-serif" font-size="11" lengthAdjust="spacing" textLength="59" x="114.5" y="445.2705">Double draft</text><line style="stroke:#A80036;stroke-width:1.5;" x1="95.5" x2="209.5" y1="451.6875" y2="451.6875"/><!--MD5=[1659f4066508979f3cd3e9133bca26e2]
class ShipDynamicData--><rect codeLine="19" fill="#FEFECE" filter="url(#f196hz82x9nkds)" height="158.6875" id="ShipDynamicData" style="stroke:#A80036;stroke-width:1.5;" width="139" x="7" y="538"/><ellipse cx="25.6" cy="554" fill="#ADD1B2" rx="11" ry="11" style="stroke:#A80036;stroke-width:1.0;"/><path d="M27.6,550.5 Q27.8031,550 28.0375,549.75 Q28.2719,549.5 28.5375,549.5 Q29.0063,549.5 29.3031,549.7813 Q29.6,550.0625 29.6,550.7188 L29.6,552.2813 Q29.6,552.9375 29.3188,553.2188 Q29.0375,553.5 28.6,553.5 Q28.2094,553.5 27.9594,553.3281 Q27.7094,553.1563 27.6,552.7031 Q27.5531,552.3906 27.3813,552.2188 Q27.0688,551.8906 26.5063,551.7031 Q25.9438,551.5 25.3813,551.5 Q24.6781,551.5 24.0844,551.7813 Q23.5063,552.0625 23.0531,552.6875 Q22.6,553.3125 22.6,554.1719 L22.6,555.0938 Q22.6,556.125 23.4438,556.8125 Q24.2875,557.5 25.7875,557.5 Q26.6781,557.5 27.3031,557.2969 Q27.6625,557.1875 28.0688,556.8281 Q28.3344,556.625 28.475,556.5625 Q28.6156,556.5 28.7875,556.5 Q29.1156,556.5 29.35,556.7656 Q29.6,557.0156 29.6,557.375 Q29.6,557.7188 29.2563,558.125 Q28.7563,558.7188 27.9594,559.0469 Q26.9125,559.5 25.6313,559.5 Q24.1313,559.5 22.9281,558.9063 Q21.9594,558.4375 21.2719,557.4219 Q20.6,556.4063 20.6,555.2031 L20.6,554.1094 Q20.6,552.8594 21.1938,551.7656 Q21.8031,550.6719 22.85,550.0938 Q23.9125,549.5 25.1,549.5 Q25.8188,549.5 26.4438,549.75 Q27.0688,550 27.6,550.5 Z " fill="#000000"/><text fill="#000000" font-family="sans-serif" font-size="12" lengthAdjust="spacing" textLength="99" x="40.4" y="558.9102">ShipDynamicData</text><line style="stroke:#A80036;stroke-width:1.5;" x1="8" x2="145" y1="570" y2="570"/><rect fill="none" height="6" style="stroke:#C82930;stroke-width:1.0;" width="6" x="15" y="578"/><text fill="#000000" font-family="sans-serif" font-size="11" lengthAdjust="spacing" textLength="99" x="27" y="585.4189">String baseDateTime</text><rect fill="none" height="6" style="stroke:#C82930;stroke-width:1.0;" width="6" x="15" y="591.8359"/><text fill="#000000" font-family="sans-serif" font-size="11" lengthAdjust="spacing" textLength="47" x="27" y="599.2549">Double lat</text><rect fill="none" height="6" style="stroke:#C82930;stroke-width:1.0;" width="6" x="15" y="605.6719"/><text fill="#000000" font-family="sans-serif" font-size="11" lengthAdjust="spacing" textLength="50" x="27" y="613.0908">Double lon</text><rect fill="none" height="6" style="stroke:#C82930;stroke-width:1.0;" width="6" x="15" y="619.5078"/><text fill="#000000" font-family="sans-serif" font-size="11" lengthAdjust="spacing" textLength="54" x="27" y="626.9268">Double sog</text><rect fill="none" height="6" style="stroke:#C82930;stroke-width:1.0;" width="6" x="15" y="633.3438"/><text fill="#000000" font-family="sans-serif" font-size="11" lengthAdjust="spacing" textLength="54" x="27" y="640.7627">Double cog</text><rect fill="none" height="6" style="stroke:#C82930;stroke-width:1.0;" width="6" x="15" y="647.1797"/><text fill="#000000" font-family="sans-serif" font-size="11" lengthAdjust="spacing" textLength="74" x="27" y="654.5986">Double heading</text><rect fill="none" height="6" style="stroke:#C82930;stroke-width:1.0;" width="6" x="15" y="661.0156"/><text fill="#000000" font-family="sans-serif" font-size="11" lengthAdjust="spacing" textLength="71" x="27" y="668.4346">Integer trailerId</text><rect fill="none" height="6" style="stroke:#C82930;stroke-width:1.0;" width="6" x="15" y="674.8516"/><text fill="#000000" font-family="sans-serif" font-size="11" lengthAdjust="spacing" textLength="113" x="27" y="682.2705">String transcieverClass</text><line style="stroke:#A80036;stroke-width:1.5;" x1="8" x2="145" y1="688.6875" y2="688.6875"/><!--MD5=[cf9c7d7c3da40397ddde4f51b7097da6]
class VesselType--><rect codeLine="30" fill="#FEFECE" filter="url(#f196hz82x9nkds)" height="89.5078" id="VesselType" style="stroke:#A80036;stroke-width:1.5;" width="96" x="181.5" y="572.5"/><ellipse cx="196.5" cy="588.5" fill="#EB937F" rx="11" ry="11" style="stroke:#A80036;stroke-width:1.0;"/><path d="M195,589.5 L195,591.5 L199,591.5 L199,590.5 L199,590.0156 L199.625,589.5 L200,589.5 L200.375,589.5 L201,590.0156 L201,590.5 L201,593.5 L193,593.5 L192.5156,593.5 L192,592.875 L192,592.5 L192,592.125 L192.5156,591.5 L193,591.5 L193,591.5 L193,585.5 L193,585.5 L192.5156,585.5 L192,584.875 L192,584.5 L192,584.125 L192.5156,583.5 L193,583.5 L201,583.5 L201,586.5 L201,586.9844 L200.375,587.5 L200,587.5 L199.625,587.5 L199,586.9844 L199,586.5 L199,585.5 L195,585.5 L195,587.5 L196,587.5 L196,587.0156 L196,587.0156 L196.625,586.5 L197,586.5 L197.375,586.5 L198,587.0156 L198,587.5 L198,589.5 L198,589.9844 L197.375,590.5 L197.375,590.5 L197,590.5 L196.625,590.5 L196,589.9844 L196,589.9844 L196,589.5 L195,589.5 Z " fill="#000000"/><text fill="#000000" font-family="sans-serif" font-size="12" lengthAdjust="spacing" textLength="64" x="210.5" y="593.4102">VesselType</text><line style="stroke:#A80036;stroke-width:1.5;" x1="182.5" x2="276.5" y1="604.5" y2="604.5"/><text fill="#000000" font-family="sans-serif" font-size="11" lengthAdjust="spacing" textLength="52" x="187.5" y="619.9189">Passenger</text><text fill="#000000" font-family="sans-serif" font-size="11" lengthAdjust="spacing" textLength="34" x="187.5" y="633.7549">Fishing</text><text fill="#000000" font-family="sans-serif" font-size="11" lengthAdjust="spacing" textLength="39" x="187.5" y="647.5908">Tugboat</text><line style="stroke:#A80036;stroke-width:1.5;" x1="182.5" x2="276.5" y1="654.0078" y2="654.0078"/><!--MD5=[02e4b9b7573f1156f41e60aa5b4e25a4]
class Company--><rect codeLine="36" fill="#FEFECE" filter="url(#f196hz82x9nkds)" height="61.8359" id="Company" style="stroke:#A80036;stroke-width:1.5;" width="112" x="109.5" y="7"/><ellipse cx="136.65" cy="23" fill="#ADD1B2" rx="11" ry="11" style="stroke:#A80036;stroke-width:1.0;"/><path d="M138.65,19.5 Q138.8531,19 139.0875,18.75 Q139.3219,18.5 139.5875,18.5 Q140.0563,18.5 140.3531,18.7813 Q140.65,19.0625 140.65,19.7188 L140.65,21.2813 Q140.65,21.9375 140.3688,22.2188 Q140.0875,22.5 139.65,22.5 Q139.2594,22.5 139.0094,22.3281 Q138.7594,22.1563 138.65,21.7031 Q138.6031,21.3906 138.4313,21.2188 Q138.1188,20.8906 137.5563,20.7031 Q136.9938,20.5 136.4313,20.5 Q135.7281,20.5 135.1344,20.7813 Q134.5563,21.0625 134.1031,21.6875 Q133.65,22.3125 133.65,23.1719 L133.65,24.0938 Q133.65,25.125 134.4938,25.8125 Q135.3375,26.5 136.8375,26.5 Q137.7281,26.5 138.3531,26.2969 Q138.7125,26.1875 139.1188,25.8281 Q139.3844,25.625 139.525,25.5625 Q139.6656,25.5 139.8375,25.5 Q140.1656,25.5 140.4,25.7656 Q140.65,26.0156 140.65,26.375 Q140.65,26.7188 140.3063,27.125 Q139.8063,27.7188 139.0094,28.0469 Q137.9625,28.5 136.6813,28.5 Q135.1813,28.5 133.9781,27.9063 Q133.0094,27.4375 132.3219,26.4219 Q131.65,25.4063 131.65,24.2031 L131.65,23.1094 Q131.65,21.8594 132.2438,20.7656 Q132.8531,19.6719 133.9,19.0938 Q134.9625,18.5 136.15,18.5 Q136.8688,18.5 137.4938,18.75 Q138.1188,19 138.65,19.5 Z " fill="#000000"/><text fill="#000000" font-family="sans-serif" font-size="12" lengthAdjust="spacing" textLength="53" x="153.35" y="27.9102">Company</text><line style="stroke:#A80036;stroke-width:1.5;" x1="110.5" x2="220.5" y1="39" y2="39"/><rect fill="none" height="6" style="stroke:#C82930;stroke-width:1.0;" width="6" x="117.5" y="47"/><text fill="#000000" font-family="sans-serif" font-size="11" lengthAdjust="spacing" textLength="86" x="129.5" y="54.4189">String designation</text><line style="stroke:#A80036;stroke-width:1.5;" x1="110.5" x2="220.5" y1="60.8359" y2="60.8359"/><!--MD5=[683ea96df93176af8455607a7c1d2a32]
link Company to TrafficManager--><path codeLine="40" d="M128.46,69.04 C119.72,77.84 111.28,88.06 105.5,99 C97.79,113.61 93.75,131.36 91.65,146.85 " fill="none" id="Company-TrafficManager" style="stroke:#A80036;stroke-width:1.0;"/><polygon fill="#000000" points="108.3618,112.6955,114.8865,105.776,109.5732,103.2624,108.3618,112.6955" style="stroke:#000000;stroke-width:1.0;"/><text fill="#000000" font-family="sans-serif" font-size="13" lengthAdjust="spacing" textLength="82" x="119.5" y="113.4951">has registered</text><text fill="#000000" font-family="sans-serif" font-size="13" lengthAdjust="spacing" textLength="7" x="113.4787" y="90.2719">1</text><text fill="#000000" font-family="sans-serif" font-size="13" lengthAdjust="spacing" textLength="20" x="70.2517" y="136.1852">1..*</text><!--MD5=[37a14a5de6d6fd738aee271300f4b5c8]
link Company to Ship--><path codeLine="41" d="M191.28,69.21 C197.49,78.22 203.26,88.51 206.5,99 C229.07,172.04 223.99,196.58 206.5,271 C204.16,280.93 200.78,291 196.82,300.79 " fill="none" id="Company-Ship" style="stroke:#A80036;stroke-width:1.0;"/><polygon fill="#000000" points="226.6196,190.1744,229.3413,181.0616,223.4652,181.2021,226.6196,190.1744" style="stroke:#000000;stroke-width:1.0;"/><text fill="#000000" font-family="sans-serif" font-size="13" lengthAdjust="spacing" textLength="82" x="235.5" y="190.4951">has registered</text><text fill="#000000" font-family="sans-serif" font-size="13" lengthAdjust="spacing" textLength="7" x="188.5271" y="90.2287">1</text><text fill="#000000" font-family="sans-serif" font-size="13" lengthAdjust="spacing" textLength="20" x="179.9839" y="290.23">1..*</text><!--MD5=[40e2b5717560220ad35e84810a8f1b44]
link TrafficManager to Ship--><path codeLine="42" d="M75.17,223.36 C71.4,238.39 69.58,255.74 74.5,271 C79.05,285.13 86.2,298.98 94.37,311.8 " fill="none" id="TrafficManager-Ship" style="stroke:#A80036;stroke-width:1.0;"/><polygon fill="#000000" points="80.5608,267.062,81.5138,257.5993,75.7698,258.8463,80.5608,267.062" style="stroke:#000000;stroke-width:1.0;"/><text fill="#000000" font-family="sans-serif" font-size="13" lengthAdjust="spacing" textLength="113" x="88.5" y="267.4951">controls the infos of</text><text fill="#000000" font-family="sans-serif" font-size="13" lengthAdjust="spacing" textLength="7" x="65.3283" y="244.2979">1</text><text fill="#000000" font-family="sans-serif" font-size="13" lengthAdjust="spacing" textLength="7" x="79.4737" y="299.5105">1</text><!--MD5=[c324832c0212842eac80843bc02aaded]
link Ship to VesselType--><path codeLine="43" d="M178.25,460.08 C190.49,497.44 204.67,540.72 215.01,572.27 " fill="none" id="Ship-VesselType" style="stroke:#A80036;stroke-width:1.0;"/><polygon fill="#000000" points="200.0569,503.9272,200.0333,494.4167,194.4477,496.2469,200.0569,503.9272" style="stroke:#000000;stroke-width:1.0;"/><text fill="#000000" font-family="sans-serif" font-size="13" lengthAdjust="spacing" textLength="21" x="207.5" y="504.4951">has</text><text fill="#000000" font-family="sans-serif" font-size="13" lengthAdjust="spacing" textLength="20" x="159.6035" y="481.1301">1..*</text><text fill="#000000" font-family="sans-serif" font-size="13" lengthAdjust="spacing" textLength="20" x="191.26" y="561.6789">1..*</text><!--MD5=[9a349e3fe139691f8d5fdcec09531234]
link Ship to ShipDynamicData--><path codeLine="44" d="M127.09,460.08 C118.97,485.16 110,512.92 101.89,538 " fill="none" id="Ship-ShipDynamicData" style="stroke:#A80036;stroke-width:1.0;"/><polygon fill="#000000" points="120.9614,503.9332,126.5411,496.2313,120.9484,494.4226,120.9614,503.9332" style="stroke:#000000;stroke-width:1.0;"/><text fill="#000000" font-family="sans-serif" font-size="13" lengthAdjust="spacing" textLength="21" x="131.5" y="504.4951">has</text><text fill="#000000" font-family="sans-serif" font-size="13" lengthAdjust="spacing" textLength="5" x="119.6915" y="481.1301">*</text><text fill="#000000" font-family="sans-serif" font-size="13" lengthAdjust="spacing" textLength="5" x="99.0717" y="527.1869">*</text><!--MD5=[ce0175d89e4a3bfdfe850183f17b11e4]
@startuml
'https://plantuml.com/sequence-diagram

class TrafficManager {
  -String name
  -String email
}

class Ship {
    -Integer mmsi
    -String vesselName
    -Integer imo
    -Integer callSign
    -VesselType type
    -Double length
    -Double width
    -Double draft
}

class ShipDynamicData {
  -String baseDateTime
    -Double lat
    -Double lon
    -Double sog
    -Double cog
    -Double heading
    -Integer trailerId
    -String transcieverClass
}

enum VesselType {
  Passenger
  Fishing
  Tugboat
}

class Company {
  -String designation
}

Company "1" - - "1..*" TrafficManager : has registered >
Company "1" - - "1..*" Ship : has registered >
TrafficManager "1" - - "1" Ship : controls the infos of >
Ship "1..*" - - "1..*" VesselType : has >
Ship "*" - - "*" ShipDynamicData : has >

@enduml

@startuml

class TrafficManager {
  -String name
  -String email
}

class Ship {
    -Integer mmsi
    -String vesselName
    -Integer imo
    -Integer callSign
    -VesselType type
    -Double length
    -Double width
    -Double draft
}

class ShipDynamicData {
  -String baseDateTime
    -Double lat
    -Double lon
    -Double sog
    -Double cog
    -Double heading
    -Integer trailerId
    -String transcieverClass
}

enum VesselType {
  Passenger
  Fishing
  Tugboat
}

class Company {
  -String designation
}

Company "1" - - "1..*" TrafficManager : has registered >
Company "1" - - "1..*" Ship : has registered >
TrafficManager "1" - - "1" Ship : controls the infos of >
Ship "1..*" - - "1..*" VesselType : has >
Ship "*" - - "*" ShipDynamicData : has >

@enduml

PlantUML version 1.2021.11(Sat Oct 02 14:26:11 BST 2021)
(GPL source distribution)
Java Runtime: OpenJDK Runtime Environment
JVM: OpenJDK 64-Bit Server VM
Default Encoding: Cp1252
Language: pt
Country: PT
--></g></svg>