<?xml version="1.0" encoding="UTF-8" standalone="no"?><svg xmlns="http://www.w3.org/2000/svg" xmlns:xlink="http://www.w3.org/1999/xlink" contentScriptType="application/ecmascript" contentStyleType="text/css" height="788px" preserveAspectRatio="none" style="width:449px;height:788px;background:#FFFFFF;" version="1.1" viewBox="0 0 449 788" width="449px" zoomAndPan="magnify"><defs><filter height="300%" id="f1vfhpu69mjkrt" width="300%" x="-1" y="-1"><feGaussianBlur result="blurOut" stdDeviation="2.0"/><feColorMatrix in="blurOut" result="blurOut2" type="matrix" values="0 0 0 0 0 0 0 0 0 0 0 0 0 0 0 0 0 0 .4 0"/><feOffset dx="4.0" dy="4.0" in="blurOut2" result="blurOut3"/><feBlend in="SourceGraphic" in2="blurOut3" mode="normal"/></filter></defs><g><!--MD5=[f398d87fabaa512fdbdd8750b9801b35]
class FindClosestPortUI--><rect codeLine="3" fill="#FEFECE" filter="url(#f1vfhpu69mjkrt)" height="48" id="FindClosestPortUI" style="stroke:#A80036;stroke-width:1.5;" width="133" x="53.5" y="7"/><ellipse cx="68.5" cy="23" fill="#ADD1B2" rx="11" ry="11" style="stroke:#A80036;stroke-width:1.0;"/><path d="M70.5,19.5 Q70.7031,19 70.9375,18.75 Q71.1719,18.5 71.4375,18.5 Q71.9063,18.5 72.2031,18.7813 Q72.5,19.0625 72.5,19.7188 L72.5,21.2813 Q72.5,21.9375 72.2188,22.2188 Q71.9375,22.5 71.5,22.5 Q71.1094,22.5 70.8594,22.3281 Q70.6094,22.1563 70.5,21.7031 Q70.4531,21.3906 70.2813,21.2188 Q69.9688,20.8906 69.4063,20.7031 Q68.8438,20.5 68.2813,20.5 Q67.5781,20.5 66.9844,20.7813 Q66.4063,21.0625 65.9531,21.6875 Q65.5,22.3125 65.5,23.1719 L65.5,24.0938 Q65.5,25.125 66.3438,25.8125 Q67.1875,26.5 68.6875,26.5 Q69.5781,26.5 70.2031,26.2969 Q70.5625,26.1875 70.9688,25.8281 Q71.2344,25.625 71.375,25.5625 Q71.5156,25.5 71.6875,25.5 Q72.0156,25.5 72.25,25.7656 Q72.5,26.0156 72.5,26.375 Q72.5,26.7188 72.1563,27.125 Q71.6563,27.7188 70.8594,28.0469 Q69.8125,28.5 68.5313,28.5 Q67.0313,28.5 65.8281,27.9063 Q64.8594,27.4375 64.1719,26.4219 Q63.5,25.4063 63.5,24.2031 L63.5,23.1094 Q63.5,21.8594 64.0938,20.7656 Q64.7031,19.6719 65.75,19.0938 Q66.8125,18.5 68,18.5 Q68.7188,18.5 69.3438,18.75 Q69.9688,19 70.5,19.5 Z " fill="#000000"/><text fill="#000000" font-family="sans-serif" font-size="12" lengthAdjust="spacing" textLength="101" x="82.5" y="27.9102">FindClosestPortUI</text><line style="stroke:#A80036;stroke-width:1.5;" x1="54.5" x2="185.5" y1="39" y2="39"/><line style="stroke:#A80036;stroke-width:1.5;" x1="54.5" x2="185.5" y1="47" y2="47"/><!--MD5=[ece3d410acf7c62c5f936bff9ee27dc6]
class FindClosestPortController--><rect codeLine="6" fill="#FEFECE" filter="url(#f1vfhpu69mjkrt)" height="61.8359" id="FindClosestPortController" style="stroke:#A80036;stroke-width:1.5;" width="212" x="14" y="116"/><ellipse cx="45.65" cy="132" fill="#ADD1B2" rx="11" ry="11" style="stroke:#A80036;stroke-width:1.0;"/><path d="M47.65,128.5 Q47.8531,128 48.0875,127.75 Q48.3219,127.5 48.5875,127.5 Q49.0563,127.5 49.3531,127.7813 Q49.65,128.0625 49.65,128.7188 L49.65,130.2813 Q49.65,130.9375 49.3688,131.2188 Q49.0875,131.5 48.65,131.5 Q48.2594,131.5 48.0094,131.3281 Q47.7594,131.1563 47.65,130.7031 Q47.6031,130.3906 47.4313,130.2188 Q47.1188,129.8906 46.5563,129.7031 Q45.9938,129.5 45.4313,129.5 Q44.7281,129.5 44.1344,129.7813 Q43.5563,130.0625 43.1031,130.6875 Q42.65,131.3125 42.65,132.1719 L42.65,133.0938 Q42.65,134.125 43.4938,134.8125 Q44.3375,135.5 45.8375,135.5 Q46.7281,135.5 47.3531,135.2969 Q47.7125,135.1875 48.1188,134.8281 Q48.3844,134.625 48.525,134.5625 Q48.6656,134.5 48.8375,134.5 Q49.1656,134.5 49.4,134.7656 Q49.65,135.0156 49.65,135.375 Q49.65,135.7188 49.3063,136.125 Q48.8063,136.7188 48.0094,137.0469 Q46.9625,137.5 45.6813,137.5 Q44.1813,137.5 42.9781,136.9063 Q42.0094,136.4375 41.3219,135.4219 Q40.65,134.4063 40.65,133.2031 L40.65,132.1094 Q40.65,130.8594 41.2438,129.7656 Q41.8531,128.6719 42.9,128.0938 Q43.9625,127.5 45.15,127.5 Q45.8688,127.5 46.4938,127.75 Q47.1188,128 47.65,128.5 Z " fill="#000000"/><text fill="#000000" font-family="sans-serif" font-size="12" lengthAdjust="spacing" textLength="143" x="63.35" y="136.9102">FindClosestPortController</text><line style="stroke:#A80036;stroke-width:1.5;" x1="15" x2="225" y1="148" y2="148"/><line style="stroke:#A80036;stroke-width:1.5;" x1="15" x2="225" y1="156" y2="156"/><ellipse cx="25" cy="167" fill="#84BE84" rx="3" ry="3" style="stroke:#038048;stroke-width:1.0;"/><text fill="#000000" font-family="sans-serif" font-size="11" lengthAdjust="spacing" textLength="186" x="34" y="171.4189">Port findClosestPort(callSign,dateTime)</text><!--MD5=[ddaf6f62b0bc30921877ec9fb9463c9f]
class TrafficManager--><rect codeLine="10" fill="#FEFECE" filter="url(#f1vfhpu69mjkrt)" height="75.6719" id="TrafficManager" style="stroke:#A80036;stroke-width:1.5;" width="113" x="268.5" y="239"/><ellipse cx="283.5" cy="255" fill="#ADD1B2" rx="11" ry="11" style="stroke:#A80036;stroke-width:1.0;"/><path d="M285.5,251.5 Q285.7031,251 285.9375,250.75 Q286.1719,250.5 286.4375,250.5 Q286.9063,250.5 287.2031,250.7813 Q287.5,251.0625 287.5,251.7188 L287.5,253.2813 Q287.5,253.9375 287.2188,254.2188 Q286.9375,254.5 286.5,254.5 Q286.1094,254.5 285.8594,254.3281 Q285.6094,254.1563 285.5,253.7031 Q285.4531,253.3906 285.2813,253.2188 Q284.9688,252.8906 284.4063,252.7031 Q283.8438,252.5 283.2813,252.5 Q282.5781,252.5 281.9844,252.7813 Q281.4063,253.0625 280.9531,253.6875 Q280.5,254.3125 280.5,255.1719 L280.5,256.0938 Q280.5,257.125 281.3438,257.8125 Q282.1875,258.5 283.6875,258.5 Q284.5781,258.5 285.2031,258.2969 Q285.5625,258.1875 285.9688,257.8281 Q286.2344,257.625 286.375,257.5625 Q286.5156,257.5 286.6875,257.5 Q287.0156,257.5 287.25,257.7656 Q287.5,258.0156 287.5,258.375 Q287.5,258.7188 287.1563,259.125 Q286.6563,259.7188 285.8594,260.0469 Q284.8125,260.5 283.5313,260.5 Q282.0313,260.5 280.8281,259.9063 Q279.8594,259.4375 279.1719,258.4219 Q278.5,257.4063 278.5,256.2031 L278.5,255.1094 Q278.5,253.8594 279.0938,252.7656 Q279.7031,251.6719 280.75,251.0938 Q281.8125,250.5 283,250.5 Q283.7188,250.5 284.3438,250.75 Q284.9688,251 285.5,251.5 Z " fill="#000000"/><text fill="#000000" font-family="sans-serif" font-size="12" lengthAdjust="spacing" textLength="81" x="297.5" y="259.9102">TrafficManager</text><line style="stroke:#A80036;stroke-width:1.5;" x1="269.5" x2="380.5" y1="271" y2="271"/><rect fill="none" height="6" style="stroke:#C82930;stroke-width:1.0;" width="6" x="276.5" y="279"/><text fill="#000000" font-family="sans-serif" font-size="11" lengthAdjust="spacing" textLength="57" x="288.5" y="286.4189">String name</text><rect fill="none" height="6" style="stroke:#C82930;stroke-width:1.0;" width="6" x="276.5" y="292.8359"/><text fill="#000000" font-family="sans-serif" font-size="11" lengthAdjust="spacing" textLength="55" x="288.5" y="300.2549">String email</text><line style="stroke:#A80036;stroke-width:1.5;" x1="269.5" x2="380.5" y1="306.6719" y2="306.6719"/><!--MD5=[a0bfe97ac0a38e6e74cc1c7c7b744b71]
class Port--><rect codeLine="15" fill="#FEFECE" filter="url(#f1vfhpu69mjkrt)" height="131.0156" id="Port" style="stroke:#A80036;stroke-width:1.5;" width="101" x="172.5" y="393"/><ellipse cx="208.65" cy="409" fill="#ADD1B2" rx="11" ry="11" style="stroke:#A80036;stroke-width:1.0;"/><path d="M210.65,405.5 Q210.8531,405 211.0875,404.75 Q211.3219,404.5 211.5875,404.5 Q212.0563,404.5 212.3531,404.7813 Q212.65,405.0625 212.65,405.7188 L212.65,407.2813 Q212.65,407.9375 212.3688,408.2188 Q212.0875,408.5 211.65,408.5 Q211.2594,408.5 211.0094,408.3281 Q210.7594,408.1563 210.65,407.7031 Q210.6031,407.3906 210.4313,407.2188 Q210.1188,406.8906 209.5563,406.7031 Q208.9938,406.5 208.4313,406.5 Q207.7281,406.5 207.1344,406.7813 Q206.5563,407.0625 206.1031,407.6875 Q205.65,408.3125 205.65,409.1719 L205.65,410.0938 Q205.65,411.125 206.4938,411.8125 Q207.3375,412.5 208.8375,412.5 Q209.7281,412.5 210.3531,412.2969 Q210.7125,412.1875 211.1188,411.8281 Q211.3844,411.625 211.525,411.5625 Q211.6656,411.5 211.8375,411.5 Q212.1656,411.5 212.4,411.7656 Q212.65,412.0156 212.65,412.375 Q212.65,412.7188 212.3063,413.125 Q211.8063,413.7188 211.0094,414.0469 Q209.9625,414.5 208.6813,414.5 Q207.1813,414.5 205.9781,413.9063 Q205.0094,413.4375 204.3219,412.4219 Q203.65,411.4063 203.65,410.2031 L203.65,409.1094 Q203.65,407.8594 204.2438,406.7656 Q204.8531,405.6719 205.9,405.0938 Q206.9625,404.5 208.15,404.5 Q208.8688,404.5 209.4938,404.75 Q210.1188,405 210.65,405.5 Z " fill="#000000"/><text fill="#000000" font-family="sans-serif" font-size="12" lengthAdjust="spacing" textLength="22" x="227.35" y="413.9102">Port</text><line style="stroke:#A80036;stroke-width:1.5;" x1="173.5" x2="272.5" y1="425" y2="425"/><rect fill="none" height="6" style="stroke:#C82930;stroke-width:1.0;" width="6" x="180.5" y="433"/><text fill="#000000" font-family="sans-serif" font-size="11" lengthAdjust="spacing" textLength="75" x="192.5" y="440.4189">String continent</text><rect fill="none" height="6" style="stroke:#C82930;stroke-width:1.0;" width="6" x="180.5" y="446.8359"/><text fill="#000000" font-family="sans-serif" font-size="11" lengthAdjust="spacing" textLength="68" x="192.5" y="454.2549">String country</text><rect fill="none" height="6" style="stroke:#C82930;stroke-width:1.0;" width="6" x="180.5" y="460.6719"/><text fill="#000000" font-family="sans-serif" font-size="11" lengthAdjust="spacing" textLength="60" x="192.5" y="468.0908">Integer code</text><rect fill="none" height="6" style="stroke:#C82930;stroke-width:1.0;" width="6" x="180.5" y="474.5078"/><text fill="#000000" font-family="sans-serif" font-size="11" lengthAdjust="spacing" textLength="50" x="192.5" y="481.9268">String port</text><rect fill="none" height="6" style="stroke:#C82930;stroke-width:1.0;" width="6" x="180.5" y="488.3438"/><text fill="#000000" font-family="sans-serif" font-size="11" lengthAdjust="spacing" textLength="47" x="192.5" y="495.7627">Double lat</text><rect fill="none" height="6" style="stroke:#C82930;stroke-width:1.0;" width="6" x="180.5" y="502.1797"/><text fill="#000000" font-family="sans-serif" font-size="11" lengthAdjust="spacing" textLength="50" x="192.5" y="509.5986">Double lon</text><line style="stroke:#A80036;stroke-width:1.5;" x1="173.5" x2="272.5" y1="516.0156" y2="516.0156"/><!--MD5=[f70d2b281f9eefc1b49373c49159755a]
class PortStore--><rect codeLine="24" fill="#FEFECE" filter="url(#f1vfhpu69mjkrt)" height="61.8359" id="PortStore" style="stroke:#A80036;stroke-width:1.5;" width="226" x="7" y="246"/><ellipse cx="90.25" cy="262" fill="#ADD1B2" rx="11" ry="11" style="stroke:#A80036;stroke-width:1.0;"/><path d="M92.25,258.5 Q92.4531,258 92.6875,257.75 Q92.9219,257.5 93.1875,257.5 Q93.6563,257.5 93.9531,257.7813 Q94.25,258.0625 94.25,258.7188 L94.25,260.2813 Q94.25,260.9375 93.9688,261.2188 Q93.6875,261.5 93.25,261.5 Q92.8594,261.5 92.6094,261.3281 Q92.3594,261.1563 92.25,260.7031 Q92.2031,260.3906 92.0313,260.2188 Q91.7188,259.8906 91.1563,259.7031 Q90.5938,259.5 90.0313,259.5 Q89.3281,259.5 88.7344,259.7813 Q88.1563,260.0625 87.7031,260.6875 Q87.25,261.3125 87.25,262.1719 L87.25,263.0938 Q87.25,264.125 88.0938,264.8125 Q88.9375,265.5 90.4375,265.5 Q91.3281,265.5 91.9531,265.2969 Q92.3125,265.1875 92.7188,264.8281 Q92.9844,264.625 93.125,264.5625 Q93.2656,264.5 93.4375,264.5 Q93.7656,264.5 94,264.7656 Q94.25,265.0156 94.25,265.375 Q94.25,265.7188 93.9063,266.125 Q93.4063,266.7188 92.6094,267.0469 Q91.5625,267.5 90.2813,267.5 Q88.7813,267.5 87.5781,266.9063 Q86.6094,266.4375 85.9219,265.4219 Q85.25,264.4063 85.25,263.2031 L85.25,262.1094 Q85.25,260.8594 85.8438,259.7656 Q86.4531,258.6719 87.5,258.0938 Q88.5625,257.5 89.75,257.5 Q90.4688,257.5 91.0938,257.75 Q91.7188,258 92.25,258.5 Z " fill="#000000"/><text fill="#000000" font-family="sans-serif" font-size="12" lengthAdjust="spacing" textLength="51" x="110.75" y="266.9102">PortStore</text><line style="stroke:#A80036;stroke-width:1.5;" x1="8" x2="232" y1="278" y2="278"/><line style="stroke:#A80036;stroke-width:1.5;" x1="8" x2="232" y1="286" y2="286"/><ellipse cx="18" cy="297" fill="#84BE84" rx="3" ry="3" style="stroke:#038048;stroke-width:1.0;"/><text fill="#000000" font-family="sans-serif" font-size="11" lengthAdjust="spacing" textLength="200" x="27" y="301.4189">Port getNearestPortFromPosition(position)</text><!--MD5=[0dc7f2ddb409b58bcf52b12238c25399]
class Ship--><rect codeLine="28" fill="#FEFECE" filter="url(#f1vfhpu69mjkrt)" height="172.5234" id="Ship" style="stroke:#A80036;stroke-width:1.5;" width="150" x="148" y="602"/><ellipse cx="206.25" cy="618" fill="#ADD1B2" rx="11" ry="11" style="stroke:#A80036;stroke-width:1.0;"/><path d="M208.25,614.5 Q208.4531,614 208.6875,613.75 Q208.9219,613.5 209.1875,613.5 Q209.6563,613.5 209.9531,613.7813 Q210.25,614.0625 210.25,614.7188 L210.25,616.2813 Q210.25,616.9375 209.9688,617.2188 Q209.6875,617.5 209.25,617.5 Q208.8594,617.5 208.6094,617.3281 Q208.3594,617.1563 208.25,616.7031 Q208.2031,616.3906 208.0313,616.2188 Q207.7188,615.8906 207.1563,615.7031 Q206.5938,615.5 206.0313,615.5 Q205.3281,615.5 204.7344,615.7813 Q204.1563,616.0625 203.7031,616.6875 Q203.25,617.3125 203.25,618.1719 L203.25,619.0938 Q203.25,620.125 204.0938,620.8125 Q204.9375,621.5 206.4375,621.5 Q207.3281,621.5 207.9531,621.2969 Q208.3125,621.1875 208.7188,620.8281 Q208.9844,620.625 209.125,620.5625 Q209.2656,620.5 209.4375,620.5 Q209.7656,620.5 210,620.7656 Q210.25,621.0156 210.25,621.375 Q210.25,621.7188 209.9063,622.125 Q209.4063,622.7188 208.6094,623.0469 Q207.5625,623.5 206.2813,623.5 Q204.7813,623.5 203.5781,622.9063 Q202.6094,622.4375 201.9219,621.4219 Q201.25,620.4063 201.25,619.2031 L201.25,618.1094 Q201.25,616.8594 201.8438,615.7656 Q202.4531,614.6719 203.5,614.0938 Q204.5625,613.5 205.75,613.5 Q206.4688,613.5 207.0938,613.75 Q207.7188,614 208.25,614.5 Z " fill="#000000"/><text fill="#000000" font-family="sans-serif" font-size="12" lengthAdjust="spacing" textLength="25" x="226.75" y="622.9102">Ship</text><line style="stroke:#A80036;stroke-width:1.5;" x1="149" x2="297" y1="634" y2="634"/><rect fill="none" height="6" style="stroke:#C82930;stroke-width:1.0;" width="6" x="156" y="642"/><text fill="#000000" font-family="sans-serif" font-size="11" lengthAdjust="spacing" textLength="60" x="168" y="649.4189">Integer mmsi</text><rect fill="none" height="6" style="stroke:#C82930;stroke-width:1.0;" width="6" x="156" y="655.8359"/><text fill="#000000" font-family="sans-serif" font-size="11" lengthAdjust="spacing" textLength="90" x="168" y="663.2549">String vesselName</text><rect fill="none" height="6" style="stroke:#C82930;stroke-width:1.0;" width="6" x="156" y="669.6719"/><text fill="#000000" font-family="sans-serif" font-size="11" lengthAdjust="spacing" textLength="52" x="168" y="677.0908">Integer imo</text><rect fill="none" height="6" style="stroke:#C82930;stroke-width:1.0;" width="6" x="156" y="683.5078"/><text fill="#000000" font-family="sans-serif" font-size="11" lengthAdjust="spacing" textLength="73" x="168" y="690.9268">Integer callSign</text><rect fill="none" height="6" style="stroke:#C82930;stroke-width:1.0;" width="6" x="156" y="697.3438"/><text fill="#000000" font-family="sans-serif" font-size="11" lengthAdjust="spacing" textLength="82" x="168" y="704.7627">VesselType type</text><rect fill="none" height="6" style="stroke:#C82930;stroke-width:1.0;" width="6" x="156" y="711.1797"/><text fill="#000000" font-family="sans-serif" font-size="11" lengthAdjust="spacing" textLength="65" x="168" y="718.5986">Double length</text><rect fill="none" height="6" style="stroke:#C82930;stroke-width:1.0;" width="6" x="156" y="725.0156"/><text fill="#000000" font-family="sans-serif" font-size="11" lengthAdjust="spacing" textLength="63" x="168" y="732.4346">Double width</text><rect fill="none" height="6" style="stroke:#C82930;stroke-width:1.0;" width="6" x="156" y="738.8516"/><text fill="#000000" font-family="sans-serif" font-size="11" lengthAdjust="spacing" textLength="59" x="168" y="746.2705">Double draft</text><rect fill="none" height="6" style="stroke:#C82930;stroke-width:1.0;" width="6" x="156" y="752.6875"/><text fill="#000000" font-family="sans-serif" font-size="11" lengthAdjust="spacing" textLength="124" x="168" y="760.1064">ShipDynamicData position</text><line style="stroke:#A80036;stroke-width:1.5;" x1="149" x2="297" y1="766.5234" y2="766.5234"/><!--MD5=[7d9e25b05351abad966dfb34d685e1c0]
link FindClosestPortUI to FindClosestPortController--><path codeLine="40" d="M120,55.07 C120,71.01 120,92.51 120,110.6 " fill="none" id="FindClosestPortUI-to-FindClosestPortController" style="stroke:#A80036;stroke-width:1.0;stroke-dasharray:7.0,7.0;"/><polygon fill="#A80036" points="120,115.61,124,106.61,120,110.61,116,106.61,120,115.61" style="stroke:#A80036;stroke-width:1.0;"/><!--MD5=[176f9272f2872437077881362ce1cda7]
link FindClosestPortController to PortStore--><path codeLine="41" d="M120,178.01 C120,196.73 120,220.92 120,240.58 " fill="none" id="FindClosestPortController-to-PortStore" style="stroke:#A80036;stroke-width:1.0;stroke-dasharray:7.0,7.0;"/><polygon fill="#A80036" points="120,245.73,124,236.73,120,240.73,116,236.73,120,245.73" style="stroke:#A80036;stroke-width:1.0;"/><!--MD5=[c8440d88291d09ff9b1204d56899ac6f]
link PortStore to Port--><path codeLine="43" d="M137.24,308.04 C149.8,329.93 167.33,360.48 183.27,388.26 " fill="none" id="PortStore-to-Port" style="stroke:#A80036;stroke-width:1.0;"/><polygon fill="#A80036" points="185.81,392.69,184.7969,382.8934,183.3201,388.3541,177.8594,386.8773,185.81,392.69" style="stroke:#A80036;stroke-width:1.0;"/><!--MD5=[6b4da2671412f4786b9d77d6f2672bd6]
link TrafficManager to Port--><path codeLine="44" d="M303.87,315.19 C291.89,336.27 276.52,363.31 262.41,388.15 " fill="none" id="TrafficManager-to-Port" style="stroke:#A80036;stroke-width:1.0;"/><polygon fill="#A80036" points="259.79,392.76,267.7096,386.9051,262.2569,388.4109,260.7511,382.9581,259.79,392.76" style="stroke:#A80036;stroke-width:1.0;"/><polygon fill="#000000" points="288.5297,358.5229,295.5537,352.1109,290.4433,349.2069,288.5297,358.5229" style="stroke:#000000;stroke-width:1.0;"/><text fill="#000000" font-family="sans-serif" font-size="13" lengthAdjust="spacing" textLength="141" x="300" y="359.4951">wants to find the closest</text><text fill="#000000" font-family="sans-serif" font-size="13" lengthAdjust="spacing" textLength="20" x="278.9087" y="336.1008">1..*</text><text fill="#000000" font-family="sans-serif" font-size="13" lengthAdjust="spacing" textLength="7" x="256.4311" y="382.2082">1</text><!--MD5=[81746cb93c90cbb95bfeb7ee7cddfbe5]
link Port to Ship--><path codeLine="46" d="M223,524.23 C223,546.72 223,572.38 223,596.59 " fill="none" id="Port-to-Ship" style="stroke:#A80036;stroke-width:1.0;"/><polygon fill="#A80036" points="223,601.73,227,592.73,223,596.73,219,592.73,223,601.73" style="stroke:#A80036;stroke-width:1.0;"/><text fill="#000000" font-family="sans-serif" font-size="13" lengthAdjust="spacing" textLength="21" x="224" y="568.4951">of a</text><!--MD5=[cb2d2b665caa60dc449cc3e6574ddc1a]
@startuml
'https://plantuml.com/class-diagram

class FindClosestPortUI{
}

class FindClosestPortController{
    +Port findClosestPort(callSign,dateTime)
}

class TrafficManager{
    -String name
    -String email
}

class Port{
    -String continent
    -String country
    -Integer code
    -String port
    -Double lat
    -Double lon
}

class PortStore{
    +Port getNearestPortFromPosition(position)
}

class Ship{
    -Integer mmsi
    -String vesselName
    -Integer imo
    -Integer callSign
    -VesselType type
    -Double length
    -Double width
    -Double draft
    -ShipDynamicData position
}

FindClosestPortUI ..> FindClosestPortController
FindClosestPortController ..>PortStore

PortStore- ->Port
TrafficManager "1..*" - -> "1" Port : wants to find the closest >

Port - -> Ship : of a

@enduml

@startuml

class FindClosestPortUI{
}

class FindClosestPortController{
    +Port findClosestPort(callSign,dateTime)
}

class TrafficManager{
    -String name
    -String email
}

class Port{
    -String continent
    -String country
    -Integer code
    -String port
    -Double lat
    -Double lon
}

class PortStore{
    +Port getNearestPortFromPosition(position)
}

class Ship{
    -Integer mmsi
    -String vesselName
    -Integer imo
    -Integer callSign
    -VesselType type
    -Double length
    -Double width
    -Double draft
    -ShipDynamicData position
}

FindClosestPortUI ..> FindClosestPortController
FindClosestPortController ..>PortStore

PortStore- ->Port
TrafficManager "1..*" - -> "1" Port : wants to find the closest >

Port - -> Ship : of a

@enduml

PlantUML version 1.2021.11(Sat Oct 02 14:26:11 BST 2021)
(GPL source distribution)
Java Runtime: OpenJDK Runtime Environment
JVM: OpenJDK 64-Bit Server VM
Default Encoding: Cp1252
Language: pt
Country: PT
--></g></svg>