<?xml version="1.0" encoding="UTF-8" standalone="no"?><svg xmlns="http://www.w3.org/2000/svg" xmlns:xlink="http://www.w3.org/1999/xlink" contentScriptType="application/ecmascript" contentStyleType="text/css" height="696px" preserveAspectRatio="none" style="width:389px;height:696px;background:#FFFFFF;" version="1.1" viewBox="0 0 389 696" width="389px" zoomAndPan="magnify"><defs><filter height="300%" id="f1p897fhc0s9w4" width="300%" x="-1" y="-1"><feGaussianBlur result="blurOut" stdDeviation="2.0"/><feColorMatrix in="blurOut" result="blurOut2" type="matrix" values="0 0 0 0 0 0 0 0 0 0 0 0 0 0 0 0 0 0 .4 0"/><feOffset dx="4.0" dy="4.0" in="blurOut2" result="blurOut3"/><feBlend in="SourceGraphic" in2="blurOut3" mode="normal"/></filter></defs><g><!--MD5=[02e4b9b7573f1156f41e60aa5b4e25a4]
class Company--><rect codeLine="3" fill="#FEFECE" filter="url(#f1p897fhc0s9w4)" height="61.8359" id="Company" style="stroke:#A80036;stroke-width:1.5;" width="112" x="134.5" y="7"/><ellipse cx="161.65" cy="23" fill="#ADD1B2" rx="11" ry="11" style="stroke:#A80036;stroke-width:1.0;"/><path d="M163.65,19.5 Q163.8531,19 164.0875,18.75 Q164.3219,18.5 164.5875,18.5 Q165.0563,18.5 165.3531,18.7813 Q165.65,19.0625 165.65,19.7188 L165.65,21.2813 Q165.65,21.9375 165.3688,22.2188 Q165.0875,22.5 164.65,22.5 Q164.2594,22.5 164.0094,22.3281 Q163.7594,22.1563 163.65,21.7031 Q163.6031,21.3906 163.4313,21.2188 Q163.1188,20.8906 162.5563,20.7031 Q161.9938,20.5 161.4313,20.5 Q160.7281,20.5 160.1344,20.7813 Q159.5563,21.0625 159.1031,21.6875 Q158.65,22.3125 158.65,23.1719 L158.65,24.0938 Q158.65,25.125 159.4938,25.8125 Q160.3375,26.5 161.8375,26.5 Q162.7281,26.5 163.3531,26.2969 Q163.7125,26.1875 164.1188,25.8281 Q164.3844,25.625 164.525,25.5625 Q164.6656,25.5 164.8375,25.5 Q165.1656,25.5 165.4,25.7656 Q165.65,26.0156 165.65,26.375 Q165.65,26.7188 165.3063,27.125 Q164.8063,27.7188 164.0094,28.0469 Q162.9625,28.5 161.6813,28.5 Q160.1813,28.5 158.9781,27.9063 Q158.0094,27.4375 157.3219,26.4219 Q156.65,25.4063 156.65,24.2031 L156.65,23.1094 Q156.65,21.8594 157.2438,20.7656 Q157.8531,19.6719 158.9,19.0938 Q159.9625,18.5 161.15,18.5 Q161.8688,18.5 162.4938,18.75 Q163.1188,19 163.65,19.5 Z " fill="#000000"/><text fill="#000000" font-family="sans-serif" font-size="12" lengthAdjust="spacing" textLength="53" x="178.35" y="27.9102">Company</text><line style="stroke:#A80036;stroke-width:1.5;" x1="135.5" x2="245.5" y1="39" y2="39"/><rect fill="none" height="6" style="stroke:#C82930;stroke-width:1.0;" width="6" x="142.5" y="47"/><text fill="#000000" font-family="sans-serif" font-size="11" lengthAdjust="spacing" textLength="86" x="154.5" y="54.4189">String designation</text><line style="stroke:#A80036;stroke-width:1.5;" x1="135.5" x2="245.5" y1="60.8359" y2="60.8359"/><!--MD5=[ddaf6f62b0bc30921877ec9fb9463c9f]
class TrafficManager--><rect codeLine="7" fill="#FEFECE" filter="url(#f1p897fhc0s9w4)" height="75.6719" id="TrafficManager" style="stroke:#A80036;stroke-width:1.5;" width="113" x="7" y="147"/><ellipse cx="22" cy="163" fill="#ADD1B2" rx="11" ry="11" style="stroke:#A80036;stroke-width:1.0;"/><path d="M24,159.5 Q24.2031,159 24.4375,158.75 Q24.6719,158.5 24.9375,158.5 Q25.4063,158.5 25.7031,158.7813 Q26,159.0625 26,159.7188 L26,161.2813 Q26,161.9375 25.7188,162.2188 Q25.4375,162.5 25,162.5 Q24.6094,162.5 24.3594,162.3281 Q24.1094,162.1563 24,161.7031 Q23.9531,161.3906 23.7813,161.2188 Q23.4688,160.8906 22.9063,160.7031 Q22.3438,160.5 21.7813,160.5 Q21.0781,160.5 20.4844,160.7813 Q19.9063,161.0625 19.4531,161.6875 Q19,162.3125 19,163.1719 L19,164.0938 Q19,165.125 19.8438,165.8125 Q20.6875,166.5 22.1875,166.5 Q23.0781,166.5 23.7031,166.2969 Q24.0625,166.1875 24.4688,165.8281 Q24.7344,165.625 24.875,165.5625 Q25.0156,165.5 25.1875,165.5 Q25.5156,165.5 25.75,165.7656 Q26,166.0156 26,166.375 Q26,166.7188 25.6563,167.125 Q25.1563,167.7188 24.3594,168.0469 Q23.3125,168.5 22.0313,168.5 Q20.5313,168.5 19.3281,167.9063 Q18.3594,167.4375 17.6719,166.4219 Q17,165.4063 17,164.2031 L17,163.1094 Q17,161.8594 17.5938,160.7656 Q18.2031,159.6719 19.25,159.0938 Q20.3125,158.5 21.5,158.5 Q22.2188,158.5 22.8438,158.75 Q23.4688,159 24,159.5 Z " fill="#000000"/><text fill="#000000" font-family="sans-serif" font-size="12" lengthAdjust="spacing" textLength="81" x="36" y="167.9102">TrafficManager</text><line style="stroke:#A80036;stroke-width:1.5;" x1="8" x2="119" y1="179" y2="179"/><rect fill="none" height="6" style="stroke:#C82930;stroke-width:1.0;" width="6" x="15" y="187"/><text fill="#000000" font-family="sans-serif" font-size="11" lengthAdjust="spacing" textLength="57" x="27" y="194.4189">String name</text><rect fill="none" height="6" style="stroke:#C82930;stroke-width:1.0;" width="6" x="15" y="200.8359"/><text fill="#000000" font-family="sans-serif" font-size="11" lengthAdjust="spacing" textLength="55" x="27" y="208.2549">String email</text><line style="stroke:#A80036;stroke-width:1.5;" x1="8" x2="119" y1="214.6719" y2="214.6719"/><!--MD5=[a0bfe97ac0a38e6e74cc1c7c7b744b71]
class Port--><rect codeLine="12" fill="#FEFECE" filter="url(#f1p897fhc0s9w4)" height="131.0156" id="Port" style="stroke:#A80036;stroke-width:1.5;" width="101" x="121" y="301"/><ellipse cx="157.15" cy="317" fill="#ADD1B2" rx="11" ry="11" style="stroke:#A80036;stroke-width:1.0;"/><path d="M159.15,313.5 Q159.3531,313 159.5875,312.75 Q159.8219,312.5 160.0875,312.5 Q160.5563,312.5 160.8531,312.7813 Q161.15,313.0625 161.15,313.7188 L161.15,315.2813 Q161.15,315.9375 160.8688,316.2188 Q160.5875,316.5 160.15,316.5 Q159.7594,316.5 159.5094,316.3281 Q159.2594,316.1563 159.15,315.7031 Q159.1031,315.3906 158.9313,315.2188 Q158.6188,314.8906 158.0563,314.7031 Q157.4938,314.5 156.9313,314.5 Q156.2281,314.5 155.6344,314.7813 Q155.0563,315.0625 154.6031,315.6875 Q154.15,316.3125 154.15,317.1719 L154.15,318.0938 Q154.15,319.125 154.9938,319.8125 Q155.8375,320.5 157.3375,320.5 Q158.2281,320.5 158.8531,320.2969 Q159.2125,320.1875 159.6188,319.8281 Q159.8844,319.625 160.025,319.5625 Q160.1656,319.5 160.3375,319.5 Q160.6656,319.5 160.9,319.7656 Q161.15,320.0156 161.15,320.375 Q161.15,320.7188 160.8063,321.125 Q160.3063,321.7188 159.5094,322.0469 Q158.4625,322.5 157.1813,322.5 Q155.6813,322.5 154.4781,321.9063 Q153.5094,321.4375 152.8219,320.4219 Q152.15,319.4063 152.15,318.2031 L152.15,317.1094 Q152.15,315.8594 152.7438,314.7656 Q153.3531,313.6719 154.4,313.0938 Q155.4625,312.5 156.65,312.5 Q157.3688,312.5 157.9938,312.75 Q158.6188,313 159.15,313.5 Z " fill="#000000"/><text fill="#000000" font-family="sans-serif" font-size="12" lengthAdjust="spacing" textLength="22" x="175.85" y="321.9102">Port</text><line style="stroke:#A80036;stroke-width:1.5;" x1="122" x2="221" y1="333" y2="333"/><rect fill="none" height="6" style="stroke:#C82930;stroke-width:1.0;" width="6" x="129" y="341"/><text fill="#000000" font-family="sans-serif" font-size="11" lengthAdjust="spacing" textLength="75" x="141" y="348.4189">String continent</text><rect fill="none" height="6" style="stroke:#C82930;stroke-width:1.0;" width="6" x="129" y="354.8359"/><text fill="#000000" font-family="sans-serif" font-size="11" lengthAdjust="spacing" textLength="68" x="141" y="362.2549">String country</text><rect fill="none" height="6" style="stroke:#C82930;stroke-width:1.0;" width="6" x="129" y="368.6719"/><text fill="#000000" font-family="sans-serif" font-size="11" lengthAdjust="spacing" textLength="60" x="141" y="376.0908">Integer code</text><rect fill="none" height="6" style="stroke:#C82930;stroke-width:1.0;" width="6" x="129" y="382.5078"/><text fill="#000000" font-family="sans-serif" font-size="11" lengthAdjust="spacing" textLength="50" x="141" y="389.9268">String port</text><rect fill="none" height="6" style="stroke:#C82930;stroke-width:1.0;" width="6" x="129" y="396.3438"/><text fill="#000000" font-family="sans-serif" font-size="11" lengthAdjust="spacing" textLength="47" x="141" y="403.7627">Double lat</text><rect fill="none" height="6" style="stroke:#C82930;stroke-width:1.0;" width="6" x="129" y="410.1797"/><text fill="#000000" font-family="sans-serif" font-size="11" lengthAdjust="spacing" textLength="50" x="141" y="417.5986">Double lon</text><line style="stroke:#A80036;stroke-width:1.5;" x1="122" x2="221" y1="424.0156" y2="424.0156"/><!--MD5=[0dc7f2ddb409b58bcf52b12238c25399]
class Ship--><rect codeLine="21" fill="#FEFECE" filter="url(#f1p897fhc0s9w4)" height="172.5234" id="Ship" style="stroke:#A80036;stroke-width:1.5;" width="150" x="96.5" y="510"/><ellipse cx="154.75" cy="526" fill="#ADD1B2" rx="11" ry="11" style="stroke:#A80036;stroke-width:1.0;"/><path d="M156.75,522.5 Q156.9531,522 157.1875,521.75 Q157.4219,521.5 157.6875,521.5 Q158.1563,521.5 158.4531,521.7813 Q158.75,522.0625 158.75,522.7188 L158.75,524.2813 Q158.75,524.9375 158.4688,525.2188 Q158.1875,525.5 157.75,525.5 Q157.3594,525.5 157.1094,525.3281 Q156.8594,525.1563 156.75,524.7031 Q156.7031,524.3906 156.5313,524.2188 Q156.2188,523.8906 155.6563,523.7031 Q155.0938,523.5 154.5313,523.5 Q153.8281,523.5 153.2344,523.7813 Q152.6563,524.0625 152.2031,524.6875 Q151.75,525.3125 151.75,526.1719 L151.75,527.0938 Q151.75,528.125 152.5938,528.8125 Q153.4375,529.5 154.9375,529.5 Q155.8281,529.5 156.4531,529.2969 Q156.8125,529.1875 157.2188,528.8281 Q157.4844,528.625 157.625,528.5625 Q157.7656,528.5 157.9375,528.5 Q158.2656,528.5 158.5,528.7656 Q158.75,529.0156 158.75,529.375 Q158.75,529.7188 158.4063,530.125 Q157.9063,530.7188 157.1094,531.0469 Q156.0625,531.5 154.7813,531.5 Q153.2813,531.5 152.0781,530.9063 Q151.1094,530.4375 150.4219,529.4219 Q149.75,528.4063 149.75,527.2031 L149.75,526.1094 Q149.75,524.8594 150.3438,523.7656 Q150.9531,522.6719 152,522.0938 Q153.0625,521.5 154.25,521.5 Q154.9688,521.5 155.5938,521.75 Q156.2188,522 156.75,522.5 Z " fill="#000000"/><text fill="#000000" font-family="sans-serif" font-size="12" lengthAdjust="spacing" textLength="25" x="175.25" y="530.9102">Ship</text><line style="stroke:#A80036;stroke-width:1.5;" x1="97.5" x2="245.5" y1="542" y2="542"/><rect fill="none" height="6" style="stroke:#C82930;stroke-width:1.0;" width="6" x="104.5" y="550"/><text fill="#000000" font-family="sans-serif" font-size="11" lengthAdjust="spacing" textLength="60" x="116.5" y="557.4189">Integer mmsi</text><rect fill="none" height="6" style="stroke:#C82930;stroke-width:1.0;" width="6" x="104.5" y="563.8359"/><text fill="#000000" font-family="sans-serif" font-size="11" lengthAdjust="spacing" textLength="90" x="116.5" y="571.2549">String vesselName</text><rect fill="none" height="6" style="stroke:#C82930;stroke-width:1.0;" width="6" x="104.5" y="577.6719"/><text fill="#000000" font-family="sans-serif" font-size="11" lengthAdjust="spacing" textLength="52" x="116.5" y="585.0908">Integer imo</text><rect fill="none" height="6" style="stroke:#C82930;stroke-width:1.0;" width="6" x="104.5" y="591.5078"/><text fill="#000000" font-family="sans-serif" font-size="11" lengthAdjust="spacing" textLength="73" x="116.5" y="598.9268">Integer callSign</text><rect fill="none" height="6" style="stroke:#C82930;stroke-width:1.0;" width="6" x="104.5" y="605.3438"/><text fill="#000000" font-family="sans-serif" font-size="11" lengthAdjust="spacing" textLength="82" x="116.5" y="612.7627">VesselType type</text><rect fill="none" height="6" style="stroke:#C82930;stroke-width:1.0;" width="6" x="104.5" y="619.1797"/><text fill="#000000" font-family="sans-serif" font-size="11" lengthAdjust="spacing" textLength="65" x="116.5" y="626.5986">Double length</text><rect fill="none" height="6" style="stroke:#C82930;stroke-width:1.0;" width="6" x="104.5" y="633.0156"/><text fill="#000000" font-family="sans-serif" font-size="11" lengthAdjust="spacing" textLength="63" x="116.5" y="640.4346">Double width</text><rect fill="none" height="6" style="stroke:#C82930;stroke-width:1.0;" width="6" x="104.5" y="646.8516"/><text fill="#000000" font-family="sans-serif" font-size="11" lengthAdjust="spacing" textLength="59" x="116.5" y="654.2705">Double draft</text><rect fill="none" height="6" style="stroke:#C82930;stroke-width:1.0;" width="6" x="104.5" y="660.6875"/><text fill="#000000" font-family="sans-serif" font-size="11" lengthAdjust="spacing" textLength="124" x="116.5" y="668.1064">ShipDynamicData position</text><line style="stroke:#A80036;stroke-width:1.5;" x1="97.5" x2="245.5" y1="674.5234" y2="674.5234"/><!--MD5=[683ea96df93176af8455607a7c1d2a32]
link Company to TrafficManager--><path codeLine="33" d="M134.29,52.43 C109.55,61.37 82.72,75.88 67.5,99 C59.4,111.31 57,126.93 57.1,141.42 " fill="none" id="Company-to-TrafficManager" style="stroke:#A80036;stroke-width:1.0;"/><polygon fill="#A80036" points="57.24,146.69,61.0073,137.5902,57.1115,141.6917,53.01,137.7958,57.24,146.69" style="stroke:#A80036;stroke-width:1.0;"/><polygon fill="#000000" points="69.2238,111.9529,77.3706,107.0458,72.9304,103.1943,69.2238,111.9529" style="stroke:#000000;stroke-width:1.0;"/><text fill="#000000" font-family="sans-serif" font-size="13" lengthAdjust="spacing" textLength="82" x="81.5" y="113.4951">has registered</text><text fill="#000000" font-family="sans-serif" font-size="13" lengthAdjust="spacing" textLength="7" x="119.6397" y="50.782">1</text><text fill="#000000" font-family="sans-serif" font-size="13" lengthAdjust="spacing" textLength="20" x="34.4453" y="136.284">1..*</text><!--MD5=[5fd98a8c03cc0e5a408f548eb1c0ace8]
link Company to Port--><path codeLine="34" d="M188.75,69.13 C185.77,120.31 179.65,225.52 175.56,295.8 " fill="none" id="Company-to-Port" style="stroke:#A80036;stroke-width:1.0;"/><polygon fill="#A80036" points="175.27,300.8,179.7784,292.0436,175.5561,295.8082,171.7915,291.5859,175.27,300.8" style="stroke:#A80036;stroke-width:1.0;"/><polygon fill="#000000" points="189.2095,190.1673,192.669,181.3083,186.801,180.9668,189.2095,190.1673" style="stroke:#000000;stroke-width:1.0;"/><text fill="#000000" font-family="sans-serif" font-size="13" lengthAdjust="spacing" textLength="82" x="198.5" y="190.4951">has registered</text><text fill="#000000" font-family="sans-serif" font-size="13" lengthAdjust="spacing" textLength="7" x="180.7164" y="90.3796">1</text><text fill="#000000" font-family="sans-serif" font-size="13" lengthAdjust="spacing" textLength="5" x="170.4089" y="290.2526">*</text><!--MD5=[37a14a5de6d6fd738aee271300f4b5c8]
link Company to Ship--><path codeLine="35" d="M229.87,69.11 C251.98,88.6 277.47,116.06 289.5,147 C301.75,178.48 293.46,189.45 289.5,223 C278.31,317.85 269.04,341.17 239.5,432 C231.65,456.12 221.8,481.67 212.05,505.23 " fill="none" id="Company-to-Ship" style="stroke:#A80036;stroke-width:1.0;"/><polygon fill="#A80036" points="210.11,509.92,217.2534,503.1398,212.026,505.3017,209.8641,500.0742,210.11,509.92" style="stroke:#A80036;stroke-width:1.0;"/><polygon fill="#000000" points="290.2959,267.1716,293.6016,258.2541,287.7287,258.0141,290.2959,267.1716" style="stroke:#000000;stroke-width:1.0;"/><text fill="#000000" font-family="sans-serif" font-size="13" lengthAdjust="spacing" textLength="82" x="299.5" y="267.4951">has registered</text><text fill="#000000" font-family="sans-serif" font-size="13" lengthAdjust="spacing" textLength="7" x="229.9319" y="90.3557">1</text><text fill="#000000" font-family="sans-serif" font-size="13" lengthAdjust="spacing" textLength="20" x="192.6581" y="499.0285">0..*</text><!--MD5=[6b4da2671412f4786b9d77d6f2672bd6]
link TrafficManager to Port--><path codeLine="37" d="M55.68,223.01 C54.14,238.48 54.72,256.24 61.5,271 C73.12,296.31 95.24,317.39 116.62,333.17 " fill="none" id="TrafficManager-to-Port" style="stroke:#A80036;stroke-width:1.0;"/><polygon fill="#A80036" points="120.88,336.26,115.9379,327.7409,116.8308,333.3268,111.2448,334.2196,120.88,336.26" style="stroke:#A80036;stroke-width:1.0;"/><polygon fill="#000000" points="68.9203,266.5509,67.1136,257.2136,61.9703,260.0588,68.9203,266.5509" style="stroke:#000000;stroke-width:1.0;"/><text fill="#000000" font-family="sans-serif" font-size="13" lengthAdjust="spacing" textLength="88" x="75.5" y="267.4951">find the closest</text><text fill="#000000" font-family="sans-serif" font-size="13" lengthAdjust="spacing" textLength="20" x="56.0411" y="244.1818">1..*</text><text fill="#000000" font-family="sans-serif" font-size="13" lengthAdjust="spacing" textLength="20" x="93.1131" y="328.8771">0..*</text><!--MD5=[40e2b5717560220ad35e84810a8f1b44]
link TrafficManager to Ship--><path codeLine="38" d="M51.14,223.01 C36.75,272.2 17.91,361.13 42.5,432 C53.24,462.96 72.56,492.5 93.02,517.74 " fill="none" id="TrafficManager-to-Ship" style="stroke:#A80036;stroke-width:1.0;"/><polygon fill="#A80036" points="96.31,521.75,93.6838,512.2577,93.1345,517.8879,87.5043,517.3386,96.31,521.75" style="stroke:#A80036;stroke-width:1.0;"/><polygon fill="#000000" points="48.2034,371.6261,49.8406,362.2575,44.0212,363.0844,48.2034,371.6261" style="stroke:#000000;stroke-width:1.0;"/><text fill="#000000" font-family="sans-serif" font-size="13" lengthAdjust="spacing" textLength="46" x="56.5" y="371.9951">manage</text><text fill="#000000" font-family="sans-serif" font-size="13" lengthAdjust="spacing" textLength="20" x="27.4366" y="244.1818">1..*</text><text fill="#000000" font-family="sans-serif" font-size="13" lengthAdjust="spacing" textLength="20" x="68.4565" y="511.6548">0..*</text><!--MD5=[81746cb93c90cbb95bfeb7ee7cddfbe5]
link Port to Ship--><path codeLine="40" d="M171.5,432.23 C171.5,454.72 171.5,480.38 171.5,504.59 " fill="none" id="Port-to-Ship" style="stroke:#A80036;stroke-width:1.0;"/><polygon fill="#A80036" points="171.5,509.73,175.5,500.73,171.5,504.73,167.5,500.73,171.5,509.73" style="stroke:#A80036;stroke-width:1.0;"/><text fill="#000000" font-family="sans-serif" font-size="13" lengthAdjust="spacing" textLength="21" x="172.5" y="476.4951">of a</text><text fill="#000000" font-family="sans-serif" font-size="13" lengthAdjust="spacing" textLength="7" x="164.1391" y="453.3458">1</text><text fill="#000000" font-family="sans-serif" font-size="13" lengthAdjust="spacing" textLength="20" x="150.6406" y="499.1164">1..*</text><!--MD5=[330472c46408ad2bb76a05ada260d60a]
@startuml
'https://plantuml.com/class-diagram

class Company{
    -String designation
}

class TrafficManager{
    -String name
    -String email
}

class Port{
    -String continent
    -String country
    -Integer code
    -String port
    -Double lat
    -Double lon
}

class Ship{
    -Integer mmsi
    -String vesselName
    -Integer imo
    -Integer callSign
    -VesselType type
    -Double length
    -Double width
    -Double draft
    -ShipDynamicData position
}

Company "1" - -> "1..*" TrafficManager : has registered >
Company "1" - -> "*" Port : has registered >
Company "1" - -> "0..*" Ship : has registered >

TrafficManager "1..*" - -> "0..*" Port : find the closest >
TrafficManager "1..*" - -> "0..*" Ship : manage >

Port "1" - -> "1..*" Ship : of a



@enduml

@startuml

class Company{
    -String designation
}

class TrafficManager{
    -String name
    -String email
}

class Port{
    -String continent
    -String country
    -Integer code
    -String port
    -Double lat
    -Double lon
}

class Ship{
    -Integer mmsi
    -String vesselName
    -Integer imo
    -Integer callSign
    -VesselType type
    -Double length
    -Double width
    -Double draft
    -ShipDynamicData position
}

Company "1" - -> "1..*" TrafficManager : has registered >
Company "1" - -> "*" Port : has registered >
Company "1" - -> "0..*" Ship : has registered >

TrafficManager "1..*" - -> "0..*" Port : find the closest >
TrafficManager "1..*" - -> "0..*" Ship : manage >

Port "1" - -> "1..*" Ship : of a



@enduml

PlantUML version 1.2021.11(Sat Oct 02 14:26:11 BST 2021)
(GPL source distribution)
Java Runtime: OpenJDK Runtime Environment
JVM: OpenJDK 64-Bit Server VM
Default Encoding: Cp1252
Language: pt
Country: PT
--></g></svg>